<?xml version="1.0" encoding="UTF-8"?><svg version="1.1" width="280px" height="280px" viewBox="0 0 280.0 280.0" xmlns="http://www.w3.org/2000/svg" xmlns:xlink="http://www.w3.org/1999/xlink"><defs><clipPath id="i0"><path d="M37.7746585,6.77437505 C46.8066585,-2.25662495 61.5056585,-2.25962495 70.5406585,6.77437505 L71.9356585,8.16937505 C74.5146585,6.22437505 78.1966585,6.39737505 80.5486585,8.74637505 L85.4076585,13.607375 C86.6536585,14.851375 87.3406585,16.507375 87.3406585,18.268375 C87.3406585,19.525375 86.9756585,20.723375 86.3216585,21.762375 C92.3856585,26.442375 95.8666585,33.509375 95.8666585,41.165375 C95.8666585,54.676375 84.8746585,65.668375 71.3626585,65.668375 C71.0936585,65.668375 70.8316585,65.632375 70.5646585,65.623375 C74.2146585,68.444375 77.8216585,72.663375 80.5906585,78.969375 C80.6142399,79.024096 80.7677932,79.3903107 80.9775941,80.0076692 L81.0781507,80.3102168 C81.5635477,81.8032739 82.2572632,84.4183285 82.4226585,87.552375 C87.3436585,89.264375 90.7336585,94.099375 90.3666585,99.542375 C90.2886585,100.680375 90.0976585,102.046375 89.5926585,103.422375 C89.9406585,103.393375 90.2896585,103.364375 90.6426585,103.364375 C97.4106585,103.364375 102.916659,108.871375 102.916659,115.640375 C102.916659,116.454375 102.833659,117.265375 102.676659,118.054375 L102.676659,118.065375 L96.3896585,153.590375 L97.8626585,153.590375 L96.2486585,162.576375 C96.1676585,162.931375 96.1376585,163.208375 96.1376585,163.486375 C96.1376585,165.476375 97.7566585,167.095375 99.7486585,167.095375 L101.824659,167.095375 C109.471659,167.095375 115.692659,173.317375 115.692659,180.964375 L115.692659,183.022375 C124.376659,183.534375 132.577659,184.241375 140.175659,185.060375 C140.291659,184.051375 140.405659,183.052375 140.517659,182.068375 C140.439659,181.826375 140.401659,181.570375 140.435659,181.302375 C143.634659,155.743375 136.367659,143.555375 132.402659,138.965375 C132.114659,139.753375 131.708659,140.499375 131.182659,141.167375 C129.595659,143.184375 127.228659,144.239375 124.840659,144.239375 C123.095659,144.239375 121.337659,143.677375 119.863659,142.514375 C119.605659,142.346375 111.129659,136.424375 110.624659,120.579375 L110.576659,119.076375 L112.048659,118.771375 C127.567659,115.541375 135.314659,122.396375 135.636659,122.689375 C139.030659,125.356375 139.634659,130.435375 136.885659,133.926375 C136.234659,134.753375 135.422659,135.417375 134.526659,135.928375 C137.105659,138.650375 141.018659,144.122375 143.202659,153.663375 C144.205659,136.466375 143.076659,123.788375 137.714659,111.412375 C136.942659,111.991375 136.080659,112.449375 135.141659,112.720375 C134.401659,112.932375 133.654659,113.033375 132.919659,113.033375 C129.414659,113.033375 126.180659,110.729375 125.165659,107.199375 C125.056659,106.911375 121.636659,97.154375 130.485659,83.999375 L131.324659,82.752375 L132.697659,83.362375 C147.180659,89.814375 149.462659,99.899375 149.551659,100.326375 C150.747659,104.473375 148.269659,108.947375 143.997659,110.174375 C143.070659,110.439375 142.114659,110.515375 141.171659,110.446375 C144.168659,117.509375 145.852659,124.746375 146.610659,132.522375 C148.646659,129.067375 151.346659,126.723375 153.501659,125.251375 C152.902659,124.836375 152.349659,124.352375 151.880659,123.784375 C150.510659,122.122375 149.869659,120.027375 150.074659,117.884375 C150.280659,115.740375 151.307659,113.807375 152.969659,112.436375 C153.188659,112.221375 160.783659,105.198375 176.365659,108.067375 L177.843659,108.339375 L177.831659,109.843375 C177.686659,125.698375 169.347659,131.809375 168.991659,132.062375 C167.625659,133.193375 165.845659,133.827375 163.983659,133.827375 C163.721659,133.827375 163.457659,133.815375 163.193659,133.789375 C161.049659,133.582375 159.115659,132.555375 157.745659,130.893375 C156.987659,129.974375 156.460659,128.904375 156.166659,127.775375 C152.890659,129.835375 147.212659,134.715375 147.212659,143.866375 C147.212659,144.031375 147.160659,144.179375 147.118659,144.330375 C147.057659,156.208375 145.560659,169.557375 143.731659,185.457375 C155.126659,186.767375 165.074659,188.295375 173.090659,189.714375 C174.063659,189.888375 174.712659,190.816375 174.540659,191.788375 C174.367659,192.760375 173.434659,193.404375 172.467659,193.239375 C153.164659,189.821375 122.718659,185.746375 87.3006585,185.746375 C51.8576585,185.746375 21.4056585,189.824375 2.10165854,193.245375 C1.99565854,193.263375 1.89065854,193.272375 1.78665854,193.272375 C0.936658536,193.272375 0.181658536,192.661375 0.0276585356,191.794375 C-0.144341464,190.822375 0.503658536,189.894375 1.47665854,189.720375 C8.83265854,188.417375 17.7996585,187.020375 28.0326585,185.785375 C26.0056585,184.962375 24.1456585,183.739375 22.5546585,182.148375 L11.7476585,171.204375 C11.0856585,170.534375 11.0576585,169.465375 11.6836585,168.760375 L21.7086585,157.481375 C15.5876585,153.255375 11.3126585,146.543375 10.3656585,138.658375 C4.35165854,135.238375 4.22865854,129.507375 5.13465854,126.720375 L23.0076585,80.707375 C27.2726585,67.635375 33.0116585,60.008375 49.5786585,60.008375 L49.7106585,60.008375 L54.2836585,59.971375 C54.2926585,59.972375 54.8136585,59.941375 55.7006585,59.985375 C54.4276585,58.921375 53.2376585,57.739375 52.1796585,56.409375 C52.0296585,56.221375 51.9276585,56.011375 51.8646585,55.794375 C51.0366585,56.148375 50.1546585,56.336375 49.2676585,56.336375 C47.5796585,56.336375 45.8936585,55.694375 44.6076585,54.410375 L39.7466585,49.549375 C38.5016585,48.305375 37.8156585,46.649375 37.8156585,44.890375 C37.8156585,43.437375 38.3056585,42.071375 39.1676585,40.934375 L37.7746585,39.541375 C33.3986585,35.164375 30.9886585,29.346375 30.9886585,23.158375 C30.9886585,16.969375 33.3986585,11.151375 37.7746585,6.77437505 Z M24.8266585,159.358375 L15.4706585,169.884375 L25.0926585,179.626375 C27.5406585,182.073375 30.8046585,183.425375 34.2776585,183.425375 L55.2716585,183.149375 L55.2716585,181.220375 C55.2716585,176.024375 51.4116585,171.652375 46.2756585,171.010375 L42.3966585,171.010375 C41.6916585,171.010375 41.0536585,170.597375 40.7646585,169.954375 C40.4756585,169.313375 40.5906585,168.561375 41.0566585,168.034375 L48.5006585,159.631375 C44.8956585,161.346375 40.9516585,162.238375 36.9676585,162.238375 C32.6036585,162.238375 28.4776585,161.202375 24.8266585,159.358375 Z M70.7466585,146.616375 L58.1556585,154.047375 C58.1056585,154.125375 58.0816585,154.212375 58.0186585,154.283375 L46.3706585,167.431375 L46.3826585,167.431375 C46.4516585,167.431375 46.5206585,167.435375 46.5886585,167.443375 C53.5786585,168.251375 58.8496585,174.172375 58.8496585,181.220375 L58.8496585,183.025375 C60.1636585,182.947375 61.4826585,182.872375 62.8186585,182.804375 L67.9196585,153.590375 L69.5456585,153.590375 L70.7466585,146.616375 Z M93.5856585,157.169375 L70.9276585,157.169375 L66.4806585,182.631375 C73.1886585,182.339375 80.1376585,182.167375 87.3006585,182.167375 C95.8946585,182.167375 104.188659,182.410375 112.113659,182.820375 L112.113659,180.964375 C112.113659,175.291375 107.498659,170.674375 101.824659,170.674375 L99.7486585,170.674375 C95.7836585,170.674375 92.5586585,167.449375 92.5586585,163.486375 C92.5586585,162.937375 92.6216585,162.389375 92.7456585,161.856375 L93.5856585,157.169375 Z M90.6426585,106.943375 C89.3726585,106.943375 88.1516585,107.215375 87.0106585,107.741375 L72.4966585,115.960375 L70.2476585,117.282375 L69.6306585,116.193375 L48.8526585,126.426375 C48.8436585,126.430375 48.8336585,126.432375 48.8236585,126.436375 C47.2176585,127.284375 45.4116585,127.738375 43.5876585,127.738375 C42.7326585,127.738375 41.9036585,127.633375 41.1036585,127.451375 C23.2516585,125.557375 14.8806585,138.374375 14.5326585,138.922375 L14.1146585,139.581375 C16.0846585,150.575375 25.5986585,158.659375 36.9676585,158.659375 C40.8956585,158.659375 44.7766585,157.661375 48.1926585,155.773375 L75.5836585,139.607375 L73.1756585,153.590375 L92.7546585,153.590375 L99.1526585,117.442375 C99.1546585,117.433375 99.1596585,117.427375 99.1616585,117.419375 L99.1616585,117.395375 C99.2786585,116.824375 99.3376585,116.233375 99.3376585,115.640375 C99.3376585,110.844375 95.4366585,106.943375 90.6426585,106.943375 Z M133.324659,125.417375 C132.976659,125.113375 126.889659,119.856375 114.278659,121.991375 C115.162659,134.741375 121.694659,139.434375 121.983659,139.634375 C124.015659,141.232375 126.842659,140.897375 128.372659,138.954375 C129.136659,137.983375 129.463659,136.716375 129.268659,135.480375 L128.966659,133.564375 L130.898659,133.417375 C132.158659,133.321375 133.285659,132.715375 134.075659,131.712375 C135.603659,129.771375 135.267659,126.947375 133.324659,125.417375 Z M77.3076585,80.389375 C69.4756585,62.561375 54.5916585,63.5317351 54.4406585,63.544375 L49.7206585,63.587375 C49.6716585,63.585375 49.6206585,63.585375 49.5716585,63.585375 C36.3806585,63.585375 30.9546585,67.887375 26.3756585,81.910375 L8.50365854,127.921375 C8.37065854,128.369375 7.15165854,132.938375 12.4256585,135.727375 C14.8756585,132.563375 22.2236585,124.707375 35.0566585,123.784375 C33.3876585,121.826375 32.3746585,119.294375 32.3746585,116.526375 C32.3746585,115.289375 32.5756585,114.072375 32.9716585,112.907375 L32.9796585,112.893375 C32.9946585,112.847375 32.9866585,112.800375 33.0056585,112.754375 L46.3996585,79.024375 C46.7656585,78.108375 47.8036585,77.654375 48.7226585,78.023375 C49.6406585,78.387375 50.0896585,79.426375 49.7246585,80.345375 L36.3696585,113.976375 C36.3616585,114.003375 36.3686585,114.031375 36.3596585,114.059375 C36.0886585,114.852375 35.9526585,115.683375 35.9526585,116.526375 C35.9526585,120.735375 39.3766585,124.159375 43.5876585,124.159375 C44.8526585,124.159375 46.1066585,123.845375 47.2126585,123.248375 C47.2226585,123.242375 47.2346585,123.243375 47.2456585,123.238375 C47.2556585,123.232375 47.2616585,123.223375 47.2716585,123.217375 L67.8646585,113.075375 L61.2116585,101.326375 L50.9746585,107.600375 C50.6826585,107.779375 50.3596585,107.864375 50.0406585,107.864375 C49.4396585,107.864375 48.8516585,107.560375 48.5146585,107.009375 C47.9976585,106.167375 48.2626585,105.066375 49.1046585,104.549375 L55.9776585,100.337375 L64.4416585,79.024375 C64.8066585,78.108375 65.8446585,77.654375 66.7636585,78.023375 C67.6826585,78.387375 68.1316585,79.426375 67.7666585,80.345375 L62.0366585,94.775375 L70.5286585,89.714375 L72.5056585,88.530375 C74.4116585,87.403375 76.5656585,86.866375 78.7876585,86.915375 C78.4556585,83.153375 77.3206585,80.422375 77.3076585,80.389375 Z M169.103659,110.952375 C159.942659,110.952375 155.553659,114.914375 155.333659,115.118375 C154.321659,115.958375 153.750659,117.033375 153.634659,118.226375 C153.521659,119.418375 153.878659,120.583375 154.639659,121.507375 C155.438659,122.473375 156.577659,123.047375 157.848659,123.122375 L159.782659,123.236375 L159.515659,125.156375 C159.342659,126.403375 159.693659,127.633375 160.505659,128.618375 C162.078659,130.524375 164.912659,130.793375 166.817659,129.224375 C167.189659,128.947375 173.617659,124.106375 174.211659,111.337375 C172.366659,111.068375 170.665659,110.952375 169.103659,110.952375 Z M79.0946585,90.481375 C77.4966585,90.375375 75.9136585,90.725375 74.5206585,91.500375 L63.4836585,98.078375 L71.3476585,111.964375 C71.5106585,112.022375 71.6556585,112.119375 71.7956585,112.221375 L84.0806585,105.002375 C85.7896585,103.856375 86.6006585,102.189375 86.7966585,99.301375 C87.1046585,94.746375 83.6486585,90.789375 79.0946585,90.481375 Z M132.624659,87.279375 C125.891659,98.143375 128.451659,105.769375 128.568659,106.100375 C129.288659,108.585375 131.773659,109.959375 134.152659,109.281375 C135.340659,108.939375 136.346659,108.101375 136.911659,106.983375 L137.784659,105.253375 L139.439659,106.263375 C140.519659,106.921375 141.786659,107.086375 143.010659,106.735375 C145.386659,106.053375 146.764659,103.565375 146.082659,101.189375 C145.977659,100.738375 144.099659,92.911375 132.624659,87.279375 Z M83.9456585,24.390375 L54.5316585,53.805375 C54.6936585,53.909375 54.8526585,54.023375 54.9786585,54.182375 C58.9776585,59.207375 64.9496585,62.089375 71.3626585,62.089375 C82.9016585,62.089375 92.2876585,52.702375 92.2876585,41.165375 C92.2876585,34.604375 89.2986585,28.549375 84.0846585,24.549375 C84.0266585,24.504375 83.9976585,24.440375 83.9456585,24.390375 Z M75.8876585,10.396375 C75.1176585,10.396375 74.3456585,10.689375 73.7596585,11.277375 L42.2766585,42.760375 C41.7076585,43.328375 41.3936585,44.085375 41.3936585,44.890375 C41.3936585,45.693375 41.7076585,46.450375 42.2766585,47.018375 L47.1376585,51.879375 C48.3126585,53.056375 50.2236585,53.056375 51.3976585,51.879375 L82.8786585,20.397375 C83.4486585,19.829375 83.7626585,19.073375 83.7626585,18.268375 C83.7626585,17.462375 83.4486585,16.706375 82.8806585,16.138375 L78.0176585,11.277375 C77.4316585,10.689375 76.6596585,10.396375 75.8876585,10.396375 Z M68.0116585,9.30537505 C60.3716585,1.66737505 47.9436585,1.66737505 40.3046585,9.30537505 C36.6036585,13.004375 34.5656585,17.924375 34.5656585,23.158375 C34.5656585,28.391375 36.6036585,33.311375 40.3046585,37.010375 L41.6356585,38.341375 L69.3406585,10.634375 Z"></path></clipPath><clipPath id="i1"><path d="M13.939,0 C14.927,0 15.727,0.801 15.727,1.789 L15.727,9.617 L21.846,3.499 C22.544,2.8 23.677,2.8 24.376,3.499 C25.074,4.197 25.074,5.33 24.376,6.029 L6.032,24.373 C5.683,24.723 5.225,24.897 4.767,24.897 C4.309,24.897 3.852,24.723 3.503,24.373 C2.804,23.674 2.804,22.541 3.503,21.842 L9.62,15.725 L1.789,15.725 C0.801,15.725 0,14.923 0,13.936 C0,12.948 0.801,12.146 1.789,12.146 L9.619,12.146 L3.503,6.029 C2.804,5.33 2.804,4.197 3.503,3.499 C4.201,2.8 5.335,2.8 6.032,3.499 L12.15,9.617 L12.15,1.789 C12.15,0.801 12.951,0 13.939,0 Z"></path></clipPath></defs><g transform="translate(52.633741464444086 36.67002495329368)"><g clip-path="url(#i0)"><polygon points="-6.62098152e-18,-1.44884761e-14 177.843659,-1.44884761e-14 177.843659,193.272375 -6.62098152e-18,193.272375 -6.62098152e-18,-1.44884761e-14" stroke="none" fill="#FFFFFF"></polygon></g></g><g transform="translate(72.65720000000002 25.69749999999999)"><g clip-path="url(#i1)"><polygon points="0,0 24.8995,0 24.8995,24.897 0,24.897 0,0" stroke="none" fill="#FFFFFF"></polygon></g></g></svg>