<?xml version="1.0" encoding="UTF-8"?><svg version="1.1" width="30px" height="30px" viewBox="0 0 30.0 30.0" xmlns="http://www.w3.org/2000/svg" xmlns:xlink="http://www.w3.org/1999/xlink"><defs><clipPath id="i0"><path d="M29.434,0 L29.434,29.4339 L0,29.4339 L0,0 L29.434,0 Z"></path></clipPath><clipPath id="i1"><path d="M14.717,0 C22.845,0 29.434,6.589 29.434,14.717 C29.434,22.845 22.845,29.434 14.717,29.434 C6.589,29.434 0,22.845 0,14.717 C0,6.589 6.589,0 14.717,0 Z"></path></clipPath></defs><g clip-path="url(#i0)"><g transform="translate(0.0 -9.999999999976694e-05)"><g clip-path="url(#i1)"><polygon points="0,0.0001 29.434,0.0001 29.434,29.434 0,29.434 0,0.0001" stroke="none" fill="#E2D6BD"></polygon></g></g></g><g transform="translate(5.788600000000002 5.7562999999999995)"><path d="M17.857,8.928 C17.857,13.859 13.86,17.856 8.929,17.856 C3.997,17.856 0,13.859 0,8.928 C0,3.997 3.997,0 8.929,0 C13.86,0 17.857,3.997 17.857,8.928 Z" stroke="#716148" stroke-width="1" fill="none" stroke-miterlimit="10"></path></g><g transform="translate(10.295100000000001 5.755800000000001)"><path d="M4.422,17.857 C1.98,17.857 0,13.86 0,8.929 C0,3.997 1.98,0 4.422,0" stroke="#716148" stroke-width="1" fill="none" stroke-miterlimit="10"></path></g><g transform="translate(14.2171 5.7559000000000005)"><path d="M0.5,0 L0.5,17.857" stroke="#716148" stroke-width="1" fill="none" stroke-miterlimit="10"></path></g><g transform="translate(14.717100000000002 5.7559000000000005)"><path d="M0,0 C2.442,0 4.422,3.997 4.422,8.928 C4.422,13.86 2.442,17.857 0,17.857" stroke="#716148" stroke-width="1" fill="none" stroke-miterlimit="10"></path></g><g transform="translate(5.788600000000001 14.1843)"><path d="M0,0.5 L17.857,0.5" stroke="#716148" stroke-width="1" fill="none" stroke-miterlimit="10"></path></g></svg>