<?xml version="1.0" encoding="UTF-8"?><svg version="1.1" width="30px" height="30px" viewBox="0 0 30.0 30.0" xmlns="http://www.w3.org/2000/svg" xmlns:xlink="http://www.w3.org/1999/xlink"><defs><clipPath id="i0"><path d="M29.4339,0 L29.4339,29.4338 L0,29.4338 L0,0 L29.4339,0 Z"></path></clipPath><clipPath id="i1"><path d="M14.717,0 C22.845,0 29.434,6.589 29.434,14.717 C29.434,22.845 22.845,29.434 14.717,29.434 C6.589,29.434 0,22.845 0,14.717 C0,6.589 6.589,0 14.717,0 Z"></path></clipPath><clipPath id="i2"><path d="M6.497,0 L6.497,12.542 L11.498,7.551 L11.498,9.441 L5.749,15.18 L0,9.441 L0,7.551 L5.001,12.542 L5.001,0 L6.497,0 Z"></path></clipPath><clipPath id="i3"><path d="M29.434,0 L29.434,29.434 L0,29.434 L0,0 L29.434,0 Z"></path></clipPath><clipPath id="i4"><path d="M12.542,0 L12.542,1.496 L0,1.496 L0,0 L12.542,0 Z"></path></clipPath></defs><g transform="translate(9.999999999976694e-05 0.0)"><g clip-path="url(#i0)"><g transform="translate(0.0 -0.00019999999999953388)"><g clip-path="url(#i1)"><polygon points="0,0.0002 29.4339,0.0002 29.4339,29.434 0,29.434 0,0.0002" stroke="none" fill="#C3CBCB"></polygon></g></g></g></g><g transform="translate(9.144100000000002 4.846300000000004)"><g clip-path="url(#i2)"><polygon points="0,0 11.498,0 11.498,15.18 0,15.18 0,0" stroke="none" fill="#6B7E7C"></polygon></g></g><g clip-path="url(#i3)"><g transform="translate(8.561 21.29)"><g clip-path="url(#i4)"><polygon points="0,0 12.542,0 12.542,1.496 0,1.496 0,0" stroke="none" fill="#6B7E7C"></polygon></g></g></g></svg>