<?xml version="1.0" encoding="UTF-8"?><svg version="1.1" width="31px" height="31px" viewBox="0 0 31.0 31.0" xmlns="http://www.w3.org/2000/svg" xmlns:xlink="http://www.w3.org/1999/xlink"><defs><clipPath id="i0"><path d="M15,0 C23.2842712,0 30,6.71572875 30,15 C30,23.2842712 23.2842712,30 15,30 C6.71572875,30 0,23.2842712 0,15 C0,6.71572875 6.71572875,0 15,0 Z"></path></clipPath><clipPath id="i1"><path d="M11.45,0 L18.42,6.97 L11.45,13.94 L9.16,13.94 L15.21,7.89 L0,7.89 L0,6.07 L15.22,6.07 L15.22,6.06 L9.16,0 L11.45,0 Z"></path></clipPath></defs><g transform="translate(0.44000000000005457 0.5599999999999454)"><g clip-path="url(#i0)"><polygon points="0,0 30,0 30,30 0,30 0,0" stroke="none" fill="#C3CBCB"></polygon></g><g transform="translate(5.539999999999964 8.280000000000086)"><g clip-path="url(#i1)"><polygon points="0,0 18.42,0 18.42,13.94 0,13.94 0,0" stroke="none" fill="#6B7E7C"></polygon></g></g></g></svg>