<?xml version="1.0" encoding="UTF-8"?><svg version="1.1" width="28px" height="28px" viewBox="0 0 28.0 28.0" xmlns="http://www.w3.org/2000/svg" xmlns:xlink="http://www.w3.org/1999/xlink"><defs><clipPath id="i0"><path d="M14,0 C21.732,0 28,6.268 28,14 C28,21.732 21.732,28 14,28 C6.268,28 0,21.732 0,14 C0,6.268 6.268,0 14,0 Z"></path></clipPath><clipPath id="i1"><path d=""></path></clipPath><clipPath id="i2"><path d="M9.77337607,0 L9.77325107,0.071875 L9.77237607,0.083 L9.77037607,0.12 L9.79137607,0.119 C9.82637607,0.117 9.86137607,0.114 9.89537607,0.111 C9.96937607,0.104 10.0383761,0.097 10.1023761,0.106 C10.1663761,0.114 10.2253761,0.141 10.2823761,0.167 C10.3043761,0.176 10.3253761,0.186 10.3473761,0.195 C10.3533761,0.198 10.3653761,0.202 10.3703761,0.208 C10.3703761,0.218 10.3703761,0.228 10.3693761,0.237 C10.3693761,0.371 10.4313761,0.383 10.4813761,0.392 C10.4913761,0.394 10.5003761,0.395 10.5103761,0.398 C10.5323761,0.404 10.5473761,0.408 10.5523761,0.42 C10.6073761,0.54 10.7003761,0.561 10.7913761,0.581 C10.8083761,0.585 10.8263761,0.589 10.8443761,0.593 C10.9223761,0.614 10.9943761,0.664 11.0533761,0.71 C11.0773761,0.729 11.0953761,0.772 11.0983761,0.817 C11.1053761,0.967 11.1753761,0.978 11.2273761,0.974 C11.2483761,0.972 11.2713761,0.964 11.2923761,0.957 C11.3103761,0.951 11.3273761,0.945 11.3433761,0.943 C11.4963761,0.921 11.5893761,1.026 11.6283761,1.264 C11.6383761,1.33 11.6623761,1.376 11.6853761,1.42 C11.6943761,1.437 11.7033761,1.454 11.7113761,1.471 C11.7173761,1.484 11.7263761,1.489 11.7333761,1.493 C11.7573761,1.516 11.7743761,1.535 11.7913761,1.555 C11.8783761,1.656 11.9673761,1.76 12.1183761,1.735 C12.1623761,1.728 12.2013761,1.804 12.2193761,1.882 C12.2393761,1.964 12.2733761,1.992 12.3193761,2.008 C12.4203761,2.043 12.4703761,2.153 12.4693761,2.336 C12.4693761,2.347 12.4693761,2.358 12.4683761,2.37 L12.4683761,2.396 C12.4673761,2.523 12.5003761,2.593 12.5673761,2.604 C12.6123761,2.611 12.6393761,2.646 12.6553761,2.716 C12.6693761,2.774 12.7033761,2.8 12.7403761,2.824 C12.8373761,2.886 12.9153761,2.942 12.9723761,3.055 C13.0323761,3.174 13.1153761,3.321 13.2253761,3.395 C13.3283761,3.464 13.4083761,3.531 13.4363761,3.715 C13.4463761,3.781 13.4923761,3.816 13.5743761,3.82 C13.6433761,3.823 13.6683761,3.859 13.6673761,3.954 C13.6673761,4.002 13.6833761,4.042 13.7153761,4.073 C13.7403761,4.096 13.7713761,4.111 13.8133761,4.122 C13.8233761,4.166 13.8383761,4.198 13.8603761,4.223 C13.8903761,4.256 13.9293761,4.273 13.9763761,4.273 C14.0673761,4.272 14.1023761,4.298 14.1053761,4.369 C14.1093761,4.453 14.1433761,4.501 14.2073761,4.512 C14.3853761,4.54 14.4503761,4.623 14.5163761,4.729 C14.5883761,4.843 14.7303761,4.929 14.8463761,4.991 C14.9553761,5.05 15.0093761,5.13 15.0693761,5.23 C15.0923761,5.269 15.1173761,5.305 15.1733761,5.319 C15.2413761,5.335 15.2753761,5.363 15.2823761,5.41 C15.2923761,5.479 15.3603761,5.513 15.4833761,5.512 L15.5083761,5.512 C15.5193761,5.511 15.5303761,5.511 15.5413761,5.511 C15.7183761,5.51 15.8243761,5.562 15.8583761,5.666 C15.8743761,5.713 15.9013761,5.749 15.9803761,5.769 C16.0563761,5.788 16.1293761,5.828 16.1223761,5.874 C16.0983761,6.03 16.1993761,6.122 16.2973761,6.212 C16.3163761,6.229 16.3353761,6.247 16.3533761,6.265 C16.3613761,6.279 16.3653761,6.288 16.3783761,6.294 C16.3953761,6.302 16.4113761,6.311 16.4273761,6.321 C16.4703761,6.345 16.5143761,6.37 16.5783761,6.381 C16.8093761,6.42 16.9103761,6.516 16.8893761,6.675 C16.8873761,6.691 16.8823761,6.708 16.8763761,6.727 C16.8683761,6.749 16.8613761,6.772 16.8593761,6.795 C16.8553761,6.848 16.8663761,6.92 17.0113761,6.928 C17.0553761,6.931 17.0963761,6.949 17.1153761,6.974 C17.1593761,7.036 17.2073761,7.109 17.2273761,7.191 C17.2323761,7.209 17.2363761,7.227 17.2393761,7.245 C17.2593761,7.339 17.2793761,7.435 17.3953761,7.492 C17.4063761,7.497 17.4103761,7.513 17.4143761,7.527 C17.4193761,7.545 17.4203761,7.556 17.4223761,7.566 C17.4313761,7.617 17.4433761,7.682 17.5723761,7.681 C17.5813761,7.681 17.5903761,7.68 17.6003761,7.68 C17.6053761,7.685 17.6103761,7.698 17.6133761,7.704 C17.6213761,7.727 17.6313761,7.749 17.6403761,7.771 C17.6653761,7.83 17.6913761,7.891 17.6993761,7.957 C17.7073761,8.023 17.7013761,8.095 17.6943761,8.171 C17.6913761,8.206 17.6883761,8.242 17.6863761,8.279 L17.6853761,8.3 L17.7213761,8.298 C17.7283761,8.297 17.7353761,8.297 17.7433761,8.297 L17.7383761,8.259 C17.7363761,8.251 17.7363761,8.242 17.7353761,8.233 C17.7333761,8.212 17.7313761,8.189 17.7233761,8.172 C17.7163761,8.155 17.7153761,8.143 17.7153761,8.134 C17.7153761,8.132 17.7173761,8.129 17.7203761,8.124 C17.7493761,8.083 17.7823761,8.054 17.7893761,8.054 C17.8243761,8.067 17.8713761,8.094 17.8933761,8.154 C17.9123761,8.207 17.9383761,8.244 17.9673761,8.273 C18.0313761,8.253 18.0893761,8.242 18.1513761,8.242 C18.1773761,8.241 18.2013761,8.243 18.2243761,8.244 L18.2783761,8.46 L18.2813761,8.475 L18.3073761,8.474 L18.4103761,8.474 C18.4703761,8.426 18.5003761,8.422 18.5103761,8.481 C18.5673761,8.491 18.5633761,8.522 18.5163761,8.584 L18.5173761,8.625 L18.5163761,8.655 L18.5163761,8.717 L18.5303761,8.721 L18.6433761,8.751 L18.7393761,8.777 C18.7413761,8.8 18.7423761,8.825 18.7413761,8.851 C18.7413761,8.916 18.7313761,8.976 18.7113761,9.042 C18.7393761,9.072 18.7753761,9.099 18.8273761,9.118 C18.8843761,9.141 18.9113761,9.189 18.9233761,9.226 C18.9233761,9.234 18.8943761,9.267 18.8553761,9.297 C18.8513761,9.301 18.8483761,9.302 18.8473761,9.303 C18.8373761,9.303 18.8253761,9.301 18.8093761,9.294 L18.8103761,9.324 C18.8843761,9.317 18.9533761,9.311 19.0173761,9.319 C19.0803761,9.327 19.1393761,9.354 19.1973761,9.38 C19.2183761,9.39 19.2403761,9.4 19.2623761,9.408 C19.2683761,9.411 19.2803761,9.416 19.2853761,9.421 C19.2853761,9.431 19.2843761,9.441 19.2843761,9.45 C19.2833761,9.584 19.3453761,9.596 19.3953761,9.605 C19.4053761,9.607 19.4153761,9.609 19.4243761,9.612 C19.4463761,9.617 19.4623761,9.622 19.4673761,9.633 C19.4733761,9.647 19.4813761,9.655 19.4893761,9.666 L19.5553761,9.724 C19.5593761,9.72 19.5643761,9.718 19.5683761,9.714 L19.5883761,9.698 C19.6183761,9.673 19.6493761,9.648 19.6813761,9.628 C19.7253761,9.602 19.7713761,9.614 19.8213761,9.666 C19.8283761,9.673 19.8353761,9.681 19.8423761,9.69 C19.8533761,9.703 19.8643761,9.716 19.8753761,9.727 L19.9743761,9.83 L19.9623761,9.844 C19.9483761,9.859 19.9363761,9.875 19.9233761,9.89 C19.9393761,9.901 19.9533761,9.912 19.9673761,9.923 L19.8783761,10 L19.9673761,10.077 C19.9083761,10.123 19.8373761,10.172 19.7583761,10.194 C19.7413761,10.198 19.7233761,10.202 19.7053761,10.206 C19.6703761,10.214 19.6353761,10.224 19.6013761,10.238 L19.4883761,10.334 C19.4813761,10.345 19.4733761,10.353 19.4673761,10.367 C19.4623761,10.379 19.4463761,10.383 19.4333761,10.386 C19.4153761,10.391 19.4053761,10.393 19.3953761,10.395 C19.3453761,10.404 19.2833761,10.416 19.2843761,10.55 C19.2843761,10.559 19.2853761,10.569 19.2853761,10.579 C19.2803761,10.584 19.2683761,10.589 19.2623761,10.592 C19.2403761,10.601 19.2183761,10.61 19.1973761,10.62 C19.1393761,10.646 19.0803761,10.673 19.0173761,10.681 C18.9533761,10.689 18.8843761,10.683 18.8103761,10.676 L18.8093761,10.706 C18.8253761,10.699 18.8373761,10.698 18.8463761,10.698 L18.8553761,10.703 C18.8943761,10.733 18.9233761,10.766 18.9233761,10.774 C18.9113761,10.811 18.8843761,10.859 18.8273761,10.882 C18.7753761,10.901 18.7393761,10.928 18.7113761,10.958 C18.7313761,11.024 18.7413761,11.084 18.7413761,11.149 C18.7423761,11.175 18.7413761,11.2 18.7393761,11.223 L18.6433761,11.249 L18.5303761,11.279 L18.5163761,11.283 L18.5163761,11.345 L18.5173761,11.375 L18.5173761,11.409 C18.5633761,11.478 18.5673761,11.509 18.5103761,11.519 C18.5003761,11.578 18.4703761,11.574 18.4103761,11.526 L18.3073761,11.526 L18.2813761,11.525 L18.2783761,11.54 L18.2493761,11.656 L18.2243761,11.756 C18.2013761,11.757 18.1773761,11.759 18.1513761,11.758 C18.0893761,11.758 18.0313761,11.747 17.9673761,11.727 C17.9383761,11.756 17.9123761,11.794 17.8933761,11.847 C17.8713761,11.906 17.8243761,11.933 17.7893761,11.946 C17.7823761,11.946 17.7493761,11.917 17.7203761,11.876 C17.7173761,11.871 17.7153761,11.868 17.7153761,11.867 L17.7167511,11.85025 L17.7233761,11.829 C17.7313761,11.811 17.7333761,11.788 17.7353761,11.767 C17.7363761,11.758 17.7363761,11.749 17.7383761,11.741 L17.7463761,11.703 L17.7213761,11.702 L17.6853761,11.7 L17.6863761,11.721 L17.6943761,11.829 C17.7013761,11.905 17.7073761,11.977 17.6993761,12.043 C17.6913761,12.109 17.6653761,12.17 17.6403761,12.229 C17.6313761,12.251 17.6213761,12.273 17.6133761,12.296 C17.6103761,12.302 17.6053761,12.315 17.6003761,12.32 L17.5723761,12.319 C17.4433761,12.318 17.4313761,12.383 17.4223761,12.434 C17.4203761,12.445 17.4193761,12.455 17.4163761,12.464 L17.4143761,12.473 C17.4103761,12.487 17.4063761,12.503 17.3953761,12.508 C17.2793761,12.565 17.2593761,12.661 17.2393761,12.755 C17.2363761,12.773 17.2323761,12.791 17.2273761,12.809 C17.2073761,12.891 17.1593761,12.964 17.1153761,13.026 C17.0963761,13.051 17.0553761,13.069 17.0113761,13.072 C16.8663761,13.08 16.8553761,13.152 16.8593761,13.205 C16.8613761,13.228 16.8683761,13.251 16.8763761,13.273 C16.8823761,13.292 16.8873761,13.309 16.8893761,13.325 C16.9103761,13.484 16.8093761,13.58 16.5783761,13.62 C16.5143761,13.63 16.4703761,13.655 16.4273761,13.679 C16.4113761,13.689 16.3953761,13.698 16.3783761,13.706 C16.3653761,13.712 16.3613761,13.721 16.3573761,13.729 C16.3353761,13.753 16.3163761,13.771 16.2973761,13.788 C16.1993761,13.878 16.0983761,13.971 16.1223761,14.126 C16.1293761,14.172 16.0563761,14.212 15.9803761,14.231 C15.9013761,14.251 15.8743761,14.287 15.8583761,14.335 C15.8243761,14.438 15.7183761,14.49 15.5413761,14.489 C15.5303761,14.489 15.5193761,14.489 15.5083761,14.488 L15.4833761,14.488 C15.3603761,14.487 15.2923761,14.521 15.2823761,14.59 C15.2753761,14.637 15.2413761,14.665 15.1733761,14.681 C15.1173761,14.695 15.0923761,14.731 15.0693761,14.77 C15.0093761,14.87 14.9553761,14.951 14.8463761,15.009 C14.7303761,15.071 14.5883761,15.157 14.5163761,15.271 C14.4503761,15.377 14.3853761,15.46 14.2073761,15.489 C14.1433761,15.499 14.1093761,15.547 14.1053761,15.631 C14.1023761,15.702 14.0673761,15.728 13.9763761,15.727 C13.9293761,15.727 13.8903761,15.744 13.8603761,15.777 C13.8383761,15.802 13.8233761,15.834 13.8133761,15.878 C13.7713761,15.889 13.7403761,15.904 13.7153761,15.927 C13.6833761,15.958 13.6673761,15.998 13.6673761,16.046 C13.6683761,16.141 13.6433761,16.177 13.5743761,16.18 C13.4923761,16.184 13.4463761,16.219 13.4363761,16.285 C13.4083761,16.469 13.3283761,16.536 13.2253761,16.605 C13.1153761,16.679 13.0323761,16.826 12.9723761,16.946 C12.9153761,17.058 12.8373761,17.114 12.7403761,17.176 C12.7033761,17.2 12.6693761,17.226 12.6553761,17.284 C12.6393761,17.354 12.6123761,17.389 12.5673761,17.396 C12.5003761,17.407 12.4673761,17.477 12.4683761,17.604 L12.4683761,17.63 C12.4693761,17.642 12.4693761,17.653 12.4693761,17.664 C12.4703761,17.847 12.4203761,17.957 12.3193761,17.992 C12.2733761,18.008 12.2393761,18.036 12.2193761,18.118 C12.2013761,18.196 12.1623761,18.272 12.1183761,18.265 C11.9673761,18.24 11.8783761,18.344 11.7913761,18.445 C11.7743761,18.465 11.7573761,18.484 11.7403761,18.503 C11.7263761,18.511 11.7173761,18.516 11.7113761,18.529 C11.7033761,18.547 11.6943761,18.563 11.6853761,18.58 C11.6623761,18.624 11.6383761,18.67 11.6283761,18.736 C11.5893761,18.974 11.4963761,19.079 11.3433761,19.057 C11.3273761,19.055 11.3103761,19.049 11.2923761,19.043 C11.2713761,19.036 11.2483761,19.028 11.2273761,19.026 C11.1753761,19.022 11.1053761,19.033 11.0983761,19.184 C11.0953761,19.228 11.0773761,19.271 11.0533761,19.29 C10.9943761,19.336 10.9223761,19.386 10.8443761,19.407 C10.8263761,19.411 10.8083761,19.415 10.7913761,19.419 C10.7003761,19.439 10.6073761,19.46 10.5523761,19.58 C10.5473761,19.592 10.5323761,19.596 10.5183761,19.6 C10.5003761,19.605 10.4913761,19.606 10.4813761,19.608 C10.4313761,19.617 10.3693761,19.629 10.3693761,19.763 C10.3703761,19.772 10.3703761,19.782 10.3703761,19.792 C10.3653761,19.798 10.3533761,19.803 10.3473761,19.805 C10.3253761,19.814 10.3043761,19.824 10.2823761,19.833 C10.2253761,19.859 10.1663761,19.886 10.1023761,19.894 C10.0383761,19.903 9.96937607,19.896 9.89537607,19.889 C9.86137607,19.886 9.82637607,19.883 9.79137607,19.881 L9.77037607,19.88 L9.77237607,19.917 C9.77337607,19.925 9.77337607,19.932 9.77337607,19.94 L9.77337607,20 L9.65537607,19.906 C9.71137607,19.902 9.77337607,19.879 9.77237607,19.734 C9.77237607,19.719 9.77137607,19.702 9.77037607,19.684 C9.76937607,19.673 9.76937607,19.662 9.76937607,19.652 C9.76837607,19.579 9.79237607,19.537 9.84237607,19.523 C9.87837607,19.514 9.91737607,19.509 9.95537607,19.505 L9.98137607,19.501 C10.0993761,19.487 10.2103761,19.44 10.2183761,19.194 C10.2203761,19.127 10.2443761,19.103 10.2843761,19.125 C10.3963761,19.186 10.4623761,19.141 10.4923761,18.985 C10.4963761,18.958 10.5083761,18.935 10.5243761,18.922 C10.5403761,18.908 10.5563761,18.893 10.5723761,18.877 C10.6433761,18.809 10.7103761,18.744 10.8113761,18.757 C10.8453761,18.761 10.8753761,18.742 10.9083761,18.696 C10.9223761,18.676 10.9323761,18.65 10.9433761,18.625 C10.9563761,18.593 10.9683761,18.563 10.9863761,18.55 C11.0083761,18.535 11.0403761,18.537 11.0753761,18.54 C11.0923761,18.542 11.1103761,18.543 11.1283761,18.543 L11.1453761,18.542 L11.1458761,18.448375 L11.1463761,18.424 C11.1463761,18.401 11.1453761,18.38 11.1433761,18.36 C11.1423761,18.344 11.1413761,18.329 11.1413761,18.315 C11.1403761,18.209 11.1753761,18.151 11.2403761,18.151 C11.3513761,18.151 11.4093761,18.062 11.4633761,17.927 C11.5003761,17.834 11.5373761,17.779 11.6083761,17.791 C11.6783761,17.804 11.7163761,17.743 11.7173761,17.614 C11.7173761,17.57 11.7223761,17.548 11.7263761,17.544 C11.7673761,17.541 11.7943761,17.501 11.8203761,17.463 C11.8643761,17.4 11.8933761,17.364 11.9653761,17.425 C11.9913761,17.447 12.0043761,17.425 12.0133761,17.41 C12.0253761,17.392 12.0343761,17.379 12.0433761,17.367 C12.0663761,17.336 12.0903761,17.303 12.1073761,17.259 C12.1403761,17.175 12.1823761,17.095 12.2613761,17.075 C12.3163761,17.061 12.3633761,17.002 12.3833761,16.922 C12.4123761,16.809 12.4683761,16.755 12.5183761,16.718 C12.5863761,16.668 12.6353761,16.617 12.6733761,16.557 C12.6963761,16.521 12.7183761,16.485 12.7403761,16.449 C12.8953761,16.201 13.0563761,15.944 13.2563761,15.775 C13.2933761,15.743 13.3103761,15.692 13.3113761,15.607 C13.3133761,15.493 13.3433761,15.451 13.3893761,15.44 C13.3993761,15.393 13.4403761,15.361 13.5503761,15.359 C13.6323761,15.358 13.6833761,15.341 13.7133761,15.302 C13.8763761,15.095 14.1253761,14.93 14.3653761,14.77 C14.4003761,14.746 14.4353761,14.723 14.4703761,14.7 C14.5283761,14.661 14.5773761,14.61 14.6263761,14.54 C14.6623761,14.487 14.7133761,14.43 14.8233761,14.401 C14.9013761,14.379 14.9583761,14.331 14.9713761,14.274 C14.9903761,14.192 15.0683761,14.15 15.1493761,14.115 C15.1923761,14.097 15.2233761,14.073 15.2543761,14.049 C15.2653761,14.039 15.2773761,14.03 15.2903761,14.021 C15.3103761,14.009 15.3313761,13.995 15.3093761,13.968 C15.2513761,13.894 15.2853761,13.863 15.3463761,13.819 C15.3843761,13.792 15.4223761,13.764 15.4253761,13.721 C15.4293761,13.717 15.4503761,13.712 15.4933761,13.712 C15.6173761,13.711 15.6763761,13.672 15.6643761,13.599 C15.6523761,13.526 15.7063761,13.488 15.7963761,13.449 C15.9263761,13.394 16.0133761,13.334 16.0123761,13.219 C16.0123761,13.152 16.0693761,13.116 16.1713761,13.116 C16.1853761,13.116 16.1993761,13.117 16.2143761,13.119 C16.2333761,13.12 16.2543761,13.121 16.2763761,13.121 L16.3913761,13.121 L16.3911261,13.0755 L16.3893761,13.048 C16.3863761,13.012 16.3833761,12.979 16.3983761,12.956 C16.4113761,12.938 16.4403761,12.925 16.4713761,12.912 C16.4953761,12.901 16.5203761,12.89 16.5403761,12.875 C16.5843761,12.842 16.6023761,12.811 16.5983761,12.775 C16.5863761,12.672 16.6483761,12.602 16.7153761,12.528 C16.7303761,12.512 16.7443761,12.495 16.7583761,12.479 C16.7713761,12.463 16.7933761,12.451 16.8193761,12.446 C16.9703761,12.415 17.0133761,12.347 16.9553761,12.231 C16.9333761,12.189 16.9573761,12.165 17.0213761,12.163 C17.2593761,12.154 17.3053761,12.04 17.3193761,11.918 L17.3223761,11.891 C17.3263761,11.852 17.3313761,11.811 17.3403761,11.774 C17.3533761,11.723 17.3943761,11.698 17.4653761,11.698 C17.4753761,11.698 17.4853761,11.699 17.4963761,11.7 C17.5133761,11.701 17.5293761,11.702 17.5443761,11.702 C17.6843761,11.703 17.7063761,11.638 17.7103761,11.581 C17.7153761,11.515 17.7553761,11.47 17.8153761,11.437 C17.8543761,11.342 17.9093761,11.275 18.0033761,11.278 C18.0223761,11.279 18.0373761,11.271 18.0513761,11.263 C18.0563761,11.261 18.0613761,11.259 18.0663761,11.257 C18.0833761,11.249 18.1013761,11.243 18.1193761,11.237 C18.1463761,11.227 18.1723761,11.211 18.1983761,11.197 C18.2123761,11.17 18.2283761,11.143 18.2373761,11.115 C18.2433761,11.096 18.2493761,11.078 18.2563761,11.06 C18.2583761,11.055 18.2603761,11.05 18.2623761,11.045 C18.2703761,11.03 18.2773761,11.015 18.2773761,10.995 C18.2743761,10.898 18.3383761,10.841 18.4313761,10.801 C18.4633761,10.739 18.5053761,10.698 18.5703761,10.693 C18.6253761,10.689 18.6883761,10.666 18.6873761,10.521 C18.6873761,10.506 18.6863761,10.489 18.6853761,10.471 C18.6843761,10.46 18.6833761,10.449 18.6833761,10.439 C18.6833761,10.395 18.6933761,10.363 18.7113761,10.341 L18.6653761,10.349 C18.6353761,10.353 18.5933761,10.336 18.5613761,10.306 C18.4523761,10.205 18.3953761,10.248 18.3623761,10.289 C18.3473761,10.306 18.3373761,10.328 18.3273761,10.349 C18.3183761,10.366 18.3103761,10.383 18.3013761,10.396 C18.2073761,10.523 18.0703761,10.517 17.8793761,10.376 C17.8273761,10.338 17.7793761,10.323 17.7323761,10.309 C17.7143761,10.303 17.6973761,10.298 17.6793761,10.291 C17.6663761,10.286 17.6563761,10.29 17.6493761,10.292 C17.6163761,10.293 17.5913761,10.292 17.5663761,10.29 C17.4353761,10.282 17.3003761,10.274 17.2103761,10.401 C17.1843761,10.439 17.1053761,10.413 17.0383761,10.372 C16.9693761,10.328 16.9253761,10.334 16.8823761,10.356 C16.7863761,10.405 16.6753761,10.364 16.5523761,10.234 C16.5443761,10.226 16.5363761,10.217 16.5283761,10.209 C16.5223761,10.202 16.5173761,10.196 16.5113761,10.19 C16.4253761,10.099 16.3533761,10.074 16.2993761,10.115 C16.2623761,10.143 16.2193761,10.139 16.1593761,10.101 C16.1103761,10.069 16.0683761,10.076 16.0253761,10.087 C15.9153761,10.114 15.8213761,10.131 15.7043761,10.093 C15.5803761,10.052 15.4213761,10.009 15.2923761,10.038 C15.1723761,10.063 15.0703761,10.075 14.9243761,9.965 C14.8723761,9.926 14.8153761,9.935 14.7553761,9.992 C14.7043761,10.04 14.6623761,10.033 14.5973761,9.965 C14.5653761,9.931 14.5263761,9.914 14.4813761,9.916 C14.4493761,9.918 14.4163761,9.929 14.3793761,9.952 C14.3423761,9.929 14.3093761,9.918 14.2763761,9.916 C14.2323761,9.914 14.1933761,9.931 14.1613761,9.965 C14.0963761,10.033 14.0543761,10.04 14.0043761,9.992 C13.9433761,9.935 13.8863761,9.926 13.8343761,9.965 C13.6883761,10.075 13.5863761,10.063 13.4663761,10.038 C13.3373761,10.009 13.1783761,10.052 13.0543761,10.093 C12.9373761,10.131 12.8433761,10.114 12.7323761,10.087 C12.6903761,10.076 12.6483761,10.069 12.5993761,10.101 C12.5393761,10.139 12.4963761,10.143 12.4593761,10.115 C12.4053761,10.074 12.3333761,10.099 12.2473761,10.19 C12.2413761,10.196 12.2353761,10.202 12.2303761,10.209 C12.2223761,10.217 12.2143761,10.226 12.2063761,10.234 C12.0833761,10.364 11.9713761,10.405 11.8763761,10.356 C11.8333761,10.334 11.7893761,10.328 11.7203761,10.372 C11.6533761,10.413 11.5743761,10.439 11.5483761,10.401 C11.4583761,10.274 11.3233761,10.282 11.1923761,10.29 C11.1673761,10.292 11.1423761,10.293 11.1173761,10.294 C11.1023761,10.29 11.0923761,10.286 11.0793761,10.291 C11.0613761,10.298 11.0443761,10.303 11.0263761,10.309 C10.9793761,10.323 10.9313761,10.338 10.8793761,10.376 C10.6883761,10.517 10.5513761,10.523 10.4573761,10.396 C10.4483761,10.383 10.4403761,10.366 10.4313761,10.349 C10.4213761,10.328 10.4113761,10.306 10.3963761,10.289 C10.3633761,10.248 10.3053761,10.205 10.1973761,10.306 C10.1653761,10.336 10.1233761,10.353 10.0933761,10.349 C10.0193761,10.338 9.93537607,10.321 9.86537607,10.278 L9.81937607,10.248 C9.74237607,10.196 9.66137607,10.143 9.54137607,10.188 C9.52937607,10.192 9.51537607,10.184 9.50337607,10.176 C9.48737607,10.167 9.47937607,10.161 9.47137607,10.155 C9.42937607,10.125 9.37737607,10.088 9.28637607,10.183 C9.28037607,10.19 9.27337607,10.197 9.26737607,10.205 C9.26037607,10.205 9.24737607,10.199 9.24237607,10.197 C9.22037607,10.187 9.19837607,10.178 9.17637607,10.169 C9.11837607,10.146 9.05837607,10.121 9.00737607,10.081 C8.95737607,10.04 8.91237607,9.985 8.86437607,9.926 L8.84337607,9.947 C8.85937607,9.953 8.86937607,9.961 8.87537607,9.968 L8.87837607,9.978 C8.88537607,10.028 8.88337607,10.073 8.87737607,10.078 C8.84437607,10.095 8.79237607,10.11 8.73537607,10.084 C8.68637607,10.06 8.64237607,10.052 8.60137607,10.054 C8.57037607,10.114 8.53737607,10.164 8.49337607,10.21 C8.47537607,10.229 8.45737607,10.246 8.44037607,10.261 L8.35437607,10.209 L8.25437607,10.148 L8.24137607,10.141 L8.22337607,10.16 L8.19937607,10.185 L8.17937607,10.206 L8.15637607,10.23 C8.14137607,10.313 8.12337607,10.338 8.07537607,10.303 C8.02837607,10.338 8.01037607,10.313 8.00037607,10.235 L7.97237607,10.206 L7.95137607,10.185 L7.92837607,10.16 L7.91037607,10.141 L7.89737607,10.148 L7.79737607,10.209 L7.71137607,10.261 C7.69437607,10.246 7.67637607,10.229 7.65837607,10.21 C7.61437607,10.164 7.58137607,10.114 7.55037607,10.054 C7.50937607,10.052 7.46537607,10.06 7.41537607,10.084 C7.35937607,10.11 7.30737607,10.095 7.27437607,10.078 C7.26837607,10.073 7.26537607,10.028 7.27337607,9.978 C7.27437607,9.972 7.27537607,9.969 7.27537607,9.968 C7.28237607,9.961 7.29137607,9.953 7.30837607,9.947 C7.32537607,9.94 7.34337607,9.925 7.35837607,9.912 C7.36437607,9.906 7.37137607,9.9 7.37837607,9.896 C7.38837607,9.889 7.39937607,9.882 7.40937607,9.874 C7.40237607,9.867 7.39737607,9.862 7.39237607,9.856 L7.36937607,9.828 L7.35537607,9.844 C7.33137607,9.871 7.30837607,9.899 7.28737607,9.926 C7.23937607,9.985 7.19437607,10.04 7.14337607,10.081 C7.09337607,10.121 7.03337607,10.146 6.97537607,10.169 C6.95337607,10.178 6.93137607,10.187 6.90937607,10.197 C6.90337607,10.199 6.89137607,10.205 6.88437607,10.205 C6.87737607,10.197 6.87137607,10.19 6.86537607,10.183 C6.77437607,10.088 6.72237607,10.125 6.68037607,10.155 C6.67237607,10.161 6.66437607,10.167 6.65537607,10.172 C6.63537607,10.184 6.62237607,10.192 6.61037607,10.188 C6.48937607,10.143 6.40937607,10.196 6.33237607,10.248 L6.28637607,10.278 C6.21637607,10.321 6.13137607,10.338 6.05837607,10.349 C6.02837607,10.353 5.98637607,10.336 5.95337607,10.306 C5.84537607,10.205 5.78837607,10.248 5.75437607,10.289 C5.74037607,10.306 5.73037607,10.328 5.72037607,10.349 C5.71137607,10.366 5.70337607,10.383 5.69437607,10.396 C5.60037607,10.523 5.46237607,10.517 5.27237607,10.376 C5.22037607,10.338 5.17137607,10.323 5.12537607,10.309 L5.07137607,10.291 C5.05837607,10.286 5.04937607,10.29 5.04137607,10.292 L4.95837607,10.29 C4.82837607,10.282 4.69337607,10.274 4.60337607,10.401 C4.57737607,10.439 4.49837607,10.413 4.43137607,10.372 C4.36237607,10.328 4.31837607,10.334 4.27437607,10.356 C4.17937607,10.405 4.06837607,10.364 3.94437607,10.234 C3.93737607,10.226 3.92937607,10.217 3.92137607,10.209 C3.91537607,10.202 3.90937607,10.196 3.90437607,10.19 C3.81737607,10.099 3.74637607,10.074 3.69137607,10.115 C3.65537607,10.143 3.61237607,10.139 3.55237607,10.101 C3.50337607,10.069 3.46137607,10.076 3.41837607,10.087 C3.30737607,10.114 3.21437607,10.131 3.09737607,10.093 C2.97337607,10.052 2.81437607,10.009 2.68537607,10.038 C2.56537607,10.063 2.46237607,10.075 2.31737607,9.965 C2.26537607,9.926 2.20837607,9.935 2.14737607,9.992 C2.09737607,10.04 2.05537607,10.033 1.99037607,9.965 C1.95737607,9.931 1.91837607,9.914 1.87437607,9.916 C1.84237607,9.918 1.80937607,9.929 1.77237607,9.952 C1.73537607,9.929 1.70237607,9.918 1.66937607,9.916 C1.62537607,9.914 1.58637607,9.931 1.55437607,9.965 C1.48937607,10.033 1.44737607,10.04 1.39637607,9.992 C1.33637607,9.935 1.27937607,9.926 1.22737607,9.965 C1.08137607,10.075 0.978376065,10.063 0.859376065,10.038 C0.730376065,10.009 0.571376065,10.052 0.447376065,10.093 C0.447376065,10.093 0.0883760652,10.163 0.0203760652,10 C-0.0486239348,9.837 0.0623760652,9.601 0.281376065,9.6 C0.365376065,9.6 0.433376065,9.614 0.501376065,9.6 C0.542376065,9.591 0.582376065,9.582 0.623376065,9.573 C0.902376065,9.51 1.19137607,9.446 1.44937607,9.473 C1.49637607,9.477 1.54437607,9.453 1.60337607,9.394 C1.68237607,9.315 1.73237607,9.307 1.77237607,9.333 C1.81137607,9.307 1.86237607,9.315 1.94137607,9.394 C2.00037607,9.453 2.04737607,9.477 2.09537607,9.473 C2.35237607,9.446 2.64137607,9.51 2.92137607,9.573 C2.96237607,9.582 3.00237607,9.591 3.04337607,9.6 C3.11037607,9.614 3.18037607,9.615 3.26237607,9.6 C3.32437607,9.59 3.39937607,9.587 3.49737607,9.646 C3.56637607,9.688 3.64037607,9.695 3.68837607,9.665 C3.75837607,9.621 3.84237607,9.648 3.92337607,9.683 C3.96537607,9.701 4.00437607,9.707 4.04237607,9.712 C4.05737607,9.714 4.07237607,9.716 4.08737607,9.719 C4.10937607,9.725 4.13437607,9.731 4.13737607,9.695 C4.14637607,9.601 4.19137607,9.604 4.26537607,9.617 C4.31037607,9.625 4.35637607,9.634 4.38837607,9.606 C4.39337607,9.606 4.41137607,9.618 4.44237607,9.649 C4.53037607,9.739 4.59937607,9.754 4.64037607,9.694 C4.68137607,9.634 4.74637607,9.646 4.83637607,9.684 C4.96637607,9.74 5.06837607,9.761 5.14737607,9.68 C5.19237607,9.632 5.25737607,9.648 5.32937607,9.723 C5.33837607,9.733 5.34837607,9.744 5.35837607,9.756 C5.37037607,9.772 5.38437607,9.787 5.40037607,9.804 C5.41137607,9.815 5.42237607,9.827 5.43337607,9.838 L5.46037607,9.865 L5.48137607,9.887 L5.49437607,9.875 C5.50737607,9.862 5.51837607,9.848 5.52937607,9.834 C5.55237607,9.807 5.57337607,9.781 5.59937607,9.776 C5.62137607,9.773 5.65037607,9.785 5.68137607,9.798 C5.70537607,9.808 5.73037607,9.818 5.75437607,9.822 C5.80837607,9.831 5.84337607,9.822 5.86437607,9.794 C5.92637607,9.712 6.01837607,9.708 6.11637607,9.705 L6.18037607,9.701 C6.20037607,9.7 6.22437607,9.707 6.24637607,9.722 C6.37337607,9.811 6.45137607,9.795 6.48837607,9.67 C6.50237607,9.625 6.53537607,9.625 6.58237607,9.67 C6.75637607,9.838 6.86737607,9.791 6.96037607,9.714 L6.98137607,9.698 C7.01137607,9.673 7.04237607,9.648 7.07437607,9.628 C7.11837607,9.602 7.16437607,9.614 7.21437607,9.666 C7.22137607,9.673 7.22837607,9.681 7.23537607,9.69 C7.24637607,9.703 7.25737607,9.716 7.26737607,9.727 C7.36537607,9.83 7.42637607,9.8 7.46737607,9.763 C7.51637607,9.719 7.57537607,9.717 7.64037607,9.737 C7.73337607,9.698 7.81737607,9.692 7.88237607,9.762 C7.89537607,9.776 7.91137607,9.782 7.92637607,9.787 C7.93137607,9.789 7.93637607,9.791 7.94137607,9.793 C7.95837607,9.8 7.97537607,9.809 7.99237607,9.817 C8.01837607,9.831 8.04737607,9.839 8.07537607,9.848 C8.10437607,9.839 8.13337607,9.831 8.15937607,9.817 C8.17637607,9.809 8.19237607,9.8 8.21037607,9.793 C8.21537607,9.791 8.22037607,9.789 8.22537607,9.787 C8.24037607,9.782 8.25637607,9.776 8.26937607,9.762 C8.33337607,9.692 8.41837607,9.698 8.51137607,9.737 C8.57637607,9.717 8.63437607,9.719 8.68437607,9.763 C8.72537607,9.8 8.78537607,9.83 8.88437607,9.727 C8.89437607,9.716 8.90537607,9.703 8.91637607,9.69 C8.92337607,9.681 8.93037607,9.673 8.93737607,9.666 C8.98737607,9.614 9.03337607,9.602 9.07737607,9.628 C9.10937607,9.648 9.14037607,9.673 9.17037607,9.698 L9.19137607,9.714 C9.28437607,9.791 9.39537607,9.838 9.56937607,9.67 C9.61537607,9.625 9.64937607,9.625 9.66337607,9.67 C9.70037607,9.795 9.77737607,9.811 9.90537607,9.722 C9.92737607,9.707 9.95137607,9.7 9.97137607,9.701 L10.0353761,9.705 C10.1323761,9.708 10.2253761,9.712 10.2873761,9.794 C10.3083761,9.822 10.3433761,9.831 10.3973761,9.822 C10.4203761,9.818 10.4463761,9.808 10.4703761,9.798 C10.5013761,9.785 10.5303761,9.773 10.5523761,9.776 C10.5783761,9.781 10.5993761,9.807 10.6213761,9.834 C10.6333761,9.848 10.6443761,9.862 10.6573761,9.875 L10.6703761,9.887 L10.6913761,9.865 C10.6993761,9.856 10.7083761,9.847 10.7183761,9.838 C10.7293761,9.827 10.7403761,9.815 10.7513761,9.804 C10.7673761,9.787 10.7803761,9.772 10.7933761,9.756 C10.8033761,9.744 10.8133761,9.733 10.8223761,9.723 C10.8943761,9.648 10.9593761,9.632 11.0043761,9.68 C11.0833761,9.761 11.1853761,9.74 11.3153761,9.684 C11.4053761,9.646 11.4693761,9.634 11.5113761,9.694 C11.5523761,9.754 11.6203761,9.739 11.7093761,9.649 C11.7403761,9.618 11.7583761,9.606 11.7633761,9.606 C11.7943761,9.634 11.8413761,9.625 11.8863761,9.617 C11.9593761,9.604 12.0053761,9.601 12.0143761,9.695 C12.0173761,9.731 12.0423761,9.725 12.0583761,9.721 C12.0793761,9.716 12.0943761,9.714 12.1093761,9.712 C12.1473761,9.707 12.1863761,9.701 12.2283761,9.683 C12.3093761,9.648 12.3933761,9.621 12.4633761,9.665 C12.5113761,9.695 12.5853761,9.688 12.6543761,9.646 C12.7523761,9.587 12.8273761,9.59 12.8893761,9.6 C12.9713761,9.615 13.0413761,9.614 13.1083761,9.6 C13.1493761,9.591 13.1893761,9.582 13.2303761,9.573 C13.5103761,9.51 13.7993761,9.446 14.0563761,9.473 C14.1033761,9.478 14.1513761,9.453 14.2103761,9.394 C14.2893761,9.315 14.3393761,9.307 14.3793761,9.333 C14.4193761,9.307 14.4693761,9.315 14.5483761,9.394 C14.6073761,9.453 14.6553761,9.478 14.7023761,9.473 C14.9593761,9.446 15.2483761,9.51 15.5283761,9.573 C15.5693761,9.582 15.6093761,9.591 15.6503761,9.6 C15.7173761,9.614 15.7873761,9.615 15.8693761,9.6 C15.9313761,9.59 16.0063761,9.587 16.1043761,9.646 C16.1743761,9.688 16.2473761,9.695 16.2953761,9.665 C16.3653761,9.621 16.4493761,9.648 16.5303761,9.683 C16.5723761,9.701 16.6113761,9.707 16.6493761,9.712 C16.6643761,9.714 16.6793761,9.716 16.6943761,9.719 C16.7163761,9.725 16.7413761,9.731 16.7443761,9.695 C16.7533761,9.601 16.7993761,9.604 16.8723761,9.617 C16.9173761,9.625 16.9643761,9.634 16.9953761,9.606 C17.0003761,9.606 17.0183761,9.618 17.0493761,9.649 C17.1373761,9.739 17.2063761,9.754 17.2473761,9.694 C17.2893761,9.634 17.3533761,9.646 17.4433761,9.684 C17.5733761,9.74 17.6753761,9.761 17.7543761,9.68 C17.7993761,9.632 17.8643761,9.648 17.9363761,9.723 C17.9453761,9.733 17.9553761,9.744 17.9653761,9.756 C17.9783761,9.772 17.9913761,9.787 18.0073761,9.804 C18.0183761,9.815 18.0293761,9.827 18.0403761,9.838 C18.0503761,9.847 18.0593761,9.856 18.0683761,9.865 L18.0883761,9.887 L18.1013761,9.875 C18.1143761,9.862 18.1263761,9.848 18.1373761,9.834 C18.1593761,9.807 18.1803761,9.781 18.2063761,9.776 C18.2283761,9.773 18.2573761,9.785 18.2883761,9.798 C18.3123761,9.808 18.3383761,9.818 18.3613761,9.822 C18.4153761,9.831 18.4503761,9.822 18.4713761,9.794 C18.5343761,9.712 18.6263761,9.708 18.7233761,9.705 L18.7873761,9.701 C18.8083761,9.7 18.8313761,9.707 18.8533761,9.722 C18.9333761,9.778 18.9943761,9.792 19.0373761,9.764 C18.9963761,9.732 18.9473761,9.718 18.8963761,9.712 L18.8703761,9.709 C18.8323761,9.705 18.7933761,9.7 18.7563761,9.69 C18.7073761,9.676 18.6833761,9.635 18.6833761,9.561 L18.6853761,9.529 C18.6863761,9.511 18.6873761,9.494 18.6873761,9.479 C18.6883761,9.335 18.6253761,9.311 18.5703761,9.307 C18.5053761,9.303 18.4633761,9.261 18.4313761,9.199 C18.3383761,9.159 18.2743761,9.102 18.2773761,9.005 C18.2773761,8.985 18.2703761,8.97 18.2623761,8.955 C18.2603761,8.95 18.2583761,8.945 18.2563761,8.94 C18.2493761,8.922 18.2433761,8.904 18.2373761,8.885 C18.2283761,8.857 18.2123761,8.83 18.1983761,8.803 C18.1723761,8.789 18.1463761,8.773 18.1193761,8.763 C18.1013761,8.757 18.0833761,8.751 18.0663761,8.743 C18.0613761,8.741 18.0563761,8.739 18.0513761,8.737 C18.0373761,8.729 18.0223761,8.721 18.0033761,8.722 C17.9093761,8.725 17.8543761,8.658 17.8153761,8.563 C17.7553761,8.53 17.7153761,8.485 17.7103761,8.419 C17.7063761,8.362 17.6843761,8.297 17.5443761,8.298 C17.5293761,8.298 17.5133761,8.299 17.4963761,8.3 C17.4853761,8.301 17.4753761,8.302 17.4653761,8.302 C17.3943761,8.303 17.3533761,8.278 17.3403761,8.226 C17.3313761,8.189 17.3263761,8.148 17.3223761,8.109 L17.3193761,8.082 C17.3053761,7.96 17.2593761,7.846 17.0213761,7.837 C16.9573761,7.835 16.9333761,7.811 16.9553761,7.769 C17.0133761,7.653 16.9703761,7.585 16.8193761,7.554 C16.7933761,7.55 16.7713761,7.537 16.7583761,7.521 C16.7443761,7.505 16.7303761,7.488 16.7153761,7.472 C16.6483761,7.398 16.5863761,7.328 16.5983761,7.225 C16.6023761,7.189 16.5843761,7.158 16.5403761,7.125 C16.5203761,7.11 16.4953761,7.099 16.4713761,7.088 C16.4403761,7.075 16.4113761,7.062 16.3983761,7.044 C16.3833761,7.021 16.3863761,6.988 16.3893761,6.952 C16.3903761,6.934 16.3923761,6.915 16.3913761,6.897 L16.3913761,6.879 L16.2442511,6.87975 L16.2143761,6.882 C16.1993761,6.883 16.1853761,6.884 16.1713761,6.884 C16.0693761,6.884 16.0123761,6.848 16.0123761,6.781 C16.0133761,6.666 15.9263761,6.606 15.7963761,6.551 C15.7063761,6.512 15.6523761,6.474 15.6643761,6.401 C15.6763761,6.328 15.6173761,6.289 15.4933761,6.288 C15.4503761,6.288 15.4293761,6.283 15.4253761,6.279 C15.4223761,6.236 15.3843761,6.208 15.3463761,6.181 C15.2853761,6.137 15.2513761,6.106 15.3093761,6.032 C15.3313761,6.005 15.3103761,5.991 15.2953761,5.982 C15.2773761,5.97 15.2653761,5.961 15.2543761,5.951 C15.2233761,5.927 15.1923761,5.903 15.1493761,5.885 C15.0683761,5.85 14.9903761,5.808 14.9713761,5.726 C14.9583761,5.669 14.9013761,5.621 14.8233761,5.599 C14.7133761,5.57 14.6623761,5.513 14.6263761,5.46 C14.5773761,5.39 14.5283761,5.339 14.4703761,5.3 C14.4353761,5.277 14.4003761,5.254 14.3653761,5.231 C14.1253761,5.07 13.8763761,4.905 13.7133761,4.698 C13.6833761,4.659 13.6323761,4.642 13.5503761,4.641 C13.4403761,4.639 13.3993761,4.608 13.3893761,4.56 C13.3433761,4.55 13.3133761,4.507 13.3113761,4.394 C13.3103761,4.309 13.2933761,4.257 13.2563761,4.226 C13.0563761,4.056 12.8953761,3.799 12.7403761,3.551 C12.7183761,3.515 12.6963761,3.479 12.6733761,3.443 C12.6353761,3.383 12.5863761,3.332 12.5183761,3.282 C12.4683761,3.245 12.4123761,3.192 12.3833761,3.078 C12.3633761,2.998 12.3163761,2.939 12.2613761,2.925 C12.1823761,2.905 12.1403761,2.825 12.1073761,2.741 C12.0903761,2.697 12.0663761,2.664 12.0433761,2.633 C12.0343761,2.621 12.0253761,2.608 12.0163761,2.595 C12.0043761,2.575 11.9913761,2.553 11.9653761,2.576 C11.8933761,2.636 11.8643761,2.6 11.8203761,2.537 C11.7943761,2.499 11.7673761,2.459 11.7263761,2.456 C11.7223761,2.452 11.7173761,2.43 11.7173761,2.386 C11.7163761,2.258 11.6783761,2.196 11.6083761,2.209 C11.5373761,2.221 11.5003761,2.166 11.4633761,2.073 C11.4093761,1.939 11.3513761,1.849 11.2403761,1.849 C11.1753761,1.849 11.1403761,1.791 11.1413761,1.685 C11.1413761,1.671 11.1423761,1.656 11.1433761,1.64 C11.1453761,1.62 11.1463761,1.6 11.1463761,1.576 C11.1463761,1.56 11.1453761,1.544 11.1453761,1.528 L11.1453761,1.458 L11.1015011,1.45775 L11.0753761,1.46 C11.0403761,1.463 11.0083761,1.465 10.9863761,1.45 C10.9683761,1.437 10.9563761,1.407 10.9433761,1.375 C10.9323761,1.35 10.9223761,1.324 10.9083761,1.304 C10.8753761,1.258 10.8453761,1.239 10.8113761,1.244 C10.7103761,1.256 10.6433761,1.192 10.5723761,1.123 L10.5243761,1.078 C10.5083761,1.065 10.4963761,1.042 10.4923761,1.015 C10.4623761,0.859 10.3963761,0.815 10.2843761,0.875 C10.2443761,0.897 10.2203761,0.873 10.2183761,0.806 C10.2103761,0.56 10.0993761,0.513 9.98137607,0.499 L9.95537607,0.495 C9.91737607,0.491 9.87837607,0.486 9.84237607,0.477 C9.79237607,0.463 9.76837607,0.421 9.76937607,0.348 C9.76937607,0.338 9.76937607,0.327 9.77037607,0.316 C9.77137607,0.298 9.77237607,0.281 9.77237607,0.266 C9.77337607,0.121 9.71137607,0.098 9.65537607,0.094 L9.77337607,0 Z"></path></clipPath></defs><g clip-path="url(#i0)"><polygon points="0,0 28,0 28,28 0,28 0,0" stroke="none" fill="#FFFFFF"></polygon></g><g transform="translate(23.4872 13.3415)"><g clip-path="url(#i1)"><polygon points="0.487,0.486 0.513,0.486 0.513,0.514 0.487,0.514 0.487,0.486" stroke="none" fill="#000000"></polygon></g></g><g transform="translate(4.000023934786032 4.0)"><g clip-path="url(#i2)"><polygon points="-1.23455354e-17,0 19.9743761,0 19.9743761,20 -1.23455354e-17,20 -1.23455354e-17,0" stroke="none" fill="#000000"></polygon></g></g></svg>