<?xml version="1.0" encoding="UTF-8"?><svg version="1.1" width="368px" height="127px" viewBox="0 0 368.0 127.0" xmlns="http://www.w3.org/2000/svg" xmlns:xlink="http://www.w3.org/1999/xlink"><defs><clipPath id="i0"><path d="M13.026,0 L13.026,3.335 L3.911,3.335 L3.911,10.265 L11.909,10.265 L11.909,13.616 L3.911,13.616 L3.911,24.144 L0,24.144 L0,0 L13.026,0 Z"></path></clipPath><clipPath id="i1"><path d="M8.213,0 C9.219,0 10.12,0.097 10.914,0.289 C11.708,0.48 12.408,0.776 13.016,1.175 C13.625,1.575 14.146,2.082 14.585,2.695 C15.023,3.308 15.376,4.031 15.644,4.863 C15.912,5.695 16.109,6.645 16.236,7.712 C16.361,8.78 16.424,9.976 16.424,11.301 L16.424,13.798 C16.424,15.78 16.277,17.483 15.981,18.906 C15.685,20.33 15.214,21.499 14.568,22.413 C13.922,23.328 13.08,24.003 12.039,24.441 C10.999,24.878 9.722,25.098 8.213,25.098 C7.205,25.098 6.304,25.002 5.509,24.811 C4.716,24.619 4.012,24.324 3.4,23.923 C2.786,23.524 2.266,23.021 1.839,22.413 C1.412,21.805 1.064,21.082 0.797,20.245 C0.527,19.407 0.328,18.452 0.197,17.378 C0.065,16.305 0,15.112 0,13.798 L0,11.301 C0,9.32 0.144,7.617 0.435,6.193 C0.724,4.769 1.195,3.601 1.847,2.686 C2.499,1.772 3.347,1.096 4.393,0.658 C5.439,0.22 6.712,0 8.213,0 Z M8.213,3.22 C7.686,3.22 7.218,3.286 6.808,3.417 C6.397,3.548 6.039,3.746 5.732,4.008 C5.425,4.271 5.171,4.603 4.968,5.002 C4.765,5.402 4.601,5.871 4.475,6.407 C4.349,6.943 4.259,7.554 4.205,8.238 C4.149,8.922 4.123,9.675 4.123,10.497 L4.123,14.603 C4.123,15.435 4.149,16.191 4.205,16.869 C4.259,17.548 4.349,18.156 4.475,18.693 C4.601,19.229 4.765,19.697 4.968,20.097 C5.171,20.497 5.425,20.828 5.732,21.09 C6.039,21.353 6.397,21.55 6.808,21.681 C7.218,21.813 7.686,21.878 8.213,21.878 C8.748,21.878 9.222,21.813 9.632,21.681 C10.043,21.55 10.399,21.353 10.701,21.09 C11.002,20.828 11.256,20.497 11.464,20.097 C11.672,19.697 11.839,19.229 11.964,18.693 C12.091,18.156 12.181,17.548 12.236,16.869 C12.291,16.191 12.318,15.435 12.318,14.603 L12.318,10.497 C12.318,9.675 12.291,8.922 12.236,8.238 C12.181,7.554 12.091,6.943 11.964,6.407 C11.839,5.871 11.672,5.402 11.464,5.002 C11.256,4.603 11.002,4.271 10.701,4.008 C10.399,3.746 10.047,3.548 9.64,3.417 C9.236,3.286 8.759,3.22 8.213,3.22 Z"></path></clipPath><clipPath id="i2"><path d="M6.242,0 C7.621,0 8.82,0.146 9.839,0.436 C10.857,0.726 11.705,1.166 12.385,1.758 C13.063,2.349 13.572,3.097 13.912,3.999 C14.252,4.904 14.422,5.962 14.422,7.178 L14.422,7.424 C14.422,8.235 14.345,8.971 14.191,9.634 C14.038,10.296 13.808,10.893 13.502,11.424 C13.195,11.955 12.811,12.423 12.351,12.828 C11.892,13.234 11.357,13.565 10.75,13.822 C10.533,13.913 10.296,13.988 10.06,14.064 L15.685,24.145 L11.383,24.145 L6.113,14.602 L3.909,14.602 L3.909,24.145 L0,24.145 L0,0 Z M6.11,3.22 L3.909,3.22 L3.909,11.465 L6.11,11.465 C6.822,11.465 7.446,11.391 7.982,11.243 C8.519,11.095 8.96,10.866 9.305,10.553 C9.65,10.241 9.912,9.83 10.094,9.322 C10.273,8.812 10.364,8.191 10.364,7.457 L10.364,7.195 C10.364,6.472 10.273,5.856 10.094,5.347 C9.912,4.837 9.65,4.424 9.305,4.107 C8.96,3.789 8.519,3.562 7.982,3.425 C7.446,3.288 6.822,3.22 6.11,3.22 Z"></path></clipPath><clipPath id="i3"><path d="M15.752,0 L15.752,3.334 L9.822,3.334 L9.822,24.145 L5.93,24.145 L5.93,3.334 L0,3.334 L0,0 L15.752,0 Z"></path></clipPath><clipPath id="i4"><path d="M6.242,0 C7.622,0 8.82,0.146 9.84,0.436 C10.857,0.726 11.706,1.166 12.385,1.758 C13.064,2.349 13.573,3.097 13.912,3.999 C14.252,4.904 14.422,5.962 14.422,7.178 L14.422,7.424 C14.422,8.235 14.346,8.971 14.191,9.634 C14.039,10.296 13.808,10.893 13.502,11.424 C13.195,11.955 12.812,12.423 12.352,12.828 C11.892,13.234 11.358,13.565 10.751,13.822 C10.534,13.913 10.297,13.988 10.061,14.063 L15.686,24.145 L11.383,24.145 L6.114,14.602 L3.91,14.602 L3.91,24.145 L0,24.145 L0,0 Z M6.111,3.22 L3.91,3.22 L3.91,11.465 L6.111,11.465 C6.822,11.465 7.447,11.391 7.983,11.243 C8.519,11.095 8.961,10.866 9.306,10.553 C9.65,10.241 9.913,9.83 10.094,9.322 C10.274,8.812 10.365,8.191 10.365,7.457 L10.365,7.195 C10.365,6.472 10.274,5.856 10.094,5.347 C9.913,4.837 9.65,4.424 9.306,4.107 C8.961,3.789 8.519,3.562 7.983,3.425 C7.447,3.288 6.822,3.22 6.111,3.22 Z"></path></clipPath><clipPath id="i5"><path d="M12.845,0 L12.845,3.334 L3.909,3.334 L3.909,10.265 L11.761,10.265 L11.761,13.616 L3.909,13.616 L3.909,20.81 L12.877,20.81 L12.877,24.144 L0,24.144 L0,0 L12.845,0 Z"></path></clipPath><clipPath id="i6"><path d="M12.846,0 L12.846,3.334 L3.91,3.334 L3.91,10.265 L11.762,10.265 L11.762,13.616 L3.91,13.616 L3.91,20.81 L12.878,20.81 L12.878,24.144 L0,24.144 L0,0 L12.846,0 Z"></path></clipPath><clipPath id="i7"><path d="M7.343,0 C8.459,0 9.461,0.131 10.347,0.394 C11.235,0.657 11.995,1.082 12.631,1.667 C13.266,2.253 13.753,3.003 14.093,3.918 C14.432,4.832 14.607,5.94 14.618,7.243 L10.759,7.243 C10.747,6.411 10.645,5.721 10.454,5.173 C10.262,4.627 10.003,4.191 9.675,3.868 C9.345,3.546 8.97,3.323 8.55,3.203 C8.128,3.083 7.692,3.022 7.243,3.022 C6.969,3.022 6.698,3.047 6.43,3.096 C6.162,3.145 5.907,3.222 5.667,3.326 C5.426,3.43 5.207,3.564 5.01,3.728 C4.812,3.893 4.637,4.095 4.484,4.337 C4.331,4.577 4.213,4.853 4.131,5.166 C4.049,5.477 4.008,5.831 4.008,6.225 L4.008,6.356 C4.008,6.816 4.071,7.227 4.196,7.589 C4.322,7.95 4.506,8.278 4.747,8.574 C4.987,8.87 5.283,9.13 5.634,9.354 C5.984,9.579 6.389,9.773 6.848,9.937 L9.74,10.971 C10.572,11.267 11.325,11.612 11.999,12.007 C12.672,12.401 13.253,12.88 13.739,13.444 C14.226,14.008 14.598,14.668 14.856,15.423 C15.114,16.178 15.243,17.065 15.243,18.084 L15.243,18.182 C15.243,18.917 15.166,19.6 15.012,20.235 C14.858,20.871 14.637,21.443 14.346,21.952 C14.057,22.462 13.692,22.911 13.255,23.298 C12.817,23.688 12.321,24.016 11.768,24.284 C11.216,24.552 10.599,24.755 9.921,24.892 C9.241,25.029 8.513,25.097 7.736,25.097 C6.477,25.097 5.368,24.933 4.41,24.604 C3.452,24.276 2.649,23.786 2.004,23.134 C1.358,22.483 0.865,21.675 0.526,20.712 C0.186,19.749 0.01,18.637 0,17.378 L3.876,17.378 C3.887,18.231 3.994,18.96 4.196,19.562 C4.399,20.165 4.673,20.652 5.018,21.024 C5.362,21.396 5.764,21.668 6.225,21.837 C6.684,22.007 7.173,22.091 7.686,22.091 C8.015,22.091 8.333,22.073 8.639,22.034 C8.946,21.996 9.233,21.919 9.502,21.804 C9.77,21.689 10.022,21.548 10.257,21.378 C10.493,21.208 10.698,20.989 10.874,20.72 C11.048,20.452 11.182,20.134 11.276,19.767 C11.368,19.401 11.415,18.987 11.415,18.527 L11.415,18.445 C11.415,17.898 11.344,17.422 11.202,17.016 C11.059,16.611 10.851,16.253 10.577,15.94 C10.303,15.629 9.969,15.36 9.575,15.135 C9.181,14.911 8.732,14.7 8.229,14.503 L5.339,13.468 C4.55,13.184 3.841,12.85 3.212,12.466 C2.581,12.084 2.042,11.618 1.593,11.071 C1.143,10.523 0.8,9.88 0.558,9.14 C0.317,8.401 0.197,7.545 0.197,6.57 L0.197,6.406 C0.197,5.749 0.276,5.132 0.435,4.557 C0.593,3.983 0.821,3.455 1.117,2.973 C1.413,2.491 1.774,2.069 2.201,1.708 C2.628,1.346 3.104,1.041 3.63,0.788 C4.155,0.537 4.733,0.342 5.362,0.206 C5.992,0.069 6.652,0 7.343,0 Z"></path></clipPath><clipPath id="i8"><path d="M13.024,0 L13.024,3.334 L3.909,3.334 L3.909,10.265 L11.908,10.265 L11.908,13.616 L3.909,13.616 L3.909,24.144 L0,24.144 L0,0 L13.024,0 Z"></path></clipPath><clipPath id="i9"><path d="M16.425,0 L16.425,25.0976 L0,25.0976 L0,0 L16.425,0 Z"></path></clipPath><clipPath id="i10"><path d="M8.212,0 C9.22,0 10.12,0.097 10.914,0.288 C11.708,0.479 12.409,0.775 13.017,1.175 C13.624,1.574 14.146,2.081 14.585,2.694 C15.023,3.308 15.376,4.03 15.644,4.862 C15.913,5.694 16.109,6.644 16.236,7.712 C16.361,8.779 16.425,9.975 16.425,11.301 L16.425,13.798 C16.425,15.779 16.277,17.482 15.981,18.905 C15.685,20.329 15.215,21.498 14.568,22.412 C13.923,23.327 13.079,24.003 12.039,24.44 C10.999,24.878 9.724,25.098 8.212,25.098 C7.205,25.098 6.305,25.002 5.51,24.81 C4.717,24.618 4.013,24.323 3.399,23.923 C2.786,23.523 2.267,23.02 1.84,22.412 C1.412,21.805 1.064,21.082 0.797,20.244 C0.527,19.406 0.328,18.451 0.197,17.378 C0.065,16.305 0,15.111 0,13.798 L0,11.301 C0,9.319 0.144,7.616 0.435,6.192 C0.725,4.768 1.196,3.6 1.848,2.685 C2.499,1.771 3.348,1.096 4.393,0.657 C5.439,0.22 6.712,0 8.212,0 Z M8.212,3.22 C7.686,3.22 7.219,3.285 6.808,3.417 C6.397,3.548 6.039,3.745 5.732,4.008 C5.426,4.27 5.171,4.602 4.969,5.002 C4.766,5.401 4.601,5.87 4.476,6.406 C4.35,6.942 4.26,7.554 4.205,8.237 C4.149,8.922 4.122,9.675 4.122,10.496 L4.122,14.602 C4.122,15.434 4.149,16.19 4.205,16.868 C4.26,17.548 4.35,18.155 4.476,18.692 C4.601,19.228 4.766,19.696 4.969,20.097 C5.171,20.496 5.426,20.827 5.732,21.09 C6.039,21.352 6.397,21.55 6.808,21.681 C7.219,21.812 7.686,21.878 8.212,21.878 C8.748,21.878 9.223,21.812 9.633,21.681 C10.044,21.55 10.399,21.352 10.701,21.09 C11.002,20.827 11.256,20.496 11.465,20.097 C11.672,19.696 11.84,19.228 11.965,18.692 C12.091,18.155 12.182,17.548 12.236,16.868 C12.291,16.19 12.318,15.434 12.318,14.602 L12.318,10.496 C12.318,9.675 12.291,8.922 12.236,8.237 C12.182,7.554 12.091,6.942 11.965,6.406 C11.84,5.87 11.672,5.401 11.465,5.002 C11.256,4.602 11.002,4.27 10.701,4.008 C10.399,3.745 10.046,3.548 9.641,3.417 C9.236,3.285 8.76,3.22 8.212,3.22 Z"></path></clipPath><clipPath id="i11"><path d="M3.91,0 L3.91,16.391 C3.91,17.191 3.975,17.897 4.107,18.51 C4.238,19.124 4.452,19.638 4.747,20.054 C5.043,20.471 5.429,20.786 5.905,20.999 C6.381,21.213 6.964,21.319 7.655,21.319 C8.344,21.319 8.93,21.213 9.411,20.999 C9.893,20.786 10.283,20.471 10.578,20.054 C10.873,19.638 11.084,19.124 11.21,18.51 C11.336,17.897 11.399,17.191 11.399,16.391 L11.399,0 L15.309,0 L15.309,16.506 C15.309,17.897 15.158,19.102 14.857,20.12 C14.555,21.138 14.093,21.982 13.469,22.65 C12.844,23.318 12.051,23.813 11.087,24.136 C10.123,24.46 8.979,24.621 7.655,24.621 C6.329,24.621 5.185,24.46 4.221,24.136 C3.258,23.813 2.467,23.318 1.848,22.65 C1.229,21.982 0.767,21.138 0.46,20.12 C0.154,19.102 0,17.897 0,16.506 L0,0 L3.91,0 Z"></path></clipPath><clipPath id="i12"><path d="M5.109,0 L12.106,19.052 L12.171,19.052 L11.942,12.301 L11.942,0 L15.604,0 L15.604,24.144 L10.512,24.144 L3.498,5.141 L3.466,5.141 L3.68,11.858 L3.68,24.144 L0,24.144 L0,0 L5.109,0 Z"></path></clipPath><clipPath id="i13"><path d="M6.208,0 C7.303,0 8.289,0.096 9.164,0.288 C10.041,0.48 10.812,0.778 11.48,1.183 C12.148,1.588 12.726,2.1 13.213,2.718 C13.7,3.337 14.1,4.072 14.412,4.919 C14.724,5.769 14.954,6.738 15.102,7.828 C15.25,8.916 15.324,10.14 15.324,11.497 L15.324,12.664 C15.324,14 15.25,15.216 15.102,16.31 C14.954,17.406 14.724,18.377 14.412,19.226 C14.1,20.075 13.7,20.808 13.213,21.427 C12.726,22.045 12.148,22.56 11.48,22.971 C10.812,23.381 10.041,23.68 9.164,23.866 C8.289,24.052 7.303,24.145 6.208,24.145 L0,24.145 L0,0 Z M5.978,3.252 L3.908,3.252 L3.908,20.893 L5.978,20.893 C6.624,20.893 7.202,20.838 7.711,20.729 C8.22,20.62 8.669,20.433 9.057,20.17 C9.446,19.908 9.777,19.571 10.052,19.16 C10.325,18.749 10.547,18.248 10.717,17.658 C10.887,17.066 11.01,16.384 11.086,15.613 C11.163,14.84 11.201,13.951 11.201,12.943 L11.201,11.218 C11.201,10.211 11.163,9.319 11.086,8.541 C11.01,7.764 10.887,7.08 10.717,6.488 C10.547,5.897 10.325,5.399 10.052,4.994 C9.777,4.588 9.446,4.251 9.057,3.984 C8.669,3.715 8.22,3.527 7.711,3.417 C7.202,3.308 6.624,3.252 5.978,3.252 Z"></path></clipPath><clipPath id="i14"><path d="M11.432,0 L17.954,24.144 L14.011,24.144 L12.335,17.509 L5.602,17.509 L3.926,24.144 L0,24.144 L6.521,0 L11.432,0 Z M8.985,4.04 L8.936,4.04 L6.39,14.24 L11.564,14.24 L8.985,4.04 Z"></path></clipPath><clipPath id="i15"><path d="M15.751,0 L15.751,3.334 L9.823,3.334 L9.823,24.145 L5.93,24.145 L5.93,3.334 L0,3.334 L0,0 L15.751,0 Z"></path></clipPath><clipPath id="i16"><path d="M367.322,0 L367.322,126.521 L0,126.521 L0,0 L367.322,0 Z"></path></clipPath><clipPath id="i17"><path d="M3.909,0 L3.909,24.145 L0,24.145 L0,0 L3.909,0 Z"></path></clipPath><clipPath id="i18"><path d="M8.213,0 C9.22,0 10.121,0.097 10.915,0.289 C11.709,0.48 12.41,0.776 13.017,1.175 C13.625,1.575 14.147,2.082 14.586,2.695 C15.023,3.308 15.377,4.031 15.645,4.863 C15.914,5.695 16.11,6.645 16.236,7.712 C16.362,8.78 16.425,9.976 16.425,11.301 L16.425,13.798 C16.425,15.78 16.277,17.483 15.982,18.906 C15.686,20.33 15.215,21.499 14.569,22.413 C13.923,23.328 13.08,24.003 12.04,24.441 C11,24.878 9.724,25.098 8.213,25.098 C7.205,25.098 6.304,25.002 5.51,24.811 C4.716,24.619 4.013,24.324 3.4,23.923 C2.787,23.524 2.267,23.021 1.84,22.413 C1.413,21.805 1.065,21.082 0.797,20.245 C0.528,19.407 0.329,18.452 0.197,17.378 C0.066,16.305 0,15.112 0,13.798 L0,11.301 C0,9.32 0.145,7.617 0.435,6.193 C0.725,4.769 1.197,3.601 1.848,2.686 C2.5,1.772 3.348,1.096 4.394,0.658 C5.439,0.22 6.713,0 8.213,0 Z M8.213,3.22 C7.687,3.22 7.218,3.286 6.808,3.417 C6.398,3.548 6.039,3.746 5.732,4.008 C5.425,4.271 5.172,4.603 4.968,5.002 C4.766,5.402 4.601,5.871 4.476,6.407 C4.35,6.943 4.259,7.554 4.205,8.238 C4.15,8.922 4.123,9.675 4.123,10.497 L4.123,14.603 C4.123,15.435 4.15,16.191 4.205,16.869 C4.259,17.548 4.35,18.156 4.476,18.693 C4.601,19.229 4.766,19.697 4.968,20.097 C5.172,20.497 5.425,20.828 5.732,21.09 C6.039,21.353 6.398,21.55 6.808,21.681 C7.218,21.813 7.687,21.878 8.213,21.878 C8.749,21.878 9.222,21.813 9.633,21.681 C10.045,21.55 10.4,21.353 10.701,21.09 C11.002,20.828 11.257,20.497 11.465,20.097 C11.673,19.697 11.84,19.229 11.965,18.693 C12.091,18.156 12.181,17.548 12.237,16.869 C12.292,16.191 12.319,15.435 12.319,14.603 L12.319,10.497 C12.319,9.675 12.292,8.922 12.237,8.238 C12.181,7.554 12.091,6.943 11.965,6.407 C11.84,5.871 11.673,5.402 11.465,5.002 C11.257,4.603 11.002,4.271 10.701,4.008 C10.4,3.746 10.047,3.548 9.641,3.417 C9.236,3.286 8.76,3.22 8.213,3.22 Z"></path></clipPath><clipPath id="i19"><path d="M5.108,0 L12.105,19.053 L12.17,19.053 L11.941,12.302 L11.941,0 L15.604,0 L15.604,24.145 L10.512,24.145 L3.499,5.142 L3.465,5.142 L3.679,11.859 L3.679,24.145 L0,24.145 L0,0 L5.108,0 Z"></path></clipPath><clipPath id="i20"><path d="M12.492,0 L12.492,1.195 C10.663,1.195 9.076,3.068 9.076,6.017 L9.076,29.051 C9.076,33.249 9.507,36.881 13.173,36.881 C13.4785833,36.881 13.7828958,36.885875 14.0840272,36.8899051 L14.3840274,36.8934417 C17.5712099,36.923642 20.324,36.6407778 20.324,29.103 L20.324,6.017 C20.324,3.068 18.738,1.195 16.907,1.195 L16.907,0 L25.435,0 L25.435,1.195 C23.612,1.195 22.026,3.068 22.026,6.017 L22.026,28.932 C22.026,38.7924878 18.4643105,39.3404236 12.6270418,39.3612863 L12.185,39.362 C6.089,39.362 3.487,35.788 3.487,30.974 L3.487,6.017 C3.487,3.068 1.83,1.195 0,1.195 L0,0 L12.492,0 Z"></path></clipPath><clipPath id="i21"><path d="M12.292,0 L12.292,1.195 C10.463,1.195 8.943,3.067 8.943,6.017 L8.943,29.05 C8.943,33.248 9.375,36.881 13.04,36.881 L13.3451677,36.8824131 C13.4467004,36.8832846 13.5480197,36.8844859 13.6490549,36.885805 L13.9512373,36.8899045 L14.2512908,36.8934403 C17.439,36.9236296 20.191,36.6406667 20.191,29.102 L20.191,6.017 C20.191,3.067 18.739,1.195 16.907,1.195 L16.907,0 L25.169,0 L25.169,1.195 C23.346,1.195 21.893,3.067 21.893,6.017 L21.893,28.931 C21.893,39.038 18.15,39.361 12.051,39.361 C5.955,39.361 3.353,35.788 3.353,30.974 L3.353,6.017 C3.353,3.067 1.831,1.195 0,1.195 L0,0 L12.292,0 Z"></path></clipPath><clipPath id="i22"><path d="M14.005,0 C17.598,0 20.108,0.813 21.67,2.83 C23.234,4.848 24.317,8.911 24.651,15.575 C24.897,22.299 24.687,26.669 22.934,32.028 C21.141,37.189 18.234,38.639 15.701,38.639 L0,38.639 L0,37.453 C1.835,37.453 3.354,35.595 3.354,32.641 L3.354,6.017 C3.354,3.067 1.835,1.195 0,1.195 L0,0 Z M12.322,1.714 C9.742,1.714 8.942,2.488 8.942,5.672 L8.94289763,33.8197661 C8.95432716,36.5238796 9.09494444,36.7163889 10.454,36.842 C12.21,37.003 14.36,36.765 14.859,36.628 C17.9383265,35.785551 18.9314636,30.4295706 19.1285101,29.1305334 L19.1585656,28.9207938 C19.1650012,28.8725681 19.168,28.847 19.168,28.847 C19.763,21.113 20.106,10.937 17.977,5.466 C16.907,2.633 15.511,1.714 12.322,1.714 Z"></path></clipPath><clipPath id="i23"><path d="M20.391,0 L20.391,7.404 L19.005,7.404 C18.653,5.474 18.368,2.155 12.851,1.93 L10.513,1.814 C9.249,1.759 9.009,2.27 9.009,5.169 L9.009,18.164 C13.048,17.825 13.584,17.553 14.458,12.514 L15.544,12.514 L15.544,25.805 L14.458,25.805 C13.427,20.48 13.048,20.491 9.009,20.15 L9.00961945,33.1604446 C9.02324151,35.8457769 9.27436364,36.6017879 11.014,36.819 C13.779,36.912 18.806,37.881 20.625,31.634 L22.189,31.634 L20.644,38.639 L0,38.639 L0,37.453 C1.829,37.453 3.417,35.595 3.417,32.641 L3.417,6.017 C3.417,3.067 1.829,1.195 0,1.195 L0,0 L20.391,0 Z"></path></clipPath><clipPath id="i24"><path d="M20.327,0 L20.327,7.404 L18.939,7.404 C18.589,5.472 18.304,2.155 12.784,1.93 L10.449,1.814 C9.187,1.759 8.943,2.27 8.943,5.169 L8.943,18.164 C12.982,17.825 13.516,17.554 14.394,12.514 L15.478,12.514 L15.478,25.805 L14.394,25.805 C13.362,20.48 12.982,20.493 8.943,20.15 L8.943,32.902 C8.943,35.798 9.156,36.595 10.947,36.819 C13.713,36.913 18.742,37.883 20.559,31.634 L22.123,31.634 L20.579,38.639 L0,38.639 L0,37.453 C1.832,37.453 3.351,35.595 3.351,32.641 L3.351,6.017 C3.351,3.067 1.832,1.195 0,1.195 L0,0 L20.327,0 Z"></path></clipPath><clipPath id="i25"><path d="M28.029,0 L28.0299596,2.02262278 C28.030003,2.11417444 28.0300476,2.2084854 28.0300935,2.30548275 L28.030872,3.952808 C28.0309296,4.0748464 28.0309883,4.19920662 28.031048,4.32581575 L28.0318125,5.94840625 C28.03188,6.09184 28.0319484,6.237231 28.0320177,6.38450634 L28.032888,8.237592 C28.0329636,8.3987754 28.0330399,8.56155148 28.0331169,8.72584733 L28.0338275,10.2435749 C28.0339082,10.4163332 28.0339896,10.5903924 28.0340715,10.7656797 L28.0348222,12.3744562 C28.034907,12.556456 28.0349923,12.7394651 28.0350779,12.9234107 L28.0358584,14.6022368 C28.0359461,14.7911449 28.0360341,14.9807707 28.0361223,15.1710413 L28.0369223,16.8989177 C28.0370117,17.0924009 28.0371013,17.2863101 28.037191,17.4805725 L28.038,19.2365 C28.03809,19.432225 28.03818,19.6280844 28.03827,19.8240053 L28.038809,20.9996851 C28.0388987,21.1955603 28.0389883,21.3913511 28.0390777,21.5869847 L28.0398777,23.3414723 C28.0399659,23.5355061 28.0400539,23.7291639 28.0401416,23.9223728 L28.0409221,25.6471637 C28.0410077,25.8370229 28.041093,26.0262144 28.0411778,26.2146654 L28.0419285,27.8887603 C28.0420104,28.0721116 28.0420918,28.2545036 28.0421725,28.4358635 L28.0428831,30.0382631 C28.0429601,30.2127733 28.0430364,30.3860326 28.043112,30.557968 L28.0439823,32.5529801 C28.0440516,32.7131578 28.04412,32.87172 28.0441875,33.0285938 L28.044952,34.8253667 C28.0450117,34.9675662 28.0450704,35.1077856 28.045128,35.245952 L28.0459065,37.1553573 C28.0459524,37.2711706 28.045997,37.3845664 28.0460404,37.4954716 L28.0469946,40.397899 L28.047,40.489 C28.047,45.2668462 29.9496746,45.7664438 31.920056,45.8150337 L32.1665736,45.8190353 C32.2487751,45.8197707 32.3309615,45.82 32.413,45.82 L32.413,47.006 L17.417,47.006 L17.417,45.82 C19.978,45.82 21.788,45.579 21.788,40.49 L21.788,32.119 L11.344,32.119 C11.344,32.119 10.5586198,34.0308015 9.69316668,36.1348312 L9.49981236,36.6048587 C9.04691455,37.7057112 8.58653488,38.824 8.217,39.72 C7.08,42.47 7.767,45.82 10.056,45.82 L10.056,47.006 L0,47.006 L0,45.82 C2.792,45.82 4.64,42.621 5.952,39.709 C6.56562245,38.3543776 9.86701093,30.0748249 13.2236557,21.6083392 L13.5770771,20.7167308 C15.8741643,14.9205725 18.1538776,9.14758163 19.573,5.556 C20.47,3.292 20.21,1.225 17.409,1.225 L17.409,0 L28.029,0 Z M21.788,6.539 L12.118,30.4 L21.788,30.4 L21.788,6.539 Z"></path></clipPath><clipPath id="i26"><path d="M18.317,0 C21.601,0 23.277,2.463 23.277,5.851 L23.277,20.103 C23.277,24.351 21.278,26.219 18.702,26.219 L10.701,26.219 L10.701,40.074 C10.701,45.235 12.298,45.828 15.006,45.828 L15.006,47.015 L0.01,47.015 L0.01,45.828 C2.38,45.828 4.383,45.399 4.383,40.045 L4.383,6.487 C4.383,2.998 2.619,1.236 0,1.236 L0,0 Z M15.739,1.721 L10.701,1.721 L10.707,11.791 L10.707,14.16 L10.701,24.43 L15.739,24.43 C16.668,24.43 17.12,23.758 17.12,22.495 L17.12,3.937 C17.12,2.457 16.668,1.721 15.739,1.721 Z"></path></clipPath><clipPath id="i27"><path d="M9.855,0 L17.319,27.013 L17.46,26.394 L25.235,0 L34.73,0 L34.73,1.195 C32.722,1.195 31.231,3.067 31.231,6.017 L31.231,32.641 C31.231,35.595 32.722,37.453 34.73,37.453 L34.73,38.639 L22.111,38.639 L22.111,37.453 C24.122,37.453 25.542,35.595 25.542,32.641 L25.542,4.945 L15.722,38.639 L14.792,38.639 L5.317,4.825 L5.317,32.641 C5.317,35.595 6.737,37.453 8.749,37.453 L8.749,38.639 L0.052,38.639 L0.052,37.453 C2.064,37.453 3.481,35.595 3.481,32.641 L3.481,6.127 C3.481,2.041 2.478,1.195 0,1.195 L0,0 L9.855,0 Z"></path></clipPath><clipPath id="i28"><path d="M12.6003624,0.000699956262 C12.6791629,0.000933275016 12.7578601,0.00124436669 12.836431,0.00165915558 L13.3061544,0.00559965009 C17.282759,0.0531966759 20.81,0.505368421 20.81,4.801 C20.81,7.491 20.9,11.547 20.9,15.391 C20.9,18.96 18.313,19.745 16.275,20.223 L22.708,35.425 C23.693,37.746 24.228,37.453 24.649,37.453 L24.649,38.639 L20.039,38.639 C20.039,38.639 18.796,38.696 18.186,38.099 C17.539,37.467 17.215,36.525 17.215,36.525 L10.835,20.663 L8.992,20.663 L8.992,32.641 C8.992,35.595 10.583,37.453 12.401,37.453 L12.401,38.639 L0,38.639 L0,37.453 C1.425,37.453 3.395,35.588 3.395,32.641 L3.395,6.017 C3.395,3.067 1.881,1.195 0.055,1.195 L0.055,0 Z M15.615,5.116 C15.615,1.496 13.055,1.93 10.43,1.93 C9.048,1.93 8.992,2.723 8.992,4.261 L8.992,18.848 C10.711,18.789 15.615,19.428 15.615,14.803 Z"></path></clipPath><clipPath id="i29"><path d="M12.272,0 L12.272,1.195 C9.985,1.195 8.936,3.067 8.936,6.017 L8.936,32.641 C8.936,35.595 9.985,37.453 12.272,37.453 L12.272,38.639 L0,38.639 L0,37.453 C2.288,37.453 3.348,35.595 3.348,32.641 L3.348,6.017 C3.348,3.067 2.288,1.195 0,1.195 L0,0 L12.272,0 Z"></path></clipPath><clipPath id="i30"><path d="M7.304,0.013807726 C12.321,-0.196192274 12.896,2.05780773 14.822,2.11480773 C15.439,2.11480773 15.924,1.79580773 15.979,0.479807726 L17.116,0.479807726 L17.116,12.4998077 L16.1,12.4998077 C15.532,9.29080773 13.916,1.94480773 8.732,1.88680773 C5.33,1.88680773 4.755,6.91380773 4.755,8.28080773 C4.755,10.7778077 6.383,13.6738077 10.64,15.8858077 C16.587,18.9508077 19.185,23.6068077 19.185,29.0588077 C19.185,33.0288077 17.705,40.1018077 9.356,40.2088077 C6.068,40.2498077 4.165,38.2748077 2.31,38.2748077 C1.842,38.2748077 1.558,38.8638077 1.44,39.9418077 L0.264,39.9418077 L0.264,26.4138077 L1.401,26.4138077 L2.212,30.3848077 C2.674,32.5968077 5.016,38.4478077 8.571,38.4478077 C13.602,38.4478077 13.994,32.7348077 13.994,31.3698077 C13.994,28.0808077 11.987,26.3828077 5.686,22.1168077 C1.352,19.1728077 0,14.2308077 0,10.7098077 C0,2.99080773 4.055,0.149807726 7.304,0.013807726 Z"></path></clipPath><clipPath id="i31"><path d="M10.302,0 C15.048,0 17.748,4.684 17.748,0.133 L19.164,0.133 L19.164,12.031 L17.282,12.031 C17.282,5.346 13.593,1.887 10.145,1.887 C7.032,1.887 5.732,4.043 5.732,6.563 L5.732,33.188 C5.732,36.876 6.9,37.96 9.848,37.96 C12.795,37.96 14.459,37.572 14.459,32.746 L14.459,23.707 C14.459,21.01 12.766,20.857 12.766,20.857 L12.766,19.855 L21.194,19.855 L21.194,20.857 C21.194,20.857 19.497,21.069 19.497,23.642 L19.497,30.114 C19.497,32.675 18.663,34.902 16.979,36.795 C16.168,37.716 15.269,38.414 14.289,38.89 C13.307,39.368 11.356,39.871 9.991,39.871 C7.651,39.871 4.049,38.925 2.405,37.032 C0.755,35.213 0,32.985 0,30.35 L0,9.456 C0,6.823 0.755,4.576 2.405,2.719 C4.02,0.884 6.86,0 10.302,0 Z"></path></clipPath><clipPath id="i32"><path d="M14.367,0 L21.535,34.928 C22.138,37.325 23.149,37.573 23.745,37.586 L23.736,37.586 L23.736,38.772 L13.784,38.772 L13.784,37.586 C15.269,37.586 16.502,37.034 15.727,33.937 L14.213,26.988 L6.278,26.988 L4.782,32.615 C4.075,35.596 4.111,37.586 6.559,37.586 L6.559,38.772 L0,38.772 L0,37.586 C0.96,37.586 1.977,37.034 2.755,33.825 L9.077,5.583 C9.519,3.173 9.857,1.225 7.449,1.225 L7.449,0 L14.367,0 Z M10.463,7.791 L6.667,25.164 L13.69,25.164 L10.463,7.791 Z"></path></clipPath><clipPath id="i33"><path d="M21.727,0 L21.727,7.405 L20.449,7.405 C20.276,5.929 19.948,3.749 18.606,2.889 C17.4653,2.15885 16.3007575,2.08762 14.6075617,2.08267937 L13.659,2.083 L13.659,32.641 C13.659,35.595 15.178,37.453 17.008,37.453 L17.008,38.639 L4.788,38.639 L4.788,37.453 C6.62,37.453 8.066,35.595 8.066,32.641 L8.066,2.083 L7.11787812,2.08267937 C5.425475,2.08762 4.2614,2.15885 3.119,2.889 C1.778,3.749 1.451,5.929 1.278,7.405 L0,7.405 L0,0 L21.727,0 Z"></path></clipPath></defs><g transform=""><g transform="translate(35.06399999999999 101.8997)"><g clip-path="url(#i0)"><polygon points="0,0 13.026,0 13.026,24.144 0,24.144 0,0" stroke="none" fill="#FFFFFF"></polygon></g></g><g transform="translate(51.32640000000001 101.4229)"><g clip-path="url(#i1)"><polygon points="0,0 16.424,0 16.424,25.098 0,25.098 0,0" stroke="none" fill="#FFFFFF"></polygon></g></g><g transform="translate(72.67779999999999 101.89959999999999)"><g clip-path="url(#i2)"><polygon points="0,0 15.685,0 15.685,24.145 0,24.145 0,0" stroke="none" fill="#FFFFFF"></polygon></g></g><g transform="translate(96.4608 101.8999)"><g clip-path="url(#i3)"><polygon points="0,0 15.752,0 15.752,24.145 0,24.145 0,0" stroke="none" fill="#FFFFFF"></polygon></g></g><g transform="translate(116.08790000000002 101.89959999999999)"><g clip-path="url(#i4)"><polygon points="0,0 15.686,0 15.686,24.145 0,24.145 0,0" stroke="none" fill="#FFFFFF"></polygon></g></g><g transform="translate(135.53520000000003 101.90010000000001)"><g clip-path="url(#i5)"><polygon points="0,0 12.877,0 12.877,24.144 0,24.144 0,0" stroke="none" fill="#FFFFFF"></polygon></g></g><g transform="translate(153.19140000000002 101.90010000000001)"><g clip-path="url(#i6)"><polygon points="0,0 12.878,0 12.878,24.144 0,24.144 0,0" stroke="none" fill="#FFFFFF"></polygon></g></g><g transform="translate(169.99530000000001 101.4237)"><g clip-path="url(#i7)"><polygon points="0,0 15.243,0 15.243,25.097 0,25.097 0,0" stroke="none" fill="#FFFFFF"></polygon></g></g><g transform="translate(35.0606 0.47629999999999484)"><g clip-path="url(#i8)"><polygon points="0,0 13.024,0 13.024,24.144 0,24.144 0,0" stroke="none" fill="#FFFFFF"></polygon></g></g><g transform="translate(51.189400000000006 0.0)"><g clip-path="url(#i9)"><g transform="translate(0.0 -0.00039999999999906777)"><g clip-path="url(#i10)"><polygon points="0,0.0004 16.425,0.0004 16.425,25.098 0,25.098 0,0.0004" stroke="none" fill="#FFFFFF"></polygon></g></g></g></g><g transform="translate(72.607 0.47649999999998727)"><g clip-path="url(#i11)"><polygon points="0,0 15.309,0 15.309,24.621 0,24.621 0,0" stroke="none" fill="#FFFFFF"></polygon></g></g><g transform="translate(93.49960000000002 0.47649999999998727)"><g clip-path="url(#i12)"><polygon points="0,0 15.604,0 15.604,24.144 0,24.144 0,0" stroke="none" fill="#FFFFFF"></polygon></g></g><g transform="translate(114.83599999999998 0.47569999999998913)"><g clip-path="url(#i13)"><polygon points="0,0 15.324,0 15.324,24.145 0,24.145 0,0" stroke="none" fill="#FFFFFF"></polygon></g></g><g transform="translate(132.6557 0.4760999999999882)"><g clip-path="url(#i14)"><polygon points="0,0 17.954,0 17.954,24.144 0,24.144 0,0" stroke="none" fill="#FFFFFF"></polygon></g></g><g transform="translate(150.6744 0.4756)"><g clip-path="url(#i15)"><polygon points="0,0 15.751,0 15.751,24.145 0,24.145 0,0" stroke="none" fill="#FFFFFF"></polygon></g></g><g clip-path="url(#i16)"><g transform="translate(170.335 0.4759999999999991)"><g clip-path="url(#i17)"><polygon points="0,0 3.909,0 3.909,24.145 0,24.145 0,0" stroke="none" fill="#FFFFFF"></polygon></g></g><g transform="translate(179.38500000000005 -0.0009000000000014552)"><g clip-path="url(#i18)"><polygon points="0,0.0009 16.425,0.0009 16.425,25.098 0,25.098 0,0.0009" stroke="none" fill="#FFFFFF"></polygon></g></g><g transform="translate(200.93489999999997 0.47580000000000666)"><g clip-path="url(#i19)"><polygon points="0,0 15.604,0 15.604,24.145 0,24.145 0,0" stroke="none" fill="#FFFFFF"></polygon></g></g><g transform="translate(31.570099999999996 43.942400000000006)"><g clip-path="url(#i20)"><polygon points="0,0 25.435,0 25.435,39.362 0,39.362 0,0" stroke="none" fill="#FFFFFF"></polygon></g></g><g transform="translate(295.8061 43.942800000000005)"><g clip-path="url(#i21)"><polygon points="0,0 25.169,0 25.169,39.361 0,39.361 0,0" stroke="none" fill="#FFFFFF"></polygon></g></g><g transform="translate(58.762600000000006 43.942800000000005)"><g clip-path="url(#i22)"><polygon points="0,0 24.7356313,0 24.7356313,38.639 0,38.639 0,0" stroke="none" fill="#FFFFFF"></polygon></g></g><g transform="translate(84.9409 43.9426)"><g clip-path="url(#i23)"><polygon points="0,0 22.189,0 22.189,38.639 0,38.639 0,0" stroke="none" fill="#FFFFFF"></polygon></g></g><g transform="translate(322.73029999999994 43.94269999999999)"><g clip-path="url(#i24)"><polygon points="0,0 22.123,0 22.123,38.639 0,38.639 0,0" stroke="none" fill="#FFFFFF"></polygon></g></g><g transform="translate(9.999999999976694e-05 35.5753)"><g clip-path="url(#i25)"><polygon points="0,0 32.413,0 32.413,47.006 0,47.006 0,0" stroke="none" fill="#FFFFFF"></polygon></g></g><g transform="translate(231.35160000000002 35.567099999999996)"><g clip-path="url(#i26)"><polygon points="0,0 23.277,0 23.277,47.015 0,47.015 0,0" stroke="none" fill="#FFFFFF"></polygon></g></g><g transform="translate(108.70149999999998 43.942800000000005)"><g clip-path="url(#i27)"><polygon points="0,0 34.73,0 34.73,38.639 0,38.639 0,0" stroke="none" fill="#FFFFFF"></polygon></g></g><g transform="translate(170.5712 43.9426)"><g clip-path="url(#i28)"><polygon points="0,0 24.649,0 24.649,38.6404654 0,38.6404654 0,0" stroke="none" fill="#FFFFFF"></polygon></g></g><g transform="translate(257.97800000000007 43.942800000000005)"><g clip-path="url(#i29)"><polygon points="0,0 12.272,0 12.272,38.639 0,38.639 0,0" stroke="none" fill="#FFFFFF"></polygon></g></g><g transform="translate(197.35360000000003 42.868792273986216)"><g clip-path="url(#i30)"><polygon points="0,5.64037181e-15 19.185,5.64037181e-15 19.185,40.2094374 0,40.2094374 0,5.64037181e-15" stroke="none" fill="#FFFFFF"></polygon></g></g><g transform="translate(273.5598 43.207499999999996)"><g clip-path="url(#i31)"><polygon points="0,0 21.194,0 21.194,39.871 0,39.871 0,0" stroke="none" fill="#FFFFFF"></polygon></g></g><g transform="translate(145.4376 43.8095)"><g clip-path="url(#i32)"><polygon points="0,0 23.745,0 23.745,38.772 0,38.772 0,0" stroke="none" fill="#FFFFFF"></polygon></g></g><g transform="translate(345.59450000000004 43.9423)"><g clip-path="url(#i33)"><polygon points="0,0 21.727,0 21.727,38.639 0,38.639 0,0" stroke="none" fill="#FFFFFF"></polygon></g></g></g></g></svg>