<?xml version="1.0" encoding="UTF-8"?><svg version="1.1" width="368px" height="113px" viewBox="0 0 368.0 113.0" xmlns="http://www.w3.org/2000/svg" xmlns:xlink="http://www.w3.org/1999/xlink"><defs><clipPath id="i0"><path d="M368,0 L368,113 L0,113 L0,0 L368,0 Z"></path></clipPath><clipPath id="i1"><path d="M13.025,0 L13.025,3.335 L3.909,3.335 L3.909,10.266 L11.909,10.266 L11.909,13.617 L3.909,13.617 L3.909,24.145 L0,24.145 L0,0 L13.025,0 Z"></path></clipPath><clipPath id="i2"><path d="M8.213,0 C9.22,0 10.12,0.096 10.915,0.287 C11.708,0.479 12.409,0.775 13.017,1.174 C13.625,1.574 14.147,2.081 14.586,2.694 C15.023,3.307 15.376,4.03 15.645,4.862 C15.913,5.694 16.11,6.644 16.236,7.712 C16.362,8.779 16.425,9.976 16.425,11.3 L16.425,13.797 C16.425,15.779 16.277,17.482 15.982,18.905 C15.686,20.329 15.215,21.498 14.569,22.412 C13.923,23.326 13.08,24.003 12.04,24.44 C10.999,24.878 9.724,25.097 8.213,25.097 C7.205,25.097 6.305,25.002 5.511,24.81 C4.717,24.618 4.013,24.323 3.4,23.923 C2.787,23.523 2.267,23.02 1.84,22.412 C1.413,21.804 1.065,21.081 0.797,20.244 C0.528,19.406 0.329,18.451 0.197,17.378 C0.066,16.305 0,15.111 0,13.797 L0,11.3 C0,9.319 0.145,7.616 0.435,6.192 C0.726,4.769 1.196,3.6 1.848,2.686 C2.499,1.771 3.348,1.095 4.394,0.657 C5.439,0.219 6.712,0 8.213,0 Z M8.213,3.219 C7.687,3.219 7.219,3.285 6.808,3.416 C6.398,3.548 6.039,3.745 5.733,4.008 C5.426,4.271 5.171,4.602 4.969,5.001 C4.766,5.401 4.602,5.869 4.476,6.406 C4.35,6.942 4.26,7.553 4.205,8.237 C4.15,8.922 4.123,9.674 4.123,10.496 L4.123,14.602 C4.123,15.434 4.15,16.19 4.205,16.868 C4.26,17.548 4.35,18.155 4.476,18.692 C4.602,19.228 4.766,19.697 4.969,20.096 C5.171,20.496 5.426,20.827 5.733,21.09 C6.039,21.353 6.398,21.55 6.808,21.681 C7.219,21.812 7.687,21.878 8.213,21.878 C8.749,21.878 9.223,21.812 9.633,21.681 C10.044,21.55 10.4,21.353 10.701,21.09 C11.002,20.827 11.257,20.496 11.465,20.096 C11.673,19.697 11.84,19.228 11.966,18.692 C12.091,18.155 12.182,17.548 12.237,16.868 C12.291,16.19 12.319,15.434 12.319,14.602 L12.319,10.496 C12.319,9.674 12.291,8.922 12.237,8.237 C12.182,7.553 12.091,6.942 11.966,6.406 C11.84,5.869 11.673,5.401 11.465,5.001 C11.257,4.602 11.002,4.271 10.701,4.008 C10.4,3.745 10.046,3.548 9.642,3.416 C9.236,3.285 8.76,3.219 8.213,3.219 Z"></path></clipPath><clipPath id="i3"><path d="M5.108,0 L12.105,19.053 L12.171,19.053 L11.941,12.303 L11.941,0 L15.603,0 L15.603,24.145 L10.512,24.145 L3.498,5.141 L3.465,5.141 L3.679,11.859 L3.679,24.145 L0,24.145 L0,0 L5.108,0 Z"></path></clipPath><clipPath id="i4"><path d="M6.209,0 C7.304,0 8.289,0.096 9.165,0.288 C10.041,0.48 10.813,0.778 11.481,1.183 C12.149,1.588 12.727,2.1 13.214,2.719 C13.701,3.337 14.101,4.071 14.413,4.92 C14.725,5.768 14.955,6.737 15.103,7.827 C15.251,8.917 15.325,10.14 15.325,11.498 L15.325,12.664 C15.325,14 15.251,15.216 15.103,16.31 C14.955,17.405 14.725,18.377 14.413,19.226 C14.101,20.074 13.701,20.808 13.214,21.427 C12.727,22.045 12.149,22.56 11.481,22.971 C10.813,23.381 10.041,23.68 9.165,23.866 C8.289,24.052 7.304,24.145 6.209,24.145 L0,24.145 L0,0 L6.209,0 Z M5.979,3.253 L3.909,3.253 L3.909,20.893 L5.979,20.893 C6.625,20.893 7.203,20.838 7.712,20.729 C8.221,20.619 8.67,20.433 9.059,20.17 C9.447,19.907 9.778,19.571 10.052,19.16 C10.326,18.75 10.548,18.249 10.717,17.657 C10.887,17.066 11.01,16.384 11.087,15.612 C11.163,14.84 11.202,13.951 11.202,12.943 L11.202,11.219 C11.202,10.211 11.163,9.319 11.087,8.541 C11.01,7.764 10.887,7.079 10.717,6.488 C10.548,5.897 10.326,5.399 10.052,4.993 C9.778,4.588 9.447,4.252 9.059,3.983 C8.67,3.715 8.221,3.526 7.712,3.417 C7.203,3.307 6.625,3.253 5.979,3.253 Z"></path></clipPath><clipPath id="i5"><path d="M11.431,0 L17.952,24.145 L14.01,24.145 L12.335,17.509 L5.601,17.509 L3.925,24.145 L0,24.145 L6.52,0 L11.431,0 Z M8.984,4.041 L8.935,4.041 L6.389,14.241 L11.563,14.241 L8.984,4.041 Z"></path></clipPath><clipPath id="i6"><path d="M15.751,0 L15.751,3.335 L9.822,3.335 L9.822,24.145 L5.929,24.145 L5.929,3.335 L0,3.335 L0,0 L15.751,0 Z"></path></clipPath><clipPath id="i7"><path d="M3.909,0 L3.909,24.145 L0,24.145 L0,0 L3.909,0 Z"></path></clipPath><clipPath id="i8"><path d="M8.212,0 C9.22,0 10.12,0.096 10.914,0.287 C11.708,0.479 12.409,0.775 13.017,1.174 C13.624,1.574 14.147,2.081 14.585,2.694 C15.023,3.307 15.376,4.03 15.645,4.862 C15.913,5.694 16.11,6.644 16.236,7.712 C16.362,8.779 16.425,9.976 16.425,11.3 L16.425,13.797 C16.425,15.779 16.277,17.482 15.981,18.905 C15.686,20.329 15.215,21.498 14.569,22.412 C13.923,23.326 13.079,24.003 12.039,24.44 C10.999,24.878 9.724,25.097 8.212,25.097 C7.205,25.097 6.304,25.002 5.51,24.81 C4.716,24.618 4.013,24.323 3.4,23.923 C2.787,23.523 2.266,23.02 1.839,22.412 C1.412,21.804 1.065,21.081 0.797,20.244 C0.528,19.406 0.328,18.451 0.197,17.378 C0.066,16.305 0,15.111 0,13.797 L0,11.3 C0,9.319 0.145,7.616 0.435,6.192 C0.725,4.769 1.196,3.6 1.848,2.686 C2.499,1.771 3.348,1.095 4.393,0.657 C5.439,0.219 6.712,0 8.212,0 Z M8.212,3.219 C7.687,3.219 7.219,3.285 6.808,3.416 C6.397,3.548 6.039,3.745 5.732,4.008 C5.425,4.271 5.171,4.602 4.968,5.001 C4.766,5.401 4.601,5.869 4.476,6.406 C4.35,6.942 4.259,7.553 4.205,8.237 C4.15,8.922 4.122,9.674 4.122,10.496 L4.122,14.602 C4.122,15.434 4.15,16.19 4.205,16.868 C4.259,17.548 4.35,18.155 4.476,18.692 C4.601,19.228 4.766,19.697 4.968,20.096 C5.171,20.496 5.425,20.827 5.732,21.09 C6.039,21.353 6.397,21.55 6.808,21.681 C7.219,21.812 7.687,21.878 8.212,21.878 C8.749,21.878 9.223,21.812 9.633,21.681 C10.044,21.55 10.4,21.353 10.701,21.09 C11.002,20.827 11.256,20.496 11.464,20.096 C11.672,19.697 11.839,19.228 11.965,18.692 C12.091,18.155 12.182,17.548 12.236,16.868 C12.291,16.19 12.319,15.434 12.319,14.602 L12.319,10.496 C12.319,9.674 12.291,8.922 12.236,8.237 C12.182,7.553 12.091,6.942 11.965,6.406 C11.839,5.869 11.672,5.401 11.464,5.001 C11.256,4.602 11.002,4.271 10.701,4.008 C10.4,3.745 10.046,3.548 9.641,3.416 C9.236,3.285 8.76,3.219 8.212,3.219 Z"></path></clipPath><clipPath id="i9"><path d="M5.108,0 L12.105,19.053 L12.171,19.053 L11.941,12.303 L11.941,0 L15.604,0 L15.604,24.145 L10.512,24.145 L3.499,5.141 L3.466,5.141 L3.679,11.859 L3.679,24.145 L0,24.145 L0,0 L5.108,0 Z"></path></clipPath><clipPath id="i10"><path d="M7.342,0 C8.459,0 9.461,0.131 10.348,0.394 C11.235,0.657 11.996,1.082 12.631,1.667 C13.266,2.253 13.753,3.003 14.092,3.917 C14.432,4.832 14.607,5.94 14.618,7.243 L10.758,7.243 C10.747,6.411 10.646,5.722 10.454,5.174 C10.263,4.626 10.003,4.191 9.674,3.868 C9.346,3.545 8.97,3.323 8.549,3.203 C8.127,3.083 7.692,3.022 7.243,3.022 C6.969,3.022 6.698,3.047 6.43,3.096 C6.162,3.146 5.907,3.222 5.666,3.326 C5.425,3.43 5.206,3.564 5.009,3.729 C4.812,3.893 4.637,4.095 4.484,4.336 C4.33,4.577 4.213,4.854 4.131,5.166 C4.048,5.478 4.007,5.831 4.007,6.225 L4.007,6.356 C4.007,6.816 4.07,7.227 4.196,7.588 C4.322,7.95 4.506,8.278 4.746,8.574 C4.987,8.87 5.283,9.13 5.633,9.354 C5.984,9.579 6.389,9.773 6.849,9.937 L9.74,10.972 C10.572,11.268 11.325,11.612 11.998,12.007 C12.672,12.401 13.252,12.88 13.739,13.444 C14.226,14.008 14.599,14.668 14.856,15.423 C15.113,16.179 15.242,17.066 15.242,18.084 L15.242,18.182 C15.242,18.916 15.165,19.601 15.012,20.236 C14.859,20.871 14.637,21.443 14.347,21.952 C14.057,22.461 13.693,22.91 13.255,23.299 C12.817,23.688 12.321,24.016 11.768,24.284 C11.215,24.553 10.599,24.755 9.921,24.892 C9.241,25.029 8.513,25.097 7.736,25.097 C6.477,25.097 5.368,24.933 4.41,24.605 C3.452,24.276 2.65,23.786 2.004,23.134 C1.357,22.483 0.865,21.675 0.525,20.712 C0.186,19.748 0.011,18.637 0,17.378 L3.876,17.378 C3.887,18.232 3.994,18.96 4.196,19.562 C4.399,20.165 4.673,20.652 5.018,21.024 C5.362,21.396 5.765,21.668 6.225,21.837 C6.685,22.007 7.172,22.092 7.687,22.092 C8.015,22.092 8.333,22.073 8.639,22.034 C8.946,21.996 9.233,21.919 9.502,21.804 C9.77,21.689 10.022,21.547 10.257,21.377 C10.493,21.207 10.698,20.989 10.873,20.72 C11.048,20.452 11.182,20.134 11.276,19.768 C11.369,19.401 11.415,18.987 11.415,18.527 L11.415,18.445 C11.415,17.898 11.344,17.422 11.202,17.016 C11.059,16.611 10.851,16.252 10.578,15.94 C10.304,15.628 9.97,15.36 9.576,15.136 C9.181,14.911 8.732,14.7 8.229,14.503 L5.338,13.468 C4.549,13.184 3.84,12.85 3.211,12.467 C2.581,12.084 2.042,11.618 1.593,11.071 C1.144,10.523 0.799,9.88 0.558,9.141 C0.317,8.401 0.197,7.545 0.197,6.57 L0.197,6.406 C0.197,5.749 0.276,5.133 0.435,4.558 C0.594,3.983 0.821,3.455 1.117,2.973 C1.412,2.491 1.774,2.07 2.201,1.708 C2.628,1.347 3.104,1.041 3.63,0.788 C4.155,0.537 4.733,0.342 5.362,0.205 C5.992,0.069 6.652,0 7.342,0 Z"></path></clipPath><clipPath id="i11"><path d="M105.850031,0 L105.850031,16.941 L0,16.941 L0,0 L105.850031,0 Z"></path></clipPath><clipPath id="i12"><path d="M10.9280305,0 C11.1040305,0.1 11.1550305,0.502 10.9280305,0.627 L10.1490305,0.728 C8.71803054,0.904 8.59203054,1.205 7.81403054,3.692 L5.05203054,12.581 C4.17303054,15.344 4.02203054,15.871 7.08603054,15.871 C9.97303054,15.871 11.0530305,15.746 12.5850305,13.26 C12.8370305,13.184 13.0880305,13.234 13.1380305,13.41 C12.8620305,14.264 11.9830305,16.047 11.5320305,16.725 C10.6020305,16.7 9.59603054,16.675 8.59203054,16.675 C7.78883054,16.655 7.00099054,16.651 6.26793454,16.6502 L2.81703054,16.65 C1.78703054,16.65 0.958030535,16.675 0.154030535,16.725 C-0.0469694648,16.599 -0.0469694648,16.248 0.129030535,16.097 L0.732030535,16.022 C1.93803054,15.846 2.18803054,15.595 2.99203054,13.033 L5.93103054,3.692 C6.68403054,1.331 6.73503054,0.928 5.35303054,0.728 L4.75003054,0.627 C4.60003054,0.427 4.62503054,0.1 4.90103054,0 C5.88003054,0.025 6.73503054,0.075 7.76303054,0.075 C8.84303054,0.075 9.62203054,0.025 10.9280305,0 Z"></path></clipPath><clipPath id="i13"><path d="M6.755,0 C7.761,0 8.338,0.855 8.338,1.507 C8.338,3.416 5.853,4.671 2.236,5.676 C2.06,6.103 1.884,6.907 1.884,7.911 C1.884,8.765 2.411,9.343 3.089,9.343 C3.993,9.343 4.621,8.84 5.727,7.886 C5.952,7.886 6.103,8.087 6.053,8.313 C4.521,10.196 3.089,10.598 2.035,10.598 C0.528,10.598 0,9.192 0,7.961 C0,6.379 1.005,3.316 3.742,1.206 C5.048,0.201 6.028,0 6.755,0 Z M6.253,0.779 C5.902,0.779 5.25,1.005 4.345,1.984 C3.365,3.039 2.788,4.195 2.487,4.923 C4.144,4.42 4.923,3.944 5.853,3.064 C6.63,2.336 6.832,1.582 6.832,1.356 C6.832,1.105 6.705,0.779 6.253,0.779 Z"></path></clipPath><clipPath id="i14"><path d="M8.56703054,0 C9.89803054,0 11.4290305,0.1 12.6350305,0.602 C13.8660305,1.13 14.7700305,2.084 14.7700305,3.767 C14.7700305,6.303 12.2340305,7.483 10.8520305,7.584 C10.4500305,7.609 10.6260305,7.784 10.8520305,7.86 C12.2840305,8.337 13.4640305,9.743 13.4640305,11.552 C13.4640305,12.481 13.1870305,13.762 12.1080305,14.816 C11.0530305,15.871 9.19503054,16.725 6.08103054,16.725 C4.72403054,16.725 3.79503054,16.65 2.74003054,16.65 C1.73603054,16.65 0.882030535,16.675 0.154030535,16.725 C-0.0469694648,16.599 -0.0469694648,16.248 0.129030535,16.097 L0.632030535,16.022 C1.83703054,15.846 2.08803054,15.595 2.89103054,13.033 L5.92903054,3.163 C6.53303054,1.23 6.30703054,1.004 5.17603054,0.928 L4.34803054,0.904 C4.17203054,0.778 4.22203054,0.427 4.34803054,0.301 C5.25203054,0.175 6.70803054,0 8.56703054,0 Z M7.58803054,8.086 C6.38203054,8.086 6.28203054,8.111 6.03103054,8.94 L4.54903054,13.762 C4.02103054,15.419 4.74903054,15.946 6.55803054,15.946 C8.66703054,15.946 11.3050305,14.64 11.3050305,11.25 C11.3050305,9.116 9.47203054,8.086 7.58803054,8.086 Z M8.31603054,1.582 L6.75803054,6.604 C6.58303054,7.207 6.60803054,7.333 7.68803054,7.333 C9.49603054,7.333 12.7100305,6.454 12.7100305,3.29 C12.7100305,1.833 11.6050305,0.778 9.54603054,0.778 C8.59203054,0.778 8.54203054,0.753 8.31603054,1.582 Z"></path></clipPath><clipPath id="i15"><path d="M7.28482695,0 C8.16382695,0 8.28982695,0.855 8.28982695,1.231 C8.28982695,1.608 8.06382695,2.336 7.76182695,2.738 C7.45982695,3.114 7.05882695,3.14 6.95782695,2.612 C6.83382695,1.959 6.68282695,1.633 6.43082695,1.633 C6.20382695,1.633 5.92882695,1.884 5.55282695,2.386 C4.02082695,4.345 2.61382695,7.408 1.28282695,10.297 C1.18282695,10.498 1.05682695,10.598 0.855826951,10.598 C0.579826951,10.598 -0.148173049,10.498 0.0268269509,9.945 C0.353826951,8.941 1.93582695,4.496 2.61382695,2.035 C2.68882695,1.758 2.63882695,1.507 2.41182695,1.507 C1.75882695,1.507 1.08182695,2.211 0.629826951,2.813 C0.378826951,2.863 0.202826951,2.713 0.227826951,2.411 C1.03182695,1.055 1.98582695,0 3.19082695,0 C4.44782695,0 3.99482695,1.708 3.76882695,2.386 L2.68882695,5.551 L2.81382695,5.551 C3.56782695,4.144 4.79882695,2.135 5.45182695,1.307 C6.02882695,0.553 6.65782695,0 7.28482695,0 Z"></path></clipPath><clipPath id="i16"><path d="M10.823,0.447894954 C10.447,1.37789495 8.262,6.92789495 7.457,9.21289495 C7.307,9.63889495 7.433,9.79089495 7.634,9.79089495 C8.062,9.79089495 8.789,9.36389495 10.221,8.10789495 C10.397,8.10789495 10.572,8.23289495 10.572,8.43389495 C9.517,9.84089495 7.734,11.246895 6.353,11.246895 C5.775,11.246895 5.625,10.769895 5.625,10.568895 C5.625,10.392895 5.675,10.167895 5.876,9.58989495 L6.704,7.32989495 L6.629,7.30389495 C4.846,9.51389495 2.285,11.246895 1.104,11.246895 C0.402,11.246895 0,10.543895 0,9.84089495 C0,9.26289495 0.552,7.25389495 2.209,4.96889495 C3.415,3.31189495 4.494,2.30689495 5.525,1.72889495 C6.504,1.17689495 7.132,1.00089495 7.785,1.00089495 C8.062,1.00089495 8.236,1.07689495 8.387,1.15189495 C8.487,1.20189495 8.764,1.42789495 8.889,1.67889495 L9.593,0.071894954 C10.02,-0.129105046 10.673,0.121894954 10.823,0.447894954 Z M7.005,1.95589495 C6.403,1.95589495 6.002,2.23089495 5.223,2.93489495 C3.616,4.36589495 2.083,7.65589495 2.083,9.43889495 C2.083,9.73989495 2.234,9.91589495 2.461,9.91589495 C2.712,9.91589495 3.465,9.58989495 4.897,8.28389495 C6.805,6.50089495 7.859,4.34089495 8.262,2.85989495 C8.086,2.38289495 7.659,1.95589495 7.005,1.95589495 Z"></path></clipPath><clipPath id="i17"><path d="M5.549,0 C6.479,0 7.057,0.804 7.057,1.432 C7.057,1.834 6.805,2.11 6.605,2.211 C6.428,2.26 6.278,2.211 6.127,2.01 C5.7,1.582 5.373,1.206 4.595,1.206 C3.867,1.206 3.566,1.834 3.566,2.211 C3.566,2.738 3.691,3.265 4.42,4.496 C5.047,5.551 5.423,6.178 5.373,7.283 C5.349,7.961 4.997,8.891 4.068,9.694 C3.415,10.272 2.486,10.598 1.531,10.598 C0.577,10.598 0,9.845 0,9.267 C0,9.016 0.1,8.74 0.376,8.439 C0.577,8.263 0.853,8.263 1.054,8.439 C1.38,8.815 2.135,9.443 2.787,9.443 C3.39,9.443 3.992,8.815 3.992,8.011 C3.992,7.584 3.691,6.806 3.064,5.802 C2.411,4.747 2.184,3.893 2.184,3.466 C2.184,2.487 2.611,1.758 3.691,0.83 C4.42,0.201 5.223,0 5.549,0 Z"></path></clipPath><clipPath id="i18"><path d="M5.551,0 C6.48,0 7.058,0.804 7.058,1.432 C7.058,1.834 6.806,2.11 6.605,2.211 C6.43,2.26 6.278,2.211 6.128,2.01 C5.702,1.582 5.375,1.206 4.596,1.206 C3.868,1.206 3.567,1.834 3.567,2.211 C3.567,2.738 3.693,3.265 4.42,4.496 C5.048,5.551 5.425,6.178 5.375,7.283 C5.35,7.961 4.998,8.891 4.068,9.694 C3.416,10.272 2.487,10.598 1.533,10.598 C0.579,10.598 0,9.845 0,9.267 C0,9.016 0.101,8.74 0.377,8.439 C0.579,8.263 0.855,8.263 1.056,8.439 C1.382,8.815 2.136,9.443 2.788,9.443 C3.392,9.443 3.993,8.815 3.993,8.011 C3.993,7.584 3.693,6.806 3.064,5.802 C2.411,4.747 2.186,3.893 2.186,3.466 C2.186,2.487 2.613,1.758 3.693,0.83 C4.42,0.201 5.224,0 5.551,0 Z"></path></clipPath><clipPath id="i19"><path d="M4.34612334,0 C4.67212334,0 5.24912334,0.327 5.09912334,0.754 L2.28712334,8.087 C2.06012334,8.69 2.18612334,8.941 2.46112334,8.941 C2.83812334,8.941 3.84312334,8.137 5.14912334,6.857 C7.43412334,4.596 8.74012334,1.683 9.57012334,0.151 C10.0961233,0.051 10.6991233,0.302 10.8001233,0.603 C10.6215351,1.08158824 9.75633095,3.27472318 8.89212334,5.57434134 L8.67649012,6.15053369 C8.39006798,6.91926644 8.11012334,7.68494118 7.86212334,8.388 C7.73612334,8.715 7.71112334,9.016 7.96112334,9.016 C8.43912334,9.016 9.77012334,7.836 10.4231233,7.057 C10.6491233,7.007 10.8501233,7.108 10.8741233,7.408 C10.2221233,8.614 7.81112334,10.598 6.48012334,10.598 C6.07812334,10.598 5.70112334,10.121 5.85312334,9.719 L7.56012334,5.124 L7.51012334,5.099 C5.70112334,7.384 2.58812334,10.598 1.23112334,10.598 C0.202123341,10.598 0.0761233413,9.569 0.503123341,8.464 L2.81412334,2.361 C2.98912334,1.884 3.01512334,1.633 2.81412334,1.633 C2.33612334,1.633 1.03012334,2.738 0.428123341,3.365 C0.176123341,3.416 -0.0228766587,3.215 0.00212334134,2.989 C0.654123341,1.984 3.16612334,0 4.34612334,0 Z"></path></clipPath><clipPath id="i20"><path d="M5.55,0 C6.48,0 7.057,0.804 7.057,1.432 C7.057,1.834 6.806,2.11 6.605,2.211 C6.429,2.26 6.278,2.211 6.128,2.01 C5.701,1.582 5.374,1.206 4.596,1.206 C3.867,1.206 3.566,1.834 3.566,2.211 C3.566,2.738 3.692,3.265 4.419,4.496 C5.048,5.551 5.424,6.178 5.374,7.283 C5.349,7.961 4.997,8.891 4.069,9.694 C3.415,10.272 2.487,10.598 1.531,10.598 C0.577,10.598 0,9.845 0,9.267 C0,9.016 0.101,8.74 0.377,8.439 C0.577,8.263 0.854,8.263 1.054,8.439 C1.381,8.815 2.135,9.443 2.787,9.443 C3.39,9.443 3.993,8.815 3.993,8.011 C3.993,7.584 3.692,6.806 3.064,5.802 C2.411,4.747 2.185,3.893 2.185,3.466 C2.185,2.487 2.612,1.758 3.692,0.83 C4.419,0.201 5.224,0 5.55,0 Z"></path></clipPath><clipPath id="i21"><path d="M12.492,0 L12.492,1.196 C10.663,1.196 9.076,3.068 9.076,6.017 L9.07653963,29.3021775 C9.094534,33.3928668 9.58032,36.882 13.173,36.882 C13.4785833,36.882 13.7828958,36.886875 14.0840272,36.8909045 L14.3840274,36.8944403 C17.5712099,36.9246296 20.324,36.6416667 20.324,29.103 L20.324,6.017 C20.324,3.068 18.739,1.196 16.907,1.196 L16.907,0 L25.435,0 L25.435,1.196 C23.612,1.196 22.026,3.068 22.026,6.017 L22.026,28.932 C22.026,39.039 18.284,39.362 12.185,39.362 C6.089,39.362 3.487,35.788 3.487,30.974 L3.487,6.017 C3.487,3.068 1.83,1.196 0,1.196 L0,0 L12.492,0 Z"></path></clipPath><clipPath id="i22"><path d="M12.292,0 L12.292,1.196 C10.462,1.196 8.942,3.068 8.942,6.017 L8.94254081,29.3021775 C8.9605732,33.3928668 9.4473,36.882 13.039,36.882 C13.2427778,36.882 13.4459877,36.8841667 13.6480638,36.886805 L13.9502569,36.8909045 L14.2503251,36.8944403 C17.4382099,36.9246296 20.191,36.6416667 20.191,29.103 L20.191,6.017 C20.191,3.068 18.738,1.196 16.906,1.196 L16.906,0 L25.168,0 L25.168,1.196 C23.345,1.196 21.892,3.068 21.892,6.017 L21.892,28.932 C21.892,39.039 18.149,39.362 12.05,39.362 C5.954,39.362 3.352,35.788 3.352,30.974 L3.352,6.017 C3.352,3.068 1.83,1.196 0,1.196 L0,0 L12.292,0 Z"></path></clipPath><clipPath id="i23"><path d="M14.004,0 C17.598,0 20.107,0.814 21.67,2.831 C23.234,4.849 24.317,8.912 24.651,15.575 C24.896,22.3 24.687,26.67 22.933,32.029 C21.141,37.19 18.233,38.64 15.7,38.64 L0,38.64 L0,37.454 C1.835,37.454 3.354,35.595 3.354,32.642 L3.354,6.017 C3.354,3.068 1.835,1.196 0,1.196 L0,0 Z M12.322,1.715 C9.742,1.715 8.942,2.489 8.942,5.673 L8.94288872,33.8207661 C8.95421914,36.5248796 9.09394444,36.7173889 10.453,36.843 C12.21,37.004 14.359,36.766 14.859,36.629 C17.937449,35.786551 18.9312486,30.4305706 19.1284707,29.1315334 L19.1585551,28.9217938 C19.1649975,28.8735681 19.168,28.848 19.168,28.848 C19.762,21.114 20.106,10.938 17.977,5.467 C16.907,2.634 15.511,1.715 12.322,1.715 Z"></path></clipPath><clipPath id="i24"><path d="M20.39,0 L20.39,7.405 L19.005,7.405 C18.653,5.475 18.368,2.155 12.85,1.931 L10.513,1.815 C9.249,1.76 9.009,2.27 9.009,5.169 L9.009,18.165 C13.048,17.826 13.584,17.554 14.457,12.515 L15.544,12.515 L15.544,25.806 L14.457,25.806 C13.427,20.481 13.048,20.492 9.009,20.151 L9.00961945,33.1605328 C9.02324151,35.8467769 9.27436364,36.6027879 11.014,36.82 C13.779,36.913 18.806,37.881 20.625,31.634 L22.189,31.634 L20.644,38.64 L0,38.64 L0,37.454 C1.829,37.454 3.417,35.595 3.417,32.642 L3.417,6.017 C3.417,3.068 1.829,1.196 0,1.196 L0,0 L20.39,0 Z"></path></clipPath><clipPath id="i25"><path d="M344.794,0 L344.794,47.007 L0,47.007 L0,0 L344.794,0 Z"></path></clipPath><clipPath id="i26"><path d="M20.328,0 L20.328,7.405 L18.939,7.405 C18.589,5.473 18.304,2.155 12.785,1.931 L10.449,1.815 C9.187,1.76 8.943,2.271 8.943,5.169 L8.943,18.165 C12.983,17.826 13.517,17.555 14.395,12.515 L15.479,12.515 L15.479,25.806 L14.395,25.806 C13.362,20.481 12.983,20.494 8.943,20.151 L8.943,32.903 C8.943,35.799 9.157,36.596 10.947,36.82 C13.713,36.914 18.743,37.883 20.56,31.634 L22.124,31.634 L20.579,38.64 L0,38.64 L0,37.454 C1.832,37.454 3.351,35.595 3.351,32.642 L3.351,6.017 C3.351,3.068 1.832,1.196 0,1.196 L0,0 L20.328,0 Z"></path></clipPath><clipPath id="i27"><path d="M28.029,0 L28.0299596,2.0226761 C28.030003,2.11423016 28.0300476,2.2085436 28.0300935,2.3055435 L28.030872,3.952912 C28.0309296,4.0749536 28.0309883,4.19931708 28.031048,4.32592952 L28.0318125,5.9485625 C28.03188,6.092 28.0319484,6.2373948 28.0320177,6.38467398 L28.032888,8.237808 C28.0329636,8.3989956 28.0330399,8.56177592 28.0331169,8.72607604 L28.0338275,10.2438431 C28.0339082,10.4166058 28.0339896,10.5906696 28.0340715,10.7659615 L28.0348222,12.3747796 C28.034907,12.5567841 28.0349923,12.739798 28.0350779,12.9237484 L28.0358584,14.6026178 C28.0359461,14.7915308 28.0360341,14.9811615 28.0361223,15.171437 L28.0369223,16.8993578 C28.0370117,17.092846 28.0371013,17.2867602 28.037191,17.4810275 L28.038,19.237 C28.03809,19.43273 28.03818,19.6285944 28.03827,19.8245203 L28.038809,21.0002301 C28.0388987,21.1961102 28.0389883,21.391906 28.0390777,21.5875446 L28.0398777,23.3420766 C28.0399659,23.5361153 28.0400539,23.729778 28.0401416,23.9229918 L28.0409221,25.647826 C28.0410077,25.83769 28.041093,26.0268863 28.0411778,26.215342 L28.0419285,27.8894785 C28.0420104,28.0728344 28.0420918,28.255231 28.0421725,28.4365953 L28.0428831,30.0390344 C28.0429601,30.2135489 28.0430364,30.3868124 28.043112,30.558752 L28.0439823,32.5538124 C28.0440516,32.713994 28.04412,32.87256 28.0441875,33.0294375 L28.044952,34.8262529 C28.0450117,34.9684557 28.0450704,35.1086784 28.045128,35.246848 L28.0459065,37.1562965 C28.0459524,37.2721124 28.045997,37.3855106 28.0460404,37.4964183 L28.0469946,40.3988987 L28.047,40.49 C28.047,45.2678462 29.9496746,45.7674438 31.920056,45.8160337 L32.1665736,45.8200353 C32.2487751,45.8207707 32.3309615,45.821 32.413,45.821 L32.413,47.007 L17.417,47.007 L17.417,45.821 L17.7091069,45.819664 C20.1145533,45.7952145 21.788,45.3832692 21.788,40.49 L21.788,32.1207744 L11.3444513,32.12 C11.2857138,32.2618783 10.526566,34.1097194 9.69316668,36.1355836 L9.49981236,36.6055519 L9.2086006,37.3131806 C8.85378042,38.1752169 8.50734884,39.0162558 8.217,39.72 C7.081,42.47 7.767,45.821 10.056,45.821 L10.056,47.007 L0,47.007 L0,45.821 C2.792,45.821 4.64,42.621 5.953,39.709 C6.5015102,38.4974898 9.20199313,31.7416572 12.1686801,24.2683936 L12.5188165,23.3861672 C15.1523451,16.7490117 17.935551,9.70067347 19.573,5.557 C20.47,3.293 20.21,1.225 17.409,1.225 L17.409,0 L28.029,0 Z M21.788,6.539 L12.119,30.4 L21.788,30.4 L21.788,6.539 Z"></path></clipPath><clipPath id="i28"><path d="M18.317,0 C21.602,0 23.277,2.463 23.277,5.851 L23.277,20.103 C23.277,24.351 21.278,26.219 18.703,26.219 L10.702,26.219 L10.702,40.074 C10.702,45.236 12.298,45.829 15.007,45.829 L15.007,47.015 L0.01,47.015 L0.01,45.829 C2.381,45.829 4.384,45.4 4.384,40.045 L4.384,6.487 C4.384,2.998 2.62,1.236 0,1.236 L0,0 Z M15.74,1.721 L10.702,1.721 L10.707,11.792 L10.707,14.161 L10.702,24.431 L15.74,24.431 C16.669,24.431 17.121,23.758 17.121,22.495 L17.121,3.937 C17.121,2.458 16.669,1.721 15.74,1.721 Z"></path></clipPath><clipPath id="i29"><path d="M9.854,0 L17.459,26.395 L25.235,0 L34.73,0 L34.73,1.196 C32.721,1.196 31.23,3.068 31.23,6.017 L31.23,32.642 C31.23,35.595 32.721,37.454 34.73,37.454 L34.73,38.64 L22.111,38.64 L22.111,37.454 C24.122,37.454 25.542,35.595 25.542,32.642 L25.542,4.946 L15.722,38.64 L14.792,38.64 L5.316,4.825 L5.316,32.642 C5.316,35.595 6.736,37.454 8.748,37.454 L8.748,38.64 L0.052,38.64 L0.052,37.454 C2.064,37.454 3.48,35.595 3.48,32.642 L3.48,6.127 C3.48,2.042 2.477,1.196 0,1.196 L0,0 L9.854,0 Z"></path></clipPath><clipPath id="i30"><path d="M12.6191549,0.000700102056 C16.8744714,0.0133019391 20.8297845,0.252736842 20.8297845,4.802 C20.8297845,7.492 20.9187845,11.548 20.9187845,15.392 C20.9187845,18.96 18.3317845,19.746 16.2947845,20.224 L22.7277845,35.425 C23.7117845,37.747 24.2467845,37.454 24.6677845,37.454 L24.6677845,38.64 L20.0465969,38.6404059 C19.9216271,38.6443148 18.7808956,38.6638333 18.2047845,38.1 C17.5577845,37.468 17.2337845,36.525 17.2337845,36.525 L10.8537845,20.663 L9.01078447,20.663 L9.01078447,32.642 C9.01078447,35.595 10.6017845,37.454 12.4207845,37.454 L12.4207845,38.64 L0.0187844667,38.64 L0.0187844667,37.454 L0.149761315,37.448884 C1.56136941,37.3399761 3.41378447,35.499697 3.41378447,32.642 L3.41378447,6.017 C3.41378447,3.068 1.89978447,1.196 0.0747844667,1.196 L0.0747844667,0 Z M15.6337845,5.117 C15.6337845,1.81086957 13.4996446,1.88601701 11.1304521,1.92408523 L10.7906021,1.92890219 C10.6769225,1.93017769 10.5629149,1.931 10.4487845,1.931 C9.06678447,1.931 9.01078447,2.723 9.01078447,4.262 L9.01078447,18.849 C10.7307845,18.79 15.6337845,19.429 15.6337845,14.804 Z"></path></clipPath><clipPath id="i31"><path d="M12.272,0 L12.272,1.196 C9.985,1.196 8.936,3.068 8.936,6.017 L8.936,32.642 C8.936,35.595 9.985,37.454 12.272,37.454 L12.272,38.64 L0,38.64 L0,37.454 C2.288,37.454 3.348,35.595 3.348,32.642 L3.348,6.017 C3.348,3.068 2.288,1.196 0,1.196 L0,0 L12.272,0 Z"></path></clipPath><clipPath id="i32"><path d="M7.304,0.0138019676 C12.32,-0.196198032 12.896,2.05880197 14.822,2.11580197 C15.439,2.11580197 15.923,1.79680197 15.978,0.480801968 L17.116,0.480801968 L17.116,12.500802 L16.1,12.500802 C15.532,9.29180197 13.916,1.94480197 8.731,1.88780197 C5.329,1.88780197 4.755,6.91480197 4.755,8.28180197 C4.755,10.778802 6.382,13.673802 10.64,15.886802 C16.587,18.951802 19.184,23.606802 19.184,29.058802 C19.184,33.028802 17.704,40.102802 9.355,40.208802 C6.067,40.250802 4.164,38.275802 2.31,38.275802 C1.842,38.275802 1.558,38.864802 1.44,39.942802 L0.264,39.942802 L0.264,26.414802 L1.401,26.414802 L2.211,30.385802 C2.674,32.597802 5.016,38.447802 8.571,38.447802 C13.601,38.447802 13.994,32.735802 13.994,31.370802 C13.994,28.081802 11.987,26.383802 5.686,22.117802 C1.352,19.172802 0,14.231802 0,10.710802 C0,2.99180197 4.055,0.150801968 7.304,0.0138019676 Z"></path></clipPath><clipPath id="i33"><path d="M10.303,0 C15.049,0 17.749,4.684 17.749,0.133 L19.164,0.133 L19.164,12.03 L17.283,12.03 C17.283,5.345 13.594,1.887 10.146,1.887 C7.033,1.887 5.733,4.042 5.733,6.563 L5.733,33.188 C5.733,36.875 6.9,37.96 9.849,37.96 C12.796,37.96 14.46,37.571 14.46,32.745 L14.46,23.707 C14.46,21.009 12.767,20.856 12.767,20.856 L12.767,19.855 L21.194,19.855 L21.194,20.856 L21.1737329,20.8592243 C20.9822206,20.8931821 19.498,21.234 19.498,23.641 L19.498,30.113 C19.498,32.675 18.663,34.902 16.98,36.795 C16.168,37.715 15.27,38.413 14.29,38.889 C13.308,39.368 11.357,39.871 9.992,39.871 C7.652,39.871 4.05,38.925 2.406,37.032 C0.756,35.213 0,32.985 0,30.35 L0,9.455 C0,6.822 0.756,4.576 2.406,2.719 C4.021,0.883 6.86,0 10.303,0 Z"></path></clipPath><clipPath id="i34"><path d="M14.367,0 L21.534,34.929 C22.137,37.325 23.149,37.573 23.745,37.587 L23.735,37.587 L23.735,38.773 L13.784,38.773 L13.784,37.587 C15.268,37.587 16.501,37.034 15.726,33.937 L14.213,26.989 L6.278,26.989 L4.781,32.615 C4.075,35.596 4.111,37.587 6.559,37.587 L6.559,38.773 L0,38.773 L0,37.587 C0.96,37.587 1.977,37.034 2.755,33.826 L9.076,5.583 C9.519,3.173 9.857,1.225 7.449,1.225 L7.449,0 L14.367,0 Z M10.463,7.792 L6.667,25.165 L13.69,25.165 L10.463,7.792 Z"></path></clipPath><clipPath id="i35"><path d="M21.727,0 L21.727,7.405 L20.449,7.405 C20.276,5.93 19.948,3.75 18.605,2.89 C17.4643,2.159 16.2997575,2.0876425 14.6071759,2.08268275 L13.659,2.083 L13.658037,2.13996296 L13.658,2.15 L13.658,32.642 C13.658,35.595 15.178,37.454 17.007,37.454 L17.007,38.64 L4.787,38.64 L4.787,37.454 C6.619,37.454 8.066,35.595 8.066,32.642 L8.066,2.083 L7.11782075,2.08268275 C5.42522,2.0876425 4.26055,2.159 3.119,2.89 C1.777,3.75 1.45,5.93 1.278,7.405 L0,7.405 L0,0 L21.727,0 Z"></path></clipPath></defs><g clip-path="url(#i0)"><g transform="translate(35.06 0.9770000000000039)"><g clip-path="url(#i1)"><polygon points="0,0 13.025,0 13.025,24.145 0,24.145 0,0" stroke="none" fill="#FFFEFE"></polygon></g></g><g transform="translate(51.18899999999999 0.5009999999999906)"><g clip-path="url(#i2)"><polygon points="0,0 16.425,0 16.425,25.097 0,25.097 0,0" stroke="none" fill="#FFFEFE"></polygon></g></g><g transform="translate(72.739 0.9770000000000039)"><g clip-path="url(#i3)"><polygon points="0,0 15.603,0 15.603,24.145 0,24.145 0,0" stroke="none" fill="#FFFEFE"></polygon></g></g><g transform="translate(94.07400000000001 0.9770000000000039)"><g clip-path="url(#i4)"><polygon points="0,0 15.325,0 15.325,24.145 0,24.145 0,0" stroke="none" fill="#FFFEFE"></polygon></g></g><g transform="translate(112.22400000000002 0.9770000000000039)"><g clip-path="url(#i5)"><polygon points="0,0 17.952,0 17.952,24.145 0,24.145 0,0" stroke="none" fill="#FFFEFE"></polygon></g></g><g transform="translate(130.24200000000002 0.9770000000000039)"><g clip-path="url(#i6)"><polygon points="0,0 15.751,0 15.751,24.145 0,24.145 0,0" stroke="none" fill="#FFFEFE"></polygon></g></g><g transform="translate(150.067 0.9770000000000039)"><g clip-path="url(#i7)"><polygon points="0,0 3.909,0 3.909,24.145 0,24.145 0,0" stroke="none" fill="#FFFEFE"></polygon></g></g><g transform="translate(159.117 0.5009999999999906)"><g clip-path="url(#i8)"><polygon points="0,0 16.425,0 16.425,25.097 0,25.097 0,0" stroke="none" fill="#FFFEFE"></polygon></g></g><g transform="translate(180.666 0.9770000000000039)"><g clip-path="url(#i9)"><polygon points="0,0 15.604,0 15.604,24.145 0,24.145 0,0" stroke="none" fill="#FFFEFE"></polygon></g></g><g transform="translate(201.148 0.5009999999999906)"><g clip-path="url(#i10)"><polygon points="0,0 15.242,0 15.242,25.097 0,25.097 0,0" stroke="none" fill="#FFFEFE"></polygon></g></g><g transform="translate(130.73496946481575 95.999)"><g clip-path="url(#i11)"><g clip-path="url(#i12)"><polygon points="1.25455202e-14,0 13.1380305,0 13.1380305,16.725 1.25455202e-14,16.725 1.25455202e-14,0" stroke="none" fill="#FFFEFE"></polygon></g><g transform="translate(15.751030535184242 6.403000000000005)"><g clip-path="url(#i13)"><polygon points="0,0 8.338,0 8.338,10.538 0,10.538 0,0" stroke="none" fill="#FFFEFE"></polygon></g></g><g transform="translate(32.601 0.0)"><g clip-path="url(#i14)"><polygon points="1.24344979e-14,0 14.7700305,0 14.7700305,16.725 1.24344979e-14,16.725 1.24344979e-14,0" stroke="none" fill="#FFFEFE"></polygon></g></g><g transform="translate(49.3832035842392 6.403000000000005)"><g clip-path="url(#i15)"><polygon points="-4.6629367e-15,0 8.28982695,0 8.28982695,10.538 -4.6629367e-15,10.538 -4.6629367e-15,0" stroke="none" fill="#FFFEFE"></polygon></g></g><g transform="translate(57.40303053518426 5.754105045963868)"><g clip-path="url(#i16)"><polygon points="0,0 10.823,0 10.823,11.186895 0,11.186895 0,0" stroke="none" fill="#FFFEFE"></polygon></g></g><g transform="translate(69.40803053518425 6.403000000000005)"><g clip-path="url(#i17)"><polygon points="0,0 7.057,0 7.057,10.538 0,10.538 0,0" stroke="none" fill="#FFFEFE"></polygon></g></g><g transform="translate(77.24303053518426 6.403000000000005)"><g clip-path="url(#i18)"><polygon points="0,0 7.058,0 7.058,10.538 0,10.538 0,0" stroke="none" fill="#FFFEFE"></polygon></g></g><g transform="translate(86.43490719383934 6.403000000000005)"><g clip-path="url(#i19)"><polygon points="1.01585407e-14,0 10.8741233,0 10.8741233,10.538 1.01585407e-14,10.538 1.01585407e-14,0" stroke="none" fill="#FFFEFE"></polygon></g></g><g transform="translate(98.79303053518424 6.403000000000005)"><g clip-path="url(#i20)"><polygon points="0,0 7.057,0 7.057,10.538 0,10.538 0,0" stroke="none" fill="#FFFEFE"></polygon></g></g></g></g><g transform="translate(31.57 44.443)"><g clip-path="url(#i21)"><polygon points="0,0 25.435,0 25.435,39.362 0,39.362 0,0" stroke="none" fill="#FFFEFE"></polygon></g></g><g transform="translate(295.807 44.443)"><g clip-path="url(#i22)"><polygon points="0,0 25.168,0 25.168,39.362 0,39.362 0,0" stroke="none" fill="#FFFEFE"></polygon></g></g><g transform="translate(58.763000000000005 44.443)"><g clip-path="url(#i23)"><polygon points="0,0 24.7352242,0 24.7352242,38.64 0,38.64 0,0" stroke="none" fill="#FFFEFE"></polygon></g></g><g transform="translate(84.941 44.443)"><g clip-path="url(#i24)"><polygon points="0,0 22.189,0 22.189,38.64 0,38.64 0,0" stroke="none" fill="#FFFEFE"></polygon></g></g><g transform="translate(0.060000000000002274 36.07599999999999)"><g clip-path="url(#i25)"><g transform="translate(322.66999999999996 8.367000000000004)"><g clip-path="url(#i26)"><polygon points="0,0 22.124,0 22.124,38.64 0,38.64 0,0" stroke="none" fill="#FFFEFE"></polygon></g></g><g transform="translate(-0.060000000000002274 0.0)"><g clip-path="url(#i27)"><polygon points="0.06,0 32.413,0 32.413,47.007 0.06,47.007 0.06,0" stroke="none" fill="#FFFEFE"></polygon></g></g></g></g><g transform="translate(231.351 36.068)"><g clip-path="url(#i28)"><polygon points="0,0 23.277,0 23.277,47.015 0,47.015 0,0" stroke="none" fill="#FFFEFE"></polygon></g></g><g transform="translate(108.702 44.443)"><g clip-path="url(#i29)"><polygon points="0,0 34.73,0 34.73,38.64 0,38.64 0,0" stroke="none" fill="#FFFEFE"></polygon></g></g><g transform="translate(170.5522155332647 44.443)"><g clip-path="url(#i30)"><polygon points="0,0 24.6677845,0 24.6677845,38.6414654 0,38.6414654 0,0" stroke="none" fill="#FFFEFE"></polygon></g></g><g transform="translate(257.97799999999995 44.443)"><g clip-path="url(#i31)"><polygon points="0,0 12.272,0 12.272,38.64 0,38.64 0,0" stroke="none" fill="#FFFEFE"></polygon></g></g><g transform="translate(197.35400000000004 43.36919803235975)"><g clip-path="url(#i32)"><polygon points="0,-5.32907052e-15 19.184,-5.32907052e-15 19.184,40.2094625 0,40.2094625 0,-5.32907052e-15" stroke="none" fill="#FFFEFE"></polygon></g></g><g transform="translate(273.559 43.709)"><g clip-path="url(#i33)"><polygon points="0,0 21.194,0 21.194,39.871 0,39.871 0,0" stroke="none" fill="#FFFEFE"></polygon></g></g><g transform="translate(145.438 44.31)"><g clip-path="url(#i34)"><polygon points="0,0 23.745,0 23.745,38.773 0,38.773 0,0" stroke="none" fill="#FFFEFE"></polygon></g></g><g transform="translate(345.595 44.443)"><g clip-path="url(#i35)"><polygon points="0,0 21.727,0 21.727,38.64 0,38.64 0,0" stroke="none" fill="#FFFEFE"></polygon></g></g></g></svg>