<?xml version="1.0" encoding="UTF-8"?><svg version="1.1" width="368px" height="127px" viewBox="0 0 368.0 127.0" xmlns="http://www.w3.org/2000/svg" xmlns:xlink="http://www.w3.org/1999/xlink"><defs><clipPath id="i0"><path d="M6.258,0 C7.637,0 8.834,0.145 9.846,0.435 C10.859,0.726 11.708,1.166 12.392,1.757 C13.077,2.349 13.586,3.099 13.92,4.008 C14.254,4.916 14.421,5.984 14.421,7.21 L14.421,7.441 C14.421,8.689 14.254,9.765 13.92,10.668 C13.586,11.572 13.08,12.322 12.4,12.918 C11.721,13.515 10.873,13.953 9.854,14.232 C8.837,14.511 7.637,14.651 6.258,14.651 L3.909,14.651 L3.909,24.145 L0,24.145 L0,0 Z M6.11,3.219 L3.909,3.219 L3.909,11.464 L6.11,11.464 C6.821,11.464 7.446,11.391 7.982,11.243 C8.518,11.095 8.96,10.865 9.304,10.553 C9.649,10.241 9.912,9.831 10.093,9.321 C10.273,8.812 10.364,8.191 10.364,7.457 L10.364,7.194 C10.364,6.471 10.273,5.855 10.093,5.346 C9.912,4.837 9.649,4.424 9.304,4.106 C8.96,3.789 8.518,3.562 7.982,3.424 C7.446,3.288 6.821,3.219 6.11,3.219 Z"></path></clipPath><clipPath id="i1"><path d="M16.424,0 L16.424,25.0976 L0,25.0976 L0,0 L16.424,0 Z"></path></clipPath><clipPath id="i2"><path d="M8.213,0 C9.219,0 10.12,0.096 10.914,0.288 C11.708,0.479 12.409,0.775 13.016,1.174 C13.625,1.575 14.147,2.081 14.585,2.694 C15.023,3.307 15.376,4.03 15.644,4.862 C15.913,5.694 16.11,6.644 16.236,7.712 C16.362,8.78 16.424,9.976 16.424,11.301 L16.424,13.797 C16.424,15.779 16.277,17.482 15.981,18.906 C15.685,20.329 15.214,21.498 14.569,22.412 C13.922,23.327 13.08,24.003 12.039,24.441 C10.999,24.878 9.723,25.098 8.213,25.098 C7.205,25.098 6.304,25.001 5.51,24.81 C4.716,24.619 4.012,24.323 3.4,23.923 C2.786,23.524 2.266,23.02 1.839,22.412 C1.412,21.804 1.064,21.081 0.797,20.244 C0.528,19.407 0.328,18.451 0.197,17.378 C0.065,16.305 0,15.111 0,13.797 L0,11.301 C0,9.319 0.144,7.616 0.435,6.192 C0.725,4.769 1.196,3.6 1.847,2.686 C2.499,1.771 3.347,1.095 4.393,0.657 C5.439,0.219 6.712,0 8.213,0 Z M8.213,3.219 C7.686,3.219 7.218,3.285 6.808,3.416 C6.397,3.548 6.039,3.745 5.732,4.008 C5.425,4.271 5.171,4.602 4.968,5.001 C4.765,5.402 4.601,5.87 4.475,6.406 C4.349,6.943 4.259,7.553 4.205,8.237 C4.149,8.922 4.123,9.674 4.123,10.496 L4.123,14.602 C4.123,15.434 4.149,16.19 4.205,16.869 C4.259,17.548 4.349,18.156 4.475,18.692 C4.601,19.228 4.765,19.697 4.968,20.096 C5.171,20.496 5.425,20.827 5.732,21.09 C6.039,21.353 6.397,21.55 6.808,21.681 C7.218,21.813 7.686,21.878 8.213,21.878 C8.749,21.878 9.222,21.813 9.632,21.681 C10.044,21.55 10.399,21.353 10.701,21.09 C11.002,20.827 11.256,20.496 11.464,20.096 C11.672,19.697 11.839,19.228 11.965,18.692 C12.091,18.156 12.181,17.548 12.236,16.869 C12.291,16.19 12.318,15.434 12.318,14.602 L12.318,10.496 C12.318,9.674 12.291,8.922 12.236,8.237 C12.181,7.553 12.091,6.943 11.965,6.406 C11.839,5.87 11.672,5.402 11.464,5.001 C11.256,4.602 11.002,4.271 10.701,4.008 C10.399,3.745 10.047,3.548 9.641,3.416 C9.236,3.285 8.759,3.219 8.213,3.219 Z"></path></clipPath><clipPath id="i3"><path d="M15.308,0 L15.308,24.6209 L0,24.6209 L0,0 L15.308,0 Z"></path></clipPath><clipPath id="i4"><path d="M3.909,0 L3.909,16.392 C3.909,17.192 3.975,17.898 4.106,18.511 C4.238,19.124 4.451,19.639 4.747,20.055 C5.043,20.471 5.428,20.785 5.905,20.999 C6.381,21.213 6.964,21.32 7.654,21.32 C8.344,21.32 8.929,21.213 9.412,20.999 C9.893,20.785 10.282,20.471 10.578,20.055 C10.874,19.639 11.084,19.124 11.211,18.511 C11.336,17.898 11.399,17.192 11.399,16.392 L11.399,0 L15.308,0 L15.308,16.507 C15.308,17.898 15.158,19.102 14.856,20.12 C14.555,21.139 14.092,21.982 13.468,22.65 C12.844,23.318 12.05,23.814 11.087,24.136 C10.124,24.459 8.979,24.621 7.654,24.621 C6.329,24.621 5.185,24.459 4.221,24.136 C3.257,23.814 2.466,23.318 1.848,22.65 C1.229,21.982 0.766,21.139 0.46,20.12 C0.153,19.102 0,17.898 0,16.507 L0,0 L3.909,0 Z"></path></clipPath><clipPath id="i5"><path d="M6.241,0 C7.621,0 8.82,0.145 9.839,0.435 C10.856,0.725 11.705,1.166 12.385,1.757 C13.063,2.349 13.572,3.096 13.912,3.999 C14.251,4.903 14.421,5.962 14.421,7.177 L14.421,7.424 C14.421,8.235 14.345,8.971 14.191,9.633 C14.038,10.296 13.807,10.892 13.501,11.423 C13.194,11.954 12.811,12.423 12.351,12.827 C11.891,13.233 11.357,13.564 10.75,13.822 C10.533,13.913 10.296,13.987 10.061,14.063 L15.685,24.145 L11.383,24.145 L6.113,14.602 L3.909,14.602 L3.909,24.145 L0,24.145 L0,0 Z M6.11,3.219 L3.909,3.219 L3.909,11.464 L6.11,11.464 C6.821,11.464 7.446,11.391 7.982,11.242 C8.518,11.095 8.96,10.865 9.305,10.553 C9.649,10.24 9.912,9.83 10.093,9.321 C10.273,8.812 10.364,8.191 10.364,7.457 L10.364,7.194 C10.364,6.471 10.273,5.855 10.093,5.346 C9.912,4.837 9.649,4.424 9.305,4.106 C8.96,3.788 8.518,3.562 7.982,3.424 C7.446,3.287 6.821,3.219 6.11,3.219 Z"></path></clipPath><clipPath id="i6"><path d="M3.909,0 L3.909,20.811 L12.335,20.811 L12.335,24.145 L0,24.145 L0,0 L3.909,0 Z"></path></clipPath><clipPath id="i7"><path d="M12.845,0 L12.845,3.335 L3.909,3.335 L3.909,10.266 L11.761,10.266 L11.761,13.617 L3.909,13.617 L3.909,20.811 L12.878,20.811 L12.878,24.145 L0,24.145 L0,0 L12.845,0 Z"></path></clipPath><clipPath id="i8"><path d="M7.178,0 C7.934,0 8.634,0.06 9.28,0.181 C9.926,0.302 10.504,0.479 11.013,0.715 C11.522,0.951 11.963,1.243 12.335,1.594 C12.707,1.944 13.014,2.341 13.255,2.784 C13.496,3.228 13.679,3.721 13.806,4.263 C13.931,4.805 13.994,5.388 13.994,6.012 L13.994,6.225 C13.994,6.861 13.92,7.449 13.772,7.991 C13.624,8.533 13.425,9.017 13.173,9.445 C12.921,9.872 12.617,10.247 12.262,10.57 C11.905,10.893 11.519,11.159 11.103,11.367 L11.103,11.399 C11.673,11.607 12.198,11.87 12.68,12.187 C13.162,12.506 13.575,12.894 13.92,13.354 C14.265,13.814 14.536,14.359 14.733,14.988 C14.931,15.618 15.029,16.349 15.029,17.181 L15.029,17.378 C15.029,18.56 14.853,19.582 14.503,20.441 C14.152,21.301 13.641,22.002 12.968,22.544 C12.294,23.086 11.47,23.488 10.495,23.751 C9.52,24.013 8.42,24.145 7.194,24.145 L0,24.145 L0,0 Z M6.932,13.321 L3.909,13.321 L3.909,21.008 L6.932,21.008 C7.676,21.008 8.303,20.929 8.811,20.77 C9.321,20.611 9.734,20.379 10.052,20.072 C10.369,19.765 10.6,19.377 10.742,18.906 C10.884,18.435 10.955,17.888 10.955,17.263 L10.955,16.984 C10.955,16.382 10.884,15.848 10.742,15.383 C10.6,14.917 10.369,14.531 10.052,14.224 C9.734,13.918 9.321,13.69 8.811,13.543 C8.303,13.395 7.676,13.321 6.932,13.321 Z M6.85,3.138 L3.909,3.138 L3.909,10.2 L6.85,10.2 C7.396,10.2 7.873,10.129 8.278,9.987 C8.684,9.845 9.022,9.625 9.297,9.33 C9.57,9.034 9.775,8.676 9.912,8.254 C10.049,7.833 10.118,7.348 10.118,6.801 L10.118,6.521 C10.118,5.973 10.049,5.492 9.912,5.076 C9.775,4.66 9.57,4.309 9.297,4.024 C9.022,3.74 8.684,3.521 8.278,3.367 C7.873,3.214 7.396,3.138 6.85,3.138 Z"></path></clipPath><clipPath id="i9"><path d="M367.322,0 L367.322,126.521 L0,126.521 L0,0 L367.322,0 Z"></path></clipPath><clipPath id="i10"><path d="M3.909,0 L3.909,24.145 L0,24.145 L0,0 L3.909,0 Z"></path></clipPath><clipPath id="i11"><path d="M12.845,0 L12.845,3.335 L3.909,3.335 L3.909,10.266 L11.761,10.266 L11.761,13.617 L3.909,13.617 L3.909,20.811 L12.877,20.811 L12.877,24.145 L0,24.145 L0,0 L12.845,0 Z"></path></clipPath><clipPath id="i12"><path d="M5.108,0 L12.105,19.053 L12.17,19.053 L11.941,12.302 L11.941,0 L15.603,0 L15.603,24.145 L10.511,24.145 L3.498,5.141 L3.465,5.141 L3.678,11.859 L3.678,24.145 L0,24.145 L0,0 L5.108,0 Z"></path></clipPath><clipPath id="i13"><path d="M7.999,0 C8.809,0 9.559,0.074 10.249,0.222 C10.939,0.369 11.569,0.594 12.138,0.895 C12.707,1.196 13.211,1.582 13.649,2.053 C14.087,2.524 14.451,3.079 14.742,3.72 C15.032,4.36 15.25,5.083 15.399,5.888 C15.546,6.693 15.631,7.594 15.653,8.59 L11.777,8.59 C11.754,7.583 11.648,6.74 11.456,6.06 C11.265,5.382 11.002,4.831 10.668,4.41 C10.334,3.988 9.94,3.684 9.486,3.498 C9.031,3.312 8.535,3.219 7.999,3.219 C7.462,3.219 6.994,3.285 6.595,3.416 C6.195,3.548 5.85,3.745 5.56,4.008 C5.27,4.27 5.032,4.601 4.845,5.001 C4.659,5.401 4.511,5.872 4.402,6.414 C4.292,6.956 4.218,7.566 4.18,8.245 C4.142,8.924 4.122,9.68 4.122,10.512 L4.122,14.601 C4.122,15.433 4.142,16.189 4.18,16.868 C4.218,17.547 4.292,18.155 4.402,18.691 C4.511,19.228 4.659,19.696 4.845,20.096 C5.032,20.495 5.27,20.827 5.56,21.089 C5.85,21.352 6.195,21.549 6.595,21.681 C6.994,21.812 7.462,21.878 7.999,21.878 C8.535,21.878 9.031,21.785 9.486,21.599 C9.94,21.412 10.334,21.108 10.668,20.687 C11.002,20.266 11.265,19.713 11.456,19.028 C11.648,18.344 11.754,17.503 11.777,16.507 L15.653,16.507 C15.62,18.007 15.437,19.294 15.103,20.367 C14.769,21.44 14.279,22.329 13.633,23.036 C12.987,23.742 12.193,24.262 11.251,24.596 C10.309,24.93 9.225,25.097 7.999,25.097 C6.992,25.097 6.091,25.001 5.297,24.809 C4.503,24.618 3.813,24.323 3.228,23.923 C2.642,23.523 2.144,23.016 1.733,22.403 C1.323,21.79 0.991,21.067 0.739,20.235 C0.487,19.403 0.301,18.451 0.181,17.377 C0.06,16.305 0,15.111 0,13.797 L0,11.3 C0,9.318 0.134,7.615 0.403,6.192 C0.67,4.768 1.112,3.599 1.725,2.685 C2.337,1.771 3.159,1.095 4.189,0.657 C5.217,0.219 6.488,0 7.999,0 Z"></path></clipPath><clipPath id="i14"><path d="M8.213,0 C9.219,0 10.12,0.096 10.914,0.288 C11.708,0.479 12.409,0.775 13.016,1.174 C13.625,1.575 14.147,2.081 14.585,2.694 C15.023,3.307 15.376,4.03 15.644,4.862 C15.913,5.694 16.11,6.644 16.236,7.712 C16.362,8.78 16.424,9.976 16.424,11.301 L16.424,13.797 C16.424,15.779 16.277,17.482 15.981,18.906 C15.685,20.329 15.214,21.498 14.569,22.412 C13.922,23.327 13.08,24.003 12.039,24.441 C10.999,24.878 9.723,25.098 8.213,25.098 C7.205,25.098 6.304,25.001 5.51,24.81 C4.716,24.619 4.012,24.323 3.4,23.923 C2.786,23.524 2.266,23.02 1.839,22.412 C1.412,21.804 1.064,21.081 0.797,20.244 C0.528,19.407 0.328,18.451 0.197,17.378 C0.065,16.305 0,15.111 0,13.797 L0,11.301 C0,9.319 0.144,7.616 0.435,6.192 C0.725,4.769 1.196,3.6 1.847,2.686 C2.499,1.771 3.347,1.095 4.393,0.657 C5.439,0.219 6.712,0 8.213,0 Z M8.213,3.219 C7.686,3.219 7.218,3.285 6.808,3.416 C6.397,3.548 6.039,3.745 5.732,4.008 C5.425,4.271 5.171,4.602 4.968,5.001 C4.765,5.402 4.601,5.87 4.475,6.406 C4.349,6.943 4.259,7.553 4.205,8.237 C4.149,8.922 4.123,9.674 4.123,10.496 L4.123,14.602 C4.123,15.434 4.149,16.19 4.205,16.869 C4.259,17.548 4.349,18.156 4.475,18.692 C4.601,19.228 4.765,19.697 4.968,20.096 C5.171,20.496 5.425,20.827 5.732,21.09 C6.039,21.353 6.397,21.55 6.808,21.681 C7.218,21.813 7.686,21.878 8.213,21.878 C8.749,21.878 9.222,21.813 9.632,21.681 C10.044,21.55 10.399,21.353 10.701,21.09 C11.002,20.827 11.256,20.496 11.464,20.096 C11.672,19.697 11.839,19.228 11.965,18.692 C12.091,18.156 12.181,17.548 12.236,16.869 C12.291,16.19 12.318,15.434 12.318,14.602 L12.318,10.496 C12.318,9.674 12.291,8.922 12.236,8.237 C12.181,7.553 12.091,6.943 11.965,6.406 C11.839,5.87 11.672,5.402 11.464,5.001 C11.256,4.602 11.002,4.271 10.701,4.008 C10.399,3.745 10.047,3.548 9.641,3.416 C9.236,3.285 8.759,3.219 8.213,3.219 Z"></path></clipPath><clipPath id="i15"><path d="M6.044,0 L10.184,18.971 L10.217,18.971 L14.438,0 L20.4,0 L20.4,24.145 L16.671,24.145 L16.671,12.368 L16.803,4.27 L16.754,4.27 L12.122,24.145 L8.311,24.145 L3.679,4.27 L3.63,4.27 L3.745,12.368 L3.745,24.145 L0,24.145 L0,0 L6.044,0 Z"></path></clipPath><clipPath id="i16"><path d="M6.045,0 L10.184,18.971 L10.217,18.971 L14.439,0 L20.401,0 L20.401,24.145 L16.672,24.145 L16.672,12.368 L16.804,4.27 L16.754,4.27 L12.122,24.145 L8.312,24.145 L3.68,4.27 L3.631,4.27 L3.745,12.368 L3.745,24.145 L0,24.145 L0,0 L6.045,0 Z"></path></clipPath><clipPath id="i17"><path d="M3.909,0 L3.909,16.392 C3.909,17.192 3.975,17.898 4.106,18.511 C4.238,19.124 4.451,19.639 4.747,20.055 C5.043,20.471 5.428,20.785 5.905,20.999 C6.381,21.213 6.964,21.32 7.654,21.32 C8.344,21.32 8.929,21.213 9.412,20.999 C9.893,20.785 10.282,20.471 10.578,20.055 C10.874,19.639 11.084,19.124 11.211,18.511 C11.336,17.898 11.399,17.192 11.399,16.392 L11.399,0 L15.308,0 L15.308,16.507 C15.308,17.898 15.158,19.102 14.856,20.12 C14.555,21.139 14.092,21.982 13.468,22.65 C12.844,23.318 12.05,23.814 11.087,24.136 C10.124,24.459 8.979,24.621 7.654,24.621 C6.329,24.621 5.185,24.459 4.221,24.136 C3.257,23.814 2.466,23.318 1.848,22.65 C1.229,21.982 0.766,21.139 0.46,20.12 C0.153,19.102 0,17.898 0,16.507 L0,0 L3.909,0 Z"></path></clipPath><clipPath id="i18"><path d="M5.108,0 L12.105,19.053 L12.17,19.053 L11.941,12.302 L11.941,0 L15.603,0 L15.603,24.145 L10.511,24.145 L3.498,5.141 L3.465,5.141 L3.678,11.859 L3.678,24.145 L0,24.145 L0,0 L5.108,0 Z"></path></clipPath><clipPath id="i19"><path d="M13.024,0 L13.024,3.334 L3.909,3.334 L3.909,10.266 L11.908,10.266 L11.908,13.617 L3.909,13.617 L3.909,24.145 L0,24.145 L0,0 L13.024,0 Z"></path></clipPath><clipPath id="i20"><path d="M8.212,0 C9.22,0 10.12,0.096 10.914,0.287 C11.708,0.479 12.409,0.775 13.017,1.174 C13.624,1.575 14.147,2.08 14.585,2.694 C15.023,3.307 15.376,4.03 15.645,4.862 C15.913,5.694 16.11,6.644 16.236,7.712 C16.362,8.78 16.425,9.976 16.425,11.301 L16.425,13.797 C16.425,15.779 16.277,17.482 15.982,18.906 C15.686,20.329 15.215,21.498 14.569,22.412 C13.923,23.327 13.079,24.003 12.039,24.441 C10.999,24.878 9.724,25.098 8.212,25.098 C7.205,25.098 6.304,25.001 5.51,24.81 C4.716,24.619 4.013,24.323 3.4,23.923 C2.786,23.524 2.267,23.02 1.84,22.412 C1.412,21.804 1.065,21.081 0.797,20.244 C0.528,19.407 0.328,18.451 0.197,17.378 C0.066,16.305 0,15.111 0,13.797 L0,11.301 C0,9.319 0.145,7.616 0.435,6.192 C0.725,4.769 1.196,3.6 1.848,2.686 C2.499,1.771 3.348,1.095 4.394,0.657 C5.439,0.219 6.712,0 8.212,0 Z M8.212,3.219 C7.687,3.219 7.219,3.285 6.808,3.416 C6.398,3.548 6.039,3.745 5.733,4.008 C5.425,4.271 5.171,4.602 4.968,5.001 C4.766,5.402 4.602,5.869 4.476,6.406 C4.35,6.943 4.259,7.553 4.205,8.237 C4.15,8.922 4.122,9.674 4.122,10.495 L4.122,14.602 C4.122,15.434 4.15,16.19 4.205,16.869 C4.259,17.548 4.35,18.156 4.476,18.692 C4.602,19.228 4.766,19.697 4.968,20.096 C5.171,20.496 5.425,20.827 5.733,21.09 C6.039,21.353 6.398,21.55 6.808,21.681 C7.219,21.813 7.687,21.878 8.212,21.878 C8.749,21.878 9.223,21.813 9.633,21.681 C10.044,21.55 10.4,21.353 10.701,21.09 C11.002,20.827 11.257,20.496 11.465,20.096 C11.673,19.697 11.84,19.228 11.966,18.692 C12.091,18.156 12.182,17.548 12.237,16.869 C12.291,16.19 12.319,15.434 12.319,14.602 L12.319,10.495 C12.319,9.674 12.291,8.922 12.237,8.237 C12.182,7.553 12.091,6.943 11.966,6.406 C11.84,5.869 11.673,5.402 11.465,5.001 C11.257,4.602 11.002,4.271 10.701,4.008 C10.4,3.745 10.046,3.548 9.641,3.416 C9.237,3.285 8.76,3.219 8.212,3.219 Z"></path></clipPath><clipPath id="i21"><path d="M5.108,0 L12.105,19.053 L12.171,19.053 L11.941,12.302 L11.941,0 L15.604,0 L15.604,24.145 L10.512,24.145 L3.499,5.141 L3.465,5.141 L3.679,11.859 L3.679,24.145 L0,24.145 L0,0 L5.108,0 Z"></path></clipPath><clipPath id="i22"><path d="M6.209,0 C7.304,0 8.29,0.097 9.166,0.288 C10.041,0.479 10.813,0.778 11.481,1.183 C12.149,1.588 12.727,2.101 13.214,2.719 C13.702,3.338 14.101,4.071 14.414,4.92 C14.726,5.768 14.956,6.737 15.103,7.827 C15.251,8.917 15.325,10.141 15.325,11.498 L15.325,12.664 C15.325,14 15.251,15.216 15.103,16.31 C14.956,17.405 14.726,18.377 14.414,19.226 C14.101,20.075 13.702,20.809 13.214,21.427 C12.727,22.046 12.149,22.56 11.481,22.971 C10.813,23.382 10.041,23.68 9.166,23.866 C8.29,24.052 7.304,24.145 6.209,24.145 L0,24.145 L0,0 L6.209,0 Z M5.979,3.253 L3.91,3.253 L3.91,20.893 L5.979,20.893 C6.625,20.893 7.203,20.838 7.712,20.728 C8.221,20.62 8.67,20.433 9.059,20.17 C9.448,19.908 9.779,19.571 10.052,19.16 C10.326,18.75 10.548,18.249 10.718,17.657 C10.887,17.066 11.01,16.385 11.087,15.612 C11.164,14.841 11.203,13.951 11.203,12.943 L11.203,11.219 C11.203,10.211 11.164,9.319 11.087,8.541 C11.01,7.764 10.887,7.08 10.718,6.488 C10.548,5.897 10.326,5.399 10.052,4.994 C9.779,4.589 9.448,4.252 9.059,3.983 C8.67,3.715 8.221,3.526 7.712,3.417 C7.203,3.308 6.625,3.253 5.979,3.253 Z"></path></clipPath><clipPath id="i23"><path d="M11.431,0 L17.952,24.145 L14.01,24.145 L12.334,17.51 L5.601,17.51 L3.925,24.145 L0,24.145 L6.52,0 L11.431,0 Z M8.984,4.041 L8.935,4.041 L6.389,14.241 L11.563,14.241 L8.984,4.041 Z"></path></clipPath><clipPath id="i24"><path d="M15.751,0 L15.751,3.334 L9.822,3.334 L9.822,24.145 L5.929,24.145 L5.929,3.334 L0,3.334 L0,0 L15.751,0 Z"></path></clipPath><clipPath id="i25"><path d="M3.909,0 L3.909,24.145 L0,24.145 L0,0 L3.909,0 Z"></path></clipPath><clipPath id="i26"><path d="M8.212,0 C9.22,0 10.12,0.096 10.914,0.287 C11.708,0.479 12.409,0.775 13.017,1.174 C13.624,1.575 14.147,2.08 14.585,2.694 C15.023,3.307 15.376,4.03 15.645,4.862 C15.913,5.694 16.11,6.644 16.236,7.712 C16.362,8.78 16.425,9.976 16.425,11.301 L16.425,13.797 C16.425,15.779 16.277,17.482 15.982,18.906 C15.686,20.329 15.215,21.498 14.569,22.412 C13.923,23.327 13.079,24.003 12.039,24.441 C10.999,24.878 9.724,25.098 8.212,25.098 C7.205,25.098 6.304,25.001 5.51,24.81 C4.716,24.619 4.013,24.323 3.4,23.923 C2.786,23.524 2.267,23.02 1.84,22.412 C1.412,21.804 1.065,21.081 0.797,20.244 C0.528,19.407 0.328,18.451 0.197,17.378 C0.066,16.305 0,15.111 0,13.797 L0,11.301 C0,9.319 0.145,7.616 0.435,6.192 C0.725,4.769 1.196,3.6 1.848,2.686 C2.499,1.771 3.348,1.095 4.394,0.657 C5.439,0.219 6.712,0 8.212,0 Z M8.212,3.219 C7.687,3.219 7.219,3.285 6.808,3.416 C6.398,3.548 6.039,3.745 5.733,4.008 C5.425,4.271 5.171,4.602 4.968,5.001 C4.766,5.402 4.602,5.869 4.476,6.406 C4.35,6.943 4.259,7.553 4.205,8.237 C4.15,8.922 4.122,9.674 4.122,10.495 L4.122,14.602 C4.122,15.434 4.15,16.19 4.205,16.869 C4.259,17.548 4.35,18.156 4.476,18.692 C4.602,19.228 4.766,19.697 4.968,20.096 C5.171,20.496 5.425,20.827 5.733,21.09 C6.039,21.353 6.398,21.55 6.808,21.681 C7.219,21.813 7.687,21.878 8.212,21.878 C8.749,21.878 9.223,21.813 9.633,21.681 C10.044,21.55 10.4,21.353 10.701,21.09 C11.002,20.827 11.257,20.496 11.465,20.096 C11.673,19.697 11.84,19.228 11.966,18.692 C12.091,18.156 12.182,17.548 12.237,16.869 C12.291,16.19 12.319,15.434 12.319,14.602 L12.319,10.495 C12.319,9.674 12.291,8.922 12.237,8.237 C12.182,7.553 12.091,6.943 11.966,6.406 C11.84,5.869 11.673,5.402 11.465,5.001 C11.257,4.602 11.002,4.271 10.701,4.008 C10.4,3.745 10.046,3.548 9.641,3.416 C9.237,3.285 8.76,3.219 8.212,3.219 Z"></path></clipPath><clipPath id="i27"><path d="M5.108,0 L12.105,19.053 L12.171,19.053 L11.941,12.302 L11.941,0 L15.604,0 L15.604,24.145 L10.512,24.145 L3.499,5.141 L3.466,5.141 L3.68,11.859 L3.68,24.145 L0,24.145 L0,0 L5.108,0 Z"></path></clipPath><clipPath id="i28"><path d="M12.492,0 L12.492,1.195 C10.663,1.195 9.076,3.067 9.076,6.017 L9.076,29.05 C9.076,33.248 9.507,36.881 13.173,36.881 L13.478089,36.8824131 C13.6811049,36.8841561 13.883273,36.8872182 14.0840272,36.8899045 L14.3840274,36.8934403 C17.5712099,36.9236296 20.324,36.6406667 20.324,29.102 L20.324,6.017 C20.324,3.067 18.738,1.195 16.907,1.195 L16.907,0 L25.435,0 L25.435,1.195 C23.612,1.195 22.026,3.067 22.026,6.017 L22.026,28.931 C22.026,39.038 18.284,39.361 12.185,39.361 C6.089,39.361 3.487,35.788 3.487,30.974 L3.487,6.017 C3.487,3.067 1.83,1.195 0,1.195 L0,0 L12.492,0 Z"></path></clipPath><clipPath id="i29"><path d="M12.292,0 L12.292,1.195 C10.463,1.195 8.943,3.067 8.943,6.017 L8.943,29.05 C8.943,33.248 9.375,36.881 13.04,36.881 L13.34517,36.8824131 C13.4467042,36.8832846 13.5480257,36.8844859 13.6490638,36.885805 L13.9512569,36.8899045 L14.2513251,36.8934403 C17.4392099,36.9236296 20.192,36.6406667 20.192,29.102 L20.192,6.017 C20.192,3.067 18.739,1.195 16.907,1.195 L16.907,0 L25.169,0 L25.169,1.195 C23.346,1.195 21.893,3.067 21.893,6.017 L21.893,28.931 C21.893,39.038 18.15,39.361 12.051,39.361 C5.955,39.361 3.353,35.788 3.353,30.974 L3.353,6.017 C3.353,3.067 1.831,1.195 0,1.195 L0,0 L12.292,0 Z"></path></clipPath><clipPath id="i30"><path d="M14.004,0 C17.598,0 20.107,0.814 21.67,2.831 C23.234,4.849 24.317,8.912 24.651,15.575 C24.896,22.299 24.686,26.669 22.933,32.029 C21.14,37.19 18.233,38.639 15.7,38.639 L0,38.639 L0,37.453 C1.834,37.453 3.353,35.595 3.353,32.641 L3.353,6.017 C3.353,3.068 1.834,1.195 0,1.195 L0,0 Z M12.322,1.714 C9.742,1.714 8.941,2.489 8.941,5.672 L8.941,33.317 C8.941,36.501 9.014,36.71 10.453,36.842 C12.21,37.004 14.359,36.765 14.858,36.629 C17.9373265,35.786551 18.9312337,30.4305706 19.1284688,29.1315334 L19.1585549,28.9217938 C19.1649975,28.8735681 19.168,28.848 19.168,28.848 C19.762,21.113 20.106,10.937 17.977,5.466 C16.907,2.633 15.51,1.714 12.322,1.714 Z"></path></clipPath><clipPath id="i31"><path d="M20.39,0 L20.39,7.404 L19.005,7.404 C18.653,5.474 18.368,2.155 12.851,1.93 L10.513,1.814 C9.249,1.759 9.009,2.27 9.009,5.169 L9.009,18.164 C13.048,17.825 13.584,17.553 14.458,12.514 L15.544,12.514 L15.544,25.805 L14.458,25.805 C13.427,20.48 13.048,20.491 9.009,20.15 L9.00961945,33.1595328 C9.02324151,35.8457769 9.27436364,36.6017879 11.014,36.819 C13.779,36.912 18.806,37.88 20.625,31.634 L22.189,31.634 L20.644,38.639 L0,38.639 L0,37.453 C1.829,37.453 3.417,35.595 3.417,32.641 L3.417,6.017 C3.417,3.067 1.829,1.195 0,1.195 L0,0 L20.39,0 Z"></path></clipPath><clipPath id="i32"><path d="M20.327,0 L20.327,7.404 L18.939,7.404 C18.589,5.472 18.304,2.155 12.784,1.93 L10.449,1.814 C9.187,1.759 8.943,2.27 8.943,5.169 L8.943,18.164 C12.982,17.825 13.516,17.554 14.394,12.514 L15.478,12.514 L15.478,25.805 L14.394,25.805 C13.362,20.48 12.982,20.493 8.943,20.15 L8.943,32.902 C8.943,35.798 9.156,36.595 10.947,36.819 C13.713,36.913 18.742,37.883 20.559,31.634 L22.123,31.634 L20.579,38.639 L0,38.639 L0,37.453 C1.832,37.453 3.351,35.595 3.351,32.641 L3.351,6.017 C3.351,3.067 1.832,1.195 0,1.195 L0,0 L20.327,0 Z"></path></clipPath><clipPath id="i33"><path d="M28.029,0 L28.0299596,2.0226761 C28.030003,2.11423016 28.0300476,2.2085436 28.0300935,2.3055435 L28.030872,3.952912 C28.0309296,4.0749536 28.0309883,4.19931708 28.031048,4.32592952 L28.0318125,5.9485625 C28.03188,6.092 28.0319484,6.2373948 28.0320177,6.38467398 L28.032888,8.237808 C28.0329636,8.3989956 28.0330399,8.56177592 28.0331169,8.72607604 L28.0338275,10.2438431 C28.0339082,10.4166058 28.0339896,10.5906696 28.0340715,10.7659615 L28.0348222,12.3747796 C28.034907,12.5567841 28.0349923,12.739798 28.0350779,12.9237484 L28.0358584,14.6026178 C28.0359461,14.7915308 28.0360341,14.9811615 28.0361223,15.171437 L28.0369223,16.8993578 C28.0370117,17.092846 28.0371013,17.2867602 28.037191,17.4810275 L28.038,19.237 C28.03809,19.43273 28.03818,19.6285944 28.03827,19.8245203 L28.038809,21.0002301 C28.0388987,21.1961102 28.0389883,21.391906 28.0390777,21.5875446 L28.0398777,23.3420766 C28.0399659,23.5361153 28.0400539,23.729778 28.0401416,23.9229918 L28.0409221,25.647826 C28.0410077,25.83769 28.041093,26.0268863 28.0411778,26.215342 L28.0419285,27.8894785 C28.0420104,28.0728344 28.0420918,28.255231 28.0421725,28.4365953 L28.0428831,30.0390344 C28.0429601,30.2135489 28.0430364,30.3868124 28.043112,30.558752 L28.0439823,32.5538124 C28.0440516,32.713994 28.04412,32.87256 28.0441875,33.0294375 L28.044952,34.8262529 C28.0450117,34.9684557 28.0450704,35.1086784 28.045128,35.246848 L28.0459065,37.1562965 C28.0459524,37.2721124 28.045997,37.3855106 28.0460404,37.4964183 L28.0469946,40.3988987 L28.047,40.49 C28.047,45.2678462 29.9496746,45.7665917 31.920056,45.8150505 L32.1665736,45.8190396 C32.2487751,45.8197722 32.3309615,45.82 32.413,45.82 L32.413,47.007 L17.417,47.007 L17.417,45.82 L17.7091069,45.8186684 C20.1145533,45.7942899 21.788,45.3832692 21.788,40.49 L21.788,32.119 L11.345,32.119 C11.345,32.119 10.3749081,34.4797355 9.40290308,36.8413766 L9.20876344,37.3130177 C8.85384586,38.1751514 8.50734884,39.0162558 8.217,39.72 C7.081,42.47 7.767,45.82 10.056,45.82 L10.056,47.007 L0,47.007 L0,45.82 C2.792,45.82 4.64,42.621 5.953,39.709 C6.27565306,38.9960408 7.34293336,36.3648184 8.77100848,32.79772 L9.06132038,32.0721131 C10.2900497,28.9991833 11.7515609,25.3218206 13.2237289,21.6085359 L13.5771401,20.716949 C15.8741643,14.9209349 18.1538776,9.14818367 19.573,5.557 C20.47,3.292 20.21,1.225 17.409,1.225 L17.409,0 L28.029,0 Z M21.788,6.539 L12.119,30.4 L21.788,30.4 L21.788,6.539 Z"></path></clipPath><clipPath id="i34"><path d="M18.317,0 C21.602,0 23.277,2.463 23.277,5.851 L23.277,20.103 C23.277,24.351 21.278,26.219 18.703,26.219 L10.701,26.219 L10.701,40.074 C10.701,45.236 12.298,45.829 15.006,45.829 L15.006,47.015 L0.01,47.015 L0.01,45.829 C2.381,45.829 4.384,45.4 4.384,40.045 L4.384,6.487 C4.384,2.999 2.619,1.236 0,1.236 L0,0 Z M15.74,1.721 L10.701,1.721 L10.707,11.792 L10.707,14.16 L10.701,24.431 L15.74,24.431 C16.669,24.431 17.12,23.758 17.12,22.495 L17.12,3.937 C17.12,2.458 16.669,1.721 15.74,1.721 Z"></path></clipPath><clipPath id="i35"><path d="M9.855,0 L17.46,26.394 L25.235,0 L34.73,0 L34.73,1.195 C32.722,1.195 31.231,3.067 31.231,6.017 L31.231,32.641 C31.231,35.595 32.722,37.453 34.73,37.453 L34.73,38.639 L22.111,38.639 L22.111,37.453 C24.122,37.453 25.543,35.595 25.543,32.641 L25.543,4.945 L15.722,38.639 L14.793,38.639 L5.317,4.825 L5.317,32.641 C5.317,35.595 6.737,37.453 8.749,37.453 L8.749,38.639 L0.053,38.639 L0.053,37.453 C2.064,37.453 3.481,35.595 3.481,32.641 L3.481,6.127 C3.481,2.041 2.478,1.195 0,1.195 L0,0 L9.855,0 Z"></path></clipPath><clipPath id="i36"><path d="M12.6194526,0.000700102056 C12.698239,0.000933469408 12.7769228,0.00124462588 12.8554808,0.00165950117 L13.3251334,0.00560081645 C17.3011903,0.0532077562 20.8292318,0.505473684 20.8292318,4.802 C20.8292318,7.491 20.9182318,11.547 20.9182318,15.391 C20.9182318,18.96 18.3322318,19.746 16.2942318,20.224 L22.7272318,35.425 C23.7112318,37.747 24.2462318,37.453 24.6682318,37.453 L24.6682318,38.639 L20.0460444,38.6394146 C19.9210775,38.6434198 18.7803985,38.6637778 18.2052318,38.099 C17.5582318,37.467 17.2342318,36.525 17.2342318,36.525 L10.8542318,20.663 L9.01023182,20.663 L9.01023182,32.641 C9.01023182,35.595 10.6012318,37.453 12.4202318,37.453 L12.4202318,38.639 L0.0192318209,38.639 L0.0192318209,37.453 L0.150208669,37.4478867 C1.56181676,37.3390349 3.41423182,35.4996667 3.41423182,32.641 L3.41423182,6.017 C3.41423182,3.067 1.89923182,1.195 0.0742318209,1.195 L0.0742318209,0 Z M15.6342318,5.116 C15.6342318,1.496 13.0732318,1.93 10.4492318,1.93 C9.06723182,1.93 9.01023182,2.723 9.01023182,4.261 L9.01023182,18.848 C10.7302318,18.789 15.6342318,19.428 15.6342318,14.803 Z"></path></clipPath><clipPath id="i37"><path d="M12.272,0 L12.272,1.195 C9.985,1.195 8.936,3.067 8.936,6.017 L8.936,32.641 C8.936,35.595 9.985,37.453 12.272,37.453 L12.272,38.639 L0,38.639 L0,37.453 C2.288,37.453 3.348,35.595 3.348,32.641 L3.348,6.017 C3.348,3.067 2.288,1.195 0,1.195 L0,0 L12.272,0 Z"></path></clipPath><clipPath id="i38"><path d="M7.304,0.013807726 C12.321,-0.196192274 12.896,2.05780773 14.822,2.11480773 C15.439,2.11480773 15.924,1.79580773 15.979,0.479807726 L17.116,0.479807726 L17.116,12.4998077 L16.1,12.4998077 C15.532,9.29080773 13.916,1.94480773 8.732,1.88680773 C5.33,1.88680773 4.755,6.91380773 4.755,8.28080773 C4.755,10.7778077 6.383,13.6738077 10.64,15.8858077 C16.587,18.9508077 19.185,23.6068077 19.185,29.0588077 C19.185,33.0288077 17.705,40.1018077 9.356,40.2088077 C6.068,40.2498077 4.165,38.2748077 2.31,38.2748077 C1.842,38.2748077 1.558,38.8638077 1.44,39.9418077 L0.264,39.9418077 L0.264,26.4138077 L1.401,26.4138077 L2.212,30.3848077 C2.674,32.5968077 5.016,38.4478077 8.571,38.4478077 C13.602,38.4478077 13.994,32.7348077 13.994,31.3698077 C13.994,28.0808077 11.987,26.3828077 5.686,22.1168077 C1.352,19.1728077 0,14.2308077 0,10.7098077 C0,2.99080773 4.055,0.149807726 7.304,0.013807726 Z"></path></clipPath><clipPath id="i39"><path d="M10.302,0 C15.048,0 17.748,4.684 17.748,0.133 L19.164,0.133 L19.164,12.03 L17.282,12.03 C17.282,5.345 13.593,1.887 10.145,1.887 C7.032,1.887 5.732,4.043 5.732,6.563 L5.732,33.188 C5.732,36.876 6.9,37.96 9.848,37.96 C12.795,37.96 14.459,37.571 14.459,32.746 L14.459,23.707 C14.459,21.01 12.766,20.857 12.766,20.857 L12.766,19.855 L21.194,19.855 L21.194,20.857 C21.194,20.857 19.497,21.069 19.497,23.641 L19.497,30.114 C19.497,32.675 18.663,34.902 16.979,36.795 C16.168,37.716 15.269,38.413 14.289,38.89 C13.307,39.368 11.356,39.871 9.991,39.871 C7.651,39.871 4.049,38.925 2.405,37.032 C0.755,35.213 0,32.985 0,30.35 L0,9.455 C0,6.822 0.755,4.576 2.405,2.719 C4.02,0.884 6.86,0 10.302,0 Z"></path></clipPath><clipPath id="i40"><path d="M14.367,0 L21.535,34.928 C22.138,37.325 23.149,37.573 23.745,37.586 L23.736,37.586 L23.736,38.772 L13.784,38.772 L13.784,37.586 C15.269,37.586 16.502,37.034 15.727,33.937 L14.213,26.988 L6.278,26.988 L4.782,32.615 C4.075,35.596 4.111,37.586 6.559,37.586 L6.559,38.772 L0,38.772 L0,37.586 C0.96,37.586 1.977,37.034 2.755,33.825 L9.077,5.583 C9.519,3.173 9.857,1.225 7.449,1.225 L7.449,0 L14.367,0 Z M10.463,7.791 L6.667,25.164 L13.69,25.164 L10.463,7.791 Z"></path></clipPath><clipPath id="i41"><path d="M21.727,0 L21.727,7.405 L20.449,7.405 C20.276,5.929 19.949,3.749 18.606,2.889 C17.4653,2.15885 16.3007575,2.08762 14.6075617,2.08267937 L13.659,2.083 L13.659,32.641 C13.659,35.595 15.178,37.453 17.008,37.453 L17.008,38.639 L4.788,38.639 L4.788,37.453 C6.62,37.453 8.066,35.595 8.066,32.641 L8.066,2.083 L7.11787812,2.08267937 C5.425475,2.08762 4.2614,2.15885 3.119,2.889 C1.778,3.749 1.451,5.929 1.278,7.405 L0,7.405 L0,0 L21.727,0 Z"></path></clipPath></defs><g transform=""><g transform="translate(35.0654 101.8999)"><g clip-path="url(#i0)"><polygon points="0,0 14.421,0 14.421,24.145 0,24.145 0,0" stroke="none" fill="#FFFFFF"></polygon></g></g><g transform="translate(52.75500000000001 101.4234)"><g clip-path="url(#i1)"><g clip-path="url(#i2)"><polygon points="0,0 16.424,0 16.424,25.0976 0,25.0976 0,0" stroke="none" fill="#FFFFFF"></polygon></g></g></g><g transform="translate(74.13980000000001 101.90010000000001)"><g transform=""><g clip-path="url(#i3)"><g transform=""><g transform=""><g clip-path="url(#i4)"><polygon points="0,0 15.308,0 15.308,24.6209 0,24.6209 0,0" stroke="none" fill="#FFFFFF"></polygon></g></g></g></g></g></g><g transform="translate(94.9999 101.9001)"><g clip-path="url(#i5)"><polygon points="0,0 15.685,0 15.685,24.145 0,24.145 0,0" stroke="none" fill="#FFFFFF"></polygon></g></g><g transform="translate(121.62390000000002 101.8999)"><g clip-path="url(#i6)"><polygon points="0,0 12.335,0 12.335,24.145 0,24.145 0,0" stroke="none" fill="#FFFFFF"></polygon></g></g><g transform="translate(137.8837 101.89959999999999)"><g clip-path="url(#i7)"><polygon points="0,0 12.878,0 12.878,24.145 0,24.145 0,0" stroke="none" fill="#FFFFFF"></polygon></g></g><g transform="translate(162.5213 101.89959999999999)"><g clip-path="url(#i8)"><polygon points="0,0 15.029,0 15.029,24.145 0,24.145 0,0" stroke="none" fill="#FFFFFF"></polygon></g></g><g clip-path="url(#i9)"><g transform="translate(182.28 101.9)"><g clip-path="url(#i10)"><polygon points="0,0 3.909,0 3.909,24.145 0,24.145 0,0" stroke="none" fill="#FFFFFF"></polygon></g></g><g transform="translate(191.88860000000005 101.89959999999999)"><g clip-path="url(#i11)"><polygon points="0,0 12.877,0 12.877,24.145 0,24.145 0,0" stroke="none" fill="#FFFFFF"></polygon></g></g><g transform="translate(209.7101 101.9002)"><g clip-path="url(#i12)"><polygon points="0,0 15.603,0 15.603,24.145 0,24.145 0,0" stroke="none" fill="#FFFFFF"></polygon></g></g><g transform="translate(237.4672 101.4239)"><g clip-path="url(#i13)"><polygon points="0,0 15.653,0 15.653,25.097 0,25.097 0,0" stroke="none" fill="#FFFFFF"></polygon></g></g><g transform="translate(257.21000000000004 101.42339999999999)"><g clip-path="url(#i14)"><polygon points="0,0 16.424,0 16.424,25.0976 0,25.0976 0,0" stroke="none" fill="#FFFFFF"></polygon></g></g><g transform="translate(278.72610000000003 101.90010000000001)"><g clip-path="url(#i15)"><polygon points="0,0 20.4,0 20.4,24.145 0,24.145 0,0" stroke="none" fill="#FFFFFF"></polygon></g></g><g transform="translate(304.8247 101.90010000000001)"><g clip-path="url(#i16)"><polygon points="0,0 20.401,0 20.401,24.145 0,24.145 0,0" stroke="none" fill="#FFFFFF"></polygon></g></g><g transform="translate(330.79310000000004 101.90010000000001)"><g clip-path="url(#i17)"><polygon points="0,0 15.308,0 15.308,24.6209 0,24.6209 0,0" stroke="none" fill="#FFFFFF"></polygon></g></g><g transform="translate(351.65350000000007 101.8999)"><g clip-path="url(#i18)"><polygon points="0,0 15.603,0 15.603,24.145 0,24.145 0,0" stroke="none" fill="#FFFFFF"></polygon></g></g><g transform="translate(35.060300000000005 0.4760999999999882)"><g clip-path="url(#i19)"><polygon points="0,0 13.024,0 13.024,24.145 0,24.145 0,0" stroke="none" fill="#FFFFFF"></polygon></g></g><g transform="translate(51.18899999999999 -0.0002999999999957481)"><g clip-path="url(#i20)"><polygon points="0,0.0003 16.425,0.0003 16.425,25.098 0,25.098 0,0.0003" stroke="none" fill="#FFFFFF"></polygon></g></g><g transform="translate(72.73850000000002 0.4760999999999882)"><g clip-path="url(#i21)"><polygon points="0,0 15.604,0 15.604,24.145 0,24.145 0,0" stroke="none" fill="#FFFFFF"></polygon></g></g><g transform="translate(94.07350000000002 0.47569999999998913)"><g clip-path="url(#i22)"><polygon points="0,0 15.325,0 15.325,24.145 0,24.145 0,0" stroke="none" fill="#FFFFFF"></polygon></g></g><g transform="translate(112.22380000000001 0.47579999999999245)"><g clip-path="url(#i23)"><polygon points="0,0 17.952,0 17.952,24.145 0,24.145 0,0" stroke="none" fill="#FFFFFF"></polygon></g></g><g transform="translate(130.2421 0.4765999999999906)"><g clip-path="url(#i24)"><polygon points="0,0 15.751,0 15.751,24.145 0,24.145 0,0" stroke="none" fill="#FFFFFF"></polygon></g></g><g transform="translate(150.066 0.4759999999999991)"><g clip-path="url(#i25)"><polygon points="0,0 3.909,0 3.909,24.145 0,24.145 0,0" stroke="none" fill="#FFFFFF"></polygon></g></g><g transform="translate(159.1167 -0.0002999999999957481)"><g clip-path="url(#i26)"><polygon points="0,0.0003 16.425,0.0003 16.425,25.098 0,25.098 0,0.0003" stroke="none" fill="#FFFFFF"></polygon></g></g><g transform="translate(180.66570000000002 0.4760999999999882)"><g clip-path="url(#i27)"><polygon points="0,0 15.604,0 15.604,24.145 0,24.145 0,0" stroke="none" fill="#FFFFFF"></polygon></g></g><g transform="translate(31.5702 43.942800000000005)"><g clip-path="url(#i28)"><polygon points="0,0 25.435,0 25.435,39.361 0,39.361 0,0" stroke="none" fill="#FFFFFF"></polygon></g></g><g transform="translate(295.8061 43.942800000000005)"><g clip-path="url(#i29)"><polygon points="0,0 25.169,0 25.169,39.361 0,39.361 0,0" stroke="none" fill="#FFFFFF"></polygon></g></g><g transform="translate(58.7632 43.94239999999999)"><g clip-path="url(#i30)"><polygon points="0,0 24.7351159,0 24.7351159,38.639 0,38.639 0,0" stroke="none" fill="#FFFFFF"></polygon></g></g><g transform="translate(84.94090000000001 43.94279999999999)"><g clip-path="url(#i31)"><polygon points="0,0 22.189,0 22.189,38.639 0,38.639 0,0" stroke="none" fill="#FFFFFF"></polygon></g></g><g transform="translate(322.73029999999994 43.94279999999999)"><g clip-path="url(#i32)"><polygon points="0,0 22.123,0 22.123,38.639 0,38.639 0,0" stroke="none" fill="#FFFFFF"></polygon></g></g><g transform="translate(0.0 35.57509999999999)"><g clip-path="url(#i33)"><polygon points="0,0 32.413,0 32.413,47.007 0,47.007 0,0" stroke="none" fill="#FFFFFF"></polygon></g></g><g transform="translate(231.3514 35.56699999999999)"><g clip-path="url(#i34)"><polygon points="0,0 23.277,0 23.277,47.015 0,47.015 0,0" stroke="none" fill="#FFFFFF"></polygon></g></g><g transform="translate(108.7013 43.9426)"><g clip-path="url(#i35)"><polygon points="0,0 34.73,0 34.73,38.639 0,38.639 0,0" stroke="none" fill="#FFFFFF"></polygon></g></g><g transform="translate(170.55236817909667 43.942499999999995)"><g clip-path="url(#i36)"><polygon points="1.06584419e-14,0 24.6682318,0 24.6682318,38.6405309 1.06584419e-14,38.6405309 1.06584419e-14,0" stroke="none" fill="#FFFFFF"></polygon></g></g><g transform="translate(257.97810000000004 43.942800000000005)"><g clip-path="url(#i37)"><polygon points="0,0 12.272,0 12.272,38.639 0,38.639 0,0" stroke="none" fill="#FFFFFF"></polygon></g></g><g transform="translate(197.35360000000003 42.86889227398622)"><g clip-path="url(#i38)"><polygon points="0,5.64037181e-15 19.185,5.64037181e-15 19.185,40.2094374 0,40.2094374 0,5.64037181e-15" stroke="none" fill="#FFFFFF"></polygon></g></g><g transform="translate(273.5598 43.2077)"><g clip-path="url(#i39)"><polygon points="0,0 21.194,0 21.194,39.871 0,39.871 0,0" stroke="none" fill="#FFFFFF"></polygon></g></g><g transform="translate(145.4376 43.8095)"><g clip-path="url(#i40)"><polygon points="0,0 23.745,0 23.745,38.772 0,38.772 0,0" stroke="none" fill="#FFFFFF"></polygon></g></g><g transform="translate(345.5946 43.94239999999999)"><g clip-path="url(#i41)"><polygon points="0,0 21.727,0 21.727,38.639 0,38.639 0,0" stroke="none" fill="#FFFFFF"></polygon></g></g></g></g></svg>