<?xml version="1.0" encoding="UTF-8"?><svg version="1.1" width="240px" height="240px" viewBox="0 0 240.0 240.0" xmlns="http://www.w3.org/2000/svg" xmlns:xlink="http://www.w3.org/1999/xlink"><defs><clipPath id="i0"><path d="M1.534,0 C2.38,0 3.068,0.688 3.068,1.534 L3.068,12.581 C3.068,13.428 2.38,14.115 1.534,14.115 C0.688,14.115 0,13.428 0,12.581 L0,1.534 C0,0.688 0.688,0 1.534,0 Z"></path></clipPath><clipPath id="i1"><path d="M12.581,0 C13.427,0 14.115,0.688 14.115,1.534 C14.115,2.38 13.427,3.068 12.581,3.068 L1.534,3.068 C0.687,3.068 0,2.38 0,1.534 C0,0.688 0.687,0 1.534,0 Z"></path></clipPath><clipPath id="i2"><path d="M8.26125,0.44925 C8.86025,-0.14975 9.83125,-0.14975 10.43025,0.44925 C11.02925,1.04825 11.02925,2.01925 10.43025,2.61825 L2.61925,10.43125 C2.31925,10.73025 1.92625,10.88025 1.53425,10.88025 C1.14225,10.88025 0.74925,10.73025 0.44925,10.43125 C-0.14975,9.83225 -0.14975,8.86025 0.44925,8.26225 Z"></path></clipPath><clipPath id="i3"><path d="M89.0551089,0 C94.8421089,0 99.5491089,4.707 99.5491089,10.494 C99.5491089,13.631 98.1591089,16.442 95.9701089,18.367 C123.272109,21.783 144.469109,45.123 144.469109,73.335 L144.469109,162.537 C155.409109,163.588 166.286109,164.935 176.820109,166.558 C177.657109,166.687 178.231109,167.47 178.102109,168.306 C177.985109,169.064 177.333109,169.607 176.588109,169.607 C176.511109,169.607 176.432109,169.601 176.353109,169.589 C165.972109,167.989 155.252109,166.661 144.469109,165.618 L144.469109,194.501 L144.471109,194.511 C144.471109,194.515 144.468109,194.518 144.468109,194.523 C144.423489,203.37231 94.4547149,203.737525 89.3921623,203.751473 L88.7158477,203.751473 C83.6498257,203.737514 33.6391089,203.37195 33.6391089,194.511 L33.6391089,165.619 C22.8601089,166.662 12.1441089,167.99 1.76610893,169.589 C1.68810893,169.601 1.60910893,169.607 1.53210893,169.607 C0.787108927,169.607 0.135108927,169.064 0.0181089269,168.306 C-0.110891073,167.47 0.463108927,166.687 1.30010893,166.558 C11.8301089,164.935 22.7031089,163.589 33.6391089,162.538 L33.6391089,73.335 C33.6391089,45.122 54.8371089,21.782 82.1401089,18.366 C79.9521089,16.442 78.5621089,13.63 78.5621089,10.494 C78.5621089,4.707 83.2691089,0 89.0551089,0 Z M89.0512339,188.3465 L87.9121089,188.348 L87.9121089,190.845 C87.9121089,194.869 84.6371089,198.144 80.6141089,198.144 C76.5901089,198.144 73.3161089,194.869 73.3161089,190.845 L73.3161089,188.675 C47.8291089,189.784 37.7851089,193.038 36.7391089,194.556 C38.2021089,197.004 57.5351089,200.684 89.0541089,200.684 C120.430109,200.684 139.730109,197.037 141.371109,194.466 C140.473109,193.083 130.468109,189.792 104.787109,188.675 L104.787109,190.845 C104.787109,194.869 101.512109,198.144 97.4891089,198.144 C93.4651089,198.144 90.1911089,194.869 90.1911089,190.845 L90.1911089,188.348 C89.4301089,188.346 88.6721089,188.346 87.9121089,188.348 Z M101.720109,182.177 L93.2581089,182.177 L93.2581089,190.845 C93.2581089,193.179 95.1561089,195.076 97.4891089,195.076 C99.8221089,195.076 101.719109,193.179 101.719109,190.845 L101.720109,182.177 Z M84.8441089,182.177 L76.3831089,182.177 L76.3831089,190.845 C76.3831089,193.179 78.2811089,195.076 80.6141089,195.076 C82.9471089,195.076 84.8441089,193.179 84.8441089,190.845 L84.8441089,186.832 L84.8436089,186.822875 L84.8441089,182.177 Z M73.3151089,163.138 C61.1951089,163.48 48.9001089,164.217 36.7061089,165.331 L36.7061089,191.047 C43.6971089,187.492 61.1771089,186.125 73.3161089,185.603 L73.3161089,180.649 C73.3141089,180.642 73.3161089,180.64 73.3161089,180.638 Z M104.791109,163.137 L104.788109,180.586 C104.789109,180.606 104.800109,180.623 104.800109,180.644 C104.800109,180.664 104.789109,180.681 104.788109,180.702 L104.788109,185.603 C116.927109,186.125 134.408109,187.492 141.402109,191.046 L141.402109,165.33 C129.207109,164.216 116.911109,163.479 104.791109,163.137 Z M89.1161089,162.903 L87.9121089,162.906 L87.9121089,185.28 C88.6721089,185.278 89.4301089,185.278 90.1901089,185.28 L90.1901089,180.659 C90.1901089,180.654 90.1871089,180.649 90.1871089,180.644 C90.1871089,180.638 90.1901089,180.634 90.1901089,180.628 L90.1891089,162.905 L89.1161089,162.903 Z M101.728109,123.364 L76.3831089,123.364 L76.3831089,161.499 C76.3831089,161.504 76.3861089,161.507 76.3861089,161.512 C76.3861089,161.518 76.3831089,161.523 76.3831089,161.529 L76.3831089,179.11 L84.8441089,179.11 L84.8441089,161.388 L84.8441089,161.375 L84.8441089,139.215 C84.8441089,136.877 86.7311089,134.973 89.0491089,134.973 C91.3681089,134.973 93.2551089,136.877 93.2551089,139.215 L93.2561089,160.762 C93.3401089,160.952 93.3911089,161.16 93.3901089,161.382 C93.3891089,161.6 93.3391089,161.806 93.2561089,161.993 L93.2571089,179.11 L101.721109,179.11 L101.728109,125.448 C101.728109,125.438 101.725109,125.429 101.725109,125.418 C101.725109,125.413 101.728109,125.409 101.728109,125.403 L101.728109,123.364 Z M89.0541089,20.987 C60.1891089,20.987 36.7061089,44.47 36.7061089,73.335 L36.7061089,162.254 C48.9001089,161.145 61.1961089,160.41 73.3151089,160.07 L73.3151089,130.897 C72.3241089,131.514 71.1651089,131.887 69.9131089,131.887 C66.3471089,131.887 63.4451089,128.985 63.4451089,125.418 L63.4451089,87.227 C63.4451089,80.656 68.6451089,75.291 75.1441089,74.995 C74.3141089,73.151 73.8421089,71.113 73.8421089,68.964 C73.8421089,60.825 80.4641089,54.202 88.6031089,54.202 C96.7431089,54.202 103.365109,60.825 103.365109,68.964 C103.365109,71.078 102.910109,73.085 102.106109,74.905 L102.403109,74.905 C109.163109,74.905 114.663109,80.433 114.663109,87.227 L114.663109,125.418 C114.663109,128.985 111.761109,131.887 108.193109,131.887 C106.943109,131.887 105.785109,131.515 104.795109,130.898 L104.791109,160.069 C116.911109,160.409 129.207109,161.144 141.402109,162.254 L141.402109,73.335 C141.402109,44.47 117.919109,20.987 89.0541089,20.987 Z M89.0491089,138.041 C88.4211089,138.041 87.9121089,138.567 87.9121089,139.215 L87.9121089,159.838 L89.1161089,159.835 L90.1881089,159.838 L90.1871089,139.215 C90.1871089,138.567 89.6761089,138.041 89.0491089,138.041 Z M73.3141089,95.627 L66.5121089,95.627 L66.5121089,125.418 C66.5121089,127.293 68.0381089,128.819 69.9131089,128.819 C71.7871089,128.819 73.3101089,127.298 73.3151089,125.427 L73.3151089,121.832 L73.3141089,95.627 Z M111.596109,95.627 L104.799109,95.627 L104.796109,121.808 L104.800109,121.83 C104.800109,121.837 104.796109,121.844 104.796109,121.851 L104.795109,125.448 C104.812109,127.309 106.328109,128.819 108.193109,128.819 C110.070109,128.819 111.596109,127.293 111.596109,125.418 L111.596109,95.627 Z M102.403109,77.973 L100.271109,77.973 C97.5681089,81.464 93.3501089,83.726 88.6031089,83.726 C83.8851089,83.726 79.6861089,81.491 76.9821089,78.034 L75.7051089,78.034 C70.6361089,78.034 66.5121089,82.158 66.5121089,87.227 L66.5121089,92.559 L73.3141089,92.559 L73.3141089,87.227 C73.3141089,86.381 74.0021089,85.693 74.8481089,85.693 C75.6951089,85.693 76.3821089,86.381 76.3821089,87.227 L76.3821089,120.296 L101.728109,120.296 L101.732109,87.227 C101.732109,86.381 102.420109,85.693 103.266109,85.693 C104.114109,85.693 104.800109,86.381 104.800109,87.227 L104.799109,92.559 L111.596109,92.559 L111.596109,87.227 C111.596109,82.124 107.472109,77.973 102.403109,77.973 Z M88.6031089,57.27 C82.1561089,57.27 76.9091089,62.516 76.9091089,68.964 C76.9091089,75.412 82.1561089,80.658 88.6031089,80.658 C95.0511089,80.658 100.297109,75.412 100.297109,68.964 C100.297109,62.516 95.0511089,57.27 88.6031089,57.27 Z M89.0551089,3.068 C84.9601089,3.068 81.6301089,6.399 81.6301089,10.494 C81.6301089,14.589 84.9601089,17.92 89.0551089,17.92 C93.1501089,17.92 96.4811089,14.589 96.4811089,10.494 C96.4811089,6.399 93.1501089,3.068 89.0551089,3.068 Z"></path></clipPath></defs><g transform="translate(130.3153 48.951899999999995)"><g clip-path="url(#i0)"><polygon points="0,0 3.068,0 3.068,14.115 0,14.115 0,0" stroke="none" fill="#FFFFFF"></polygon></g></g><g transform="translate(137.16570000000002 69.15270000000001)"><g clip-path="url(#i1)"><polygon points="0,0 14.115,0 14.115,3.068 0,3.068 0,0" stroke="none" fill="#FFFFFF"></polygon></g></g><g transform="translate(135.12365 55.19444999999996)"><g clip-path="url(#i2)"><polygon points="1.42108547e-14,1.42108547e-14 10.8795,1.42108547e-14 10.8795,10.88025 1.42108547e-14,10.88025 1.42108547e-14,1.42108547e-14" stroke="none" fill="#FFFFFF"></polygon></g></g><g transform="translate(30.97099107305246 14.123800000000017)"><g clip-path="url(#i3)"><polygon points="0,0 178.120218,0 178.120218,203.752 0,203.752 0,0" stroke="none" fill="#FFFFFF"></polygon></g></g></svg>