<?xml version="1.0" encoding="UTF-8"?><svg version="1.1" width="280px" height="280px" viewBox="0 0 280.0 280.0" xmlns="http://www.w3.org/2000/svg" xmlns:xlink="http://www.w3.org/1999/xlink"><defs><clipPath id="i0"><path d="M1.789,0 C2.777,0 3.579,0.802 3.579,1.79 L3.57879424,83.2222095 C3.58017593,83.5665586 3.65588889,86.2299444 5.388,88.83 L28.732,123.877 C29.935,122.836 30.807,121.464 31.245,119.894 C31.834,117.784 31.565,115.572 30.493,113.662 L13.365,87.947 L15.555,87.193 C21.819,85.035 26.026,79.118 26.026,72.469 C26.026,71.481 26.829,70.679 27.816,70.679 C28.803,70.679 29.605,71.481 29.605,72.469 C29.605,77.276 27.807,81.765 24.765,85.194 C33.412,92.747 38.111,102.363 39.825,106.439 L44.237,104.019 C45.473,103.411 46.294,102.734 46.879,102.089 C46.383,100.617 45.19,97.499 43.179,94.612 L40.856,96.502 C40.09,97.128 38.965,97.01 38.34,96.244 C37.716,95.479 37.831,94.351 38.598,93.729 L42.339,90.687 L42.348625,90.6775 L56.168,79.44 C56.797,79.039 57.525,78.826 58.274,78.826 C60.434,78.826 62.193,80.585 62.193,82.746 L62.193,100.255 C62.202,100.412 62.215,100.788 62.193,101.359 L62.193,107.262 C62.193,111.165 64.935,114.438 68.595,115.257 L68.607,80.292 C68.646,79.925 69.468,70.933 59.24,62.182 L44.505,50.418 C43.449,49.714 33.987,43.089 33.987,32.283 L33.987,20.321 C33.987,19.334 34.789,18.532 35.776,18.532 C36.763,18.532 37.566,19.334 37.566,20.321 L37.566,32.283 C37.566,41.56 46.44,47.41 46.53,47.468 L46.674,47.572 L61.52,59.424 C72.793,69.069 72.286,79.302 72.174,80.587 L72.174,119.032 L70.384,119.032 C67.201,119.032 64.314,117.757 62.193,115.697 L62.193,146.063 L60.404,146.063 C55.837,146.063 51.879,143.444 49.928,139.634 C43.663,139.378 38.641,134.215 38.641,127.889 L38.641,123.519 L36.18,124.876 C35.969,124.993 35.744,125.048 35.52,125.074 C35.33,125.14 35.136,125.183 34.941,125.183 C34.353,125.183 33.777,124.893 33.435,124.361 C33.371,124.262 33.321,124.158 33.261,124.057 C32.237,125.656 30.832,126.99 29.131,127.946 L27.685,128.76 L2.411,90.813 C0.201222222,87.4956667 0.0125802469,84.1372469 0.000750342936,83.319513 L0,1.79 C0,0.802 0.802,0 1.789,0 Z M58.614,111.211 C57.461,112.638 55.96,113.985 53.954,115.076 L52.211,116.037 L52.211,134.292 C52.211,138.196 54.955,141.469 58.614,142.288 Z M48.622,118.016 L42.22,121.546 L42.22,127.889 C42.22,131.791 44.962,135.065 48.622,135.884 L48.622,118.016 Z M58.614,82.746 C58.614,82.51 58.341,82.344 58.145,82.43 L51.778,87.612 L51.7772529,99.5353935 C51.7686445,99.8456671 51.6637586,101.498414 50.432,103.367 C49.574,104.668 48.181,106.065 45.887,107.194 L39.075,110.932 C39.012,110.986 38.971,111.056 38.899,111.103 C35.548,113.259 34.306,117.465 35.736,121.036 L52.234,111.938 C57.691,108.972 58.512,103.559 58.614,101.368 Z M22.137,87.654 C21.117,88.44 20.013,89.13 18.832,89.703 L33.439,111.641 C34.245,110.38 35.305,109.26 36.599,108.356 C36.629,108.322 36.673,108.3 36.705,108.267 C35.262,104.784 30.659,94.985 22.137,87.654 Z M48.2,90.525 L45.959,92.349 C46.841,93.588 47.585,94.854 48.2,96.051 L48.2,90.525 Z"></path></clipPath><clipPath id="i1"><path d="M3.72666426,0.192770317 C5.98366426,-0.626229683 8.43766426,1.40377032 8.90366426,1.81777032 C9.14066426,1.99877032 16.7026643,7.98277032 19.4116643,15.4927703 C20.2766643,17.8957703 20.1556643,20.4937703 19.0696643,22.8057703 C17.9816643,25.1197703 16.0596643,26.8697703 13.6556643,27.7367703 C12.5876643,28.1207703 11.4946643,28.3037703 10.4206643,28.3037703 C6.50066426,28.3037703 2.81466426,25.8757703 1.41166426,21.9807703 C-1.29533574,14.4687703 0.707664257,5.03677032 0.794664257,4.63877032 C0.871664257,4.12877032 1.46466426,1.00877032 3.72666426,0.192770317 Z M4.09666426,6.49577032 C3.67466426,9.12577032 2.92366426,15.6257703 4.77766426,20.7687703 C5.68466426,23.2837703 8.11466426,24.7937703 10.6566643,24.6917703 Z M7.46166426,5.27877032 L14.0236643,23.4807703 C14.7816643,22.9047703 15.4136643,22.1707703 15.8306643,21.2837703 C16.5116643,19.8357703 16.5876643,18.2107703 16.0446643,16.7047703 C14.1726643,11.5127703 9.40066426,6.97277032 7.46166426,5.27877032 Z"></path></clipPath><clipPath id="i2"><path d="M128.367014,0.294425309 C130.437014,-0.278574691 132.594014,-0.00857469089 134.455014,1.04642531 C136.318014,2.10242531 137.657014,3.82042531 138.227014,5.88342531 L139.309014,9.79342531 C139.802014,9.50742531 140.336014,9.28242531 140.899014,9.12742531 C142.649014,8.64042531 144.478014,8.86942531 146.057014,9.76442531 C147.633014,10.6594253 148.768014,12.1124253 149.253014,13.8614253 C149.500014,14.7634253 149.561014,15.6854253 149.434014,16.6044253 C149.432014,16.6164253 149.430014,16.6304253 149.429014,16.6424253 C149.367014,17.0434253 149.113014,18.4454253 148.361014,20.4984253 C149.652014,20.4284253 150.909014,20.7304253 152.045014,21.3744253 C153.622014,22.2694253 154.756014,23.7244253 155.240014,25.4714253 C155.607014,26.7994253 155.565014,28.1874253 155.116014,29.4864253 C155.082014,29.6554253 153.136014,36.9224253 142.489014,45.8914253 C143.591014,49.9834253 144.599014,54.2814253 145.169014,58.0594253 C145.484014,60.2664253 145.704014,62.5054253 145.827014,64.7314253 C146.330014,73.8494253 144.940014,83.6904253 142.044014,93.1504253 C145.450014,89.1964253 148.797014,85.8504253 151.832014,83.0954253 C150.016014,70.3724253 152.848014,63.9034253 153.259014,63.0554253 C153.780014,61.8144253 154.650014,60.7644253 155.782014,60.0194253 C157.295014,59.0214253 159.107014,58.6714253 160.884014,59.0394253 C162.168014,59.3034253 163.321014,59.9174253 164.237014,60.8074253 C165.124014,58.5074253 165.939014,57.2494253 165.992014,57.1674253 C166.498014,56.3934253 167.152014,55.7364253 167.936014,55.2214253 C169.451014,54.2234253 171.268014,53.8804253 173.037014,54.2434253 C174.813014,54.6094253 176.341014,55.6454253 177.338014,57.1604253 C177.660014,57.6474253 177.914014,58.1684253 178.097014,58.7094253 L181.485014,56.4784253 C183.274014,55.3004253 185.418014,54.8924253 187.510014,55.3224253 C189.606014,55.7534253 191.409014,56.9764253 192.587014,58.7654253 C193.764014,60.5524253 194.174014,62.6914253 193.743014,64.7894253 C193.311014,66.8854253 192.088014,68.6884253 190.299014,69.8654253 L186.913014,72.0954253 C187.337014,72.4784253 187.713014,72.9174253 188.035014,73.4064253 C189.032014,74.9194253 189.380014,76.7324253 189.015014,78.5084253 C188.649014,80.2834253 187.615014,81.8124253 186.100014,82.8084253 C185.315014,83.3254253 184.453014,83.6664253 183.540014,83.8264253 C183.448014,83.8434253 181.971014,84.0964253 179.509014,83.9994253 C179.964014,85.1934253 180.072014,86.4934253 179.808014,87.7764253 C179.442014,89.5514253 178.407014,91.0804253 176.893014,92.0764253 C175.781014,92.8104253 174.494014,93.1964253 173.163014,93.1964253 C173.121014,93.1964253 173.077014,93.1964253 173.034014,93.1944253 L173.036014,93.1174253 C170.217014,93.3604253 163.000014,92.1024253 153.673014,86.3084253 C148.756014,90.8324253 143.052014,96.9064253 137.731014,104.550425 C135.187014,110.125425 132.105014,115.360425 128.581014,120.012425 C162.983014,123.064425 186.267014,129.544425 186.569014,129.630425 C187.519014,129.899425 188.072014,130.888425 187.803014,131.837425 C187.580014,132.625425 186.863014,133.140434 186.082014,133.140434 C185.921014,133.140434 185.758014,133.118425 185.596014,133.072425 C185.204014,132.961425 145.935014,122.031425 93.9360139,122.031425 C41.9360139,122.031425 2.66701388,132.961425 2.27601388,133.072425 C1.32501388,133.341425 0.339013876,132.788425 0.0680138758,131.837425 C-0.200986124,130.888425 0.352013876,129.899425 1.30201388,129.630425 C1.69701388,129.517425 41.4120139,118.452425 93.9360139,118.452425 C104.817014,118.452425 115.135014,118.932425 124.681014,119.686425 C124.720014,119.375425 124.811014,119.070425 125.019014,118.806425 C127.949014,115.077425 130.567014,110.917425 132.832014,106.492425 C132.810014,106.406425 132.808014,106.321425 132.799014,106.232425 C132.793014,106.171425 132.763014,106.117425 132.763014,106.053425 C132.763014,100.071425 131.940014,95.2894253 130.686014,91.4554253 C125.097014,93.0214253 120.638014,93.4894253 117.362014,93.4894253 C113.394014,93.4894253 111.143014,92.8224253 110.654014,92.6614253 C109.352014,92.3054253 108.198014,91.5794253 107.312014,90.5554253 C105.194014,88.1104253 105.137014,84.5694253 106.987014,82.0714253 C104.590014,81.4944253 103.236014,80.8524253 103.148014,80.8094253 C102.311014,80.4064253 101.577014,79.8444253 100.965014,79.1384253 C99.7770139,77.7684253 99.1950139,76.0164253 99.3250139,74.2074253 C99.4550139,72.3984253 100.282014,70.7484253 101.652014,69.5624253 C102.095014,69.1794253 102.578014,68.8584253 103.090014,68.6054253 L100.434014,65.5394253 C99.0310139,63.9214253 98.3450139,61.8544253 98.4980139,59.7184253 C98.6500139,57.5834253 99.6270139,55.6364253 101.245014,54.2344253 C104.584014,51.3454253 109.656014,51.7054253 112.550014,55.0454253 L115.204014,58.1124253 C115.529014,57.6414253 115.915014,57.2104253 116.357014,56.8274253 C119.187014,54.3754253 123.481014,54.6844253 125.932014,57.5144253 C126.545014,58.2224253 126.998014,59.0304253 127.276014,59.9144253 C127.281014,59.9294253 127.285014,59.9434253 127.290014,59.9564253 C127.405014,60.3484253 127.776014,61.7234253 127.978014,63.8914253 C129.100014,63.2834253 130.372014,63.0164253 131.681014,63.0994253 C133.491014,63.2304253 135.140014,64.0564253 136.327014,65.4274253 C137.229014,66.4694253 137.788014,67.7404253 137.942014,69.1044253 C137.950224,69.1451043 137.962194,69.2104633 137.976134,69.3001766 L137.993691,69.4195019 C138.219056,71.0348445 138.718582,77.9562525 133.682014,89.1284253 C134.749014,92.0524253 135.567014,95.5064253 136.000014,99.5524253 C140.541014,88.3504253 142.869014,76.0724253 142.254014,64.9284253 C142.137014,62.8054253 141.928014,60.6674253 141.630014,58.5794253 C141.074014,54.8944253 140.061014,50.6224253 138.954014,46.5504253 C126.315014,44.3644253 121.037014,39.6874253 120.358014,39.0354253 C119.334014,38.1574253 118.603014,37.0044253 118.243014,35.6994253 C117.760014,33.9524253 117.985014,32.1204253 118.880014,30.5444253 C119.526014,29.4044253 120.464014,28.4964253 121.595014,27.8974253 C119.679014,26.3464253 118.733014,25.1844253 118.670014,25.1084253 C118.087014,24.3874253 117.665014,23.5624253 117.417014,22.6594253 C116.934014,20.9164253 117.159014,19.0834253 118.054014,17.5054253 C118.948014,15.9284253 120.404014,14.7944253 122.151014,14.3104253 C122.716014,14.1544253 123.288014,14.0724253 123.860014,14.0634253 L122.778014,10.1544253 C122.208014,8.09042531 122.474014,5.92842531 123.530014,4.06642531 C124.586014,2.20342531 126.304014,0.863425309 128.367014,0.294425309 Z M109.846014,57.3884253 C108.245014,55.5374253 105.436014,55.3404253 103.587014,56.9384253 C102.691014,57.7144253 102.152014,58.7934253 102.067014,59.9754253 C101.981014,61.1564253 102.361014,62.3004253 103.138014,63.1974253 L107.760014,68.5354253 C108.233014,69.0804253 108.331014,69.8554253 108.011014,70.5004253 C107.690014,71.1484253 107.004014,71.5384253 106.294014,71.4914253 C105.437014,71.4394253 104.632014,71.7134253 103.993014,72.2674253 C103.346014,72.8284253 102.955014,73.6074253 102.894014,74.4644253 C102.832014,75.3194253 103.109014,76.1474253 103.669014,76.7964253 C103.956014,77.1274253 104.298014,77.3914253 104.689014,77.5814253 C104.874014,77.6664253 107.754014,78.9604253 112.560014,79.3254253 C112.577014,79.3254253 112.594014,79.3264253 112.611014,79.3264253 C113.177014,79.3404253 113.704014,79.6234253 114.029014,80.0874253 C114.355014,80.5514253 114.441014,81.1424253 114.262014,81.6794253 C114.004014,82.4564253 113.259014,82.9654253 112.434014,82.9044253 C112.428014,82.9024253 112.422014,82.9024253 112.415014,82.9024253 C111.654014,82.9074253 110.920014,83.1834253 110.340014,83.6864253 C109.692014,84.2474253 109.302014,85.0264253 109.241014,85.8814253 C109.179014,86.7364253 109.455014,87.5644253 110.016014,88.2134253 C110.443014,88.7074253 111.000014,89.0534253 111.629014,89.2194253 C111.824014,89.2814253 117.813014,91.2734253 129.388014,88.1024253 C125.288699,79.1577678 118.809725,76.9281975 117.915576,76.6577732 L117.852797,76.639281 L117.832014,76.6334253 C116.882014,76.3724253 116.319014,75.3924253 116.574014,74.4424253 C116.829014,73.4914253 117.794014,72.9284253 118.752014,73.1764253 C119.222014,73.3004253 126.625014,75.3884253 131.676014,84.6644253 C135.204014,75.5303799 134.497867,70.2159046 134.416816,69.7003278 L134.411142,69.6657657 C134.401014,69.6104253 134.390014,69.5514253 134.385014,69.5024253 C134.314014,68.8614253 134.050014,68.2634253 133.623014,67.7694253 C133.061014,67.1204253 132.281014,66.7304253 131.426014,66.6694253 C130.575014,66.6054253 129.743014,66.8804253 129.094014,67.4444253 C128.514014,67.9454253 128.136014,68.6334253 128.020014,69.3884253 L128.020014,69.4074253 C127.952014,70.3414253 127.174014,71.0674253 126.235014,71.0674253 C125.723014,71.0674253 125.234014,70.8474253 124.896014,70.4654253 C124.555014,70.0834253 124.394014,69.5724253 124.455014,69.0654253 C124.457014,69.0504253 124.458014,69.0344253 124.460014,69.0214253 C124.795014,64.0884253 123.870014,61.0174253 123.861014,60.9864253 C123.732014,60.5734253 123.519014,60.1934253 123.228014,59.8564253 C122.666014,59.2074253 121.886014,58.8174253 121.031014,58.7564253 C120.182014,58.6924253 119.349014,58.9674253 118.699014,59.5314253 C118.058014,60.0854253 117.669014,60.8564253 117.601014,61.6994253 C117.543014,62.4174253 117.059014,63.0314253 116.373014,63.2544253 C115.694014,63.4814253 114.936014,63.2734253 114.465014,62.7264253 Z M172.316014,57.7484253 C171.480014,57.5744253 170.620014,57.7404253 169.902014,58.2114253 C169.536014,58.4524253 169.229014,58.7564253 168.990014,59.1184253 C168.985014,59.1262253 168.976101,59.1403453 168.963556,59.1607263 L168.915299,59.2405933 C168.563714,59.8317853 167.125514,62.4324253 166.230014,66.6984253 C166.227014,66.7124253 166.226014,66.7254253 166.223014,66.7394253 C166.087014,67.6104253 165.337014,68.2524253 164.456014,68.2524253 C163.918014,68.2524253 163.406014,68.0094253 163.067014,67.5934253 C162.727014,67.1774253 162.590014,66.6284253 162.700014,66.1034253 C162.700014,66.0974253 162.701014,66.0904253 162.703014,66.0864253 C162.797014,65.3264253 162.619014,64.5624253 162.199014,63.9234253 C161.726014,63.2064253 161.003014,62.7174253 160.163014,62.5434253 C159.329014,62.3704253 158.468014,62.5344253 157.751014,63.0054253 C157.207014,63.3654253 156.789014,63.8734253 156.543014,64.4734253 C156.525014,64.5174253 156.505014,64.5594253 156.484014,64.6024253 C156.482291,64.6058099 156.471403,64.6281976 156.452737,64.6696895 L156.374785,64.8515791 C155.906826,65.9887503 154.140568,71.0258099 155.085014,80.2554253 C160.494014,75.7234253 164.335014,73.4224253 164.667014,73.2264253 C165.516014,72.7264253 166.615014,73.0044253 167.116014,73.8564253 C167.619014,74.7074253 167.338014,75.8044253 166.487014,76.3064253 C166.404014,76.3554253 162.259014,78.8474253 156.469014,83.8204253 C165.568488,89.26132 171.524186,89.607489 172.725183,89.6222286 L172.887439,89.6223588 C172.896792,89.6222446 172.905097,89.6221192 172.912348,89.6219979 L172.949014,89.6214253 C173.750014,89.6094253 174.380014,89.4484253 174.924014,89.0904253 C176.404014,88.1144253 176.815014,86.1204253 175.842014,84.6424253 C175.419014,84.0024253 174.790014,83.5374253 174.060014,83.3264253 C174.052014,83.3254253 174.044014,83.3224253 174.037014,83.3204253 C173.536014,83.2184253 173.103014,82.9054253 172.847014,82.4624253 C172.592014,82.0204253 172.537014,81.4884253 172.700014,81.0034253 C172.995014,80.1134253 173.932014,79.5954253 174.840014,79.8314253 C174.857014,79.8354253 174.872014,79.8384253 174.889014,79.8434253 C179.515696,80.7769708 182.605256,80.3474253 182.906137,80.3055772 L182.930014,80.3024253 C183.355014,80.2274253 183.761014,80.0654253 184.133014,79.8204253 C184.848014,79.3494253 185.337014,78.6264253 185.511014,77.7864253 C185.684014,76.9464253 185.518014,76.0894253 185.047014,75.3744253 C184.581014,74.6664253 183.870014,74.1784253 183.044014,74.0004253 C182.339014,73.8484253 181.795014,73.2894253 181.663014,72.5824253 C181.529014,71.8724253 181.834014,71.1544253 182.436014,70.7574253 L188.332014,66.8764253 C189.322014,66.2264253 190.000014,65.2284253 190.238014,64.0674253 C190.477014,62.9064253 190.250014,61.7224253 189.598014,60.7334253 C188.947014,59.7424253 187.949014,59.0654253 186.788014,58.8264253 C185.625014,58.5884253 184.444014,58.8124253 183.452014,59.4664253 L177.557014,63.3484253 C176.953014,63.7434253 176.174014,63.7424253 175.574014,63.3384253 C174.976014,62.9374253 174.678014,62.2154253 174.818014,61.5074253 C174.980014,60.6784253 174.815014,59.8334253 174.350014,59.1274253 C173.877014,58.4104253 173.156014,57.9214253 172.316014,57.7484253 Z M132.690014,4.15842531 C131.657014,3.57442531 130.455014,3.42842531 129.321014,3.74242531 C128.178014,4.05842531 127.227014,4.79942531 126.643014,5.83142531 C126.059014,6.86142531 125.910014,8.05842531 126.226014,9.20042531 L128.107014,16.0064253 C128.298014,16.7024253 128.055014,17.4444253 127.489014,17.8894253 C126.922014,18.3394253 126.141014,18.3944253 125.512014,18.0464253 C124.776014,17.6364253 123.920014,17.5344253 123.105014,17.7594253 C122.277014,17.9874253 121.588014,18.5244253 121.166014,19.2704253 C120.744014,20.0164253 120.636014,20.8824253 120.865014,21.7084253 C120.981014,22.1294253 121.177014,22.5144253 121.447014,22.8544253 C121.681014,23.1354253 123.702014,25.4654253 127.827014,27.8234253 C127.835014,27.8264253 127.843014,27.8304253 127.850014,27.8334253 C128.728014,28.2794253 129.082014,29.3504253 128.642014,30.2314253 C128.423014,30.6684253 128.032014,30.9994253 127.563014,31.1424253 C127.092014,31.2884253 126.586014,31.2334253 126.158014,30.9894253 C125.723014,30.7844253 125.256014,30.6804253 124.786014,30.6804253 C124.499014,30.6804253 124.212014,30.7184253 123.929014,30.7964253 C123.105014,31.0254253 122.415014,31.5614253 121.993014,32.3074253 C121.570014,33.0534253 121.462014,33.9194253 121.692014,34.7454253 C121.865014,35.3744253 122.219014,35.9274253 122.716014,36.3474253 C122.859014,36.4804253 127.064014,40.5304253 137.873014,42.7184253 C135.959014,36.1764253 134.107014,30.9374253 134.074014,30.8444253 C133.744014,29.9134253 134.230014,28.8914253 135.162014,28.5604253 C136.088014,28.2324253 137.114014,28.7154253 137.446014,29.6474253 C137.584014,30.0364253 139.485014,35.4144253 141.423014,42.0874253 C150.056014,34.4164253 151.675014,28.5314253 151.691014,28.4684253 C151.946014,27.7094253 151.964014,27.0534253 151.791014,26.4254253 C151.563014,25.5974253 151.026014,24.9094253 150.280014,24.4874253 C149.534014,24.0664253 148.666014,23.9574253 147.842014,24.1864253 C147.106014,24.3904253 146.473014,24.8424253 146.044014,25.4704253 C146.040014,25.4794253 146.035014,25.4884253 146.031014,25.4974253 C145.785014,25.9294253 145.371014,26.2404253 144.888014,26.3554253 C144.405014,26.4694253 143.895014,26.3804253 143.482014,26.1034253 C142.674014,25.5644253 142.438014,24.4784253 142.956014,23.6574253 C142.967014,23.6394253 142.977014,23.6234253 142.990014,23.6064253 C145.402014,19.3024253 145.885014,16.1384253 145.889014,16.1064253 C145.950014,15.6764253 145.921014,15.2404253 145.804014,14.8124253 C145.575014,13.9884253 145.039014,13.3004253 144.291014,12.8764253 C143.546014,12.4544253 142.680014,12.3464253 141.853014,12.5764253 C141.037014,12.8014253 140.355014,13.3284253 139.932014,14.0604253 C139.572014,14.6844253 138.877014,15.0324253 138.156014,14.9384253 C137.442014,14.8474253 136.851014,14.3354253 136.659014,13.6414253 L134.779014,6.83742531 C134.463014,5.69442531 133.722014,4.74342531 132.690014,4.15842531 Z"></path></clipPath></defs><g transform="translate(64.86850000000001 38.43129999999999)"><g clip-path="url(#i0)"><polygon points="0,0 72.2110079,0 72.2110079,146.063 0,146.063 0,0" stroke="none" fill="#FFFFFF"></polygon></g></g><g transform="translate(90.65323574311307 174.94102968296954)"><g clip-path="url(#i1)"><polygon points="-3.60699442e-15,1.82569279e-15 19.9825858,1.82569279e-15 19.9825858,28.3037703 -3.60699442e-15,28.3037703 -3.60699442e-15,1.82569279e-15" stroke="none" fill="#FFFFFF"></polygon></g></g><g transform="translate(47.711586124171816 89.76087469089384)"><g clip-path="url(#i2)"><polygon points="7.59821438e-17,1.41406237e-14 193.909941,1.41406237e-14 193.909941,133.140434 7.59821438e-17,133.140434 7.59821438e-17,1.41406237e-14" stroke="none" fill="#FFFFFF"></polygon></g></g></svg>