<?xml version="1.0" encoding="UTF-8"?><svg version="1.1" width="79px" height="79px" viewBox="0 0 79.0 79.0" xmlns="http://www.w3.org/2000/svg" xmlns:xlink="http://www.w3.org/1999/xlink"><defs><clipPath id="i0"><path d="M13.0023078,0.196239607 C13.1663078,-0.0207603927 13.4733078,-0.0647603927 13.6913078,0.0992396073 C13.9083078,0.262239607 13.9513078,0.571239607 13.7883078,0.788239607 L0.884307759,17.9122396 C0.787307759,18.0402396 0.640307759,18.1082396 0.491307759,18.1082396 C0.388307759,18.1082396 0.284307759,18.0762396 0.195307759,18.0092396 C-0.0206922409,17.8462396 -0.0646922409,17.5372396 0.0993077591,17.3202396 Z"></path></clipPath><clipPath id="i1"><path d="M13.0028108,0.196239607 C13.1658108,-0.0207603927 13.4738108,-0.0647603927 13.6918108,0.0992396073 C13.9088108,0.262239607 13.9518108,0.571239607 13.7888108,0.788239607 L0.883810809,17.9122396 C0.787810809,18.0402396 0.639810809,18.1082396 0.490810809,18.1082396 C0.387810809,18.1082396 0.283810809,18.0752396 0.195810809,18.0082396 C-0.0211891909,17.8452396 -0.0641891909,17.5372396 0.0988108091,17.3202396 Z"></path></clipPath><clipPath id="i2"><path d="M13.0033078,0.196239607 C13.1663078,-0.0207603927 13.4743078,-0.0647603927 13.6923078,0.0992396073 C13.9083078,0.263239607 13.9523078,0.571239607 13.7883078,0.788239607 L0.884307759,17.9122396 C0.787307759,18.0402396 0.640307759,18.1082396 0.491307759,18.1082396 C0.388307759,18.1082396 0.284307759,18.0762396 0.195307759,18.0092396 C-0.0206922409,17.8462396 -0.0646922409,17.5372396 0.0993077591,17.3202396 Z"></path></clipPath><clipPath id="i3"><path d="M45.6878172,0 L49.6318172,2.973 L47.5508172,5.735 C47.1538172,6.261 46.5748172,6.602 45.9218172,6.694 C45.8058172,6.71 45.6888172,6.718 45.5728172,6.718 C45.2058172,6.718 44.8478172,6.631 44.5178172,6.473 L31.9288172,23.179 L51.0298172,48.527 C53.5288172,48.853 56.0248172,49.232 58.4518172,49.662 C58.7188172,49.709 58.8968172,49.964 58.8498172,50.232 C58.8068172,50.47 58.5998172,50.638 58.3658172,50.638 C58.3378172,50.638 58.3088172,50.635 58.2798172,50.63 C56.1808172,50.259 54.0268172,49.932 51.8668172,49.638 L52.7648172,50.83 C53.8278172,52.241 53.5448172,54.255 52.1338172,55.318 C51.5718172,55.741 50.9028172,55.964 50.2118172,55.964 C50.0618172,55.964 49.9108172,55.954 49.7588172,55.932 C48.9108172,55.813 48.1608172,55.371 47.6458172,54.688 L43.1118172,48.67 C38.5328172,48.288 33.9328172,48.093 29.4338172,48.093 C25.9558172,48.093 22.3988172,48.211 18.8588172,48.441 L14.7398172,53.907 C13.8948172,55.028 12.6638172,55.753 11.2738172,55.948 C11.0258172,55.983 10.7778172,56 10.5318172,56 C9.39781724,56 8.29981724,55.635 7.37881724,54.941 C6.25781724,54.096 5.53281724,52.865 5.33781724,51.475 C5.26081724,50.931 5.27181724,50.39 5.36081724,49.864 C3.74681724,50.101 2.13881724,50.356 0.576817236,50.632 C0.548817236,50.638 0.518817236,50.64 0.490817236,50.64 C0.256817236,50.64 0.0498172357,50.473 0.00781723567,50.234 C-0.0401827643,49.967 0.137817236,49.711 0.405817236,49.664 C2.11681724,49.361 3.88081724,49.081 5.64981724,48.827 C5.82281724,48.387 6.05281724,47.967 6.34481724,47.58 L19.9448172,29.532 C20.4458172,28.867 21.3718172,28.621 22.5538172,28.839 C23.4868172,29.011 24.5078172,29.459 25.4718172,30.114 L27.2998172,27.688 L13.1238172,8.875 L10.6058172,0.208 L18.2418172,5.017 L18.2968172,5.089 L31.3128172,22.362 L43.7298172,5.885 C43.4098172,5.526 43.2018172,5.08 43.1328172,4.592 C43.0418172,3.939 43.2098172,3.289 43.6068172,2.762 L45.6878172,0 Z M22.3758172,29.806 C21.5898172,29.66 20.9908172,29.778 20.7298172,30.124 L7.12981724,48.172 C6.44281724,49.083 6.15281724,50.208 6.31181724,51.337 C6.46981724,52.468 7.05981724,53.469 7.97081724,54.155 C8.88281724,54.842 10.0088172,55.132 11.1368172,54.974 C12.2668172,54.816 13.2678172,54.226 13.9548172,53.315 L27.5548172,35.267 C28.0928172,34.553 27.2908172,32.701 25.2798172,31.186 C24.3228172,30.465 23.2918172,29.975 22.3758172,29.806 Z M42.9378172,39.423 L39.3898172,42.097 L48.4308172,54.096 C48.7878172,54.57 49.3078172,54.876 49.8958172,54.959 C50.4858172,55.039 51.0678172,54.89 51.5418172,54.533 C52.5198172,53.796 52.7168172,52.4 51.9788172,51.422 L42.9378172,39.423 Z M27.9158172,28.505 L26.2568172,30.707 C28.3398172,32.441 29.2548172,34.644 28.3398172,35.859 L19.6358172,47.41 C22.9188172,47.214 26.2088172,47.109 29.4338172,47.109 C33.6758172,47.109 38.0058172,47.288 42.3248172,47.626 L27.9158172,28.505 Z M17.8068172,6.074 L14.2588172,8.747 L38.7978172,41.311 L42.3458172,38.638 L17.8068172,6.074 Z M12.2728172,2.42 L13.8438172,7.829 L17.0388172,5.422 L12.2728172,2.42 Z M45.8808172,1.378 L44.3918172,3.354 C44.1528172,3.671 44.0518172,4.062 44.1068172,4.455 C44.1618172,4.848 44.3668172,5.196 44.6838172,5.435 L44.8072645,5.51899609 C45.1001297,5.69714062 45.4409422,5.766375 45.7848172,5.72 C46.1778172,5.665 46.5258172,5.46 46.7648172,5.143 L48.2548172,3.166 L45.8808172,1.378 Z"></path></clipPath></defs><g transform="translate(17.94379224091012 42.142460392714554)"><g clip-path="url(#i0)"><polygon points="-3.76349164e-16,-2.93807485e-15 13.8871186,-2.93807485e-15 13.8871186,18.1082396 -3.76349164e-16,18.1082396 -3.76349164e-16,-2.93807485e-15" stroke="none" fill="#FFFFFF"></polygon></g></g><g transform="translate(19.84628919086044 43.57646039271456)"><g clip-path="url(#i1)"><polygon points="-9.28846824e-16,-2.93807485e-15 13.8876216,-2.93807485e-15 13.8876216,18.1082396 -9.28846824e-16,18.1082396 -9.28846824e-16,-2.93807485e-15" stroke="none" fill="#FFFFFF"></polygon></g></g><g transform="translate(21.74839224091012 45.00946039271455)"><g clip-path="url(#i2)"><polygon points="1.39473254e-15,-2.93807485e-15 13.8876155,-2.93807485e-15 13.8876155,18.1082396 1.39473254e-15,18.1082396 1.39473254e-15,-2.93807485e-15" stroke="none" fill="#FFFFFF"></polygon></g></g><g transform="translate(9.974482764329014 10.2119)"><g clip-path="url(#i3)"><polygon points="-1.40613066e-17,0 58.8573434,0 58.8573434,56 -1.40613066e-17,56 -1.40613066e-17,0" stroke="none" fill="#FFFFFF"></polygon></g></g></svg>