<?xml version="1.0" encoding="UTF-8"?><svg version="1.1" width="79px" height="79px" viewBox="0 0 79.0 79.0" xmlns="http://www.w3.org/2000/svg" xmlns:xlink="http://www.w3.org/1999/xlink"><defs><clipPath id="i0"><path d="M3.765,0 C4.043,0 4.269,0.226 4.269,0.504 C4.269,0.782 4.043,1.007 3.765,1.007 L2.71,1.007 L2.71,7.008 C2.71,7.286 2.484,7.512 2.207,7.512 C1.929,7.512 1.703,7.286 1.703,7.008 L1.703,1.007 L0.503,1.007 C0.225,1.007 0,0.782 0,0.504 C0,0.226 0.225,0 0.503,0 Z"></path></clipPath><clipPath id="i1"><path d="M37.846,0 L37.846,23.378 L39.949,30.657 C40.137,31.274 40.265,31.856 39.919,32.672 C39.693,33.201 39.408,33.485 39.013,33.877 C38.849,34.039 38.657,34.23 38.426,34.479 L35.595,37.151 C38.744,37.169 41.945,37.286 45.138,37.502 L45.138,27.846 C44.706,27.652 44.404,27.22 44.404,26.717 L44.404,19.781 L42.435,21.147 C42.416,21.16 42.397,21.172 42.376,21.183 C41.288,21.735 40.237,21.268 39.617,20.649 C38.805,19.837 39.06,18.924 39.323,18.309 C39.328,18.301 39.327,18.298 39.328,18.296 L42.214,12.012 C42.572,11.31 43.266,10.885 44.033,10.885 C45.153,10.885 46.064,11.797 46.064,12.917 C46.064,13.059 46.045,13.199 46.016,13.336 C46.39,13.19 46.802,13.09 47.252,13.023 C46.056,12.171 45.273,10.777 45.273,9.201 C45.273,6.615 47.378,4.51 49.964,4.51 C52.552,4.51 54.657,6.615 54.657,9.201 C54.657,10.862 53.787,12.32 52.482,13.155 C54.102,13.554 55.66,14.514 56.609,16.755 L60.81,25.883 C61.009,26.203 61.114,26.571 61.114,26.952 C61.114,28.071 60.203,28.983 59.082,28.983 C58.335,28.983 57.657,28.579 57.3,27.926 C57.283,27.901 57.269,27.875 57.257,27.848 L55.455,23.735 L55.455,26.717 C55.455,27.22 55.152,27.653 54.719,27.846 L54.719,38.438 C56.432,38.658 58.067,38.895 59.696,39.16 C59.97,39.205 60.157,39.464 60.112,39.738 C60.072,39.985 59.858,40.161 59.616,40.161 C59.589,40.161 59.562,40.159 59.534,40.154 C57.957,39.897 56.374,39.667 54.719,39.453 L54.719,48.129 C54.719,49.366 53.712,50.372 52.475,50.372 C51.609,50.372 50.864,49.874 50.49,49.153 C50.474,49.13 50.456,49.109 50.444,49.083 C50.435,49.064 50.429,49.043 50.42,49.023 C50.412,49.005 50.405,48.987 50.398,48.968 C50.348,48.845 50.307,48.72 50.28,48.592 L50.274,48.555 C50.247,48.415 50.231,48.273 50.231,48.129 L50.231,38.938 C50.031,38.918 49.829,38.898 49.627,38.878 L49.627,48.134 C49.624,49.369 48.619,50.372 47.383,50.372 C46.146,50.372 45.139,49.366 45.139,48.129 L45.138,38.511 C41.804,38.284 38.459,38.164 35.176,38.154 L35.043,40.078 C35.044,40.467 34.863,40.821 34.581,41.069 L35.207,53.787 C35.221,54.065 35.007,54.301 34.729,54.314 C34.721,54.315 34.712,54.315 34.704,54.315 C34.437,54.315 34.215,54.106 34.201,53.836 L33.591,41.42 L22.736,41.396 L22.218,50.612 C22.202,50.88 21.98,51.088 21.715,51.088 C21.706,51.088 21.696,51.087 21.687,51.087 C21.409,51.071 21.197,50.833 21.212,50.556 L21.738,41.213 C21.347,40.986 21.081,40.568 21.081,40.085 L21.081,38.762 C17.29,39.098 13.523,39.563 9.876,40.156 C9.849,40.161 9.821,40.163 9.795,40.163 C9.552,40.163 9.339,39.987 9.298,39.74 C9.253,39.465 9.44,39.207 9.714,39.162 C13.414,38.561 17.237,38.089 21.081,37.751 L21.081,30.855 L19.915,31.881 C19.306,32.4 18.537,32.682 17.745,32.682 C17.047,32.682 16.39,32.463 15.845,32.085 C15.824,32.091 15.806,32.102 15.784,32.105 L0,33.862 L0,2.338 L37.846,0 Z M53.712,46.1 L51.238,46.1 L51.239,48.129 C51.239,48.216 51.249,48.303 51.267,48.387 C51.273,48.416 51.285,48.443 51.293,48.472 C51.309,48.526 51.324,48.579 51.347,48.631 C51.541,49.063 51.972,49.365 52.475,49.365 C53.157,49.365 53.712,48.81 53.712,48.129 L53.712,46.1 Z M48.62,46.1 L46.146,46.1 L46.146,48.129 C46.146,48.81 46.701,49.365 47.383,49.365 C48.065,49.365 48.62,48.81 48.62,48.129 L48.62,46.1 Z M53.712,27.956 L46.145,27.956 L46.146,45.093 L48.62,45.093 L48.62,30.159 C48.62,29.438 49.207,28.85 49.929,28.85 C50.651,28.85 51.238,29.438 51.238,30.159 L51.238,45.093 L53.712,45.093 L53.712,27.956 Z M15.285,18.645 C13.999,18.645 12.953,19.691 12.953,20.978 C12.953,21.151 12.973,21.328 13.013,21.502 L15.53,30.078 C15.847,31.033 16.737,31.675 17.745,31.675 C18.298,31.675 18.835,31.478 19.256,31.12 L23.912,27.021 C24.121,26.838 24.439,26.857 24.623,27.067 C24.806,27.275 24.786,27.593 24.577,27.777 L22.089,29.968 L22.089,40.085 C22.089,40.252 22.224,40.387 22.391,40.387 L33.668,40.413 C33.872,40.413 34.037,40.247 34.037,40.044 L34.23,37.258 L34.913,27.365 C34.932,27.087 35.175,26.879 35.45,26.897 C35.727,26.916 35.937,27.156 35.918,27.434 L35.324,36.023 L37.711,33.771 C37.82,33.652 37.92525,33.54225 38.024625,33.441 L38.303,33.162 C38.675,32.794 38.844,32.626 38.992,32.278 C39.202,31.785 39.15,31.492 38.984,30.943 L36.868,23.618 C35.489,20.123 32.394,20.376 32.261,20.388 C32.253,20.389 32.246,20.385 32.238,20.385 C32.229,20.386 32.221,20.391 32.212,20.391 L27.144,20.390125 L27.121,20.39 C25.484,20.39 24.128,21.647 24.115,21.66 L17.663,27.765 C17.566,27.857 17.442,27.903 17.317,27.903 C17.184,27.903 17.051,27.85 16.952,27.745 C16.761,27.543 16.769,27.225 16.972,27.034 L19.02,25.095 L17.534,20.357 C17.248,19.343 16.325,18.645 15.285,18.645 Z M49.929,29.858 C49.763,29.858 49.628,29.993 49.628,30.159 L49.627,37.867 C49.83,37.886 50.03,37.906 50.23,37.926 L50.2305,31.205375 L50.231,30.159 C50.231,29.993 50.096,29.858 49.929,29.858 Z M36.839,1.071 L1.007,3.284 L1.007,32.737 L14.967,31.183 C14.807,30.941 14.669,30.68 14.574,30.395 C14.573,30.385 14.57,30.383 14.57,30.38 L12.039,21.757 C11.974,21.479 11.945,21.227 11.945,20.978 C11.945,20.19 12.221,19.467 12.679,18.895 L8.238,19.209 L5.447,27.326 L6.94,27.167 C7.227,27.14 7.465,27.338 7.494,27.615 C7.524,27.891 7.323,28.139 7.047,28.169 L2.555,28.647 C2.536,28.649 2.518,28.65 2.501,28.65 C2.246,28.65 2.028,28.458 2,28.2 C1.971,27.923 2.171,27.675 2.448,27.646 L4.342,27.444 L11.932,5.366 C12.002,5.163 12.193,5.027 12.407,5.026 C12.623,5.026 12.813,5.161 12.884,5.363 L17.429,18.329 C17.443,18.368 17.442,18.408 17.446,18.448 C17.937,18.866 18.316,19.42 18.499,20.069 L19.834,24.325 L23.423,20.929 C23.463,20.89 24.047,20.34 24.951,19.907 C23.074,18.844 21.879,16.853 21.879,14.62 C21.879,11.264 24.609,8.534 27.964,8.534 C31.32,8.534 34.05,11.264 34.05,14.62 C34.05,16.493 33.169,18.245 31.746,19.383 L32.199,19.383 C32.536,19.361 35.079,19.284 36.839,21.533 L36.839,1.071 Z M44.033,11.892 C43.646,11.892 43.296,12.106 43.12,12.451 L40.248,18.705 C39.961,19.38 40.06,19.668 40.33,19.937 C40.507,20.115 41.141,20.658 41.892,20.299 L44.62,18.405 C44.774,18.298 44.974,18.286 45.141,18.373 C45.307,18.459 45.411,18.631 45.411,18.819 L45.411,26.717 C45.411,26.845 45.515,26.948 45.643,26.948 L54.216,26.948 C54.343,26.948 54.447,26.845 54.447,26.717 L54.447,21.332 C54.447,21.094 54.614,20.888 54.848,20.839 C55.078,20.789 55.317,20.912 55.412,21.13 L58.158,27.396 L58.17,27.417 C58.346,27.762 58.695,27.975 59.082,27.975 C59.647,27.975 60.107,27.516 60.107,26.952 C60.107,26.754 60.051,26.562 59.944,26.397 C59.931,26.377 59.92,26.356 59.909,26.334 L55.687,17.162 C54.716,14.867 52.997,13.894 49.934,13.894 C47.451,13.894 45.885,13.996 45.077,15.416 L44.125,17.415 C44.005,17.666 43.705,17.772 43.453,17.652 C43.202,17.533 43.096,17.232 43.216,16.981 L44.195,14.933 C44.197,14.926 44.199,14.925 44.2,14.923 L44.894,13.471 C45.001,13.306 45.057,13.115 45.057,12.917 C45.057,12.352 44.597,11.892 44.033,11.892 Z M27.964,9.542 C25.164,9.542 22.886,11.82 22.886,14.62 C22.886,16.831 24.288,18.76 26.382,19.445 C26.637,19.403 26.901,19.379 27.175,19.384 L29.755,19.384 C29.77,19.377 29.78,19.364 29.795,19.359 C31.737,18.607 33.042,16.703 33.042,14.62 C33.042,11.82 30.764,9.542 27.964,9.542 Z M12.413,7.064 L11.723,9.074 C11.734,9.095 11.751,9.112 11.76,9.136 L13.333,13.623 C13.425,13.885 13.287,14.172 13.025,14.264 C12.97,14.284 12.913,14.293 12.858,14.293 C12.65,14.293 12.456,14.163 12.383,13.956 L11.202,10.588 L8.594,18.174 L13.699,17.813 L13.183,16.283 C13.094,16.019 13.236,15.734 13.499,15.645 C13.763,15.556 14.048,15.698 14.137,15.961 L14.72,17.689 C14.904,17.658 15.092,17.638 15.285,17.638 C15.589,17.638 15.882,17.689 16.166,17.768 L12.413,7.064 Z M49.964,5.517 C47.933,5.517 46.28,7.17 46.28,9.201 C46.28,11.233 47.933,12.886 49.964,12.886 C51.997,12.886 53.649,11.233 53.649,9.201 C53.649,7.17 51.997,5.517 49.964,5.517 Z"></path></clipPath></defs><g transform="translate(0.0001999999999497959 0.0)"><g transform="translate(35.419000000000096 63.28500000000008)"><g clip-path="url(#i0)"><polygon points="0,0 4.269,0 4.269,7.512 0,7.512 0,0" stroke="none" fill="#FFFFFF"></polygon></g></g><g transform="translate(8.845900000000032 17.22109999999998)"><g clip-path="url(#i1)"><polygon points="0,0 61.114,0 61.114,54.315 0,54.315 0,0" stroke="none" fill="#FFFFFF"></polygon></g></g></g></svg>