<?xml version="1.0" encoding="UTF-8"?><svg version="1.1" width="240px" height="240px" viewBox="0 0 240.0 240.0" xmlns="http://www.w3.org/2000/svg" xmlns:xlink="http://www.w3.org/1999/xlink"><defs><clipPath id="i0"><path d="M1.32094966,0.614511159 C1.82694966,-0.0624888414 2.78794966,-0.201488841 3.46694966,0.304511159 C4.14494966,0.811511159 4.28394966,1.77251116 3.77694966,2.45051116 C2.33594966,4.37751116 3.47194966,5.92851116 3.71394966,6.21951116 C4.78994966,7.46351116 6.16594966,10.6205112 3.77694966,13.8175112 C2.33594966,15.7445112 3.47194966,17.2955112 3.71394966,17.5875112 C4.78994966,18.8305112 6.16594966,21.9875112 3.77694966,25.1845112 C2.33594966,27.1115112 3.47194966,28.6625112 3.71394966,28.9545112 C4.25194966,29.6005112 4.17594966,30.5645112 3.53694966,31.1095112 C3.24694966,31.3565112 2.89094966,31.4795112 2.53794966,31.4795112 C2.11494966,31.4795112 1.69594966,31.3045112 1.39494966,30.9595112 C0.318949655,29.7315112 -1.07905034,26.5595112 1.32094966,23.3485112 C2.76094966,21.4215112 1.62494966,19.8705112 1.38294966,19.5795112 C0.306949655,18.3355112 -1.06905034,15.1785112 1.32094966,11.9815112 C2.76094966,10.0545112 1.62494966,8.50351116 1.38294966,8.21251116 C0.306949655,6.96851116 -1.06905034,3.81151116 1.32094966,0.614511159 Z"></path></clipPath><clipPath id="i1"><path d="M1.55979139,0.370596015 C2.19779139,-0.173403985 3.14979139,-0.114403985 3.70179139,0.520596015 C4.77779139,1.74759602 6.17579139,4.91959602 3.77679139,8.13059602 C2.33579139,10.057596 3.47179139,11.608596 3.71379139,11.900596 C4.25179139,12.546596 4.17579139,13.510596 3.53679139,14.055596 C3.24679139,14.302596 2.89079139,14.425596 2.53779139,14.425596 C2.11479139,14.425596 1.69579139,14.250596 1.39479139,13.905596 C0.318791391,12.677596 -1.07920861,9.50559602 1.32079139,6.29459602 C2.76079139,4.36759602 1.62479139,2.81659602 1.38279139,2.52559602 C0.845791391,1.87959602 0.920791391,0.914596015 1.55979139,0.370596015 Z"></path></clipPath><clipPath id="i2"><path d="M78.1315494,0 C78.2305494,0 78.3235494,0.012 78.4195494,0.031 C78.5155494,0.049 78.6055494,0.073 78.6975494,0.11 C78.7935494,0.148 78.8785494,0.199 78.9655494,0.256 C79.0155494,0.289 79.0735494,0.301 79.1195494,0.34 C79.1545494,0.37 79.1695494,0.411 79.2015494,0.443 C79.2335494,0.475 79.2755494,0.49 79.3045494,0.525 L116.210549,44.343 L116.210549,24.535 L139.541549,24.535 L139.541549,72.043 L155.900549,91.466 C156.446549,92.115 156.363549,93.082 155.716549,93.628 C155.428549,93.87 155.076549,93.988 154.729549,93.988 C154.291549,93.988 153.857549,93.802 153.554549,93.443 L78.1315494,3.894 L2.70654943,93.443 C2.40354943,93.802 1.96954943,93.988 1.53254943,93.988 C1.18454943,93.988 0.833549429,93.87 0.545549429,93.628 C-0.101450571,93.082 -0.185450571,92.115 0.360549429,91.466 L76.9585494,0.525 C76.9875494,0.49 77.0295494,0.475 77.0615494,0.443 C77.0925494,0.411 77.1085494,0.37 77.1435494,0.34 C77.1895494,0.301 77.2475494,0.289 77.2975494,0.256 C77.3845494,0.198 77.4695494,0.148 77.5655494,0.11 C77.6575494,0.073 77.7475494,0.049 77.8435494,0.031 C77.9405494,0.012 78.0325494,0 78.1315494,0 Z M136.473549,27.603 L119.278549,27.603 L119.278549,47.985 L136.473549,68.401 L136.473549,27.603 Z"></path></clipPath><clipPath id="i3"><path d="M57.0165517,0.556338109 C62.1565517,-0.678661891 67.4715517,0.157338109 71.9805517,2.91633811 C76.4895517,5.67533811 79.6535517,10.0243381 80.8915517,15.1633381 C83.4465517,25.7713381 76.8945517,36.4823381 66.2845517,39.0383381 C64.7345517,39.4123381 63.1805517,39.5903381 61.6505517,39.5903381 C61.1175517,39.5903381 60.5875517,39.5663381 60.0605517,39.5233381 C60.9295517,40.4263381 61.7905517,41.4153381 62.6355517,42.5253381 C62.7245517,42.6453381 64.3155517,44.8373381 65.4735517,48.1353381 C66.5135517,47.5523381 67.6435517,47.1933381 68.7975517,47.0623381 C68.4155517,45.4833381 68.2105517,43.8653381 68.2105517,42.2223381 C68.2105517,37.6163381 83.9545517,37.2583381 88.7785517,37.2583381 L89.0094956,37.2586126 C90.8383017,37.2629301 93.9893017,37.3206298 97.2725517,37.6033381 L105.544552,21.5823381 C105.932552,20.8303381 106.856552,20.5333381 107.609552,20.9243381 C108.361552,21.3123381 108.657552,22.2363381 108.267552,22.9893381 L100.534552,37.9673381 C105.212552,38.6193381 109.344552,39.8633381 109.344552,42.2223381 C109.344552,53.5623381 100.118552,62.7883381 88.7785517,62.7883381 C87.3265517,62.7883381 85.9065517,62.6233381 84.5205517,62.3343381 C86.2125517,63.7503381 87.4955517,65.7013381 88.0545517,68.0213381 C88.2215517,68.7143381 88.3205517,69.4273381 88.3485517,70.1403381 L90.3265517,102.424338 L91.3765517,102.394338 L91.8375517,107.524338 C92.4075517,109.688338 94.3035517,110.589338 97.4285517,110.223338 L97.5725517,110.213338 C101.870552,110.098338 105.136552,111.171338 107.377552,113.361338 C108.744552,114.697338 109.702552,116.453338 110.289552,118.635338 C118.571552,119.489338 126.859552,120.584338 134.939552,121.903338 C135.775552,122.039338 136.342552,122.827338 136.205552,123.663338 C136.083552,124.414338 135.432552,124.950338 134.693552,124.950338 C134.611552,124.950338 134.529552,124.943338 134.445552,124.929338 C126.707552,123.666338 118.776552,122.614338 110.844552,121.781338 C110.928552,122.643338 110.984552,123.539338 110.984552,124.504338 L110.984552,126.009338 L66.6115517,126.848338 L66.6755517,119.485338 C39.6165517,119.589338 16.5005517,122.389338 1.7775517,124.752338 C1.6935517,124.765338 1.6135517,124.771338 1.5325517,124.771338 C0.791551705,124.771338 0.140551705,124.235338 0.0195517049,123.481338 C-0.114448295,122.644338 0.454551705,121.857338 1.2905517,121.723338 C8.7115517,120.533338 18.2535517,119.231338 29.3415517,118.214338 C23.8315517,115.748338 19.2505517,111.108338 17.0045517,105.079338 C11.4225517,103.458338 10.1955517,98.7963381 10.3875517,96.3363381 L15.9295517,55.2743381 C16.8445517,43.7263381 20.0465517,36.3563381 33.6765517,33.1083381 L37.4005517,32.1793381 C37.4185517,32.1713381 40.9895517,31.0613381 45.9595517,31.8483381 C44.3155517,29.7143381 43.0805517,27.2143381 42.4095517,24.4313381 C41.1725517,19.2913381 42.0105517,13.9773381 44.7695517,9.46833811 C47.5285517,4.95933811 51.8775517,1.79533811 57.0165517,0.556338109 Z M88.5795517,105.542338 L69.8605517,106.082338 L69.7055517,123.723338 L107.877552,123.000338 C107.688552,119.546338 106.818552,117.102338 105.234552,115.555338 C103.594552,113.953338 101.152552,113.206338 97.7145517,113.276338 C91.0015517,114.042338 89.2645517,109.943338 88.8295517,108.140338 L88.7925517,107.917338 L88.5795517,105.542338 Z M85.0725517,68.7403381 C84.1005517,64.7033381 80.1015517,62.1893381 76.1755517,63.1383381 C75.1005517,63.3973381 74.1265517,63.8843381 73.2795517,64.5853381 C73.1705517,64.6753381 73.0445517,64.7223381 72.9205517,64.7783381 L46.0675517,87.5243381 C46.0625517,87.5283381 46.0575517,87.5293381 46.0525517,87.5323381 C44.9035517,88.5513381 43.5065517,89.2833381 42.0065517,89.6453381 C41.3015517,89.8133381 40.5965517,89.8943381 39.9015517,89.9023381 C25.9215517,91.7510881 21.2711415,102.47767 20.5994301,104.23397 L20.560485,104.337572 C20.5383729,104.397519 20.523885,104.438963 20.5165517,104.460338 L20.3085517,105.069338 C24.0305517,113.561338 33.1915517,118.540338 42.0205517,116.745338 L46.6105517,115.014338 C48.1205517,114.157338 49.6565517,113.017338 51.2445517,111.563338 L70.4695517,92.9403381 L71.1305517,102.979338 L87.2615517,102.512338 L85.2875517,70.2923381 C85.2645517,69.7483381 85.1925517,69.2363381 85.0725517,68.7403381 Z M66.7525517,110.699338 L50.5905517,116.791338 C55.7725517,116.571338 61.1525517,116.438338 66.7025517,116.417338 L66.7525517,110.699338 Z M67.8445517,99.7533381 L55.5785517,111.634338 L66.7815517,107.411338 L66.8185517,103.103338 L68.0635517,103.067338 L67.8445517,99.7533381 Z M60.1825517,44.3653381 C50.3565517,31.4473381 38.7325517,34.9693381 38.2435517,35.1273381 L34.4035517,36.0893381 C23.5605517,38.6713381 19.9605517,43.2303381 18.9775517,55.6013381 L13.4355517,96.6623381 C13.4155517,97.0473381 13.3215517,100.978338 18.1205517,102.219338 C19.5105517,99.1383381 23.9585517,91.3253381 34.2035517,88.0473381 C32.4725517,86.7743381 31.1545517,84.9223381 30.6135517,82.6753381 C30.3805517,81.7053381 30.3125517,80.7193381 30.3875517,79.7373381 C30.3865517,79.7083381 30.3715517,79.6833381 30.3725517,79.6533381 L30.8705517,50.7613381 C30.8855517,49.9223381 31.5685517,49.2533381 32.4035517,49.2533381 C32.4125517,49.2533381 32.4205517,49.2533381 32.4295517,49.2543381 C33.2775517,49.2693381 33.9515517,49.9663381 33.9355517,50.8133381 L33.7245517,63.0873381 L47.7455517,57.9113381 L49.4135517,47.0093381 C49.5415517,46.1723381 50.3265517,45.6063381 51.1615517,45.7263381 C51.9985517,45.8533381 52.5725517,46.6363381 52.4455517,47.4733381 L50.3945517,60.8773381 L62.8895517,50.1163381 C61.8965517,46.7423381 60.2015517,44.3903381 60.1825517,44.3653381 Z M73.8985517,51.7543381 C71.6415517,49.4953381 67.9685517,49.4983381 65.7145517,51.7543381 C65.6775517,51.7923381 65.6285517,51.8053381 65.5885517,51.8383381 L46.0775517,68.6423381 C45.7875517,68.8923381 45.4325517,69.0153381 45.0775517,69.0153381 C44.6465517,69.0153381 44.2185517,68.8343381 43.9155517,68.4823381 C43.3615517,67.8403381 43.4345517,66.8713381 44.0755517,66.3193381 L46.8215517,63.9553381 L47.2155517,61.3773381 L34.5875517,66.0383381 C34.4115517,66.1023381 34.2325517,66.1333381 34.0555517,66.1333381 C33.9245517,66.1333381 33.7975517,66.1073381 33.6725517,66.0753381 L33.4375517,79.7053381 C33.4375517,79.7183381 33.4295517,79.7293381 33.4295517,79.7423381 C33.4295517,79.7883381 33.4485517,79.8303381 33.4435517,79.8773381 C33.3785517,80.5693381 33.4295517,81.2703381 33.5945517,81.9573381 C34.4175517,85.3753381 37.8775517,87.4783381 41.2875517,86.6633381 C42.3145517,86.4163381 43.2715517,85.9133381 44.0515517,85.2133381 C44.0575517,85.2073381 44.0655517,85.2063381 44.0705517,85.2013381 C44.0775517,85.1963381 44.0795517,85.1883381 44.0855517,85.1833381 L73.9155517,59.9153381 C76.1525517,57.6573381 76.1485517,54.0033381 73.8985517,51.7543381 Z M71.5415517,45.2513381 C71.6625517,45.9413381 71.8375517,46.6203381 72.0405517,47.2923381 C73.5165517,47.6743381 74.9135517,48.4323381 76.0675517,49.5853381 C77.9485517,51.4673381 78.7965517,53.9933381 78.6265517,56.4603381 C81.5985517,58.5873381 85.0865517,59.7203381 88.7785517,59.7203381 C97.3915517,59.7203381 104.552552,53.4623381 105.995552,45.2573381 C101.100552,47.0023381 92.1985517,47.1843381 88.7785517,47.1843381 C85.3545517,47.1843381 76.4335517,47.0023381 71.5415517,45.2513381 Z M88.7785517,40.3263381 C79.8835517,40.3263381 74.1605517,41.3973381 72.0145517,42.2213381 C74.1605517,43.0453381 79.8825517,44.1163381 88.7785517,44.1163381 C90.6555517,44.1163381 92.3865517,44.0673381 93.9775517,43.9843381 L95.7425517,40.5673381 C93.6965517,40.4173381 91.3715517,40.3263381 88.7785517,40.3263381 Z M99.0285517,40.8843381 L97.5655517,43.7183381 C101.525552,43.3313381 104.216552,42.7303381 105.541552,42.2213381 C104.386552,41.7783381 102.193552,41.2653381 99.0285517,40.8843381 Z M61.6825517,3.06733811 C60.3685517,3.06733811 59.0455517,3.22333811 57.7355517,3.53833811 C53.3915517,4.58433811 49.7155517,7.25833811 47.3855517,11.0693381 C45.0535517,14.8793381 44.3465517,19.3703381 45.3915517,23.7133381 C47.5505517,32.6793381 56.5965517,38.2183381 65.5665517,36.0563381 C74.5325517,33.8963381 80.0685517,24.8453381 77.9095517,15.8823381 C76.8645517,11.5383381 74.1895517,7.86233811 70.3785517,5.53233811 C67.7185517,3.90333811 64.7255517,3.06733811 61.6825517,3.06733811 Z"></path></clipPath><clipPath id="i4"><path d="M1.39478482,0.523482939 C1.95378482,-0.114517061 2.92478482,-0.177517061 3.55778482,0.379482939 C4.19178482,0.932482939 4.25978482,1.89348294 3.71278482,2.53048294 C3.46678482,2.82748294 2.33978482,4.37548294 3.77578482,6.29848294 C6.16578482,9.49848294 4.78678482,12.6554829 3.71478482,13.8934829 C3.46678482,14.1944829 2.33978482,15.7424829 3.77578482,17.6654829 C6.17478482,20.8784829 4.77578482,24.0484829 3.70178482,25.2764829 C3.39978482,25.6224829 2.97378482,25.8014829 2.54878482,25.8014829 C2.18878482,25.8014829 1.82978482,25.6764829 1.53978482,25.4214829 C0.904784816,24.8674829 0.837784816,23.9064829 1.38478482,23.2684829 C1.63078482,22.9714829 2.75578482,21.4244829 1.31878482,19.5004829 C-1.06721518,16.3034829 0.306784816,13.1484829 1.37978482,11.9094829 C1.63078482,11.6044829 2.75578482,10.0574829 1.31878482,8.13348294 C-1.07821518,4.92148294 0.319784816,1.75148294 1.39478482,0.523482939 Z"></path></clipPath><clipPath id="i5"><path d="M1.39449878,0.52307861 C1.95249878,-0.11492139 2.92349878,-0.17692139 3.55749878,0.37907861 C4.19149878,0.93207861 4.25949878,1.89307861 3.71249878,2.53007861 C3.46649878,2.82707861 2.34049878,4.37507861 3.77649878,6.29807861 C6.17649878,9.51007861 4.77749878,12.6810786 3.70249878,13.9100786 C3.39849878,14.2560786 2.97449878,14.4340786 2.54849878,14.4340786 C2.18949878,14.4340786 1.82949878,14.3090786 1.53849878,14.0530786 C0.905498775,13.4990786 0.837498775,12.5390786 1.38449878,11.9010786 C1.63049878,11.6050786 2.75649878,10.0570786 1.32049878,8.13407861 C-1.07950122,4.92307861 0.319498775,1.75107861 1.39449878,0.52307861 Z"></path></clipPath></defs><g transform="translate(135.3777503446276 87.07068884137698)"><g clip-path="url(#i0)"><polygon points="-1.42108547e-14,7.49400542e-15 5.0971083,7.49400542e-15 5.0971083,31.4795112 -1.42108547e-14,31.4795112 -1.42108547e-14,7.49400542e-15" stroke="none" fill="#FFFFFF"></polygon></g></g><g transform="translate(142.25680860947986 104.12460398454269)"><g clip-path="url(#i1)"><polygon points="3.10862447e-15,-9.1038288e-15 5.09679362,-9.1038288e-15 5.09679362,14.425596 3.10862447e-15,14.425596 3.10862447e-15,-9.1038288e-15" stroke="none" fill="#FFFFFF"></polygon></g></g><g transform="translate(41.86915057108567 27.92849999999998)"><g clip-path="url(#i2)"><polygon points="0,0 156.261515,0 156.261515,93.988 0,93.988 0,0" stroke="none" fill="#FFFFFF"></polygon></g></g><g transform="translate(51.8028482951283 86.20926189122517)"><g clip-path="url(#i3)"><polygon points="0,7.10542736e-15 136.225967,7.10542736e-15 136.225967,126.848338 0,126.848338 0,7.10542736e-15" stroke="none" fill="#FFFFFF"></polygon></g></g><g transform="translate(170.3232151843007 21.63781706096148)"><g clip-path="url(#i4)"><polygon points="7.32747196e-15,5.55111512e-17 5.09620337,5.55111512e-17 5.09620337,25.8014829 7.32747196e-15,25.8014829 7.32747196e-15,5.55111512e-17" stroke="none" fill="#FFFFFF"></polygon></g></g><g transform="translate(163.44290122480385 33.005421390209364)"><g clip-path="url(#i5)"><polygon points="1.28785871e-14,1.31006317e-14 5.09699755,1.31006317e-14 5.09699755,14.4340786 1.28785871e-14,14.4340786 1.28785871e-14,1.31006317e-14" stroke="none" fill="#FFFFFF"></polygon></g></g></svg>