<?xml version="1.0" encoding="UTF-8"?><svg version="1.1" width="121px" height="124px" viewBox="0 0 121.0 124.0" xmlns="http://www.w3.org/2000/svg" xmlns:xlink="http://www.w3.org/1999/xlink"><defs><clipPath id="i0"><path d="M120.0698,0 L120.0698,123.932492 L0,123.932492 L0,0 L120.0698,0 Z"></path></clipPath><clipPath id="i1"><path d="M60.035,0.124492091 C61.011,-0.298507909 62.43,0.384492091 62.434,1.74749209 C62.436,2.26449209 62.35,2.69149209 62.438,3.11049209 C62.49,3.36249209 62.546,3.61349209 62.601,3.86549209 C62.976,5.60049209 63.363,7.39449209 63.202,8.99149209 C63.172,9.28649209 63.317,9.58049209 63.673,9.94649209 C64.147,10.4354921 64.195,10.7494921 64.041,10.9944921 C64.195,11.2414921 64.147,11.5554921 63.673,12.0454921 C63.317,12.4104921 63.172,12.7044921 63.202,13.0004921 C63.363,14.5964921 62.976,16.3904921 62.601,18.1254921 C62.546,18.3774921 62.49,18.6294921 62.438,18.8804921 C62.35,19.3004921 62.348,19.7334921 62.434,20.2434921 C62.497,20.6234921 62.515,21.0924921 62.161,21.6974921 C61.909,22.1304921 61.865,22.5854921 62.047,22.8854921 C62.31,23.3164921 62.148,23.8404921 61.939,24.3414921 C61.828,24.6044921 61.795,24.8454921 61.763,25.0804921 C61.751,25.1734921 61.739,25.2664921 61.719,25.3594921 L61.712,25.3954921 C61.688,25.4974921 61.651,25.6494921 61.863,25.6704921 C62.431,25.7254921 62.411,26.0074921 62.333,26.4644921 C62.283,26.7434921 62.234,27.0304921 62.403,27.2284921 C62.403,27.2564921 62.331,27.3724921 62.145,27.5614921 C61.604,28.1094921 61.509,28.5354921 61.874,28.7914921 C62.234,29.0474921 62.163,29.4464921 61.93,30.0054921 C61.595,30.8114921 61.469,31.4474921 61.958,31.9344921 C62.243,32.2164921 62.148,32.6174921 61.698,33.0644921 C61.637,33.1234921 61.57,33.1834921 61.499,33.2444921 C61.406,33.3214921 61.313,33.4074921 61.213,33.5054921 C61.145,33.5744921 61.076,33.6444921 61.01,33.7104921 C60.954,33.7704921 60.899,33.8264921 60.845,33.8804921 L60.714,34.0104921 L60.787,34.0874921 C60.863,34.1684921 60.949,34.2404921 61.031,34.3104921 C61.196,34.4504921 61.348,34.5794921 61.378,34.7414921 C61.4,34.8764921 61.327,35.0564921 61.25,35.2494921 C61.189,35.3994921 61.126,35.5554921 61.103,35.7044921 C61.05,36.0394921 61.103,36.2544921 61.271,36.3864921 C61.765,36.7714921 61.786,37.3424921 61.807,37.9494921 C61.812,38.0824921 61.817,38.2154921 61.828,38.3464921 C61.838,38.4724921 61.793,38.6214921 61.702,38.7544921 C61.168,39.5464921 61.267,40.0254921 62.015,40.2594921 C62.287,40.3454921 62.287,40.5504921 62.015,40.8414921 C61.008,41.9224921 61.292,42.6074921 61.749,43.1874921 L61.849,43.3154921 C61.998,43.5014921 62.148,43.6924921 62.268,43.8934921 C62.427,44.1684921 62.355,44.4524921 62.04,44.7604921 C61.998,44.8044921 61.951,44.8464921 61.898,44.8904921 C61.816,44.9604921 61.74,45.0274921 61.676,45.0914921 C61.057,45.7014921 61.236,46.0764921 61.46,46.3344921 C61.723,46.6374921 61.735,47.0014921 61.612,47.4044921 C61.847,47.9804921 61.886,48.5064921 61.463,48.9044921 C61.378,48.9844921 61.344,49.0844921 61.313,49.1814921 C61.301,49.2124921 61.292,49.2424921 61.278,49.2724921 C61.234,49.3794921 61.183,49.4844921 61.131,49.5894921 C61.05,49.7504921 61.004,49.9314921 60.949,50.1064921 C61.004,50.2814921 61.05,50.4634921 61.131,50.6244921 C61.183,50.7294921 61.234,50.8334921 61.278,50.9404921 C61.292,50.9694921 61.301,51.0014921 61.313,51.0324921 C61.344,51.1294921 61.378,51.2274921 61.463,51.3094921 C61.886,51.7074921 61.847,52.2334921 61.612,52.8094921 C61.735,53.2124921 61.723,53.5754921 61.46,53.8794921 C61.236,54.1374921 61.057,54.5124921 61.676,55.1224921 C61.74,55.1854921 61.816,55.2534921 61.898,55.3234921 C61.951,55.3674921 61.998,55.4094921 62.04,55.4514921 C62.355,55.7614921 62.427,56.0454921 62.268,56.3204921 C62.148,56.5204921 61.998,56.7124921 61.849,56.8984921 L61.749,57.0264921 C61.292,57.6064921 61.008,58.2914921 62.015,59.3724921 C62.287,59.6614921 62.287,59.8684921 62.015,59.9544921 C61.267,60.1894921 61.168,60.6674921 61.702,61.4594921 C61.793,61.5924921 61.838,61.7414921 61.828,61.8674921 C61.817,61.9984921 61.812,62.1314921 61.807,62.2654921 L61.8014763,62.4157554 C61.7792153,62.9636865 61.7238333,63.4745754 61.271,63.8274921 C61.103,63.9574921 61.05,64.1744921 61.103,64.5094921 C61.126,64.6564921 61.189,64.8144921 61.25,64.9644921 C61.327,65.1574921 61.4,65.3384921 61.378,65.4724921 C61.348,65.6324921 61.195,65.7634921 61.031,65.9024921 C60.949,65.9744921 60.863,66.0454921 60.787,66.1244921 L60.714,66.2034921 L60.845,66.3334921 C60.899,66.3874921 60.954,66.4434921 61.01,66.5014921 C61.076,66.5694921 61.145,66.6384921 61.213,66.7084921 C61.313,66.8064921 61.406,66.8904921 61.499,66.9694921 C61.57,67.0304921 61.637,67.0904921 61.698,67.1494921 C62.148,67.5944921 62.243,67.9954921 61.958,68.2794921 C61.469,68.7664921 61.595,69.4024921 61.93,70.2084921 C62.163,70.7674921 62.234,71.1654921 61.874,71.4214921 C61.509,71.6764921 61.604,72.1024921 62.145,72.6524921 C62.331,72.8414921 62.403,72.9574921 62.403,72.9854921 C62.234,73.1814921 62.283,73.4704921 62.333,73.7494921 C62.411,74.2044921 62.431,74.4884921 61.863,74.5434921 C61.651,74.5644921 61.688,74.7164921 61.712,74.8164921 L61.719,74.8534921 C61.739,74.9474921 61.751,75.0404921 61.763,75.1334921 C61.795,75.3664921 61.828,75.6084921 61.938,75.8724921 C62.148,76.3734921 62.31,76.8974921 62.047,77.3284921 C61.865,77.6284921 61.908,78.0834921 62.161,78.5164921 C62.515,79.1214921 62.497,79.5904921 62.434,79.9704921 C62.348,80.4804921 62.35,80.9134921 62.438,81.3334921 C62.49,81.5844921 62.546,81.8364921 62.601,82.0894921 C62.976,83.8234921 63.363,85.6174921 63.201,87.2134921 C63.172,87.5074921 63.317,87.8024921 63.673,88.1684921 C64.147,88.6594921 64.195,88.9704921 64.041,89.2174921 C64.195,89.4644921 64.147,89.7784921 63.673,90.2674921 C63.317,90.6334921 63.172,90.9274921 63.201,91.2224921 C63.363,92.8184921 62.976,94.6124921 62.601,96.3464921 C62.546,96.5994921 62.49,96.8514921 62.438,97.1034921 C62.35,97.5224921 62.348,97.9554921 62.434,98.4654921 C62.497,98.8454921 62.515,99.3144921 62.161,99.9194921 C61.908,100.353492 61.865,100.807492 62.047,101.107492 C62.31,101.537492 62.148,102.061492 61.938,102.564492 C61.828,102.827492 61.795,103.069492 61.763,103.304492 C61.751,103.396492 61.739,103.488492 61.719,103.582492 L61.712,103.619492 C61.688,103.719492 61.651,103.871492 61.863,103.892492 C62.431,103.947492 62.411,104.230492 62.333,104.688492 C62.283,104.966492 62.234,105.254492 62.403,105.450492 C62.403,105.478492 62.331,105.593492 62.145,105.784492 C61.604,106.333492 61.509,106.759492 61.874,107.014492 C62.234,107.270492 62.163,107.668492 61.93,108.227492 C61.595,109.033492 61.469,109.669492 61.958,110.156492 C62.243,110.439492 62.148,110.841492 61.698,111.287492 C61.637,111.345492 61.57,111.407492 61.499,111.468492 C61.406,111.545492 61.313,111.629492 61.213,111.727492 C61.145,111.797492 61.076,111.866492 61.01,111.934492 C60.954,111.992492 60.899,112.050492 60.845,112.104492 L60.714,112.232492 L60.787,112.311492 C60.863,112.389492 60.949,112.463492 61.031,112.533492 C61.195,112.672492 61.348,112.803492 61.378,112.962492 C61.4,113.097492 61.327,113.279492 61.25,113.470492 C61.189,113.623492 61.126,113.779492 61.103,113.926492 C61.05,114.261492 61.103,114.478492 61.271,114.608492 C61.765,114.995492 61.786,115.566492 61.807,116.170492 L61.81525,116.370242 L61.828,116.568492 C61.838,116.696492 61.793,116.843492 61.702,116.976492 C61.365,117.475492 61.281,117.849492 61.452,118.117492 C61.644,117.865492 61.726,117.560492 61.763,117.243492 L61.783,117.082492 C61.809,116.845492 61.839,116.602492 61.896,116.377492 C61.977,116.069492 62.229,115.920492 62.671,115.923492 C62.731,115.923492 62.794,115.927492 62.862,115.933492 C62.97,115.942492 63.071,115.947492 63.162,115.948492 C64.03,115.954492 64.169,115.563492 64.192,115.222492 C64.222,114.821492 64.47,114.556492 64.842,114.357492 C65.083,113.784492 65.428,113.385492 66.007,113.402492 C66.126,113.405492 66.219,113.359492 66.31,113.313492 C66.341,113.299492 66.369,113.283492 66.4,113.272492 C66.507,113.228492 66.616,113.190492 66.727,113.153492 C66.898,113.096492 67.059,113.000492 67.223,112.915492 C67.307,112.752492 67.402,112.592492 67.459,112.421492 C67.497,112.310492 67.535,112.199492 67.579,112.093492 C67.591,112.062492 67.606,112.035492 67.619,112.004492 C67.665,111.913492 67.712,111.819492 67.708,111.701492 C67.691,111.121492 68.09,110.777492 68.664,110.535492 C68.862,110.164492 69.128,109.915492 69.528,109.886492 C69.869,109.863492 70.26,109.724492 70.254,108.856492 C70.254,108.764492 70.248,108.664492 70.239,108.556492 C70.233,108.488492 70.23,108.424492 70.231,108.364492 C70.226,107.923492 70.376,107.671492 70.683,107.590492 C70.909,107.531492 71.151,107.503492 71.388,107.477492 L71.549,107.457492 C72.282,107.370492 72.967,107.087492 73.019,105.610492 C73.033,105.212492 73.178,105.067492 73.431,105.199492 C74.126,105.561492 74.534,105.294492 74.717,104.356492 C74.746,104.197492 74.819,104.060492 74.916,103.978492 C75.016,103.893492 75.114,103.802492 75.212,103.712492 C75.656,103.298492 76.074,102.909492 76.696,102.986492 C76.908,103.012492 77.098,102.897492 77.297,102.623492 C77.386,102.501492 77.452,102.347492 77.515,102.197492 C77.597,102.006492 77.672,101.826492 77.784,101.747492 C77.919,101.654492 78.118,101.670492 78.334,101.688492 C78.442,101.696492 78.553,101.706492 78.664,101.702492 L78.77,101.700492 L78.769,101.515492 C78.769,101.439492 78.77,101.360492 78.772,101.279492 C78.772,101.185492 78.774,101.087492 78.774,100.990492 C78.772,100.850492 78.768,100.724492 78.756,100.604492 C78.749,100.509492 78.744,100.420492 78.743,100.335492 C78.74,99.7004921 78.957,99.3504921 79.358,99.3524921 C80.049,99.3544921 80.409,98.8154921 80.742,98.0084921 C80.973,97.4484921 81.204,97.1154921 81.64,97.1894921 C82.079,97.2664921 82.313,96.8984921 82.318,96.1284921 C82.321,95.8624921 82.352,95.7304921 82.371,95.7104921 C82.63,95.6894921 82.799,95.4514921 82.961,95.2204921 C83.229,94.8404921 83.415,94.6274921 83.854,94.9904921 C84.019,95.1254921 84.101,94.9924921 84.155,94.9024921 L84.176,94.8714921 C84.229,94.7924921 84.285,94.7184921 84.342,94.6434921 C84.486,94.4554921 84.634,94.2614921 84.741,93.9974921 C84.947,93.4944921 85.203,93.0094921 85.694,92.8904921 C86.035,92.8074921 86.326,92.4544921 86.453,91.9704921 C86.631,91.2924921 86.975,90.9734921 87.288,90.7484921 C87.71,90.4494921 88.014,90.1414921 88.25,89.7824921 C88.39,89.5684921 88.528,89.3504921 88.668,89.1334921 C89.63,87.6414921 90.625,86.0994921 91.867,85.0844921 C92.098,84.8964921 92.203,84.5854921 92.209,84.0764921 C92.22,83.3934921 92.408,83.1384921 92.692,83.0734921 C92.757,82.7904921 93.012,82.6024921 93.693,82.5924921 C94.204,82.5844921 94.515,82.4794921 94.702,82.2504921 C95.718,81.0064921 97.26,80.0114921 98.751,79.0504921 C98.968,78.9104921 99.185,78.7724921 99.401,78.6314921 C99.759,78.3974921 100.067,78.0914921 100.367,77.6704921 C100.59,77.3584921 100.91,77.0134921 101.588,76.8354921 C102.073,76.7074921 102.426,76.4164921 102.508,76.0774921 C102.628,75.5854921 103.112,75.3284921 103.615,75.1234921 C103.879,75.0154921 104.074,74.8684921 104.262,74.7244921 C104.336,74.6674921 104.411,74.6104921 104.49,74.5584921 L104.521,74.5374921 C104.61,74.4824921 104.744,74.4014921 104.607,74.2374921 C104.246,73.7964921 104.459,73.6104921 104.838,73.3434921 C105.07,73.1804921 105.308,73.0124921 105.327,72.7544921 C105.348,72.7334921 105.481,72.7024921 105.746,72.7004921 C106.517,72.6954921 106.885,72.4614921 106.808,72.0224921 C106.733,71.5864921 107.065,71.3554921 107.627,71.1244921 C108.432,70.7924921 108.971,70.4314921 108.97,69.7414921 C108.968,69.3394921 109.319,69.1224921 109.953,69.1244921 C110.039,69.1264921 110.128,69.1304921 110.222,69.1384921 C110.342,69.1494921 110.467,69.1554921 110.608,69.1554921 C110.705,69.1554921 110.803,69.1544921 110.897,69.1544921 C110.978,69.1534921 111.057,69.1504921 111.134,69.1504921 L111.318,69.1524921 L111.321,69.0454921 C111.325,68.9354921 111.315,68.8234921 111.306,68.7154921 C111.287,68.5014921 111.272,68.3004921 111.366,68.1654921 C111.444,68.0554921 111.625,67.9784921 111.815,67.8974921 C111.965,67.8334921 112.12,67.7684921 112.241,67.6794921 C112.515,67.4794921 112.63,67.2904921 112.604,67.0784921 C112.528,66.4564921 112.917,66.0374921 113.329,65.5954921 C113.421,65.4964921 113.511,65.3984921 113.597,65.2974921 C113.679,65.2014921 113.816,65.1284921 113.975,65.0984921 C114.912,64.9164921 115.18,64.5074921 114.817,63.8124921 C114.684,63.5614921 114.831,63.4144921 115.228,63.4014921 C116.705,63.3494921 116.989,62.6644921 117.075,61.9304921 L117.095,61.7694921 C117.121,61.5334921 117.15,61.2914921 117.208,61.0644921 C117.29,60.7574921 117.541,60.6074921 117.982,60.6124921 C118.042,60.6124921 118.106,60.6154921 118.174,60.6214921 C118.282,60.6294921 118.382,60.6364921 118.474,60.6364921 C119.343,60.6424921 119.48,60.2524921 119.505,59.9104921 L120.07,60.6384921 C120.001,60.6374921 119.936,60.6384921 119.87,60.6394921 C119.816,60.6394921 119.76,60.6414921 119.708,60.6414921 C119.66,60.6394921 119.616,60.6384921 119.572,60.6364921 L119.347,60.6204921 L119.355,60.7484921 C119.367,60.9694921 119.386,61.1864921 119.406,61.3964921 C119.447,61.8564921 119.485,62.2864921 119.434,62.6834921 C119.385,63.0754921 119.224,63.4424921 119.069,63.7974921 C119.011,63.9324921 118.952,64.0654921 118.898,64.2044921 C118.884,64.2374921 118.855,64.3144921 118.822,64.3464921 C118.762,64.3424921 118.703,64.3414921 118.647,64.3404921 C117.845,64.3354921 117.773,64.7214921 117.716,65.0314921 C117.705,65.0924921 117.696,65.1524921 117.678,65.2114921 L117.665,65.2604921 C117.643,65.3474921 117.618,65.4444921 117.55,65.4754921 C116.828,65.8134921 116.704,66.3934921 116.584,66.9544921 C116.56,67.0644921 116.535,67.1734921 116.508,67.2824921 C116.382,67.7704921 116.083,68.2124921 115.809,68.5804921 C115.695,68.7324921 115.438,68.8434921 115.168,68.8584921 C114.267,68.9064921 114.196,69.3394921 114.222,69.6594921 C114.235,69.7934921 114.281,69.9334921 114.325,70.0674921 C114.362,70.1794921 114.398,70.2844921 114.411,70.3804921 C114.542,71.3324921 113.91,71.9094921 112.479,72.1464921 C112.085,72.2104921 111.81,72.3614921 111.545,72.5054921 C111.445,72.5614921 111.343,72.6154921 111.238,72.6664921 C111.16,72.7024921 111.133,72.7574921 111.109,72.8004921 C111.1,72.8144921 111.094,72.8304921 111.082,72.8424921 C110.97,72.9494921 110.854,73.0534921 110.736,73.1584921 C110.13,73.6974921 109.503,74.2544921 109.651,75.1874921 C109.693,75.4624921 109.238,75.7014921 108.769,75.8174921 C108.28,75.9374921 108.112,76.1514921 108.016,76.4394921 C107.804,77.0624921 107.142,77.3744921 106.047,77.3664921 C105.98,77.3664921 105.911,77.3644921 105.84,77.3604921 C105.787,77.3594921 105.734,77.3584921 105.684,77.3584921 C104.921,77.3534921 104.501,77.5604921 104.437,77.9734921 C104.393,78.2524921 104.185,78.4214921 103.762,78.5224921 C103.413,78.6054921 103.258,78.8204921 103.116,79.0514921 C102.744,79.6514921 102.407,80.1364921 101.732,80.4874921 C101.014,80.8594921 100.133,81.3754921 99.688,82.0604921 C99.274,82.6954921 98.872,83.1944921 97.768,83.3664921 C97.371,83.4284921 97.16,83.7174921 97.136,84.2234921 C97.117,84.6484921 96.903,84.8034921 96.333,84.8014921 C96.044,84.8004921 95.804,84.8994921 95.617,85.1014921 C95.48,85.2504921 95.387,85.4424921 95.322,85.7034921 C95.061,85.7684921 94.868,85.8624921 94.718,86.0004921 C94.517,86.1864921 94.418,86.4264921 94.418,86.7164921 C94.422,87.2854921 94.267,87.4994921 93.842,87.5184921 C93.335,87.5414921 93.045,87.7544921 92.985,88.1494921 C92.813,89.2534921 92.313,89.6564921 91.679,90.0704921 C90.993,90.5164921 90.477,91.3954921 90.106,92.1144921 C89.755,92.7894921 89.269,93.1264921 88.67,93.4984921 C88.438,93.6404921 88.224,93.7954921 88.139,94.1444921 C88.039,94.5674921 87.871,94.7754921 87.592,94.8184921 C87.178,94.8834921 86.971,95.3034921 86.976,96.0664921 C86.976,96.1154921 86.978,96.1684921 86.979,96.2224921 C86.982,96.2924921 86.985,96.3624921 86.985,96.4294921 C86.992,97.5244921 86.68,98.1854921 86.057,98.3974921 C85.77,98.4944921 85.555,98.6614921 85.435,99.1504921 C85.32,99.6204921 85.081,100.075492 84.806,100.032492 C83.872,99.8864921 83.315,100.512492 82.775,101.119492 C82.671,101.235492 82.567,101.352492 82.459,101.465492 C82.447,101.477492 82.432,101.482492 82.418,101.491492 C82.375,101.514492 82.321,101.541492 82.285,101.619492 C82.234,101.725492 82.179,101.826492 82.124,101.927492 C81.98,102.192492 81.829,102.467492 81.764,102.861492 C81.528,104.292492 80.95,104.923492 79.998,104.793492 C79.902,104.780492 79.796,104.745492 79.684,104.708492 C79.551,104.663492 79.412,104.616492 79.278,104.604492 C78.957,104.578492 78.525,104.648492 78.476,105.549492 C78.461,105.819492 78.35,106.077492 78.199,106.191492 C77.83,106.466492 77.389,106.763492 76.901,106.890492 C76.792,106.917492 76.683,106.942492 76.572,106.965492 C76.011,107.085492 75.431,107.209492 75.093,107.931492 C75.062,108.000492 74.965,108.024492 74.879,108.047492 L74.828,108.060492 C74.771,108.078492 74.71,108.086492 74.65,108.097492 C74.339,108.156492 73.953,108.226492 73.958,109.029492 C73.96,109.085492 73.961,109.143492 73.964,109.204492 C73.932,109.236492 73.856,109.266492 73.821,109.281492 C73.683,109.334492 73.551,109.392492 73.416,109.450492 C73.06,109.605492 72.693,109.766492 72.302,109.816492 C71.904,109.866492 71.473,109.829492 71.015,109.787492 C70.804,109.767492 70.587,109.749492 70.367,109.736492 L70.238,109.729492 L70.254,109.953492 C70.257,109.998492 70.257,110.042492 70.258,110.091492 L70.258,110.106492 C70.335,110.091492 70.411,110.073492 70.487,110.057492 C70.535,110.049492 70.59,110.044492 70.643,110.040492 C70.767,110.030492 70.907,110.016492 71.012,109.968492 C71.11,109.922492 71.183,109.916492 71.24,109.916492 C71.25,109.919492 71.269,109.927492 71.296,109.947492 C71.541,110.125492 71.719,110.330492 71.717,110.376492 C71.642,110.595492 71.48,110.886492 71.12,111.020492 C70.802,111.138492 70.577,111.297492 70.403,111.482492 C70.524,111.876492 70.59,112.234492 70.591,112.624492 C70.594,112.783492 70.585,112.933492 70.577,113.071492 L69.979,113.226492 L69.28,113.407492 L69.192,113.431492 L69.195,113.592492 L69.196,113.801492 L69.197,113.981492 L69.197,114.186492 L69.195,114.228492 C69.485,114.600492 69.511,114.785492 69.157,114.849492 C69.092,115.203492 68.908,115.177492 68.535,114.889492 C68.517,114.889492 68.511,114.890492 68.492,114.891492 L68.288,114.890492 L68.108,114.889492 L67.899,114.888492 L67.737,114.886492 L67.713,114.974492 L67.534,115.672492 L67.379,116.270492 C67.239,116.279492 67.089,116.288492 66.93,116.285492 C66.54,116.284492 66.183,116.217492 65.788,116.097492 C65.604,116.271492 65.445,116.494492 65.327,116.813492 C65.193,117.172492 64.901,117.336492 64.682,117.411492 C64.636,117.412492 64.433,117.234492 64.253,116.990492 C64.2463333,116.981492 64.241,116.973381 64.2367407,116.966381 L64.222,116.939492 C64.222,116.877492 64.23,116.803492 64.275,116.705492 L64.093,116.709492 C64.136,117.167492 64.173,117.598492 64.123,117.995492 C64.072,118.387492 63.911,118.754492 63.756,119.110492 C63.699,119.243492 63.64,119.377492 63.587,119.515492 C63.572,119.549492 63.542,119.626492 63.51,119.658492 C63.449,119.655492 63.391,119.653492 63.336,119.651492 C62.532,119.647492 62.462,120.033492 62.405,120.342492 C62.394,120.403492 62.384,120.465492 62.366,120.522492 L62.353,120.573492 C62.332,120.658492 62.307,120.755492 62.238,120.787492 C62.156,120.825492 62.107,120.876492 62.04,120.920492 L61.695,121.335492 C61.713,121.360492 61.73,121.386492 61.749,121.410492 L61.849,121.538492 C61.998,121.722492 62.148,121.915492 62.268,122.115492 C62.427,122.390492 62.355,122.675492 62.04,122.984492 C61.998,123.026492 61.951,123.068492 61.898,123.113492 C61.816,123.182492 61.74,123.250492 61.676,123.315492 L61.058,123.932492 L60.973,123.858492 C60.88,123.774492 60.787,123.697492 60.693,123.618492 C60.629,123.713492 60.563,123.805492 60.498,123.892492 L60.035,123.334492 L59.571,123.892492 C59.297,123.524492 59,123.083492 58.873,122.593492 C58.845,122.484492 58.821,122.375492 58.798,122.266492 C58.751,122.046492 58.693,121.827492 58.609,121.617492 L58.03,120.920492 C57.962,120.876492 57.913,120.825492 57.832,120.787492 C57.762,120.755492 57.738,120.658492 57.717,120.573492 L57.703,120.522492 C57.686,120.465492 57.676,120.403492 57.665,120.342492 C57.608,120.033492 57.537,119.647492 56.733,119.651492 C56.679,119.653492 56.62,119.655492 56.56,119.658492 C56.527,119.626492 56.498,119.549492 56.483,119.515492 C56.429,119.377492 56.37,119.243492 56.313,119.110492 C56.158,118.754492 55.997,118.387492 55.946,117.995492 C55.897,117.598492 55.934,117.167492 55.976,116.709492 L55.794,116.705492 C55.84,116.803492 55.847,116.877492 55.847,116.934492 L55.8324815,116.966381 L55.816,116.990492 C55.637,117.234492 55.434,117.412492 55.388,117.411492 C55.168,117.336492 54.876,117.172492 54.742,116.813492 C54.625,116.494492 54.466,116.271492 54.281,116.097492 C53.886,116.217492 53.529,116.284492 53.139,116.285492 C52.981,116.288492 52.831,116.279492 52.691,116.270492 L52.536,115.672492 L52.356,114.974492 L52.333,114.886492 L52.17,114.888492 L51.961,114.889492 L51.781,114.890492 L51.577,114.891492 C51.558,114.890492 51.552,114.889492 51.535,114.889492 C51.162,115.177492 50.977,115.203492 50.913,114.849492 C50.559,114.785492 50.585,114.600492 50.875,114.228492 C50.875,114.211492 50.872,114.204492 50.872,114.186492 L50.872,113.981492 L50.873,113.801492 L50.875,113.592492 L50.877,113.431492 L50.789,113.407492 L50.09,113.226492 L49.492,113.071492 C49.484,112.933492 49.476,112.783492 49.478,112.624492 C49.48,112.234492 49.545,111.876492 49.667,111.482492 C49.492,111.297492 49.268,111.138492 48.949,111.020492 C48.59,110.886492 48.428,110.595492 48.352,110.376492 C48.351,110.330492 48.528,110.125492 48.773,109.947492 C48.801,109.927492 48.819,109.919492 48.824,109.916492 C48.886,109.916492 48.959,109.922492 49.057,109.968492 C49.162,110.016492 49.302,110.030492 49.426,110.040492 C49.48,110.044492 49.534,110.049492 49.582,110.057492 C49.658,110.073492 49.735,110.091492 49.812,110.106492 L49.812,110.091492 C49.813,110.042492 49.813,109.998492 49.815,109.953492 L49.831,109.729492 L49.703,109.736492 C49.482,109.749492 49.265,109.767492 49.055,109.787492 C48.596,109.829492 48.165,109.866492 47.768,109.816492 C47.376,109.766492 47.009,109.605492 46.654,109.450492 C46.519,109.392492 46.386,109.334492 46.249,109.281492 C46.214,109.266492 46.137,109.236492 46.105,109.204492 C46.109,109.143492 46.11,109.085492 46.111,109.029492 C46.116,108.226492 45.731,108.156492 45.42,108.097492 C45.359,108.086492 45.298,108.078492 45.241,108.060492 L45.191,108.047492 C45.104,108.024492 45.007,108.000492 44.976,107.931492 C44.638,107.209492 44.058,107.085492 43.497,106.965492 C43.387,106.942492 43.278,106.917492 43.169,106.890492 C42.681,106.763492 42.24,106.466492 41.871,106.191492 C41.719,106.077492 41.608,105.819492 41.593,105.549492 C41.545,104.648492 41.112,104.578492 40.792,104.604492 C40.658,104.616492 40.519,104.663492 40.385,104.708492 C40.274,104.745492 40.167,104.780492 40.072,104.793492 C39.119,104.923492 38.542,104.292492 38.305,102.861492 C38.241,102.467492 38.089,102.192492 37.946,101.927492 C37.89,101.826492 37.835,101.725492 37.785,101.619492 C37.749,101.541492 37.694,101.514492 37.651,101.491492 C37.637,101.482492 37.623,101.477492 37.61,101.465492 C37.502,101.352492 37.398,101.235492 37.294,101.119492 C36.754,100.512492 36.198,99.8864921 35.264,100.032492 C34.989,100.075492 34.75,99.6204921 34.634,99.1504921 C34.514,98.6614921 34.3,98.4944921 34.012,98.3974921 C33.389,98.1854921 33.077,97.5244921 33.085,96.4294921 C33.085,96.3624921 33.087,96.2924921 33.091,96.2224921 C33.092,96.1684921 33.093,96.1154921 33.093,96.0664921 C33.098,95.3034921 32.891,94.8834921 32.478,94.8184921 C32.199,94.7754921 32.03,94.5674921 31.93,94.1444921 C31.846,93.7954921 31.631,93.6404921 31.4,93.4984921 C30.8,93.1264921 30.314,92.7894921 29.964,92.1144921 C29.592,91.3954921 29.077,90.5164921 28.391,90.0704921 C27.756,89.6564921 27.257,89.2534921 27.085,88.1494921 C27.024,87.7544921 26.734,87.5414921 26.228,87.5184921 C25.803,87.4994921 25.648,87.2854921 25.651,86.7164921 C25.651,86.4264921 25.552,86.1864921 25.352,86.0004921 C25.202,85.8624921 25.008,85.7684921 24.747,85.7034921 C24.683,85.4424921 24.59,85.2504921 24.452,85.1014921 C24.265,84.8994921 24.025,84.8004921 23.736,84.8014921 C23.166,84.8034921 22.952,84.6484921 22.933,84.2234921 C22.91,83.7174921 22.698,83.4284921 22.302,83.3664921 C21.198,83.1944921 20.795,82.6954921 20.381,82.0604921 C19.937,81.3754921 19.056,80.8594921 18.337,80.4874921 C17.662,80.1364921 17.325,79.6514921 16.953,79.0514921 C16.811,78.8204921 16.656,78.6054921 16.308,78.5224921 C15.884,78.4214921 15.676,78.2524921 15.633,77.9734921 C15.568,77.5604921 15.148,77.3534921 14.385,77.3584921 C14.336,77.3584921 14.283,77.3594921 14.229,77.3604921 C14.159,77.3644921 14.089,77.3664921 14.022,77.3664921 C12.927,77.3744921 12.266,77.0624921 12.054,76.4394921 C11.957,76.1514921 11.79,75.9374921 11.301,75.8174921 C10.831,75.7014921 10.376,75.4624921 10.418,75.1874921 C10.566,74.2544921 9.939,73.6974921 9.333,73.1584921 C9.216,73.0534921 9.099,72.9494921 8.988,72.8424921 C8.975,72.8304921 8.969,72.8144921 8.96,72.8004921 C8.937,72.7574921 8.91,72.7024921 8.832,72.6664921 C8.726,72.6154921 8.625,72.5614921 8.524,72.5054921 C8.259,72.3614921 7.984,72.2104921 7.59,72.1464921 C6.159,71.9094921 5.527,71.3324921 5.659,70.3804921 C5.671,70.2844921 5.707,70.1794921 5.744,70.0674921 C5.789,69.9334921 5.835,69.7934921 5.847,69.6594921 C5.873,69.3394921 5.803,68.9064921 4.902,68.8584921 C4.632,68.8434921 4.374,68.7324921 4.26,68.5804921 C3.986,68.2124921 3.688,67.7704921 3.562,67.2824921 C3.534,67.1734921 3.509,67.0644921 3.486,66.9544921 C3.366,66.3934921 3.242,65.8134921 2.52,65.4754921 C2.451,65.4444921 2.427,65.3474921 2.404,65.2604921 L2.392,65.2114921 C2.373,65.1524921 2.365,65.0924921 2.354,65.0314921 C2.297,64.7214921 2.225,64.3354921 1.422,64.3404921 C1.366,64.3414921 1.308,64.3424921 1.247,64.3464921 C1.215,64.3144921 1.185,64.2374921 1.172,64.2044921 C1.117,64.0654921 1.059,63.9324921 1.001,63.7974921 C0.846,63.4424921 0.685,63.0754921 0.635,62.6834921 C0.585,62.2864921 0.623,61.8564921 0.664,61.3964921 C0.684,61.1864921 0.702,60.9694921 0.715,60.7484921 L0.722,60.6204921 L0.498,60.6364921 C0.453,60.6384921 0.41,60.6394921 0.361,60.6414921 C0.31,60.6414921 0.254,60.6394921 0.199,60.6394921 C0.134,60.6384921 0.068,60.6374921 0,60.6384921 L0.565,59.9104921 C0.589,60.2524921 0.727,60.6424921 1.595,60.6364921 C1.687,60.6364921 1.787,60.6294921 1.895,60.6214921 C1.963,60.6154921 2.028,60.6124921 2.087,60.6124921 C2.528,60.6074921 2.78,60.7574921 2.861,61.0644921 C2.92,61.2914921 2.948,61.5334921 2.974,61.7694921 L2.994,61.9304921 C3.081,62.6644921 3.365,63.3494921 4.841,63.4014921 C5.239,63.4144921 5.385,63.5614921 5.252,63.8124921 C4.889,64.5074921 5.157,64.9164921 6.095,65.0984921 C6.253,65.1284921 6.391,65.2014921 6.473,65.2974921 C6.558,65.3984921 6.649,65.4964921 6.74,65.5954921 C7.153,66.0374921 7.542,66.4564921 7.465,67.0784921 C7.439,67.2904921 7.554,67.4794921 7.828,67.6794921 C7.949,67.7684921 8.104,67.8334921 8.254,67.8974921 C8.445,67.9784921 8.626,68.0554921 8.704,68.1654921 C8.797,68.3004921 8.782,68.5014921 8.763,68.7154921 C8.755,68.8234921 8.745,68.9354921 8.749,69.0454921 L8.751,69.1524921 L8.936,69.1504921 C9.012,69.1504921 9.092,69.1534921 9.172,69.1544921 C9.266,69.1544921 9.364,69.1554921 9.461,69.1554921 C9.602,69.1554921 9.727,69.1494921 9.847,69.1384921 C9.941,69.1304921 10.031,69.1264921 10.116,69.1244921 C10.751,69.1224921 11.101,69.3394921 11.1,69.7414921 C11.099,70.4314921 11.637,70.7924921 12.443,71.1244921 C13.004,71.3554921 13.336,71.5864921 13.262,72.0224921 C13.185,72.4614921 13.553,72.6954921 14.323,72.7004921 C14.588,72.7024921 14.721,72.7334921 14.742,72.7544921 C14.762,73.0124921 15,73.1804921 15.231,73.3434921 C15.61,73.6104921 15.824,73.7964921 15.462,74.2374921 C15.326,74.4014921 15.46,74.4824921 15.549,74.5374921 L15.58,74.5584921 C15.659,74.6104921 15.733,74.6674921 15.808,74.7244921 C15.996,74.8684921 16.19,75.0154921 16.454,75.1234921 C16.957,75.3284921 17.441,75.5854921 17.562,76.0774921 C17.644,76.4164921 17.997,76.7074921 18.481,76.8354921 C19.16,77.0134921 19.48,77.3584921 19.702,77.6704921 C20.002,78.0914921 20.311,78.3974921 20.669,78.6314921 C20.884,78.7724921 21.101,78.9104921 21.318,79.0504921 C22.81,80.0114921 24.352,81.0064921 25.368,82.2504921 C25.555,82.4794921 25.866,82.5844921 26.376,82.5924921 C27.058,82.6024921 27.313,82.7904921 27.377,83.0734921 C27.661,83.1384921 27.849,83.3934921 27.86,84.0764921 C27.866,84.5854921 27.972,84.8964921 28.202,85.0844921 C29.445,86.0994921 30.439,87.6414921 31.401,89.1334921 C31.541,89.3504921 31.68,89.5684921 31.82,89.7824921 C32.055,90.1414921 32.36,90.4494921 32.781,90.7484921 C33.095,90.9734921 33.439,91.2924921 33.616,91.9704921 C33.744,92.4544921 34.035,92.8074921 34.376,92.8904921 C34.866,93.0094921 35.123,93.4944921 35.328,93.9974921 C35.436,94.2614921 35.583,94.4554921 35.727,94.6434921 C35.784,94.7184921 35.841,94.7924921 35.893,94.8714921 L35.914,94.9024921 C35.969,94.9924921 36.05,95.1254921 36.215,94.9904921 C36.655,94.6274921 36.841,94.8404921 37.108,95.2204921 C37.271,95.4514921 37.439,95.6894921 37.698,95.7104921 C37.718,95.7304921 37.749,95.8624921 37.751,96.1284921 C37.756,96.8984921 37.991,97.2664921 38.429,97.1894921 C38.865,97.1154921 39.097,97.4484921 39.327,98.0084921 C39.66,98.8154921 40.021,99.3544921 40.711,99.3524921 C41.112,99.3504921 41.329,99.7004921 41.327,100.335492 C41.325,100.420492 41.32,100.509492 41.313,100.604492 C41.302,100.724492 41.297,100.850492 41.296,100.990492 C41.296,101.087492 41.297,101.185492 41.297,101.279492 C41.299,101.360492 41.301,101.439492 41.301,101.515492 L41.299,101.700492 L41.406,101.702492 C41.516,101.706492 41.628,101.696492 41.735,101.688492 C41.951,101.670492 42.15,101.654492 42.286,101.747492 C42.397,101.826492 42.473,102.006492 42.554,102.197492 C42.617,102.347492 42.683,102.501492 42.772,102.623492 C42.972,102.897492 43.161,103.012492 43.373,102.986492 C43.995,102.909492 44.414,103.298492 44.857,103.712492 C44.955,103.802492 45.053,103.893492 45.153,103.978492 C45.25,104.060492 45.323,104.197492 45.353,104.356492 C45.535,105.294492 45.944,105.561492 46.639,105.199492 C46.892,105.067492 47.037,105.212492 47.05,105.610492 C47.102,107.087492 47.787,107.370492 48.521,107.457492 L48.682,107.477492 C48.918,107.503492 49.16,107.531492 49.387,107.590492 C49.694,107.671492 49.844,107.923492 49.839,108.364492 C49.84,108.424492 49.836,108.488492 49.83,108.556492 C49.822,108.664492 49.815,108.764492 49.815,108.856492 C49.809,109.724492 50.201,109.863492 50.541,109.886492 C50.941,109.915492 51.208,110.164492 51.406,110.535492 C51.98,110.777492 52.378,111.121492 52.361,111.701492 C52.357,111.819492 52.405,111.913492 52.45,112.004492 C52.464,112.035492 52.479,112.062492 52.49,112.093492 C52.535,112.199492 52.573,112.310492 52.61,112.421492 C52.667,112.592492 52.762,112.752492 52.847,112.915492 C53.01,113.000492 53.171,113.096492 53.342,113.153492 C53.454,113.190492 53.563,113.228492 53.669,113.272492 C53.7,113.283492 53.729,113.299492 53.76,113.313492 C53.85,113.359492 53.943,113.405492 54.062,113.402492 C54.642,113.385492 54.986,113.784492 55.228,114.357492 C55.6,114.556492 55.847,114.821492 55.877,115.222492 C55.9,115.563492 56.039,115.954492 56.908,115.948492 C56.998,115.947492 57.1,115.942492 57.208,115.933492 C57.276,115.927492 57.339,115.923492 57.398,115.923492 C57.666,115.921492 57.856,115.982492 57.989,116.094492 C57.972,115.999492 57.955,115.904492 57.942,115.813492 C57.916,115.625492 58.019,115.364492 58.199,115.163492 C58.802,114.492492 58.546,114.136492 58.301,113.928492 C58.198,113.840492 58.066,113.775492 57.94,113.712492 C57.835,113.660492 57.735,113.611492 57.658,113.551492 C56.893,112.971492 56.931,112.116492 57.775,110.935492 C58.009,110.613492 58.096,110.312492 58.182,110.021492 C58.214,109.910492 58.247,109.802492 58.285,109.691492 C58.315,109.609492 58.296,109.551492 58.282,109.506492 C58.278,109.490492 58.272,109.474492 58.272,109.457492 C58.275,109.302492 58.284,109.145492 58.293,108.989492 L58.309127,108.685076 C58.3395469,107.974617 58.2935,107.272867 57.625,106.785492 C57.401,106.622492 57.553,106.131492 57.804,105.718492 C58.065,105.287492 58.031,105.017492 57.897,104.745492 C57.606,104.155492 57.853,103.465492 58.632,102.697492 C58.68,102.650492 58.731,102.603492 58.783,102.554492 C58.822,102.517492 58.86,102.482492 58.895,102.447492 C59.438,101.911492 59.589,101.466492 59.342,101.128492 C59.175,100.900492 59.203,100.634492 59.431,100.264492 C59.619,99.9594921 59.577,99.6964921 59.514,99.4334921 C59.352,98.7474921 59.247,98.1634921 59.477,97.4384921 C59.722,96.6674921 59.98,95.6814921 59.81,94.8824921 C59.654,94.1414921 59.585,93.5034921 60.244,92.6014921 C60.481,92.2764921 60.426,91.9234921 60.085,91.5484921 C59.797,91.2344921 59.839,90.9714921 60.244,90.5724921 C60.449,90.3684921 60.549,90.1274921 60.539,89.8534921 C60.53,89.6504921 60.46,89.4494921 60.321,89.2174921 C60.46,88.9884921 60.53,88.7854921 60.539,88.5814921 C60.549,88.3084921 60.449,88.0664921 60.244,87.8634921 C59.839,87.4644921 59.797,87.2014921 60.085,86.8894921 C60.426,86.5124921 60.481,86.1584921 60.244,85.8344921 C59.585,84.9324921 59.654,84.2944921 59.81,83.5534921 C59.98,82.7544921 59.722,81.7684921 59.477,80.9974921 C59.247,80.2724921 59.352,79.6884921 59.514,79.0014921 C59.577,78.7394921 59.619,78.4764921 59.431,78.1714921 C59.203,77.8014921 59.175,77.5354921 59.342,77.3074921 C59.589,76.9694921 59.438,76.5264921 58.895,75.9884921 C58.86,75.9534921 58.822,75.9184921 58.783,75.8814921 C58.731,75.8344921 58.68,75.7854921 58.632,75.7384921 C57.853,74.9704921 57.606,74.2804921 57.897,73.6894921 C58.031,73.4184921 58.065,73.1504921 57.804,72.7194921 C57.553,72.3054921 57.401,71.8154921 57.625,71.6504921 C58.2935,71.1631171 58.3395469,70.4613671 58.309127,69.7509081 L58.293,69.4464921 C58.284,69.2904921 58.275,69.1324921 58.272,68.9784921 C58.272,68.9614921 58.278,68.9454921 58.282,68.9294921 C58.296,68.8844921 58.315,68.8264921 58.285,68.7434921 C58.247,68.6334921 58.214,68.5244921 58.182,68.4144921 C58.096,68.1234921 58.009,67.8244921 57.776,67.5004921 C56.931,66.3194921 56.893,65.4644921 57.658,64.8844921 C57.735,64.8244921 57.835,64.7754921 57.94,64.7234921 C58.066,64.6604921 58.198,64.5954921 58.301,64.5074921 C58.546,64.2994921 58.802,63.9434921 58.199,63.2724921 C58.019,63.0714921 57.916,62.8094921 57.942,62.6224921 C58.009,62.1684921 58.11,61.6464921 58.366,61.2104921 C58.424,61.1144921 58.483,61.0194921 58.545,60.9264921 L58.6772507,60.7183084 C58.9361429,60.2973288 59.1401429,59.8403492 58.907,59.1974921 C58.881,59.1254921 58.932,59.0394921 58.978,58.9644921 L59.004,58.9184921 C59.032,58.8664921 59.069,58.8154921 59.104,58.7644921 C59.282,58.5054921 59.505,58.1824921 58.934,57.6174921 C58.893,57.5804921 58.851,57.5394921 58.806,57.4994921 C58.806,57.4544921 58.839,57.3784921 58.853,57.3434921 C58.913,57.2084921 58.965,57.0724921 59.02,56.9374921 C59.161,56.5764921 59.307,56.2034921 59.549,55.8894921 C59.794,55.5744921 60.125,55.2954921 60.479,55.0014921 L60.353,54.8694921 C60.316,54.9714921 60.269,55.0294921 60.228,55.0694921 C60.22,55.0744921 60.2,55.0814921 60.167,55.0874921 C59.867,55.1324921 59.598,55.1154921 59.566,55.0814921 C59.464,54.8734921 59.373,54.5514921 59.533,54.2024921 C59.675,53.8944921 59.72,53.6244921 59.713,53.3704921 C59.349,53.1754921 59.049,52.9704921 58.772,52.6954921 C58.659,52.5854921 58.559,52.4734921 58.466,52.3684921 L58.78,51.8354921 L59.146,51.2154921 L59.191,51.1364921 L59.076,51.0224921 L58.927,50.8754921 L58.799,50.7494921 L58.653,50.6054921 C58.641,50.5914921 58.637,50.5864921 58.625,50.5734921 C58.158,50.5144921 58.009,50.4024921 58.214,50.1064921 C58.009,49.8104921 58.158,49.6974921 58.625,49.6404921 C58.637,49.6274921 58.641,49.6204921 58.653,49.6084921 L58.799,49.4634921 L58.927,49.3374921 L59.076,49.1894921 L59.191,49.0774921 L59.146,48.9984921 L58.78,48.3764921 L58.466,47.8444921 C58.559,47.7414921 58.659,47.6284921 58.772,47.5184921 C59.049,47.2434921 59.349,47.0364921 59.713,46.8434921 C59.72,46.5894921 59.675,46.3184921 59.533,46.0094921 C59.374,45.6614921 59.464,45.3404921 59.566,45.1324921 C59.598,45.0984921 59.867,45.0794921 60.167,45.1264921 C60.178,45.1284921 60.1875556,45.1306032 60.1955926,45.1326032 L60.225,45.1414921 C60.269,45.1844921 60.316,45.2404921 60.353,45.3424921 C60.393,45.4514921 60.482,45.5594921 60.563,45.6544921 C60.598,45.6944921 60.633,45.7364921 60.661,45.7774921 C60.703,45.8414921 60.745,45.9084921 60.789,45.9734921 C60.793,45.9694921 60.796,45.9664921 60.8,45.9624921 C60.835,45.9294921 60.866,45.8974921 60.899,45.8684921 L61.069,45.7204921 L60.973,45.6354921 C60.808,45.4874921 60.642,45.3474921 60.479,45.2124921 C60.125,44.9184921 59.794,44.6394921 59.549,44.3224921 C59.307,44.0104921 59.161,43.6374921 59.02,43.2764921 C58.965,43.1404921 58.913,43.0054921 58.853,42.8704921 C58.839,42.8354921 58.806,42.7604921 58.806,42.7144921 C58.851,42.6744921 58.893,42.6334921 58.934,42.5954921 C59.505,42.0314921 59.282,41.7084921 59.104,41.4474921 C59.069,41.3964921 59.032,41.3474921 59.004,41.2954921 L58.978,41.2494921 C58.932,41.1724921 58.881,41.0864921 58.907,41.0164921 C59.1401429,40.3736349 58.9361429,39.9166554 58.6772507,39.4956758 L58.545,39.2874921 C58.483,39.1924921 58.424,39.0984921 58.366,39.0014921 C58.11,38.5674921 58.009,38.0454921 57.942,37.5894921 C57.916,37.4024921 58.019,37.1414921 58.199,36.9394921 C58.802,36.2684921 58.546,35.9134921 58.301,35.7044921 C58.198,35.6184921 58.066,35.5544921 57.94,35.4904921 C57.835,35.4384921 57.735,35.3874921 57.658,35.3294921 C56.893,34.7484921 56.931,33.8934921 57.776,32.7144921 C58.009,32.3894921 58.096,32.0884921 58.182,31.7994921 C58.214,31.6894921 58.247,31.5784921 58.285,31.4684921 C58.315,31.3874921 58.296,31.3294921 58.282,31.2824921 C58.278,31.2664921 58.272,31.2524921 58.272,31.2354921 C58.275,31.0794921 58.284,30.9234921 58.293,30.7674921 C58.34,29.9564921 58.389,29.1204921 57.625,28.5634921 C57.401,28.3984921 57.553,27.9084921 57.804,27.4944921 C58.065,27.0634921 58.031,26.7944921 57.897,26.5224921 C57.606,25.9324921 57.853,25.2434921 58.632,24.4744921 C58.68,24.4274921 58.731,24.3794921 58.783,24.3324921 C58.822,24.2954921 58.86,24.2584921 58.895,24.2234921 C59.438,23.6874921 59.589,23.2444921 59.342,22.9064921 C59.175,22.6784921 59.203,22.4124921 59.431,22.0424921 C59.619,21.7354921 59.577,21.4744921 59.514,21.2104921 C59.352,20.5234921 59.247,19.9414921 59.477,19.2164921 C59.722,18.4454921 59.98,17.4594921 59.81,16.6584921 C59.654,15.9174921 59.585,15.2794921 60.244,14.3774921 C60.481,14.0554921 60.426,13.6994921 60.085,13.3244921 C59.797,13.0114921 59.839,12.7494921 60.244,12.3504921 C60.449,12.1454921 60.549,11.9054921 60.539,11.6324921 C60.53,11.4284921 60.46,11.2254921 60.321,10.9944921 C60.46,10.7644921 60.53,10.5634921 60.539,10.3604921 C60.549,10.0854921 60.449,9.84549209 60.244,9.64149209 C59.839,9.24049209 59.797,8.97949209 60.085,8.66649209 C60.426,8.29149209 60.481,7.93749209 60.244,7.61349209 C59.585,6.71049209 59.654,6.07349209 59.81,5.33149209 C59.98,4.53349209 59.722,3.54449209 59.477,2.77449209 C59.477,2.77449209 59.059,0.548492091 60.035,0.124492091 Z M58.282,117.051492 C58.283,117.061492 58.285,117.071492 58.287,117.082492 L58.306,117.243492 C58.361,117.708492 58.499,118.153492 58.967,118.430492 C58.899,118.088492 58.728,117.793492 58.545,117.511492 C58.483,117.416492 58.424,117.321492 58.366,117.225492 C58.333,117.169492 58.31,117.109492 58.282,117.051492 Z"></path></clipPath></defs><g clip-path="url(#i0)"><g clip-path="url(#i1)"><polygon points="0,7.07166338e-15 120.0698,7.07166338e-15 120.0698,123.932492 0,123.932492 0,7.07166338e-15" stroke="none" fill="#FFFFFF"></polygon></g></g></svg>