<?xml version="1.0" encoding="UTF-8"?><svg version="1.1" width="40px" height="40px" viewBox="0 0 40.0 40.0" xmlns="http://www.w3.org/2000/svg" xmlns:xlink="http://www.w3.org/1999/xlink"><defs><clipPath id="i0"><path d="M20,0 C31.046,0 40,8.954 40,20 C40,31.046 31.046,40 20,40 C8.954,40 0,31.046 0,20 C0,8.954 8.954,0 20,0 Z"></path></clipPath><clipPath id="i1"><path d="M22.957,20.125 L22.9530662,20.14525 L22.9468162,20.169 L22.9468162,20.231 C22.9388162,20.23 22.9308162,20.23 22.9238162,20.232 C22.8778162,20.328 22.7798162,20.435 22.5678162,20.484 C22.5048162,20.627 22.3878162,20.786 22.1588162,20.9 C22.0868162,20.935 21.8678162,21.043 21.7928162,21.153 C21.6828162,21.311 21.5418162,21.482 21.2328162,21.555 C21.1998162,21.725 21.0738162,21.88 20.8008162,21.898 L20.7648162,22.031 L20.5788162,22.093 C20.5978162,22.396 20.3718162,22.479 20.2378162,22.501 C20.1608162,22.797 19.9808162,22.931 19.8138162,23.033 C19.7018162,23.102 19.5868162,23.312 19.5488162,23.381 C19.4318162,23.596 19.2708162,23.704 19.0998162,23.805 C19.0578162,23.981 18.9468162,24.068 18.8458162,24.109 L18.8458162,24.131 L18.5418162,24.213 L18.8478162,24.212 C18.8508162,24.67 18.6298162,24.845 18.4688162,24.913 C18.3698162,25.248 18.1538162,25.33 17.9808162,25.31 C17.9418162,25.304 17.8998162,25.329 17.7788162,25.458 L17.6648162,25.585 C17.6338162,25.641 17.6198162,25.666 17.6138162,25.702 C17.4948162,26.386 17.0448162,26.404 16.8528162,26.377 L16.8248162,26.373 C16.7948162,26.489 16.7348162,26.577 16.6548162,26.635 C16.5508162,26.708 16.4108162,26.798 16.2418162,26.84 C16.2128162,26.848 16.1788162,26.855 16.1448162,26.862 C16.0308162,26.885 16.0278162,26.89 16.0158162,26.916 L15.9568162,27.035 L15.7848162,27.094 L15.7878162,27.155 L15.6368162,27.33 L15.4658162,27.399 C15.3728162,27.439 15.2548162,27.488 15.1168162,27.503 C15.0298162,27.515 14.9438162,27.511 14.8598162,27.507 L14.8528162,27.52 C14.6908162,27.748 14.5108162,28.00005 14.2868162,28.00005 C14.2368162,28.001 14.1848162,27.987 14.1308162,27.959 C13.8358162,27.807 13.9788162,27.486 14.1448162,27.116 C14.1968162,26.998 14.2438162,26.893 14.2908162,26.804 C14.3268162,26.53 14.5488162,26.452 14.6208162,26.434 C14.6888162,26.417 14.7618162,26.407 14.8328162,26.401 L14.9248162,26.385 C14.9248162,26.38 14.9408162,26.347 14.9438162,26.261 C14.9498162,26.065 15.0498162,25.969 15.1308162,25.922 L15.2778162,25.842 L15.3668162,25.875 C15.3998162,25.787 15.4448162,25.726 15.5018162,25.681 L15.5568162,25.633 C15.6618162,25.541 15.8098162,25.41 16.0258162,25.392 C16.0718162,25.297 16.1138162,25.222 16.1978162,25.166 C16.2298162,25.146 16.2618162,25.131 16.2928162,25.121 L16.2918162,25.097 C16.2908162,24.92 16.3408162,24.788 16.4398162,24.695 C16.5178162,24.621 16.6218162,24.58 16.7348162,24.578 C16.7288162,24.571 16.7508162,24.538 16.7868162,24.456 C16.8828162,24.235 17.0118162,24.139 17.1358162,24.105 C17.1458162,23.992 17.1688162,23.912 17.2378162,23.846 L17.3488162,23.767 C17.4188162,23.676 17.5078162,23.582 17.6598162,23.562 C17.6828162,23.558 17.7048162,23.559 17.7288162,23.558 C17.7738162,23.452 17.8808162,23.204 18.1638162,23.137 C18.1878162,22.893 18.3328162,22.772 18.4358162,22.703 C18.5018162,22.658 18.5488162,22.614 18.5828162,22.565 L18.6808162,22.42 C18.9198162,22.068 19.1668162,21.703 19.4988162,21.446 C19.4818162,21.205 19.5628162,21.075 19.6588162,21.006 C19.7298162,20.912 19.8648162,20.826 20.1178162,20.821 C20.3938162,20.537 20.7778162,20.301 21.1488162,20.074 L21.2998162,19.981 C21.3528162,19.948 21.3978162,19.905 21.4468162,19.84 C21.5208162,19.742 21.6488162,19.605 21.9058162,19.54 C21.9708162,19.316 22.2318162,19.213 22.3438162,19.169 C22.3438162,19.147 22.3448162,19.126 22.3478162,19.104 C22.3708162,18.941 22.4948162,18.854 22.5668162,18.806 L22.5698162,18.767 L22.6618162,18.689 C22.7248162,18.636 22.8038162,18.61 22.9198162,18.606 C22.9558162,18.487 23.0568162,18.364 23.2888162,18.272 C23.3998162,18.23 23.4258162,18.206 23.4298162,18.202 C23.4158162,18.123 23.4598162,18.02 23.5398162,17.943 C23.6378162,17.85 23.7768162,17.803 23.9548162,17.803 L23.9888162,17.804 C23.9988162,17.773 24.0138162,17.744 24.0348162,17.714 C24.1058162,17.619 24.2058162,17.578 24.2728162,17.551 C24.2908162,17.344 24.4308162,17.202 24.5268162,17.103 L24.5798162,17.047 C24.6328162,16.989 24.7058162,16.944 24.7888162,16.918 C24.7758162,16.841 24.7908162,16.766 24.8308162,16.699 C24.8708162,16.635 24.9688162,16.526 25.1878162,16.52 C25.2928162,16.516 25.3228162,16.497 25.3238162,16.497 L25.6338162,16.482 L25.3338162,16.412 C25.3408162,16.348 25.3508162,16.281 25.3678162,16.216 C25.4138162,16.055 25.5928162,15.897 25.8538162,15.895 L25.9208162,15.899 C25.9488162,15.81 26.0068162,15.714 26.1218162,15.634 C26.2628162,15.393 26.4628162,15.337 26.5968162,15.33 L26.6908162,15.295 C26.6998162,15.269 26.7098162,15.242 26.7218162,15.215 C26.7248162,15.208 26.7278162,15.204 26.7288162,15.2 C26.7328162,15.134 26.7508162,15.052 26.8028162,14.968 C26.6598162,14.913 26.4918162,14.799 26.2708162,14.641 C26.2608162,14.634 26.2508162,14.627 26.2408162,14.62 L26.1468162,14.595 C26.0938162,14.591 26.0348162,14.587 25.9718162,14.582 C25.8868162,14.577 25.8138162,14.572 25.7508162,14.567 L25.6658162,14.67 C25.2828162,14.959 25.0908162,15.101 24.8778162,14.915 C24.7958162,14.844 24.7718162,14.765 24.7758162,14.692 C24.6428162,14.669 24.4748162,14.595 24.2938162,14.421 L24.2338162,14.361 C24.2268162,14.354 24.2238162,14.348 24.2248162,14.343 C24.1188162,14.384 23.9658162,14.395 23.7768162,14.284 C23.6288162,14.343 23.4278162,14.379 23.1798162,14.304 C23.1028162,14.28 22.8668162,14.213 22.7348162,14.237 C22.5378162,14.277 22.3108162,14.301 22.0378162,14.145 C21.9248162,14.218 21.7178162,14.296 21.4778162,14.097 L21.3538162,14.168 L21.1748162,14.086 C20.9628162,14.313 20.7398162,14.22 20.6308162,14.145 C20.3568162,14.3 20.1308162,14.275 19.9378162,14.238 C19.8018162,14.208 19.5668162,14.28 19.4908162,14.304 C19.2418162,14.378 19.0408162,14.343 18.8548162,14.301 C18.6968162,14.398 18.5548162,14.385 18.4508162,14.347 C18.4458162,14.351 18.4408162,14.356 18.4348162,14.362 L18.3758162,14.421 C18.0388162,14.745 17.7518162,14.723 17.5868162,14.661 C17.2698162,14.834 17.0458162,14.744 16.9468162,14.614 C16.9198162,14.578 16.8718162,14.572 16.6938162,14.583 L16.5438162,14.589 C16.4598162,14.613 16.4278162,14.622 16.3948162,14.644 C15.8018162,15.047 15.4698162,14.756 15.3548162,14.61 C15.3488162,14.603 15.3438162,14.595 15.3378162,14.588 C15.2308162,14.65 15.1248162,14.675 15.0248162,14.659 C14.8838162,14.639 14.7248162,14.609 14.5778162,14.525 C14.5518162,14.512 14.5208162,14.493 14.4908162,14.474 C14.3958162,14.415 14.3898162,14.419 14.3648162,14.428 L14.2238162,14.477 L14.0668162,14.398 L14.0278162,14.441 L13.7908162,14.468 L13.6108162,14.399 C13.5448162,14.374 13.4558162,14.342 13.3688162,14.291 C13.2528162,14.332 13.1358162,14.335 13.0238162,14.304 C12.9978162,14.335 12.9718162,14.363 12.9428162,14.39 C12.9158162,14.417 12.8838162,14.445 12.8538162,14.47 L12.6878162,14.613 L12.4498162,14.48 C12.4178162,14.524 12.3718162,14.566 12.3058162,14.594 L12.1478162,14.66 L12.0758162,14.621 C12.0108162,14.62 11.9598162,14.608 11.9258162,14.593 C11.8608162,14.565 11.8148162,14.524 11.7828162,14.48 L11.5458162,14.613 L11.3788162,14.47 C11.3488162,14.445 11.3168162,14.417 11.2858162,14.386 C11.2588162,14.36 11.2338162,14.334 11.2088162,14.305 C11.0818162,14.333 10.9698162,14.327 10.8648162,14.291 C10.7768162,14.342 10.6868162,14.374 10.6178162,14.4 L10.4108162,14.166 L10.5418162,14.429 L10.3738162,14.468 L10.2338162,14.468 L10.1688162,14.397 L10.0668162,14.452 L9.86881617,14.428 C9.84281617,14.42 9.83581617,14.416 9.73481617,14.479 C9.70981617,14.495 9.67981617,14.512 9.64981617,14.528 C9.50781617,14.609 9.34781617,14.64 9.21081617,14.659 C9.10481617,14.668 8.99281617,14.647 8.89281617,14.59 C8.88981617,14.595 8.88681617,14.598 8.88381617,14.603 C8.76181617,14.755 8.43081617,15.046 7.83881617,14.645 C7.80581617,14.622 7.77381617,14.613 7.71581617,14.596 L7.68481617,14.587 L7.66881617,14.588 L7.54181617,14.583 C7.34981617,14.571 7.31081617,14.581 7.28581617,14.614 C7.18481617,14.748 6.94881617,14.838 6.62681617,14.65 C6.54081617,14.711 6.22781617,14.78 5.85681617,14.421 L5.78081617,14.346 C5.67581617,14.384 5.52581617,14.392 5.34081617,14.284 C5.19181617,14.343 4.99181617,14.379 4.74381617,14.304 C4.66581617,14.28 4.43081617,14.213 4.29781617,14.237 C4.10281617,14.276 3.87481617,14.302 3.60081617,14.145 C3.48881617,14.217 3.27981617,14.295 3.04081617,14.097 L2.91681617,14.168 L2.73881617,14.087 C2.52481617,14.312 2.30381617,14.218 2.19381617,14.145 C1.92181617,14.301 1.69381617,14.276 1.50081617,14.238 C1.36481617,14.208 1.12981617,14.28 1.05281617,14.304 C0.888816169,14.335 0.241816169,14.428 0.0548161693,14.017 C-0.0371838307,13.815 -0.0121838307,13.571 0.120816169,13.378 C0.256816169,13.181 0.484816169,13.095 0.728816169,13.073 C0.772816169,13.073 0.816816169,13.074 0.858816169,13.076 C0.908816169,13.079 0.954816169,13.081 0.978816169,13.077 L1.09281617,13.054 C1.59081617,12.951 2.02981617,12.861 2.45681617,12.901 C2.62281617,12.721 2.77681617,12.683 2.89381617,12.699 C3.01881617,12.675 3.17681617,12.709 3.35881617,12.876 C3.75681617,12.864 4.20481617,12.951 4.63381617,13.039 L4.82181617,13.078 C4.88181617,13.091 4.94681617,13.089 5.02681617,13.076 C5.15181617,13.057 5.34281617,13.044 5.57381617,13.172 C5.78781617,13.056 6.05781617,13.165 6.16181617,13.205 C6.17781617,13.189 6.19381617,13.175 6.21281617,13.161 C6.34981617,13.061 6.50081617,13.083 6.58781617,13.098 L6.61181617,13.079 L6.72381617,13.079 C6.83381617,13.079 6.91681617,13.131 6.98781617,13.194 C7.09981617,13.133 7.26281617,13.116 7.49681617,13.207 C7.61181617,13.253 7.64381617,13.253 7.64781617,13.252 C7.69781617,13.186 7.80581617,13.143 7.91981617,13.143 C8.05881617,13.143 8.19181617,13.203 8.31681617,13.322 L8.33881617,13.346 C8.36981617,13.331 8.40281617,13.32 8.43981617,13.314 C8.55881617,13.294 8.65681617,13.331 8.72781617,13.357 C8.89681617,13.224 9.09881617,13.218 9.23981617,13.213 C9.38481617,13.205 9.48181617,13.219 9.56281617,13.258 C9.61181617,13.194 9.67781617,13.15 9.75581617,13.131 C9.84881617,13.109 9.99081617,13.11 10.1428162,13.245 C10.2178162,13.312 10.2538162,13.318 10.2548162,13.318 L10.3288162,13.263 C10.3818162,13.223 10.4378162,13.183 10.4958162,13.149 C10.5688162,13.11 10.8218162,12.999 11.0758162,13.249 L11.1228162,13.298 C11.2078162,13.255 11.3188162,13.224 11.4608162,13.246 C11.7338162,13.17 11.9158162,13.261 12.0178162,13.346 L12.1168162,13.388 L12.1988162,13.352 L12.2138162,13.347 C12.3118162,13.263 12.4938162,13.172 12.7718162,13.245 C12.9158162,13.229 13.0248162,13.255 13.1098162,13.298 C13.4118162,12.999 13.6648162,13.109 13.7358162,13.149 C13.7958162,13.184 13.8538162,13.225 13.9078162,13.267 L13.9868162,13.318 C13.9898162,13.315 14.0258162,13.302 14.0918162,13.244 C14.2488162,13.101 14.3988162,13.109 14.4758162,13.131 L14.6408162,13.172 L14.6778162,13.256 C14.7688162,13.216 14.8478162,13.205 14.9188162,13.209 C15.1228162,13.217 15.3348162,13.224 15.5038162,13.357 C15.6018162,13.323 15.6888162,13.295 15.7858162,13.313 C15.8258162,13.319 15.8618162,13.332 15.8938162,13.346 L15.9158162,13.322 C16.0408162,13.203 16.1738162,13.143 16.3118162,13.143 L16.3935193,13.1504062 C16.4734412,13.165125 16.5473162,13.2015 16.6088162,13.257 C16.6108162,13.249 16.6518162,13.241 16.7358162,13.207 C16.9688162,13.117 17.1308162,13.135 17.2438162,13.193 C17.3328162,13.121 17.4098162,13.079 17.5088162,13.079 L17.6448162,13.097 C17.7608162,13.082 17.8968162,13.072 18.0198162,13.161 C18.0388162,13.175 18.0558162,13.189 18.0708162,13.206 C18.1708162,13.165 18.4408162,13.058 18.6918162,13.201 C18.8888162,13.045 19.0788162,13.057 19.2058162,13.076 C19.2878162,13.09 19.3518162,13.089 19.4158162,13.077 L19.5298162,13.054 C20.0278162,12.951 20.4698162,12.861 20.8938162,12.901 C21.0588162,12.72 21.2108162,12.683 21.3318162,12.699 C21.4538162,12.681 21.6138162,12.709 21.7958162,12.876 C22.1968162,12.864 22.6408162,12.951 23.0698162,13.039 L23.2588162,13.078 C23.3168162,13.088 23.3828162,13.089 23.4638162,13.076 C23.5878162,13.057 23.7808162,13.044 24.0108162,13.172 C24.2278162,13.057 24.4958162,13.165 24.5978162,13.205 C24.6138162,13.19 24.6308162,13.175 24.6488162,13.162 C24.7848162,13.064 24.9358162,13.084 25.0228162,13.098 L25.0458162,13.079 L25.1608162,13.079 C25.2688162,13.079 25.3528162,13.131 25.4248162,13.194 C25.5358162,13.133 25.6998162,13.116 25.9328162,13.207 C26.0418162,13.251 26.0758162,13.248 26.0848162,13.252 C26.1358162,13.185 26.2438162,13.143 26.3568162,13.143 C26.4958162,13.143 26.6288162,13.203 26.7538162,13.322 L26.7758162,13.345 C26.8058162,13.331 26.8378162,13.32 26.8748162,13.314 C27.0008162,13.294 27.0988162,13.333 27.1648162,13.358 L27.2332606,13.3113704 C27.2797051,13.2843333 27.3274828,13.265 27.3748162,13.251 C27.2708162,13.232 27.1488162,13.178 27.0478162,13.05 C26.7968162,12.918 26.7368162,12.73 26.7288162,12.601 C26.7098162,12.558 26.6988162,12.532 26.6908162,12.509 C26.6598162,12.498 26.6308162,12.489 26.6028162,12.477 C26.5978162,12.475 26.5948162,12.473 26.5918162,12.472 C26.4558162,12.464 26.2598162,12.405 26.1208162,12.168 C26.0028162,12.084 25.9448162,11.984 25.9178162,11.894 L25.9168162,11.904 C25.8998162,11.907 25.8638162,11.913 25.8408162,11.907 C25.4858162,11.907 25.3898162,11.664 25.3688162,11.589 C25.3508162,11.523 25.3408162,11.455 25.3338162,11.388 L25.3168162,11.3 C25.3128162,11.3 25.2768162,11.285 25.1868162,11.282 C24.9808162,11.275 24.8798162,11.181 24.8318162,11.104 L24.7458162,10.965 L24.7818162,10.88 C24.6898162,10.848 24.6268162,10.808 24.5798162,10.754 L24.7508162,10.5 L24.5268162,10.699 C24.4308162,10.601 24.2918162,10.459 24.2728162,10.252 C24.1788162,10.212 24.0998162,10.173 24.0398162,10.095 C24.0168162,10.063 23.9998162,10.03 23.9888162,9.998 L23.9548162,10 C23.7768162,10 23.6378162,9.953 23.5398162,9.86 C23.4628162,9.786 23.4188162,9.687 23.4168162,9.58 C23.4108162,9.589 23.3778162,9.564 23.2888162,9.529 C23.0558162,9.438 22.9548162,9.316 22.9198162,9.197 C22.7968162,9.188 22.7068162,9.163 22.6368162,9.09 L22.5668162,8.997 C22.4708162,8.931 22.3688162,8.845 22.3478162,8.699 C22.3448162,8.677 22.3438162,8.655 22.3448162,8.634 C22.2288162,8.588 21.9698162,8.485 21.9028162,8.219 C21.6478162,8.197 21.5198162,8.06 21.4458162,7.963 C21.3978162,7.898 21.3528162,7.855 21.2988162,7.821 L21.1998162,7.76 C20.7778162,7.502 20.3938162,7.266 20.1228162,6.951 C19.8688162,6.973 19.7358162,6.89 19.6628162,6.799 C19.5628162,6.732 19.4708162,6.603 19.4668162,6.362 C19.1658162,6.099 18.9078162,5.718 18.6798162,5.381 L18.5828162,5.238 C18.5488162,5.189 18.5018162,5.144 18.4348162,5.099 C18.3308162,5.028 18.1868162,4.906 18.1198162,4.662 C17.8828162,4.6 17.7748162,4.351 17.7288162,4.245 C17.7058162,4.244 17.6838162,4.244 17.6618162,4.241 C17.4898162,4.22 17.3978162,4.102 17.3468162,4.033 L17.3168162,4.031 L17.2378162,3.956 C17.1608162,3.882 17.1408162,3.789 17.1358162,3.696 C17.0108162,3.663 16.8818162,3.566 16.7858162,3.344 C16.7408162,3.241 16.7168162,3.217 16.7128162,3.213 C16.6278162,3.223 16.5188162,3.182 16.4378162,3.106 C16.3408162,3.013 16.2908162,2.88 16.2918162,2.712 L16.2928162,2.681 C16.2608162,2.672 16.2298162,2.657 16.1988162,2.637 C16.1008162,2.572 16.0598162,2.482 16.0298162,2.415 C15.8098162,2.395 15.6608162,2.262 15.5568162,2.169 C15.4468162,2.079 15.3908162,2.002 15.3628162,1.92 C15.2808162,1.933 15.2018162,1.919 15.1308162,1.88 C15.0498162,1.834 14.9498162,1.738 14.9438162,1.541 C14.9398162,1.441 14.9188162,1.413 14.9188162,1.413 L14.9028162,1.117 L14.8338162,1.403 C14.7618162,1.395 14.6888162,1.386 14.6208162,1.369 C14.5418162,1.349 14.2828162,1.258 14.2858162,0.911 L14.2958162,0.907 L14.2938162,0.803 C14.3058162,0.815 14.3518162,0.851 14.3928162,0.861 L14.3978162,0.802 L14.2938162,0.801 L14.2888162,0.589 L14.3288162,0.582 C14.3308162,0.587 14.3328162,0.591 14.3358162,0.595 C14.3508162,0.614 14.3778162,0.634 14.4118162,0.649 L14.4318162,0.524 L14.4448162,0.292 C14.4188162,0.306 14.3698162,0.34 14.3388162,0.401 C14.3188162,0.441 14.3118162,0.482 14.3138162,0.516 L14.2928162,0.514 L14.1788162,0.263 L14.6718162,0 L14.8608162,0.296 C14.9448162,0.29 15.0318162,0.287 15.1198162,0.299 C15.2568162,0.316 15.3728162,0.365 15.4668162,0.404 L15.4388162,0.708 L15.5468162,0.435 L15.6958162,0.526 L15.7878162,0.618 L15.7818162,0.707 L15.8978162,0.735 L16.0198162,0.893 C16.0288162,0.912 16.0308162,0.917 16.1498162,0.942 L16.2348162,0.96 C16.4058162,1.002 16.5408162,1.087 16.6528162,1.166 C16.7388162,1.227 16.8008162,1.322 16.8278162,1.431 L16.8558162,1.425 C17.0408162,1.406 17.4938162,1.417 17.6138162,2.1 C17.6198162,2.137 17.6338162,2.162 17.6628162,2.213 L17.7648162,2.33 C17.8978162,2.471 17.9328162,2.493 17.9798162,2.493 C18.1538162,2.468 18.3738162,2.558 18.4688162,2.889 C18.6298162,2.956 18.8508162,3.133 18.8478162,3.59 L18.5398162,3.67 L18.7678162,3.671 C18.7578162,3.667 18.7458162,3.664 18.7338162,3.662 C18.7478162,3.664 18.7638162,3.667 18.7798162,3.671 L18.8458162,3.672 L18.8458162,3.694 C18.9468162,3.737 19.0608162,3.83 19.1118162,4.032 C19.2618162,4.092 19.4308162,4.203 19.5488162,4.421 C19.5858162,4.49 19.6998162,4.699 19.8148162,4.769 C19.9808162,4.872 20.1608162,5.007 20.2378162,5.302 C20.3698162,5.325 20.5768162,5.408 20.5988162,5.712 L20.7388162,5.744 L20.8038162,5.921 C21.0588162,5.918 21.2008162,6.071 21.2328162,6.248 C21.5418162,6.32 21.6838162,6.491 21.7918162,6.649 C21.8678162,6.76 22.0868162,6.868 22.1578162,6.903 C22.3868162,7.015 22.4998162,7.169 22.6038162,7.331 C22.7898162,7.371 22.8808162,7.476 22.9248162,7.572 L22.9468162,7.572 L23.0338162,7.861 L23.0318162,7.57 C23.4838162,7.56 23.6988162,7.776 23.7698162,7.93 C24.1198162,8.023 24.2138162,8.227 24.1868162,8.394 C24.1798162,8.436 24.2088162,8.472 24.3428162,8.585 L24.4778162,8.695 C24.5338162,8.724 24.5608162,8.738 24.5988162,8.744 C25.3188162,8.857 25.3358162,9.287 25.3098162,9.467 L25.3058162,9.493 C25.4278162,9.523 25.5208162,9.579 25.5808162,9.656 C25.6628162,9.761 25.7538162,9.889 25.7968162,10.048 L25.8178162,10.134 C25.8438162,10.249 25.8488162,10.251 25.8758162,10.263 L26.0078162,10.322 L26.0628162,10.483 L26.1268162,10.479 L26.3068162,10.618 L26.3438162,10.694 L26.0918162,10.877 L26.3728162,10.762 C26.4148162,10.853 26.4538162,10.937 26.4768162,11.029 C26.5878162,11.077 26.6748162,11.153 26.7298162,11.251 C26.7788162,11.245 26.8248162,11.244 26.8738162,11.243 C26.9068162,11.243 26.9418162,11.245 26.9758162,11.247 L27.1988162,11.26 L27.2668162,11.513 C27.3218162,11.503 27.3838162,11.504 27.4508162,11.528 L27.6128162,11.586 L27.6358162,11.662 C27.6828162,11.704 27.7078162,11.751 27.7218162,11.784 C27.7468162,11.847 27.7488162,11.907 27.7388162,11.961 L28.0028162,12.027 L28.0168162,12.237 C28.0188162,12.275 28.0218162,12.316 28.0208162,12.36 C28.0208162,12.397 28.0178162,12.434 28.0138162,12.471 C28.1258162,12.536 28.2008162,12.616 28.2468162,12.712 C28.3408162,12.734 28.4238162,12.767 28.4928162,12.795 L28.7258162,12.917 L28.8258162,13.011 L28.8188162,13.105 L28.9558162,13.138 C29.0928162,13.071 29.2878162,13.07 29.4678162,13.217 L29.4828162,13.196 L29.7838162,13.514 L29.9368162,13.659 L29.8938162,13.705 L29.9968162,13.778 L29.8508162,13.899 L29.9998162,14.018 L29.6908162,14.239 C29.5878162,14.312 29.4478162,14.402 29.2778162,14.444 L29.1828162,14.464 C29.1668162,14.467 29.1468162,14.472 29.1248162,14.478 L29.0438162,14.542 C28.9918162,14.62 28.9188162,14.67 28.8208162,14.698 L28.8248162,14.752 L28.6798162,14.93 L28.5838162,14.97 L28.4238162,14.718 L28.4948162,15.005 C28.4298162,15.033 28.3448162,15.068 28.2468162,15.091 C28.1968162,15.196 28.1158162,15.279 28.0138162,15.331 C28.0178162,15.369 28.0208162,15.407 28.0208162,15.445 C28.0218162,15.486 28.0188162,15.527 28.0168162,15.565 L28.0028162,15.776 L27.7388162,15.841 C27.7488162,15.895 27.7468162,15.955 27.7218162,16.019 L27.6598162,16.172 L27.5788162,16.193 C27.5348162,16.238 27.4868162,16.262 27.4518162,16.274 C27.3848162,16.299 27.3218162,16.301 27.2668162,16.29 L27.1968162,16.549 L26.8518162,16.559 C26.8108162,16.559 26.7708162,16.556 26.7308162,16.552 C26.6618162,16.659 26.5778162,16.73 26.4768162,16.774 C26.4538162,16.864 26.4178162,16.944 26.3868162,17.011 L26.0628162,16.992 L26.3438162,17.107 L26.2688162,17.223 L26.1698162,17.325 L26.0638162,17.317 L26.0278162,17.43 L25.8688162,17.543 C25.8488162,17.552 25.8438162,17.554 25.8178162,17.669 L25.7978162,17.752 C25.7538162,17.911 25.6638162,18.04 25.5818162,18.146 C25.5158162,18.228 25.4168162,18.286 25.3048162,18.311 C25.3068162,18.32 25.3088162,18.329 25.3098162,18.338 C25.3358162,18.515 25.3188162,18.946 24.5998162,19.059 C24.5608162,19.065 24.5338162,19.079 24.4798162,19.107 L24.3458162,19.214 C24.2108162,19.329 24.1798162,19.366 24.1868162,19.407 C24.2138162,19.576 24.1178162,19.784 23.7698162,19.872 C23.6978162,20.026 23.4838162,20.214 23.0318162,20.233 L22.9488162,19.94 L22.9468162,20.158 C22.9518162,20.147 22.9558162,20.135 22.9578162,20.123 L22.957,20.125 Z"></path></clipPath></defs><g clip-path="url(#i0)"><polygon points="0,0 40,0 40,40 0,40 0,0" stroke="none" fill="#000000"></polygon></g><g transform="translate(5.068183830690993 6.101599999999996)"><g clip-path="url(#i1)"><polygon points="3.33066907e-16,0 29.9998162,0 29.9998162,28.0000953 3.33066907e-16,28.0000953 3.33066907e-16,0" stroke="none" fill="#FFFFFF"></polygon></g></g></svg>