<?xml version="1.0" encoding="UTF-8"?><svg version="1.1" width="40px" height="40px" viewBox="0 0 40.0 40.0" xmlns="http://www.w3.org/2000/svg" xmlns:xlink="http://www.w3.org/1999/xlink"><defs><clipPath id="i0"><path d="M20,0 C31.046,0 40,8.954 40,20 C40,31.046 31.046,40 20,40 C8.954,40 0,31.046 0,20 C0,8.954 8.954,0 20,0 Z"></path></clipPath><clipPath id="i1"><path d="M22.9533735,20.14625 L22.9472485,20.17 L22.9472485,20.232 C22.9382485,20.231 22.9302485,20.231 22.9232485,20.233 C22.8782485,20.329 22.7792485,20.436 22.5682485,20.485 C22.5042485,20.627 22.3882485,20.787 22.1592485,20.901 C22.0862485,20.936 21.8682485,21.044 21.7922485,21.154 C21.6832485,21.312 21.5412485,21.482 21.2332485,21.555 C21.2002485,21.725 21.0732485,21.881 20.8012485,21.899 L20.7652485,22.032 L20.5792485,22.094 C20.5982485,22.397 20.3712485,22.48 20.2382485,22.502 C20.1612485,22.798 19.9802485,22.931 19.8142485,23.034 C19.7012485,23.103 19.5872485,23.313 19.5492485,23.382 C19.4322485,23.597 19.2702485,23.705 19.1002485,23.805 C19.0582485,23.982 18.9472485,24.069 18.8462485,24.11 L18.8462485,24.132 L18.5412485,24.214 L18.8482485,24.212 C18.8512485,24.671 18.6302485,24.846 18.4682485,24.914 C18.3702485,25.249 18.1542485,25.331 17.9812485,25.311 C17.9422485,25.305 17.9002485,25.33 17.7792485,25.459 L17.6652485,25.585 C17.6342485,25.641 17.6202485,25.667 17.6142485,25.703 C17.4952485,26.387 17.0452485,26.405 16.8532485,26.378 L16.8252485,26.374 C16.7952485,26.49 16.7352485,26.578 16.6542485,26.636 C16.5512485,26.709 16.4112485,26.799 16.2412485,26.841 C16.2122485,26.848 16.1792485,26.856 16.1452485,26.863 C16.0312485,26.885 16.0282485,26.891 16.0162485,26.917 L15.9572485,27.035 L15.7842485,27.095 L15.7882485,27.156 L15.6372485,27.33 L15.4662485,27.4 C15.3732485,27.44 15.2552485,27.489 15.1172485,27.504 C15.0292485,27.516 14.9432485,27.512 14.8602485,27.508 L14.8532485,27.521 C14.6912485,27.749 14.5112485,28.0000535 14.2872485,28.0000535 C14.2372485,28.001 14.1852485,27.988 14.1302485,27.96 C13.8362485,27.808 13.9792485,27.487 14.1452485,27.117 C14.1972485,26.999 14.2442485,26.894 14.2902485,26.805 C14.3262485,26.531 14.5492485,26.453 14.6212485,26.435 C14.6892485,26.418 14.7612485,26.408 14.8332485,26.401 L14.9252485,26.385 C14.9252485,26.381 14.9412485,26.347 14.9432485,26.262 C14.9502485,26.066 15.0492485,25.97 15.1312485,25.923 L15.2782485,25.843 L15.3672485,25.876 C15.4002485,25.788 15.4442485,25.727 15.5022485,25.682 L15.5572485,25.634 C15.6612485,25.542 15.8102485,25.411 16.0262485,25.393 C16.0722485,25.298 16.1132485,25.223 16.1982485,25.167 C16.2292485,25.147 16.2622485,25.132 16.2932485,25.121 L16.2922485,25.098 C16.2912485,24.921 16.3412485,24.788 16.4392485,24.695 C16.5182485,24.621 16.6222485,24.581 16.7352485,24.579 C16.7292485,24.572 16.7512485,24.539 16.7872485,24.457 C16.8822485,24.236 17.0122485,24.14 17.1352485,24.106 C17.1452485,23.993 17.1682485,23.913 17.2382485,23.847 L17.3482485,23.767 C17.4182485,23.677 17.5082485,23.582 17.6592485,23.562 C17.6832485,23.559 17.7052485,23.56 17.7292485,23.559 C17.7742485,23.453 17.8812485,23.205 18.1642485,23.138 C18.1882485,22.893 18.3332485,22.773 18.4362485,22.704 C18.5022485,22.659 18.5492485,22.614 18.5832485,22.566 L18.6812485,22.421 C18.9202485,22.069 19.1672485,21.704 19.4982485,21.446 C19.4822485,21.205 19.5632485,21.076 19.6582485,21.007 C19.7302485,20.913 19.8652485,20.827 20.1172485,20.822 C20.3932485,20.537 20.7782485,20.302 21.1492485,20.075 L21.3002485,19.982 C21.3522485,19.949 21.3982485,19.905 21.4472485,19.841 C21.5202485,19.743 21.6482485,19.606 21.9062485,19.541 C21.9712485,19.317 22.2322485,19.214 22.3442485,19.17 C22.3442485,19.148 22.3452485,19.126 22.3482485,19.105 C22.3712485,18.942 22.4952485,18.855 22.5662485,18.807 L22.5702485,18.768 L22.6622485,18.69 C22.7242485,18.637 22.8032485,18.611 22.9202485,18.606 C22.9552485,18.488 23.0572485,18.365 23.2892485,18.273 C23.4002485,18.231 23.4262485,18.207 23.4302485,18.203 C23.4162485,18.124 23.4602485,18.021 23.5402485,17.944 C23.6382485,17.851 23.7772485,17.804 23.9552485,17.804 L23.9882485,17.805 C23.9992485,17.774 24.0142485,17.745 24.0352485,17.715 C24.1062485,17.619 24.2062485,17.579 24.2732485,17.552 C24.2912485,17.345 24.4302485,17.203 24.5272485,17.104 L24.5792485,17.048 C24.6332485,16.989 24.7062485,16.945 24.7892485,16.919 C24.7762485,16.841 24.7902485,16.766 24.8312485,16.7 C24.8702485,16.635 24.9692485,16.527 25.1882485,16.521 C25.2922485,16.517 25.3232485,16.498 25.3232485,16.498 L25.6342485,16.483 L25.3342485,16.412 C25.3412485,16.349 25.3502485,16.282 25.3672485,16.217 C25.4142485,16.056 25.5932485,15.898 25.8532485,15.896 L25.9212485,15.9 C25.9492485,15.811 26.0072485,15.715 26.1222485,15.634 C26.2622485,15.393 26.4622485,15.337 26.5972485,15.331 L26.6902485,15.296 C26.6992485,15.27 26.7102485,15.243 26.7222485,15.216 C26.7252485,15.209 26.7272485,15.205 26.7292485,15.201 C26.7332485,15.135 26.7512485,15.053 26.8032485,14.969 C26.6602485,14.914 26.4922485,14.799 26.2702485,14.642 C26.2602485,14.635 26.2502485,14.628 26.2412485,14.621 L26.1472485,14.595 C26.0932485,14.592 26.0352485,14.588 25.9712485,14.583 C25.8872485,14.577 25.8142485,14.573 25.7512485,14.568 L25.6662485,14.671 C25.2832485,14.96 25.0902485,15.102 24.8772485,14.916 C24.7952485,14.845 24.7722485,14.766 24.7762485,14.693 C24.6422485,14.67 24.4752485,14.596 24.2942485,14.422 L24.2342485,14.362 C24.2272485,14.354 24.2242485,14.349 24.2252485,14.344 C24.1192485,14.385 23.9662485,14.396 23.7772485,14.285 C23.6292485,14.344 23.4272485,14.38 23.1802485,14.305 C23.1032485,14.281 22.8672485,14.214 22.7342485,14.238 C22.5382485,14.277 22.3102485,14.302 22.0382485,14.146 C21.9252485,14.219 21.7182485,14.296 21.4782485,14.098 L21.3542485,14.168 L21.1752485,14.087 C20.9632485,14.314 20.7402485,14.221 20.6302485,14.146 C20.3572485,14.301 20.1302485,14.276 19.9382485,14.239 C19.8022485,14.209 19.5672485,14.281 19.4902485,14.305 C19.2412485,14.379 19.0402485,14.344 18.8552485,14.302 C18.6972485,14.399 18.5542485,14.386 18.4512485,14.348 C18.4462485,14.352 18.4412485,14.357 18.4352485,14.363 L18.3762485,14.422 C18.0382485,14.746 17.7522485,14.723 17.5862485,14.662 C17.2702485,14.834 17.0462485,14.744 16.9462485,14.614 C16.9192485,14.579 16.8712485,14.573 16.6942485,14.584 L16.5442485,14.59 C16.4592485,14.613 16.4272485,14.623 16.3952485,14.645 C15.8022485,15.048 15.4692485,14.757 15.3552485,14.611 C15.3492485,14.604 15.3442485,14.596 15.3382485,14.589 C15.2312485,14.65 15.1252485,14.676 15.0252485,14.66 C14.8842485,14.64 14.7242485,14.61 14.5772485,14.526 C14.5512485,14.513 14.5202485,14.494 14.4912485,14.475 C14.3962485,14.416 14.3902485,14.42 14.3652485,14.428 L14.2242485,14.478 L14.0662485,14.399 L14.0282485,14.442 L13.7902485,14.469 L13.6112485,14.4 C13.5442485,14.375 13.4562485,14.343 13.3682485,14.292 C13.2532485,14.333 13.1352485,14.336 13.0242485,14.305 C12.9982485,14.335 12.9722485,14.364 12.9432485,14.39 C12.9162485,14.418 12.8842485,14.445 12.8542485,14.471 L12.6872485,14.613 L12.4502485,14.481 C12.4172485,14.525 12.3712485,14.567 12.3062485,14.594 L12.1472485,14.661 L12.0762485,14.622 C12.0102485,14.621 11.9602485,14.609 11.9252485,14.593 C11.8612485,14.566 11.8152485,14.525 11.7822485,14.481 L11.5452485,14.613 L11.3792485,14.471 C11.3492485,14.445 11.3172485,14.418 11.2852485,14.387 C11.2592485,14.361 11.2332485,14.334 11.2092485,14.306 C11.0812485,14.333 10.9692485,14.328 10.8642485,14.292 C10.7762485,14.343 10.6872485,14.375 10.6172485,14.401 L10.4112485,14.167 L10.5412485,14.43 L10.3742485,14.469 L10.2342485,14.469 L10.1692485,14.398 L10.0672485,14.453 L9.86924851,14.429 C9.84224851,14.421 9.83624851,14.417 9.73524851,14.48 C9.71024851,14.496 9.68024851,14.513 9.64924851,14.529 C9.50824851,14.61 9.34824851,14.641 9.21124851,14.66 C9.10524851,14.668 8.99324851,14.648 8.89324851,14.591 L8.88324851,14.604 C8.76224851,14.756 8.43124851,15.047 7.83924851,14.646 C7.80524851,14.623 7.77324851,14.613 7.71524851,14.597 L7.68524851,14.588 L7.66924851,14.589 L7.54124851,14.584 C7.34924851,14.572 7.31024851,14.582 7.28624851,14.614 C7.18524851,14.749 6.94924851,14.839 6.62624851,14.65 C6.54124851,14.712 6.22824851,14.78 5.85724851,14.422 L5.79724851,14.362 C5.79124851,14.356 5.78624851,14.352 5.78124851,14.347 C5.67624851,14.385 5.52624851,14.393 5.34024851,14.285 C5.19224851,14.344 4.99124851,14.38 4.74324851,14.305 C4.66624851,14.281 4.43124851,14.214 4.29824851,14.238 C4.10324851,14.277 3.87524851,14.303 3.60124851,14.146 C3.48824851,14.218 3.28024851,14.296 3.04124851,14.098 L2.91724851,14.169 L2.73924851,14.088 C2.52524851,14.313 2.30324851,14.219 2.19424851,14.146 C1.92124851,14.302 1.69424851,14.277 1.50124851,14.239 C1.36524851,14.209 1.13024851,14.281 1.05324851,14.305 C0.888248515,14.336 0.242248515,14.428 0.0552485149,14.017 C-0.0377514851,13.816 -0.0117514851,13.572 0.121248515,13.379 C0.257248515,13.182 0.484248515,13.096 0.728248515,13.073 C0.773248515,13.073 0.817248515,13.075 0.859248515,13.077 C0.909248515,13.08 0.954248515,13.082 0.978248515,13.078 L1.09324851,13.054 C1.59124851,12.952 2.03024851,12.862 2.45724851,12.902 C2.62224851,12.722 2.77624851,12.684 2.89424851,12.699 C3.01924851,12.676 3.17724851,12.71 3.35924851,12.877 C3.75724851,12.865 4.20524851,12.952 4.63324851,13.04 L4.82224851,13.079 C4.88124851,13.091 4.94624851,13.089 5.02724851,13.077 C5.15224851,13.058 5.34324851,13.045 5.57424851,13.173 C5.78824851,13.057 6.05824851,13.165 6.16224851,13.206 C6.17724851,13.19 6.19424851,13.176 6.21324851,13.162 C6.35024851,13.062 6.50124851,13.084 6.58824851,13.099 L6.61124851,13.08 L6.72424851,13.08 C6.83424851,13.08 6.91724851,13.132 6.98824851,13.195 C7.10024851,13.134 7.26324851,13.117 7.49624851,13.208 C7.61224851,13.254 7.64424851,13.254 7.64824851,13.253 C7.69824851,13.187 7.80624851,13.144 7.92024851,13.144 L8.00291251,13.151096 C8.11212851,13.17004 8.21724851,13.227 8.31724851,13.323 L8.33924851,13.347 C8.37024851,13.331 8.40224851,13.321 8.43924851,13.314 C8.55924851,13.294 8.65624851,13.331 8.72724851,13.358 L8.81464666,13.3020787 C8.96191518,13.2230278 9.12191518,13.2181667 9.24024851,13.214 C9.38424851,13.206 9.48224851,13.219 9.56224851,13.259 C9.61124851,13.195 9.67824851,13.151 9.75624851,13.132 C9.84824851,13.109 9.99124851,13.11 10.1432485,13.246 C10.2182485,13.312 10.2542485,13.319 10.2552485,13.319 L10.3292485,13.264 C10.3812485,13.224 10.4382485,13.183 10.4962485,13.15 C10.5692485,13.111 10.8212485,13 11.0762485,13.25 L11.1232485,13.299 C11.2082485,13.256 11.3192485,13.225 11.4602485,13.247 C11.7332485,13.171 11.9162485,13.262 12.0172485,13.347 L12.1172485,13.388 L12.1992485,13.353 C12.2052485,13.35 12.2102485,13.349 12.2132485,13.348 C12.3122485,13.264 12.4932485,13.173 12.7722485,13.246 C12.9152485,13.23 13.0252485,13.256 13.1092485,13.299 C13.4122485,13 13.6642485,13.109 13.7362485,13.15 C13.7962485,13.184 13.8532485,13.226 13.9082485,13.268 L13.9872485,13.319 C13.9902485,13.316 14.0252485,13.303 14.0912485,13.245 C14.2482485,13.102 14.3992485,13.109 14.4762485,13.132 L14.6412485,13.173 L14.6782485,13.256 C14.7682485,13.217 14.8482485,13.206 14.9192485,13.21 C15.1232485,13.218 15.3352485,13.225 15.5032485,13.358 C15.6022485,13.324 15.6892485,13.296 15.7862485,13.313 C15.8262485,13.32 15.8622485,13.332 15.8932485,13.347 L15.9162485,13.323 C16.0412485,13.204 16.1742485,13.144 16.3122485,13.144 L16.3935141,13.15125 C16.4732485,13.1656875 16.5474985,13.2015 16.6082485,13.257 C16.6102485,13.25 16.6512485,13.242 16.7362485,13.208 C16.9692485,13.118 17.1302485,13.136 17.2442485,13.194 C17.3332485,13.122 17.4102485,13.08 17.5092485,13.08 L17.6452485,13.098 C17.7612485,13.083 17.8962485,13.072 18.0192485,13.162 C18.0382485,13.176 18.0552485,13.19 18.0712485,13.207 C18.1712485,13.166 18.4412485,13.059 18.6912485,13.201 C18.8892485,13.046 19.0792485,13.058 19.2052485,13.077 C19.2872485,13.09 19.3522485,13.089 19.4162485,13.078 L19.5302485,13.054 C20.0282485,12.952 20.4702485,12.862 20.8932485,12.902 C21.0592485,12.721 21.2112485,12.683 21.3312485,12.699 C21.4542485,12.681 21.6132485,12.71 21.7952485,12.877 C22.1972485,12.865 22.6412485,12.952 23.0702485,13.04 L23.2582485,13.079 C23.3172485,13.089 23.3832485,13.089 23.4642485,13.077 C23.5882485,13.058 23.7812485,13.045 24.0112485,13.173 C24.2282485,13.058 24.4962485,13.165 24.5982485,13.206 C24.6132485,13.191 24.6302485,13.176 24.6492485,13.163 C24.7852485,13.065 24.9362485,13.085 25.0232485,13.099 L25.0452485,13.08 L25.1602485,13.08 C25.2692485,13.08 25.3522485,13.132 25.4252485,13.195 C25.5362485,13.134 25.7002485,13.117 25.9332485,13.208 C26.0422485,13.252 26.0752485,13.249 26.0842485,13.253 C26.1362485,13.186 26.2432485,13.144 26.3572485,13.144 C26.4952485,13.144 26.6292485,13.204 26.7532485,13.323 L26.7762485,13.346 C26.8062485,13.331 26.8382485,13.321 26.8752485,13.314 C27.0002485,13.294 27.0992485,13.333 27.1642485,13.359 C27.2312485,13.306 27.3042485,13.273 27.3752485,13.252 C27.2702485,13.233 27.1492485,13.179 27.0482485,13.051 C26.7972485,12.919 26.7372485,12.731 26.7292485,12.602 C26.7092485,12.559 26.6992485,12.532 26.6912485,12.51 C26.6602485,12.499 26.6312485,12.49 26.6032485,12.477 C26.5982485,12.476 26.5952485,12.474 26.5922485,12.473 C26.4552485,12.465 26.2592485,12.406 26.1212485,12.169 C26.0022485,12.085 25.9452485,11.985 25.9182485,11.895 L25.9172485,11.905 C25.9002485,11.908 25.8642485,11.914 25.8402485,11.908 C25.4862485,11.908 25.3902485,11.665 25.3682485,11.59 C25.3512485,11.524 25.3412485,11.455 25.3332485,11.389 L25.3172485,11.301 C25.3122485,11.301 25.2762485,11.286 25.1872485,11.283 C24.9812485,11.276 24.8802485,11.182 24.8312485,11.104 L24.7462485,10.966 L24.7822485,10.88 C24.6892485,10.849 24.6272485,10.808 24.5792485,10.755 L24.7512485,10.501 L24.5272485,10.7 C24.4302485,10.601 24.2922485,10.46 24.2732485,10.253 C24.1792485,10.212 24.0992485,10.174 24.0402485,10.096 C24.0172485,10.063 24.0002485,10.031 23.9882485,9.999 L23.9552485,10.001 C23.7772485,10.001 23.6382485,9.953 23.5402485,9.86 C23.4632485,9.786 23.4192485,9.688 23.4172485,9.58 C23.4102485,9.59 23.3782485,9.564 23.2892485,9.53 C23.0562485,9.439 22.9542485,9.317 22.9192485,9.198 C22.7962485,9.189 22.7072485,9.164 22.6372485,9.091 L22.5662485,8.998 C22.4712485,8.931 22.3692485,8.846 22.3482485,8.7 C22.3452485,8.678 22.3442485,8.656 22.3452485,8.634 C22.2282485,8.589 21.9702485,8.485 21.9032485,8.22 C21.6472485,8.198 21.5202485,8.061 21.4462485,7.964 C21.3982485,7.899 21.3522485,7.855 21.2992485,7.822 L21.2002485,7.76 C20.7782485,7.502 20.3932485,7.267 20.1232485,6.952 C19.8682485,6.974 19.7352485,6.89 19.6622485,6.8 C19.5632485,6.733 19.4702485,6.604 19.4662485,6.363 C19.1652485,6.1 18.9082485,5.718 18.6802485,5.382 L18.5832485,5.239 C18.5492485,5.19 18.5022485,5.145 18.4352485,5.1 C18.3312485,5.029 18.1872485,4.907 18.1192485,4.662 C17.8832485,4.601 17.7752485,4.352 17.7292485,4.246 C17.7062485,4.245 17.6842485,4.245 17.6612485,4.242 C17.4902485,4.221 17.3982485,4.102 17.3472485,4.034 L17.3172485,4.032 L17.2382485,3.956 C17.1602485,3.883 17.1412485,3.79 17.1362485,3.697 C17.0112485,3.664 16.8822485,3.567 16.7862485,3.345 C16.7412485,3.242 16.7172485,3.218 16.7122485,3.214 C16.6282485,3.224 16.5192485,3.183 16.4382485,3.107 C16.3412485,3.014 16.2912485,2.881 16.2922485,2.713 L16.2932485,2.682 C16.2612485,2.673 16.2302485,2.657 16.1992485,2.637 C16.1012485,2.573 16.0602485,2.483 16.0302485,2.416 C15.8102485,2.395 15.6612485,2.263 15.5572485,2.17 C15.4472485,2.079 15.3912485,2.003 15.3632485,1.921 C15.2812485,1.934 15.2012485,1.92 15.1312485,1.881 C15.0492485,1.835 14.9502485,1.739 14.9432485,1.541 C14.9402485,1.442 14.9192485,1.413 14.9192485,1.413 L14.9032485,1.118 L14.8332485,1.404 C14.7612485,1.396 14.6892485,1.387 14.6212485,1.37 C14.5422485,1.35 14.2822485,1.259 14.2862485,0.911 L14.2962485,0.908 L14.2932485,0.804 C14.3052485,0.816 14.3522485,0.852 14.3932485,0.862 L14.3982485,0.803 L14.2932485,0.802 L14.2882485,0.59 L14.3292485,0.583 C14.3312485,0.588 14.3332485,0.592 14.3352485,0.595 C14.3502485,0.615 14.3772485,0.635 14.4122485,0.649 L14.4322485,0.525 L14.4452485,0.293 C14.4192485,0.307 14.3702485,0.341 14.3392485,0.402 C14.3182485,0.442 14.3122485,0.482 14.3142485,0.517 L14.2932485,0.515 L14.1792485,0.264 L14.6722485,0 L14.8612485,0.296 C14.9442485,0.291 15.0312485,0.288 15.1202485,0.299 C15.2562485,0.316 15.3732485,0.366 15.4672485,0.405 L15.439,0.707 L15.5472485,0.436 L15.6962485,0.527 L15.7872485,0.619 L15.7812485,0.707 L15.8972485,0.736 L16.0192485,0.894 C16.0292485,0.913 16.0312485,0.918 16.1502485,0.943 L16.2352485,0.961 C16.4052485,1.002 16.5412485,1.088 16.6522485,1.167 C16.7392485,1.228 16.8012485,1.323 16.8272485,1.432 L16.8552485,1.426 C17.0412485,1.407 17.4942485,1.418 17.6132485,2.1 C17.6202485,2.137 17.6342485,2.163 17.6632485,2.214 L17.7652485,2.331 C17.8972485,2.471 17.9332485,2.494 17.9802485,2.494 C18.1542485,2.469 18.3742485,2.559 18.4682485,2.89 C18.6302485,2.957 18.8512485,3.134 18.8482485,3.591 L18.5392485,3.671 L18.7682485,3.672 C18.7572485,3.668 18.7462485,3.665 18.7342485,3.663 C18.7482485,3.665 18.7632485,3.668 18.7792485,3.672 L18.8462485,3.673 L18.8462485,3.694 C18.9472485,3.738 19.0612485,3.831 19.1122485,4.033 C19.2622485,4.093 19.4302485,4.204 19.5492485,4.422 C19.5862485,4.491 19.7002485,4.699 19.8152485,4.77 C19.9812485,4.873 20.1612485,5.008 20.2382485,5.303 C20.3702485,5.326 20.5772485,5.409 20.5982485,5.713 L20.7392485,5.745 L20.8032485,5.922 C21.0592485,5.919 21.2012485,6.071 21.2332485,6.249 C21.5422485,6.321 21.6842485,6.492 21.7922485,6.65 C21.8682485,6.76 22.0862485,6.869 22.1582485,6.904 C22.3872485,7.016 22.4992485,7.169 22.6042485,7.332 C22.7902485,7.371 22.8812485,7.477 22.9242485,7.573 L22.9472485,7.573 L23.0342485,7.862 L23.0322485,7.571 C23.4832485,7.561 23.6982485,7.777 23.7702485,7.931 C24.1192485,8.023 24.2132485,8.228 24.1862485,8.394 C24.1792485,8.437 24.2092485,8.473 24.3422485,8.586 L24.4782485,8.696 C24.5342485,8.725 24.5612485,8.739 24.5992485,8.744 C25.3182485,8.857 25.3352485,9.288 25.3092485,9.468 L25.3052485,9.494 C25.4282485,9.524 25.5202485,9.58 25.5812485,9.656 C25.6632485,9.762 25.7532485,9.89 25.7972485,10.049 L25.8172485,10.135 C25.8432485,10.249 25.8492485,10.251 25.8762485,10.264 L26.0072485,10.322 L26.0632485,10.484 L26.1272485,10.48 L26.3062485,10.619 L26.3442485,10.694 L26.0922485,10.877 L26.3732485,10.763 C26.4152485,10.854 26.4532485,10.938 26.4772485,11.029 C26.5882485,11.078 26.6742485,11.154 26.7302485,11.251 C26.7792485,11.246 26.8252485,11.245 26.8742485,11.244 C26.9062485,11.244 26.9422485,11.246 26.9752485,11.248 L27.1982485,11.261 L27.2662485,11.513 C27.3222485,11.504 27.3842485,11.505 27.4502485,11.529 L27.6122485,11.586 L27.6352485,11.663 C27.6822485,11.705 27.7082485,11.752 27.7212485,11.785 C27.7472485,11.848 27.7492485,11.908 27.7382485,11.962 L28.0032485,12.028 L28.0172485,12.238 C28.0192485,12.276 28.0222485,12.317 28.0212485,12.361 C28.0212485,12.398 28.0182485,12.435 28.0142485,12.472 C28.1262485,12.537 28.2012485,12.617 28.2472485,12.713 C28.3412485,12.735 28.4232485,12.768 28.4932485,12.796 L28.7262485,12.918 L28.8252485,13.012 L28.8182485,13.106 L28.9562485,13.139 C29.0932485,13.072 29.2872485,13.071 29.4682485,13.217 L29.4822485,13.197 L29.7842485,13.515 L29.9372485,13.66 L29.8942485,13.706 L29.9972485,13.778 L29.8512485,13.9 L30.0002485,14.018 L29.6912485,14.24 C29.5882485,14.313 29.4482485,14.403 29.2782485,14.444 L29.1832485,14.464 C29.1672485,14.468 29.1462485,14.473 29.1252485,14.479 L29.0442485,14.543 C28.9922485,14.621 28.9192485,14.671 28.8212485,14.699 L28.8252485,14.753 L28.6792485,14.931 L28.5832485,14.971 L28.4242485,14.719 L28.4952485,15.006 C28.4292485,15.034 28.3452485,15.069 28.2472485,15.092 C28.1972485,15.197 28.1162485,15.28 28.0142485,15.332 C28.0182485,15.37 28.0212485,15.408 28.0212485,15.446 C28.0222485,15.487 28.0192485,15.528 28.0172485,15.566 L28.0032485,15.777 L27.7382485,15.842 C27.7492485,15.896 27.7472485,15.956 27.7212485,16.02 L27.6592485,16.172 L27.5792485,16.194 C27.5352485,16.239 27.4872485,16.263 27.4522485,16.275 C27.3842485,16.3 27.3222485,16.301 27.2672485,16.291 L27.1962485,16.55 L26.8522485,16.56 C26.8112485,16.56 26.7712485,16.557 26.7312485,16.553 C26.6622485,16.66 26.5782485,16.73 26.4772485,16.775 C26.4542485,16.865 26.4182485,16.945 26.3872485,17.012 L26.0632485,16.993 L26.3442485,17.108 L26.2692485,17.224 L26.1702485,17.325 L26.0642485,17.318 L26.0272485,17.431 L25.8682485,17.544 C25.8492485,17.553 25.8432485,17.555 25.8172485,17.67 L25.7972485,17.753 C25.7542485,17.912 25.6642485,18.041 25.5822485,18.147 C25.5152485,18.229 25.4172485,18.287 25.3052485,18.312 L25.3092485,18.339 C25.3352485,18.516 25.3182485,18.947 24.6002485,19.06 C24.5612485,19.066 24.5342485,19.08 24.4802485,19.107 L24.3462485,19.215 C24.2102485,19.329 24.1792485,19.366 24.1862485,19.408 C24.2142485,19.577 24.1172485,19.785 23.7702485,19.873 C23.6982485,20.027 23.4832485,20.215 23.0322485,20.234 L22.9482485,19.94 L22.9472485,20.159 C22.9522485,20.147 22.9552485,20.136 22.9572485,20.124 L22.957,20.126 L22.9533735,20.14625 Z"></path></clipPath></defs><g clip-path="url(#i0)"><polygon points="0,0 40,0 40,40 0,40 0,0" stroke="none" fill="#FFFFFF"></polygon></g><g transform="translate(5.068051485135925 6.1007999999999925)"><g clip-path="url(#i1)"><polygon points="-3.22923684e-18,0 30.0002485,0 30.0002485,28.0001017 -3.22923684e-18,28.0001017 -3.22923684e-18,0" stroke="none" fill="#59616B"></polygon></g></g></svg>