<?xml version="1.0" encoding="UTF-8"?><svg version="1.1" width="79px" height="79px" viewBox="0 0 79.0 79.0" xmlns="http://www.w3.org/2000/svg" xmlns:xlink="http://www.w3.org/1999/xlink"><defs><clipPath id="i0"><path d="M0.43390117,0.201761714 C0.59990117,-0.0202382856 0.91490117,-0.0662382856 1.13790117,0.0997617144 C1.36090117,0.265761714 1.40690117,0.581761714 1.23990117,0.804761714 C0.76690117,1.43776171 1.13990117,1.94676171 1.21890117,2.04276171 L1.27085895,2.10611708 C1.6131438,2.54946013 1.98752022,3.53676171 1.23990117,4.53676171 C0.76690117,5.16976171 1.13990117,5.67876171 1.21890117,5.77476171 L1.27085895,5.83812366 C1.6131438,6.2815531 1.98752022,7.26976171 1.23990117,8.26976171 C0.76690117,8.90276171 1.13990117,9.41176171 1.21890117,9.50776171 C1.39590117,9.71976171 1.37090117,10.0357617 1.16090117,10.2147617 C1.06590117,10.2957617 0.94890117,10.3367617 0.83290117,10.3367617 C0.69390117,10.3367617 0.55690117,10.2787617 0.45790117,10.1657617 C0.10490117,9.76276171 -0.35409883,8.72076171 0.43390117,7.66676171 C0.90690117,7.03376171 0.53390117,6.52476171 0.45390117,6.42876171 C0.10090117,6.02076171 -0.35109883,4.98376171 0.43390117,3.93376171 C0.90690117,3.30176171 0.53390117,2.79176171 0.45390117,2.69676171 C0.10090117,2.28776171 -0.35109883,1.25176171 0.43390117,0.201761714 Z"></path></clipPath><clipPath id="i1"><path d="M0.511682456,0.121777371 C0.721682456,-0.0572226293 1.03368246,-0.0372226293 1.21568246,0.170777371 C1.56868246,0.573777371 2.02768246,1.61477737 1.23968246,2.66977737 C0.766682456,3.30277737 1.13968246,3.81177737 1.21868246,3.90777737 C1.39568246,4.11977737 1.37068246,4.43577737 1.16068246,4.61477737 C1.06568246,4.69577737 0.948682456,4.73677737 0.832682456,4.73677737 C0.693682456,4.73677737 0.556682456,4.67877737 0.457682456,4.56577737 C0.104682456,4.16277737 -0.354317544,3.12077737 0.433682456,2.06677737 C0.906682456,1.43377737 0.533682456,0.924777371 0.453682456,0.828777371 C0.277682456,0.616777371 0.301682456,0.299777371 0.511682456,0.121777371 Z"></path></clipPath><clipPath id="i2"><path d="M25.6553485,0 C25.6873485,0 25.7183485,0.004 25.7503485,0.01 C25.7813485,0.016 25.8113485,0.024 25.8413485,0.036 C25.8723485,0.049 25.9003485,0.065 25.9293485,0.084 C25.9453485,0.095 25.9643485,0.099 25.9793485,0.112 C25.9913485,0.122 25.9963485,0.135 26.0063485,0.146 C26.0173485,0.156 26.0313485,0.161 26.0403485,0.173 L38.1593485,14.561 L38.1593485,8.057 L45.8203485,8.057 L45.8203485,23.656 L51.1913485,30.034 C51.3703485,30.247 51.3433485,30.565 51.1313485,30.744 C51.0363485,30.823 50.9213485,30.862 50.8073485,30.862 C50.6633485,30.862 50.5203485,30.801 50.4213485,30.683 L25.6553485,1.279 L0.889348521,30.683 C0.789348521,30.801 0.647348521,30.862 0.503348521,30.862 C0.389348521,30.862 0.273348521,30.823 0.179348521,30.744 C-0.0336514795,30.565 -0.0606514795,30.247 0.118348521,30.034 L25.2703485,0.173 C25.2793485,0.161 25.2933485,0.156 25.3043485,0.146 C25.3143485,0.135 25.3193485,0.122 25.3303485,0.112 C25.3463485,0.099 25.3653485,0.095 25.3813485,0.084 C25.4103485,0.065 25.4383485,0.049 25.4693485,0.036 C25.4993485,0.024 25.5293485,0.016 25.5603485,0.01 C25.5923485,0.004 25.6233485,0 25.6553485,0 Z M44.8123485,9.064 L39.1663485,9.064 L39.1663485,15.757 L44.8123485,22.46 L44.8123485,9.064 Z"></path></clipPath><clipPath id="i3"><path d="M18.722416,0.182884065 C20.409416,-0.223115935 22.154416,0.0518840655 23.635416,0.957884065 C25.116416,1.86388407 26.154416,3.29188407 26.561416,4.97888407 C27.400416,8.46288407 25.249416,11.9798841 21.765416,12.8188841 C21.256416,12.9418841 20.746416,12.9998841 20.243416,12.9998841 C20.068416,12.9998841 19.894416,12.9918841 19.721416,12.9778841 C20.006416,13.2748841 20.289416,13.5988841 20.566416,13.9638841 L20.5964026,14.0054078 C20.717288,14.1773201 21.1632395,14.8502958 21.499416,15.8058841 C21.840416,15.6148841 22.211416,15.4968841 22.590416,15.4538841 C22.465416,14.9348841 22.397416,14.4038841 22.397416,13.8638841 C22.397416,12.3518841 27.567416,12.2338841 29.151416,12.2338841 C29.737416,12.2338841 30.815416,12.2508841 31.940416,12.3478841 L34.656416,7.08688407 C34.783416,6.83988407 35.087416,6.74288407 35.334416,6.87088407 C35.581416,6.99788407 35.678416,7.30188407 35.550416,7.54888407 L33.011416,12.4668841 C34.547416,12.6808841 35.904416,13.0898841 35.904416,13.8638841 C35.904416,17.5878841 32.874416,20.6168841 29.151416,20.6168841 C28.674416,20.6168841 28.208416,20.5628841 27.753416,20.4678841 C28.308416,20.9328841 28.730416,21.5738841 28.913416,22.3358841 C28.968416,22.5628841 29.000416,22.7978841 29.010416,23.0308841 L29.659416,33.6318841 L30.004416,33.6218841 L30.155416,35.3068841 C30.342416,36.0168841 30.965416,36.3128841 31.991416,36.1928841 L32.038416,36.1898841 C33.450416,36.1518841 34.522416,36.5038841 35.258416,37.2238841 C35.707416,37.6618841 36.021416,38.2388841 36.214416,38.9548841 C38.934416,39.2358841 41.655416,39.5948841 44.308416,40.0278841 C44.583416,40.0728841 44.769416,40.3318841 44.724416,40.6058841 C44.684416,40.8528841 44.470416,41.0288841 44.228416,41.0288841 C44.201416,41.0288841 44.174416,41.0268841 44.146416,41.0218841 C41.605416,40.6068841 39.001416,40.2618841 36.396416,39.9878841 C36.424416,40.2708841 36.442416,40.5648841 36.442416,40.8828841 L36.442416,41.3768841 L21.872416,41.6518841 L21.893416,39.2348841 C13.008416,39.2688841 5.418416,40.1878841 0.583415999,40.9638841 C0.556415999,40.9678841 0.529415999,40.9698841 0.503415999,40.9698841 C0.259415999,40.9698841 0.0464159992,40.7938841 0.00641599922,40.5458841 C-0.0375840008,40.2718841 0.149415999,40.0128841 0.423415999,39.9688841 C2.860416,39.5778841 5.993416,39.1508841 9.634416,38.8168841 C7.825416,38.0068841 6.321416,36.4838841 5.583416,34.5038841 C3.750416,33.9718841 3.347416,32.4408841 3.410416,31.6328841 L5.230416,18.1498841 C5.531416,14.3578841 6.582416,11.9378841 11.058416,10.8718841 L12.280416,10.5668841 C12.286416,10.5638841 13.459416,10.1998841 15.091416,10.4578841 C14.551416,9.75688407 14.145416,8.93588407 13.925416,8.02288407 C13.519416,6.33488407 13.794416,4.58988407 14.700416,3.10888407 C15.606416,1.62888407 17.034416,0.589884065 18.722416,0.182884065 Z M29.085416,34.6558841 L22.939416,34.8338841 L22.888416,40.6258841 L35.422416,40.3888841 C35.360416,39.2538841 35.074416,38.4518841 34.554416,37.9438841 C34.016416,37.4178841 33.214416,37.1728841 32.085416,37.1958841 C29.881416,37.4468841 29.310416,36.1008841 29.167416,35.5088841 L29.155416,35.4358841 L29.085416,34.6558841 Z M27.934416,22.5718841 C27.615416,21.2458841 26.302416,20.4208841 25.013416,20.7318841 C24.659416,20.8178841 24.340416,20.9768841 24.062416,21.2068841 C24.026416,21.2368841 23.984416,21.2528841 23.944416,21.2708841 L15.126416,28.7398841 C14.744416,29.0768841 14.285416,29.3168841 13.793416,29.4358841 C13.561416,29.4918841 13.330416,29.5178841 13.102416,29.5198841 C8.205416,30.1678841 6.794416,34.1318841 6.736416,34.3008841 L6.668416,34.5008841 C7.890416,37.2888841 10.898416,38.9238841 13.797416,38.3348841 L15.305416,37.7658841 C15.800416,37.4848841 16.305416,37.1108841 16.826416,36.6328841 L23.139416,30.5178841 L23.356416,33.8138841 L28.653416,33.6608841 L28.005416,23.0808841 C27.997416,22.9028841 27.973416,22.7348841 27.934416,22.5718841 Z M21.918416,36.3488841 L16.611416,38.3498841 C18.313416,38.2778841 20.080416,38.2338841 21.902416,38.2268841 L21.918416,36.3488841 Z M22.277416,32.7548841 L18.249416,36.6558841 L21.928416,35.2698841 L21.940416,33.8548841 L22.349416,33.8428841 L22.277416,32.7548841 Z M19.761416,14.5678841 C16.535416,10.3258841 12.718416,11.4828841 12.557416,11.5348841 L11.296416,11.8508841 C7.736416,12.6978841 6.554416,14.1948841 6.231416,18.2568841 L4.411416,31.7398841 C4.411176,31.7449641 4.410896,31.7519065 4.41068045,31.7605802 L4.4109961,31.8323499 C4.4211168,32.1639945 4.563536,33.2067241 5.950416,33.5648841 C6.406416,32.5528841 7.867416,29.9878841 11.231416,28.9118841 C10.662416,28.4928841 10.230416,27.8848841 10.052416,27.1468841 C9.975416,26.8288841 9.953416,26.5048841 9.978416,26.1828841 C9.977416,26.1728841 9.972416,26.1648841 9.973416,26.1548841 L10.136416,16.6678841 C10.141416,16.3928841 10.365416,16.1728841 10.640416,16.1728841 C10.926416,16.1778841 11.148416,16.4068841 11.143416,16.6848841 L11.073416,20.7158841 L15.677416,19.0158841 L16.225416,15.4358841 C16.267416,15.1608841 16.525416,14.9758841 16.799416,15.0148841 C17.074416,15.0568841 17.262416,15.3138841 17.220416,15.5888841 L16.547416,19.9898841 L20.650416,16.4558841 C20.324416,15.3488841 19.767416,14.5758841 19.761416,14.5678841 Z M24.265416,16.9938841 C23.524416,16.2528841 22.318416,16.2528841 21.578416,16.9938841 C21.565416,17.0068841 21.549416,17.0108841 21.536416,17.0218841 L15.130416,22.5398841 C15.034416,22.6218841 14.918416,22.6618841 14.801416,22.6618841 C14.660416,22.6618841 14.519416,22.6028841 14.420416,22.4868841 C14.238416,22.2758841 14.262416,21.9578841 14.472416,21.7768841 L15.374416,20.9998841 L15.503416,20.1538841 L11.357416,21.6848841 C11.299416,21.7058841 11.240416,21.7158841 11.182416,21.7158841 C11.139416,21.7158841 11.097416,21.7068841 11.056416,21.6968841 L10.979416,26.1718841 C10.979416,26.1768841 10.977416,26.1798841 10.976416,26.1838841 C10.976416,26.1998841 10.983416,26.2128841 10.981416,26.2288841 C10.960416,26.4558841 10.976416,26.6858841 11.031416,26.9118841 C11.301416,28.0338841 12.437416,28.7248841 13.557416,28.4568841 C13.894416,28.3758841 14.208416,28.2108841 14.464416,27.9808841 C14.473416,27.9748841 14.473416,27.9728841 14.476416,27.9708841 L24.270416,19.6738841 C25.005416,18.9328841 25.004416,17.7328841 24.265416,16.9938841 Z M23.491416,14.8588841 C23.531416,15.0858841 23.588416,15.3078841 23.655416,15.5288841 C24.139416,15.6548841 24.598416,15.9038841 24.977416,16.2818841 C25.595416,16.8998841 25.873416,17.7288841 25.817416,18.5398841 C26.793416,19.2378841 27.939416,19.6098841 29.151416,19.6098841 C31.979416,19.6098841 34.330416,17.5548841 34.804416,14.8608841 C33.197416,15.4338841 30.274416,15.4938841 29.151416,15.4938841 L28.9695269,15.4933772 C27.7368235,15.4865966 25.017116,15.4051341 23.491416,14.8588841 Z M29.151416,13.2418841 C26.230416,13.2418841 24.351416,13.5938841 23.646416,13.8638841 C24.351416,14.1338841 26.230416,14.4858841 29.151416,14.4858841 C29.767416,14.4858841 30.335416,14.4698841 30.858416,14.4428841 L31.437416,13.3208841 C30.766416,13.2718841 30.002416,13.2418841 29.151416,13.2418841 Z M32.516416,13.4248841 L32.036416,14.3558841 C33.336416,14.2278841 34.220416,14.0308841 34.655416,13.8638841 C34.276416,13.7188841 33.556416,13.5498841 32.516416,13.4248841 Z M20.253416,1.00688407 C19.822416,1.00688407 19.388416,1.05888407 18.958416,1.16188407 C17.531416,1.50588407 16.324416,2.38388407 15.559416,3.63488407 C14.793416,4.88588407 14.561416,6.36088407 14.904416,7.78688407 C15.613416,10.7308841 18.583416,12.5498841 21.529416,11.8398841 C24.473416,11.1308841 26.291416,8.15888407 25.582416,5.21488407 C25.239416,3.78888407 24.360416,2.58188407 23.109416,1.81688407 C22.236416,1.28188407 21.253416,1.00688407 20.253416,1.00688407 Z"></path></clipPath><clipPath id="i4"><path d="M0.457893345,0.171604566 C0.640893345,-0.0373954342 0.959893345,-0.0583954342 1.16789335,0.124604566 C1.37589335,0.306604566 1.39889335,0.621604566 1.21889335,0.830604566 C1.13789335,0.928604566 0.767893345,1.43660457 1.23989335,2.06860457 L1.34362944,2.21844951 C1.98107248,3.2159379 1.55513144,4.17498552 1.21989335,4.56260457 C1.13789335,4.66060457 0.767893345,5.16960457 1.23989335,5.80060457 C2.02689335,6.85560457 1.56789335,7.89660457 1.21589335,8.29960457 C1.11589335,8.41360457 0.976893345,8.47160457 0.836893345,8.47160457 C0.718893345,8.47160457 0.600893345,8.43060457 0.504893345,8.34760457 C0.296893345,8.16560457 0.274893345,7.84960457 0.453893345,7.64060457 C0.534893345,7.54260457 0.904893345,7.03460457 0.432893345,6.40360457 L0.329286823,6.25290237 C-0.307378763,5.2563642 0.11765525,4.29822361 0.452893345,3.91060457 C0.534893345,3.81060457 0.904893345,3.30260457 0.432893345,2.67060457 C-0.354106655,1.61560457 0.104893345,0.574604566 0.457893345,0.171604566 Z"></path></clipPath><clipPath id="i5"><path d="M0.457682456,0.171604566 C0.640682456,-0.0373954342 0.959682456,-0.0583954342 1.16868246,0.124604566 C1.37668246,0.305604566 1.39868246,0.621604566 1.21868246,0.830604566 C1.13868246,0.927604566 0.768682456,1.43660457 1.23968246,2.06760457 C2.02768246,3.12260457 1.56868246,4.16360457 1.21568246,4.56760457 C1.11568246,4.68060457 0.976682456,4.73960457 0.836682456,4.73960457 C0.718682456,4.73960457 0.600682456,4.69860457 0.504682456,4.61460457 C0.297682456,4.43260457 0.274682456,4.11760457 0.454682456,3.90760457 C0.535682456,3.81060457 0.905682456,3.30260457 0.433682456,2.67060457 C-0.354317544,1.61660457 0.104682456,0.574604566 0.457682456,0.171604566 Z"></path></clipPath></defs><g transform="translate(0.0001999999999497959 0.0)"><g transform="translate(44.452498830214836 28.590438285615846)"><g clip-path="url(#i0)"><polygon points="-2.42923635e-15,-6.37513968e-15 1.67373511,-6.37513968e-15 1.67373511,10.3367617 -2.42923635e-15,10.3367617 -2.42923635e-15,-6.37513968e-15" stroke="none" fill="#FFFFFF"></polygon></g></g><g transform="translate(46.71141754357461 34.19042262928292)"><g clip-path="url(#i1)"><polygon points="1.55198284e-15,-1.11368818e-15 1.67336491,-1.11368818e-15 1.67336491,4.73677737 1.55198284e-15,4.73677737 1.55198284e-15,-1.11368818e-15" stroke="none" fill="#FFFFFF"></polygon></g></g><g transform="translate(13.747751479495605 9.170200000000023)"><g clip-path="url(#i2)"><polygon points="4.62894999e-18,0 51.3097847,0 51.3097847,30.862 4.62894999e-18,30.862 4.62894999e-18,0" stroke="none" fill="#FFFFFF"></polygon></g></g><g transform="translate(17.009784000776904 28.307315934539588)"><g clip-path="url(#i3)"><polygon points="3.91256272e-17,-3.56172097e-15 44.7311282,-3.56172097e-15 44.7311282,41.6518841 3.91256272e-17,41.6518841 3.91256272e-17,-3.56172097e-15" stroke="none" fill="#FFFFFF"></polygon></g></g><g transform="translate(55.927206654535325 7.104895434194418)"><g clip-path="url(#i4)"><polygon points="3.2630256e-15,-2.22386371e-15 1.67300352,-2.22386371e-15 1.67300352,8.47160457 3.2630256e-15,8.47160457 3.2630256e-15,-2.22386371e-15" stroke="none" fill="#FFFFFF"></polygon></g></g><g transform="translate(53.66771754357467 10.837795434194447)"><g clip-path="url(#i5)"><polygon points="1.53663282e-15,-7.08420869e-15 1.67336491,-7.08420869e-15 1.67336491,4.73960457 1.53663282e-15,4.73960457 1.53663282e-15,-7.08420869e-15" stroke="none" fill="#FFFFFF"></polygon></g></g></g></svg>