<?xml version="1.0" encoding="UTF-8"?><svg version="1.1" width="368px" height="113px" viewBox="0 0 368.0 113.0" xmlns="http://www.w3.org/2000/svg" xmlns:xlink="http://www.w3.org/1999/xlink"><defs><clipPath id="i0"><path d="M13.025,0 L13.025,3.334 L3.909,3.334 L3.909,10.265 L11.908,10.265 L11.908,13.616 L3.909,13.616 L3.909,24.144 L0,24.144 L0,0 L13.025,0 Z"></path></clipPath><clipPath id="i1"><path d="M8.212,0 C9.219,0 10.12,0.097 10.914,0.288 C11.708,0.48 12.409,0.776 13.016,1.175 C13.624,1.575 14.147,2.081 14.585,2.695 C15.023,3.308 15.376,4.031 15.644,4.863 C15.913,5.695 16.11,6.645 16.236,7.712 C16.362,8.78 16.425,9.976 16.425,11.301 L16.425,13.798 C16.425,15.78 16.277,17.483 15.981,18.906 C15.685,20.329 15.215,21.498 14.569,22.412 C13.923,23.327 13.079,24.003 12.039,24.441 C10.999,24.878 9.723,25.098 8.212,25.098 C7.205,25.098 6.304,25.002 5.51,24.811 C4.716,24.619 4.013,24.324 3.4,23.923 C2.786,23.524 2.266,23.021 1.84,22.412 C1.412,21.805 1.064,21.082 0.797,20.244 C0.528,19.407 0.328,18.452 0.197,17.378 C0.065,16.305 0,15.112 0,13.798 L0,11.301 C0,9.32 0.145,7.617 0.435,6.193 C0.725,4.769 1.196,3.601 1.847,2.686 C2.499,1.772 3.347,1.096 4.393,0.658 C5.439,0.22 6.712,0 8.212,0 Z M8.212,3.22 C7.686,3.22 7.218,3.285 6.808,3.417 C6.397,3.548 6.039,3.745 5.732,4.008 C5.425,4.271 5.171,4.603 4.968,5.002 C4.765,5.402 4.601,5.87 4.475,6.407 C4.349,6.943 4.259,7.554 4.205,8.238 C4.15,8.922 4.122,9.675 4.122,10.496 L4.122,14.603 C4.122,15.435 4.15,16.191 4.205,16.869 C4.259,17.548 4.349,18.156 4.475,18.693 C4.601,19.229 4.765,19.697 4.968,20.097 C5.171,20.496 5.425,20.827 5.732,21.09 C6.039,21.353 6.397,21.55 6.808,21.681 C7.218,21.813 7.686,21.878 8.212,21.878 C8.749,21.878 9.222,21.813 9.633,21.681 C10.044,21.55 10.399,21.353 10.701,21.09 C11.002,20.827 11.257,20.496 11.465,20.097 C11.673,19.697 11.84,19.229 11.966,18.693 C12.091,18.156 12.181,17.548 12.236,16.869 C12.291,16.191 12.319,15.435 12.319,14.603 L12.319,10.496 C12.319,9.675 12.291,8.922 12.236,8.238 C12.181,7.554 12.091,6.943 11.966,6.407 C11.84,5.87 11.673,5.402 11.465,5.002 C11.257,4.603 11.002,4.271 10.701,4.008 C10.399,3.745 10.046,3.548 9.641,3.417 C9.236,3.285 8.759,3.22 8.212,3.22 Z"></path></clipPath><clipPath id="i2"><path d="M3.909,0 L3.909,16.392 C3.909,17.192 3.975,17.898 4.106,18.511 C4.238,19.124 4.451,19.639 4.746,20.055 C5.042,20.472 5.428,20.786 5.905,20.999 C6.381,21.213 6.964,21.32 7.654,21.32 C8.344,21.32 8.929,21.213 9.411,20.999 C9.893,20.786 10.282,20.472 10.577,20.055 C10.873,19.639 11.084,19.124 11.21,18.511 C11.335,17.898 11.399,17.192 11.399,16.392 L11.399,0 L15.308,0 L15.308,16.507 C15.308,17.898 15.158,19.103 14.856,20.12 C14.555,21.139 14.092,21.983 13.468,22.651 C12.844,23.319 12.05,23.814 11.086,24.137 C10.123,24.46 8.979,24.621 7.654,24.621 C6.328,24.621 5.184,24.46 4.221,24.137 C3.257,23.814 2.466,23.319 1.847,22.651 C1.229,21.983 0.766,21.139 0.459,20.12 C0.153,19.103 0,17.898 0,16.507 L0,0 L3.909,0 Z"></path></clipPath><clipPath id="i3"><path d="M5.108,0 L12.105,19.053 L12.171,19.053 L11.94,12.302 L11.94,0 L15.604,0 L15.604,24.145 L10.512,24.145 L3.498,5.142 L3.465,5.142 L3.679,11.858 L3.679,24.145 L0,24.145 L0,0 L5.108,0 Z"></path></clipPath><clipPath id="i4"><path d="M6.209,0 C7.304,0 8.29,0.096 9.166,0.288 C10.041,0.48 10.813,0.778 11.481,1.183 C12.149,1.588 12.727,2.1 13.214,2.718 C13.701,3.337 14.101,4.072 14.413,4.919 C14.725,5.769 14.955,6.738 15.103,7.828 C15.25,8.916 15.325,10.14 15.325,11.497 L15.325,12.664 C15.325,14 15.25,15.216 15.103,16.31 C14.955,17.406 14.725,18.377 14.413,19.226 C14.101,20.075 13.701,20.808 13.214,21.427 C12.727,22.045 12.149,22.56 11.481,22.971 C10.813,23.381 10.041,23.68 9.166,23.866 C8.29,24.052 7.304,24.145 6.209,24.145 L0,24.145 L0,0 L6.209,0 Z M5.979,3.252 L3.91,3.252 L3.91,20.893 L5.979,20.893 C6.625,20.893 7.203,20.838 7.711,20.729 C8.221,20.62 8.669,20.433 9.059,20.17 C9.447,19.908 9.779,19.571 10.052,19.16 C10.326,18.749 10.547,18.248 10.717,17.658 C10.887,17.066 11.01,16.384 11.087,15.613 C11.164,14.84 11.202,13.951 11.202,12.943 L11.202,11.218 C11.202,10.211 11.164,9.319 11.087,8.541 C11.01,7.764 10.887,7.08 10.717,6.488 C10.547,5.897 10.326,5.399 10.052,4.994 C9.779,4.588 9.447,4.251 9.059,3.984 C8.669,3.715 8.221,3.527 7.711,3.417 C7.203,3.308 6.625,3.252 5.979,3.252 Z"></path></clipPath><clipPath id="i5"><path d="M11.432,0 L17.953,24.144 L14.011,24.144 L12.335,17.509 L5.601,17.509 L3.926,24.144 L0,24.144 L6.521,0 L11.432,0 Z M8.985,4.04 L8.935,4.04 L6.389,14.24 L11.563,14.24 L8.985,4.04 Z"></path></clipPath><clipPath id="i6"><path d="M15.751,0 L15.751,3.334 L9.822,3.334 L9.822,24.145 L5.929,24.145 L5.929,3.334 L0,3.334 L0,0 L15.751,0 Z"></path></clipPath><clipPath id="i7"><path d="M367.322,0 L367.322,112.5 L0,112.5 L0,0 L367.322,0 Z"></path></clipPath><clipPath id="i8"><path d="M3.909,0 L3.909,24.145 L0,24.145 L0,0 L3.909,0 Z"></path></clipPath><clipPath id="i9"><path d="M8.212,0 C9.219,0 10.12,0.097 10.914,0.288 C11.708,0.48 12.409,0.776 13.016,1.175 C13.624,1.575 14.147,2.081 14.585,2.695 C15.023,3.308 15.376,4.031 15.644,4.863 C15.913,5.695 16.11,6.645 16.236,7.712 C16.362,8.78 16.425,9.976 16.425,11.301 L16.425,13.798 C16.425,15.78 16.277,17.483 15.981,18.906 C15.685,20.329 15.215,21.498 14.569,22.412 C13.923,23.327 13.079,24.003 12.039,24.441 C10.999,24.878 9.723,25.098 8.212,25.098 C7.205,25.098 6.304,25.002 5.51,24.811 C4.716,24.619 4.013,24.324 3.4,23.923 C2.786,23.524 2.266,23.021 1.84,22.412 C1.412,21.805 1.064,21.082 0.797,20.244 C0.528,19.407 0.328,18.452 0.197,17.378 C0.065,16.305 0,15.112 0,13.798 L0,11.301 C0,9.32 0.145,7.617 0.435,6.193 C0.725,4.769 1.196,3.601 1.847,2.686 C2.499,1.772 3.347,1.096 4.393,0.658 C5.439,0.22 6.712,0 8.212,0 Z M8.212,3.22 C7.686,3.22 7.218,3.285 6.808,3.417 C6.397,3.548 6.039,3.745 5.732,4.008 C5.425,4.271 5.171,4.603 4.968,5.002 C4.765,5.402 4.601,5.87 4.475,6.407 C4.349,6.943 4.259,7.554 4.205,8.238 C4.15,8.922 4.122,9.675 4.122,10.496 L4.122,14.603 C4.122,15.435 4.15,16.191 4.205,16.869 C4.259,17.548 4.349,18.156 4.475,18.693 C4.601,19.229 4.765,19.697 4.968,20.097 C5.171,20.496 5.425,20.827 5.732,21.09 C6.039,21.353 6.397,21.55 6.808,21.681 C7.218,21.813 7.686,21.878 8.212,21.878 C8.749,21.878 9.222,21.813 9.633,21.681 C10.044,21.55 10.399,21.353 10.701,21.09 C11.002,20.827 11.257,20.496 11.465,20.097 C11.673,19.697 11.84,19.229 11.966,18.693 C12.091,18.156 12.181,17.548 12.236,16.869 C12.291,16.191 12.319,15.435 12.319,14.603 L12.319,10.496 C12.319,9.675 12.291,8.922 12.236,8.238 C12.181,7.554 12.091,6.943 11.966,6.407 C11.84,5.87 11.673,5.402 11.465,5.002 C11.257,4.603 11.002,4.271 10.701,4.008 C10.399,3.745 10.046,3.548 9.641,3.417 C9.236,3.285 8.759,3.22 8.212,3.22 Z"></path></clipPath><clipPath id="i10"><path d="M5.108,0 L12.105,19.053 L12.171,19.053 L11.941,12.302 L11.941,0 L15.604,0 L15.604,24.145 L10.512,24.145 L3.499,5.142 L3.466,5.142 L3.679,11.858 L3.679,24.145 L0,24.145 L0,0 L5.108,0 Z"></path></clipPath><clipPath id="i11"><path d="M7.342,0 C8.459,0 9.461,0.131 10.348,0.394 C11.235,0.657 11.996,1.082 12.631,1.667 C13.266,2.252 13.753,3.002 14.093,3.917 C14.432,4.832 14.607,5.94 14.618,7.243 L10.759,7.243 C10.748,6.411 10.646,5.721 10.455,5.173 C10.263,4.626 10.003,4.191 9.675,3.868 C9.346,3.545 8.971,3.323 8.55,3.203 C8.128,3.083 7.692,3.022 7.244,3.022 C6.97,3.022 6.699,3.046 6.431,3.096 C6.162,3.145 5.908,3.222 5.667,3.326 C5.426,3.43 5.207,3.564 5.01,3.728 C4.813,3.893 4.638,4.095 4.484,4.336 C4.331,4.577 4.213,4.853 4.131,5.166 C4.049,5.477 4.008,5.831 4.008,6.225 L4.008,6.356 C4.008,6.816 4.071,7.227 4.197,7.588 C4.323,7.95 4.506,8.278 4.747,8.574 C4.988,8.87 5.283,9.129 5.634,9.354 C5.984,9.579 6.389,9.773 6.849,9.937 L9.74,10.971 C10.572,11.267 11.325,11.612 11.999,12.006 C12.672,12.401 13.252,12.879 13.74,13.444 C14.227,14.008 14.599,14.667 14.856,15.422 C15.114,16.178 15.243,17.065 15.243,18.083 L15.243,18.182 C15.243,18.917 15.166,19.6 15.013,20.235 C14.859,20.871 14.638,21.443 14.348,21.952 C14.057,22.461 13.693,22.911 13.255,23.298 C12.817,23.688 12.322,24.016 11.768,24.284 C11.216,24.552 10.599,24.754 9.921,24.892 C9.242,25.029 8.514,25.097 7.736,25.097 C6.477,25.097 5.368,24.933 4.41,24.604 C3.452,24.276 2.65,23.786 2.004,23.134 C1.358,22.483 0.865,21.675 0.526,20.711 C0.186,19.749 0.011,18.637 0,17.377 L3.877,17.377 C3.888,18.231 3.994,18.959 4.197,19.562 C4.399,20.165 4.673,20.652 5.018,21.024 C5.363,21.396 5.765,21.667 6.225,21.836 C6.685,22.006 7.172,22.091 7.687,22.091 C8.015,22.091 8.333,22.073 8.639,22.034 C8.946,21.996 9.234,21.918 9.502,21.804 C9.77,21.689 10.022,21.547 10.258,21.377 C10.493,21.208 10.698,20.989 10.874,20.72 C11.049,20.452 11.182,20.134 11.276,19.767 C11.369,19.401 11.416,18.987 11.416,18.527 L11.416,18.445 C11.416,17.898 11.345,17.421 11.202,17.016 C11.059,16.611 10.851,16.252 10.578,15.94 C10.304,15.628 9.97,15.36 9.576,15.135 C9.181,14.911 8.733,14.7 8.229,14.502 L5.338,13.468 C4.55,13.184 3.841,12.85 3.211,12.466 C2.581,12.083 2.042,11.618 1.594,11.071 C1.144,10.523 0.8,9.879 0.558,9.14 C0.318,8.401 0.197,7.544 0.197,6.57 L0.197,6.406 C0.197,5.749 0.277,5.132 0.435,4.557 C0.594,3.983 0.821,3.455 1.117,2.973 C1.413,2.491 1.774,2.069 2.201,1.708 C2.628,1.346 3.104,1.041 3.63,0.788 C4.156,0.537 4.733,0.342 5.363,0.206 C5.993,0.069 6.652,0 7.342,0 Z"></path></clipPath><clipPath id="i12"><path d="M12.492,0 L12.492,1.195 C10.663,1.195 9.076,3.067 9.076,6.017 L9.076,29.05 C9.076,33.248 9.507,36.881 13.173,36.881 L13.478089,36.8824131 C13.6811049,36.8841561 13.883273,36.8872182 14.0840272,36.8899045 L14.3840274,36.8934403 C17.5712099,36.9236296 20.324,36.6406667 20.324,29.102 L20.324,6.017 C20.324,3.067 18.738,1.195 16.907,1.195 L16.907,0 L25.435,0 L25.435,1.195 C23.612,1.195 22.026,3.067 22.026,6.017 L22.026,28.931 C22.026,39.038 18.284,39.361 12.185,39.361 C6.089,39.361 3.487,35.788 3.487,30.974 L3.487,6.017 C3.487,3.067 1.83,1.195 0,1.195 L0,0 L12.492,0 Z"></path></clipPath><clipPath id="i13"><path d="M12.292,0 L12.292,1.195 C10.463,1.195 8.943,3.067 8.943,6.017 L8.943,29.05 C8.943,33.248 9.375,36.881 13.04,36.881 L13.34517,36.8824131 C13.4467042,36.8832846 13.5480257,36.8844859 13.6490638,36.885805 L13.9512569,36.8899045 L14.2513251,36.8934403 C17.4392099,36.9236296 20.192,36.6406667 20.192,29.102 L20.192,6.017 C20.192,3.067 18.739,1.195 16.907,1.195 L16.907,0 L25.169,0 L25.169,1.195 C23.346,1.195 21.893,3.067 21.893,6.017 L21.893,28.931 C21.893,39.038 18.15,39.361 12.051,39.361 C5.955,39.361 3.353,35.788 3.353,30.974 L3.353,6.017 C3.353,3.067 1.831,1.195 0,1.195 L0,0 L12.292,0 Z"></path></clipPath><clipPath id="i14"><path d="M14.004,0 C17.598,0 20.107,0.814 21.67,2.831 C23.234,4.849 24.317,8.912 24.651,15.575 C24.896,22.299 24.686,26.669 22.933,32.029 C21.14,37.19 18.233,38.639 15.7,38.639 L0,38.639 L0,37.453 C1.834,37.453 3.353,35.595 3.353,32.641 L3.353,6.017 C3.353,3.068 1.834,1.195 0,1.195 L0,0 Z M12.322,1.714 C9.742,1.714 8.941,2.489 8.941,5.672 L8.941,33.317 C8.941,36.501 9.014,36.71 10.453,36.842 C12.21,37.004 14.359,36.765 14.858,36.629 C17.9373265,35.786551 18.9312337,30.4305706 19.1284688,29.1315334 L19.1585549,28.9217938 C19.1649975,28.8735681 19.168,28.848 19.168,28.848 C19.762,21.113 20.106,10.937 17.977,5.466 C16.907,2.633 15.51,1.714 12.322,1.714 Z"></path></clipPath><clipPath id="i15"><path d="M20.39,0 L20.39,7.404 L19.005,7.404 C18.653,5.474 18.368,2.155 12.851,1.93 L10.513,1.814 C9.249,1.759 9.009,2.27 9.009,5.169 L9.009,18.164 C13.048,17.825 13.584,17.553 14.458,12.514 L15.544,12.514 L15.544,25.805 L14.458,25.805 C13.427,20.48 13.048,20.491 9.009,20.15 L9.00961945,33.1604446 C9.02324151,35.8457769 9.27436364,36.6017879 11.014,36.819 C13.779,36.912 18.806,37.88 20.625,31.634 L22.189,31.634 L20.644,38.639 L0,38.639 L0,37.453 C1.829,37.453 3.417,35.595 3.417,32.641 L3.417,6.017 C3.417,3.067 1.829,1.195 0,1.195 L0,0 L20.39,0 Z"></path></clipPath><clipPath id="i16"><path d="M20.327,0 L20.327,7.404 L18.939,7.404 C18.589,5.472 18.304,2.155 12.784,1.93 L10.449,1.814 C9.187,1.759 8.943,2.27 8.943,5.169 L8.943,18.164 C12.982,17.825 13.516,17.554 14.394,12.514 L15.478,12.514 L15.478,25.805 L14.394,25.805 C13.362,20.48 12.982,20.493 8.943,20.15 L8.943,32.903 C8.943,35.798 9.156,36.595 10.947,36.819 C13.713,36.913 18.742,37.883 20.559,31.634 L22.123,31.634 L20.579,38.639 L0,38.639 L0,37.453 C1.832,37.453 3.351,35.595 3.351,32.641 L3.351,6.017 C3.351,3.067 1.832,1.195 0,1.195 L0,0 L20.327,0 Z"></path></clipPath><clipPath id="i17"><path d="M28.029,0 L28.0299596,2.0226761 C28.030003,2.11423016 28.0300476,2.2085436 28.0300935,2.3055435 L28.030872,3.952912 C28.0309296,4.0749536 28.0309883,4.19931708 28.031048,4.32592952 L28.0318125,5.9485625 C28.03188,6.092 28.0319484,6.2373948 28.0320177,6.38467398 L28.032888,8.237808 C28.0329636,8.3989956 28.0330399,8.56177592 28.0331169,8.72607604 L28.0338275,10.2438431 C28.0339082,10.4166058 28.0339896,10.5906696 28.0340715,10.7659615 L28.0348222,12.3747796 C28.034907,12.5567841 28.0349923,12.739798 28.0350779,12.9237484 L28.0358584,14.6026178 C28.0359461,14.7915308 28.0360341,14.9811615 28.0361223,15.171437 L28.0369223,16.8993578 C28.0370117,17.092846 28.0371013,17.2867602 28.037191,17.4810275 L28.038,19.237 C28.03809,19.43273 28.03818,19.6285944 28.03827,19.8245203 L28.038809,21.0002301 C28.0388987,21.1961102 28.0389883,21.391906 28.0390777,21.5875446 L28.0398777,23.3420766 C28.0399659,23.5361153 28.0400539,23.729778 28.0401416,23.9229918 L28.0409221,25.647826 C28.0410077,25.83769 28.041093,26.0268863 28.0411778,26.215342 L28.0419285,27.8894785 C28.0420104,28.0728344 28.0420918,28.255231 28.0421725,28.4365953 L28.0428831,30.0390344 C28.0429601,30.2135489 28.0430364,30.3868124 28.043112,30.558752 L28.0439823,32.5538124 C28.0440516,32.713994 28.04412,32.87256 28.0441875,33.0294375 L28.044952,34.8262529 C28.0450117,34.9684557 28.0450704,35.1086784 28.045128,35.246848 L28.0459065,37.1562965 C28.0459524,37.2721124 28.045997,37.3855106 28.0460404,37.4964183 L28.0469946,40.3988987 L28.047,40.49 C28.047,45.2678462 29.9496746,45.7665917 31.920056,45.8150505 L32.1665736,45.8190396 C32.2487751,45.8197722 32.3309615,45.82 32.413,45.82 L32.413,47.007 L17.417,47.007 L17.417,45.82 L17.7091069,45.8186684 C20.1145533,45.7942899 21.788,45.3832692 21.788,40.49 L21.788,32.119 L11.345,32.119 C11.345,32.119 10.3749081,34.4797355 9.40290308,36.8413766 L9.20876344,37.3130177 C8.85384586,38.1751514 8.50734884,39.0162558 8.217,39.72 C7.081,42.47 7.767,45.82 10.056,45.82 L10.056,47.007 L0,47.007 L0,45.82 C2.792,45.82 4.64,42.621 5.953,39.709 C6.27565306,38.9960408 7.34293336,36.3648184 8.77100848,32.79772 L9.06132038,32.0721131 C10.2900497,28.9991833 11.7515609,25.3218206 13.2237289,21.6085359 L13.5771401,20.716949 C15.8741643,14.9209349 18.1538776,9.14818367 19.573,5.557 C20.47,3.292 20.21,1.225 17.409,1.225 L17.409,0 L28.029,0 Z M21.788,6.539 L12.119,30.4 L21.788,30.4 L21.788,6.539 Z"></path></clipPath><clipPath id="i18"><path d="M18.317,0 C21.602,0 23.277,2.463 23.277,5.851 L23.277,20.103 C23.277,24.351 21.278,26.219 18.703,26.219 L10.701,26.219 L10.701,40.074 C10.701,45.236 12.298,45.829 15.006,45.829 L15.006,47.015 L0.01,47.015 L0.01,45.829 C2.381,45.829 4.384,45.4 4.384,40.045 L4.384,6.487 C4.384,2.999 2.619,1.236 0,1.236 L0,0 Z M15.74,1.721 L10.701,1.721 L10.707,11.792 L10.707,14.16 L10.701,24.431 L15.74,24.431 C16.669,24.431 17.12,23.758 17.12,22.495 L17.12,3.937 C17.12,2.458 16.669,1.721 15.74,1.721 Z"></path></clipPath><clipPath id="i19"><path d="M9.855,0 L17.46,26.394 L25.235,0 L34.73,0 L34.73,1.195 C32.722,1.195 31.231,3.067 31.231,6.017 L31.231,32.641 C31.231,35.595 32.722,37.453 34.73,37.453 L34.73,38.639 L22.111,38.639 L22.111,37.453 C24.122,37.453 25.543,35.595 25.543,32.641 L25.543,4.945 L15.722,38.639 L14.793,38.639 L5.317,4.825 L5.317,32.641 C5.317,35.595 6.737,37.453 8.749,37.453 L8.749,38.639 L0.053,38.639 L0.053,37.453 C2.064,37.453 3.481,35.595 3.481,32.641 L3.481,6.127 C3.481,2.041 2.478,1.195 0,1.195 L0,0 L9.855,0 Z"></path></clipPath><clipPath id="i20"><path d="M12.6194526,0.000700102056 C12.698239,0.000933469408 12.7769228,0.00124462588 12.8554808,0.00165950117 L13.3251334,0.00560081645 C17.3011903,0.0532077562 20.8292318,0.505473684 20.8292318,4.802 C20.8292318,7.491 20.9182318,11.547 20.9182318,15.391 C20.9182318,18.96 18.3322318,19.746 16.2942318,20.224 L22.7272318,35.425 C23.7112318,37.747 24.2462318,37.453 24.6682318,37.453 L24.6682318,38.639 L20.0460444,38.6394146 C19.9210775,38.6434198 18.7803985,38.6637778 18.2052318,38.099 C17.5582318,37.467 17.2342318,36.525 17.2342318,36.525 L10.8542318,20.663 L9.01023182,20.663 L9.01023182,32.641 C9.01023182,35.595 10.6012318,37.453 12.4202318,37.453 L12.4202318,38.639 L0.0192318209,38.639 L0.0192318209,37.453 L0.150208669,37.4478867 C1.56181676,37.3390349 3.41423182,35.4996667 3.41423182,32.641 L3.41423182,6.017 C3.41423182,3.067 1.89923182,1.195 0.0742318209,1.195 L0.0742318209,0 Z M15.6342318,5.116 C15.6342318,1.496 13.0732318,1.93 10.4492318,1.93 C9.06723182,1.93 9.01023182,2.723 9.01023182,4.261 L9.01023182,18.848 C10.7302318,18.789 15.6342318,19.428 15.6342318,14.803 Z"></path></clipPath><clipPath id="i21"><path d="M12.272,0 L12.272,1.195 C9.985,1.195 8.936,3.067 8.936,6.017 L8.936,32.641 C8.936,35.595 9.985,37.453 12.272,37.453 L12.272,38.639 L0,38.639 L0,37.453 C2.288,37.453 3.348,35.595 3.348,32.641 L3.348,6.017 C3.348,3.067 2.288,1.195 0,1.195 L0,0 L12.272,0 Z"></path></clipPath><clipPath id="i22"><path d="M7.304,0.013807726 C12.321,-0.196192274 12.896,2.05780773 14.822,2.11480773 C15.439,2.11480773 15.924,1.79580773 15.979,0.479807726 L17.116,0.479807726 L17.116,12.4998077 L16.1,12.4998077 C15.532,9.29080773 13.916,1.94480773 8.732,1.88680773 C5.33,1.88680773 4.755,6.91380773 4.755,8.28080773 C4.755,10.7778077 6.383,13.6738077 10.64,15.8858077 C16.587,18.9508077 19.185,23.6068077 19.185,29.0588077 C19.185,33.0288077 17.705,40.1018077 9.356,40.2088077 C6.068,40.2498077 4.165,38.2748077 2.31,38.2748077 C1.842,38.2748077 1.558,38.8638077 1.44,39.9418077 L0.264,39.9418077 L0.264,26.4138077 L1.401,26.4138077 L2.212,30.3848077 C2.674,32.5968077 5.016,38.4478077 8.571,38.4478077 C13.602,38.4478077 13.994,32.7348077 13.994,31.3698077 C13.994,28.0808077 11.987,26.3828077 5.686,22.1168077 C1.352,19.1728077 0,14.2308077 0,10.7098077 C0,2.99080773 4.055,0.149807726 7.304,0.013807726 Z"></path></clipPath><clipPath id="i23"><path d="M10.302,0 C15.048,0 17.748,4.684 17.748,0.133 L19.164,0.133 L19.164,12.03 L17.282,12.03 C17.282,5.345 13.593,1.887 10.145,1.887 C7.032,1.887 5.732,4.043 5.732,6.563 L5.732,33.188 C5.732,36.876 6.9,37.96 9.848,37.96 C12.795,37.96 14.459,37.571 14.459,32.746 L14.459,23.707 C14.459,21.01 12.766,20.857 12.766,20.857 L12.766,19.855 L21.194,19.855 L21.194,20.857 C21.194,20.857 19.497,21.069 19.497,23.641 L19.497,30.114 C19.497,32.675 18.663,34.902 16.979,36.795 C16.168,37.716 15.269,38.413 14.289,38.89 C13.307,39.368 11.356,39.871 9.991,39.871 C7.651,39.871 4.049,38.925 2.405,37.032 C0.755,35.213 0,32.985 0,30.35 L0,9.455 C0,6.822 0.755,4.576 2.405,2.719 C4.02,0.884 6.86,0 10.302,0 Z"></path></clipPath><clipPath id="i24"><path d="M14.367,0 L21.535,34.928 C22.138,37.325 23.149,37.573 23.745,37.586 L23.736,37.586 L23.736,38.772 L13.784,38.772 L13.784,37.586 C15.269,37.586 16.502,37.034 15.727,33.937 L14.213,26.988 L6.278,26.988 L4.782,32.615 C4.075,35.596 4.111,37.586 6.559,37.586 L6.559,38.772 L0,38.772 L0,37.586 C0.96,37.586 1.977,37.034 2.755,33.825 L9.077,5.583 C9.519,3.173 9.857,1.225 7.449,1.225 L7.449,0 L14.367,0 Z M10.463,7.791 L6.667,25.164 L13.69,25.164 L10.463,7.791 Z"></path></clipPath><clipPath id="i25"><path d="M21.727,0 L21.727,7.405 L20.449,7.405 C20.276,5.929 19.949,3.749 18.606,2.889 C17.4653,2.15885 16.3007575,2.08762 14.6075617,2.08267937 L13.659,2.083 L13.659,32.641 C13.659,35.595 15.178,37.453 17.008,37.453 L17.008,38.639 L4.788,38.639 L4.788,37.453 C6.62,37.453 8.066,35.595 8.066,32.641 L8.066,2.083 L7.11787812,2.08267937 C5.425475,2.08762 4.2614,2.15885 3.119,2.889 C1.778,3.749 1.451,5.929 1.278,7.405 L0,7.405 L0,0 L21.727,0 Z"></path></clipPath><clipPath id="i26"><path d="M10.9280305,0 C11.1040305,0.1 11.1550305,0.502 10.9280305,0.628 L10.1490305,0.728 C8.71803054,0.904 8.59203054,1.205 7.81403054,3.692 L5.05203054,12.581 C4.17303054,15.344 4.02203054,15.871 7.08603054,15.871 C9.97303054,15.871 11.0530305,15.746 12.5850305,13.26 C12.8370305,13.184 13.0870305,13.235 13.1380305,13.411 C12.8620305,14.264 11.9830305,16.047 11.5320305,16.725 C10.6020305,16.7 9.59603054,16.675 8.59203054,16.675 C7.78803054,16.655 7.00067054,16.651 6.26783854,16.6502 L2.81603054,16.65 C1.78703054,16.65 0.958030535,16.675 0.154030535,16.725 C-0.0469694648,16.6 -0.0469694648,16.248 0.129030535,16.097 L0.732030535,16.022 C1.93703054,15.847 2.18803054,15.595 2.99203054,13.034 L5.93103054,3.692 C6.68403054,1.331 6.73403054,0.929 5.35303054,0.728 L4.75003054,0.628 C4.59903054,0.427 4.62503054,0.1 4.90103054,0 C5.88003054,0.025 6.73403054,0.075 7.76303054,0.075 C8.84303054,0.075 9.62203054,0.025 10.9280305,0 Z"></path></clipPath><clipPath id="i27"><path d="M6.754,0 C7.76,0 8.337,0.855 8.337,1.507 C8.337,3.416 5.852,4.671 2.235,5.676 C2.059,6.103 1.883,6.907 1.883,7.911 C1.883,8.765 2.41,9.343 3.088,9.343 C3.992,9.343 4.621,8.84 5.726,7.886 C5.951,7.886 6.102,8.087 6.052,8.313 C4.52,10.196 3.088,10.598 2.034,10.598 C0.527,10.598 0,9.192 0,7.962 C0,6.379 1.004,3.316 3.741,1.206 C5.047,0.201 6.027,0 6.754,0 Z M6.252,0.779 C5.901,0.779 5.249,1.005 4.344,1.984 C3.365,3.039 2.787,4.195 2.486,4.923 C4.143,4.42 4.922,3.944 5.852,3.064 C6.629,2.336 6.831,1.582 6.831,1.356 C6.831,1.105 6.704,0.779 6.252,0.779 Z"></path></clipPath><clipPath id="i28"><path d="M8.56703054,0 C9.89803054,0 11.4290305,0.1 12.6350305,0.602 C13.8650305,1.13 14.7700305,2.084 14.7700305,3.767 C14.7700305,6.303 12.2340305,7.483 10.8520305,7.584 C10.4500305,7.609 10.6260305,7.784 10.8520305,7.86 C12.2840305,8.337 13.4640305,9.743 13.4640305,11.552 C13.4640305,12.481 13.1870305,13.762 12.1080305,14.816 C11.0530305,15.871 9.19403054,16.725 6.08103054,16.725 C4.72403054,16.725 3.79503054,16.65 2.74003054,16.65 C1.73603054,16.65 0.881030535,16.675 0.154030535,16.725 C-0.0469694648,16.599 -0.0469694648,16.248 0.129030535,16.097 L0.631030535,16.022 C1.83703054,15.846 2.08803054,15.595 2.89103054,13.033 L5.92903054,3.163 C6.53303054,1.23 6.30703054,1.004 5.17603054,0.928 L4.34803054,0.904 C4.17203054,0.778 4.22203054,0.427 4.34803054,0.301 C5.25203054,0.175 6.70803054,0 8.56703054,0 Z M7.58803054,8.086 C6.38203054,8.086 6.28203054,8.111 6.03003054,8.94 L4.54903054,13.762 C4.02103054,15.419 4.74803054,15.946 6.55803054,15.946 C8.66703054,15.946 11.3050305,14.64 11.3050305,11.25 C11.3050305,9.116 9.47103054,8.086 7.58803054,8.086 Z M8.31503054,1.582 L6.75803054,6.604 C6.58303054,7.207 6.60803054,7.333 7.68803054,7.333 C9.49603054,7.333 12.7100305,6.454 12.7100305,3.29 C12.7100305,1.833 11.6050305,0.778 9.54503054,0.778 C8.59203054,0.778 8.54203054,0.753 8.31503054,1.582 Z"></path></clipPath><clipPath id="i29"><path d="M7.28410997,0 C8.16310997,0 8.29010997,0.854 8.29010997,1.23 C8.29010997,1.607 8.06310997,2.335 7.76210997,2.737 C7.46010997,3.113 7.05810997,3.139 6.95810997,2.611 C6.83310997,1.958 6.68210997,1.632 6.43010997,1.632 C6.20410997,1.632 5.92910997,1.883 5.55210997,2.385 C4.02010997,4.344 2.61410997,7.408 1.28210997,10.296 C1.18210997,10.497 1.05710997,10.597 0.856109971,10.597 C0.579109971,10.597 -0.148890029,10.497 0.0271099713,9.945 C0.353109971,8.94 1.93610997,4.495 2.61410997,2.034 C2.68810997,1.757 2.63910997,1.506 2.41210997,1.506 C1.75910997,1.506 1.08210997,2.21 0.630109971,2.812 C0.378109971,2.862 0.203109971,2.712 0.227109971,2.41 C1.03110997,1.054 1.98610997,0 3.19110997,0 C4.44710997,0 3.99510997,1.707 3.76810997,2.385 L2.68810997,5.55 L2.81410997,5.55 C3.56810997,4.143 4.79910997,2.134 5.45110997,1.306 C6.02810997,0.552 6.65710997,0 7.28410997,0 Z"></path></clipPath><clipPath id="i30"><path d="M10.823,0.448741246 C10.447,1.37774125 8.262,6.92774125 7.457,9.21374125 C7.307,9.63974125 7.433,9.79074125 7.635,9.79074125 C8.062,9.79074125 8.789,9.36374125 10.221,8.10774125 C10.397,8.10774125 10.572,8.23374125 10.572,8.43474125 C9.517,9.84074125 7.734,11.2467412 6.353,11.2467412 C5.775,11.2467412 5.625,10.7697412 5.625,10.5697412 C5.625,10.3937412 5.675,10.1677412 5.876,9.58974125 L6.704,7.32974125 L6.629,7.30374125 C4.846,9.51474125 2.285,11.2467412 1.104,11.2467412 C0.402,11.2467412 0,10.5437412 0,9.84074125 C0,9.26274125 0.552,7.25374125 2.209,4.96874125 C3.415,3.31174125 4.494,2.30774125 5.525,1.72974125 C6.504,1.17674125 7.132,1.00074125 7.785,1.00074125 C8.062,1.00074125 8.236,1.07674125 8.387,1.15174125 C8.487,1.20174125 8.764,1.42774125 8.889,1.67874125 L9.593,0.0717412464 C10.02,-0.129258754 10.673,0.122741246 10.823,0.448741246 Z M7.006,1.95574125 C6.403,1.95574125 6.002,2.23074125 5.223,2.93474125 C3.616,4.36574125 2.084,7.65574125 2.084,9.43874125 C2.084,9.74074125 2.234,9.91574125 2.461,9.91574125 C2.712,9.91574125 3.465,9.58974125 4.897,8.28374125 C6.805,6.50074125 7.859,4.34074125 8.262,2.85974125 C8.086,2.38274125 7.659,1.95574125 7.006,1.95574125 Z"></path></clipPath><clipPath id="i31"><path d="M5.549,0 C6.479,0 7.057,0.804 7.057,1.432 C7.057,1.834 6.806,2.11 6.605,2.211 C6.428,2.26 6.278,2.211 6.128,2.01 C5.701,1.582 5.374,1.206 4.595,1.206 C3.867,1.206 3.566,1.834 3.566,2.211 C3.566,2.738 3.692,3.265 4.42,4.496 C5.047,5.551 5.424,6.178 5.374,7.283 C5.349,7.961 4.997,8.891 4.068,9.694 C3.415,10.272 2.486,10.598 1.531,10.598 C0.577,10.598 0,9.844 0,9.267 C0,9.016 0.101,8.74 0.377,8.438 C0.577,8.262 0.854,8.262 1.055,8.438 C1.381,8.815 2.135,9.443 2.788,9.443 C3.39,9.443 3.993,8.815 3.993,8.011 C3.993,7.584 3.692,6.806 3.064,5.801 C2.411,4.747 2.184,3.893 2.184,3.466 C2.184,2.487 2.612,1.758 3.692,0.83 C4.42,0.201 5.223,0 5.549,0 Z"></path></clipPath><clipPath id="i32"><path d="M5.551,0 C6.48,0 7.058,0.804 7.058,1.432 C7.058,1.834 6.806,2.11 6.605,2.211 C6.43,2.26 6.278,2.211 6.128,2.01 C5.702,1.582 5.375,1.206 4.596,1.206 C3.868,1.206 3.566,1.834 3.566,2.211 C3.566,2.738 3.693,3.265 4.42,4.496 C5.048,5.551 5.425,6.178 5.375,7.283 C5.35,7.961 4.998,8.891 4.068,9.694 C3.416,10.272 2.487,10.598 1.533,10.598 C0.579,10.598 0,9.844 0,9.267 C0,9.016 0.101,8.74 0.377,8.438 C0.579,8.262 0.855,8.262 1.056,8.438 C1.382,8.815 2.136,9.443 2.788,9.443 C3.392,9.443 3.993,8.815 3.993,8.011 C3.993,7.584 3.693,6.806 3.064,5.801 C2.411,4.747 2.186,3.893 2.186,3.466 C2.186,2.487 2.613,1.758 3.693,0.83 C4.42,0.201 5.224,0 5.551,0 Z"></path></clipPath><clipPath id="i33"><path d="M4.34611417,0 C4.67211417,0 5.24911417,0.326 5.09911417,0.753 L2.28711417,8.086 C2.06011417,8.689 2.18611417,8.94 2.46211417,8.94 C2.83811417,8.94 3.84311417,8.137 5.15011417,6.856 C7.43411417,4.595 8.74011417,1.682 9.57011417,0.15 C10.0961142,0.05 10.6991142,0.301 10.8001142,0.602 C10.6222318,1.08058824 9.75673701,3.27372318 8.89229736,5.57334134 L8.67660797,6.14953369 C8.39011417,6.91826644 8.11011417,7.68394118 7.86211417,8.387 C7.73611417,8.714 7.71111417,9.015 7.96211417,9.015 C8.43911417,9.015 9.77011417,7.835 10.4231142,7.056 C10.6491142,7.006 10.8501142,7.107 10.8741142,7.408 C10.2221142,8.613 7.81111417,10.597 6.48011417,10.597 C6.07811417,10.597 5.70111417,10.12 5.85311417,9.718 L7.56011417,5.123 L7.51111417,5.098 C5.70111417,7.383 2.58811417,10.597 1.23111417,10.597 C0.202114174,10.597 0.0761141736,9.568 0.503114174,8.463 L2.81411417,2.36 C2.99011417,1.883 3.01511417,1.632 2.81411417,1.632 C2.33611417,1.632 1.03111417,2.737 0.428114174,3.365 C0.177114174,3.415 -0.0228858264,3.214 0.00211417358,2.988 C0.654114174,1.983 3.16611417,0 4.34611417,0 Z"></path></clipPath><clipPath id="i34"><path d="M5.55,0 C6.48,0 7.057,0.804 7.057,1.432 C7.057,1.834 6.806,2.11 6.605,2.211 C6.429,2.26 6.278,2.211 6.129,2.01 L5.9366832,1.81733364 C5.58997041,1.4752071 5.25515385,1.206 4.596,1.206 C3.868,1.206 3.566,1.834 3.566,2.211 C3.566,2.738 3.692,3.265 4.42,4.496 C5.048,5.551 5.424,6.178 5.375,7.283 C5.35,7.961 4.998,8.891 4.069,9.694 C3.416,10.272 2.487,10.598 1.532,10.598 C0.577,10.598 0,9.844 0,9.267 C0,9.016 0.101,8.74 0.377,8.438 C0.577,8.262 0.854,8.262 1.055,8.438 C1.381,8.815 2.136,9.443 2.788,9.443 C3.391,9.443 3.993,8.815 3.993,8.011 C3.993,7.584 3.692,6.806 3.064,5.801 C2.411,4.747 2.185,3.893 2.185,3.466 C2.185,2.487 2.612,1.758 3.692,0.83 C4.42,0.201 5.224,0 5.55,0 Z"></path></clipPath></defs><g transform=""><g transform="translate(35.0604 0.47700000000000387)"><g clip-path="url(#i0)"><polygon points="0,0 13.025,0 13.025,24.144 0,24.144 0,0" stroke="none" fill="#FFFFFF"></polygon></g></g><g transform="translate(50.92659999999999 0.00010000000000331966)"><g clip-path="url(#i1)"><polygon points="0,0 16.425,0 16.425,25.098 0,25.098 0,0" stroke="none" fill="#FFFFFF"></polygon></g></g><g transform="translate(71.5891 0.4766999999999939)"><g clip-path="url(#i2)"><polygon points="0,0 15.308,0 15.308,24.621 0,24.621 0,0" stroke="none" fill="#FFFFFF"></polygon></g></g><g transform="translate(91.7261 0.47700000000000387)"><g clip-path="url(#i3)"><polygon points="0,0 15.604,0 15.604,24.145 0,24.145 0,0" stroke="none" fill="#FFFFFF"></polygon></g></g><g transform="translate(112.3057 0.4765999999999906)"><g clip-path="url(#i4)"><polygon points="0,0 15.325,0 15.325,24.145 0,24.145 0,0" stroke="none" fill="#FFFFFF"></polygon></g></g><g transform="translate(130.19240000000002 0.4771999999999963)"><g clip-path="url(#i5)"><polygon points="0,0 17.953,0 17.953,24.144 0,24.144 0,0" stroke="none" fill="#FFFFFF"></polygon></g></g><g transform="translate(147.7507 0.47699999999998965)"><g clip-path="url(#i6)"><polygon points="0,0 15.751,0 15.751,24.145 0,24.145 0,0" stroke="none" fill="#FFFFFF"></polygon></g></g><g clip-path="url(#i7)"><g transform="translate(166.655 0.47700000000000387)"><g clip-path="url(#i8)"><polygon points="0,0 3.909,0 3.909,24.145 0,24.145 0,0" stroke="none" fill="#FFFFFF"></polygon></g></g><g transform="translate(174.9501 0.00010000000000331966)"><g clip-path="url(#i9)"><polygon points="0,0 16.425,0 16.425,25.098 0,25.098 0,0" stroke="none" fill="#FFFFFF"></polygon></g></g><g transform="translate(195.7437 0.47700000000000387)"><g clip-path="url(#i10)"><polygon points="0,0 15.604,0 15.604,24.145 0,24.145 0,0" stroke="none" fill="#FFFFFF"></polygon></g></g><g transform="translate(215.4694 0.0009000000000014552)"><g clip-path="url(#i11)"><polygon points="0,0 15.243,0 15.243,25.097 0,25.097 0,0" stroke="none" fill="#FFFFFF"></polygon></g></g><g transform="translate(31.5702 43.94370000000001)"><g clip-path="url(#i12)"><polygon points="0,0 25.435,0 25.435,39.361 0,39.361 0,0" stroke="none" fill="#FFFFFF"></polygon></g></g><g transform="translate(295.8061 43.94370000000001)"><g clip-path="url(#i13)"><polygon points="0,0 25.169,0 25.169,39.361 0,39.361 0,0" stroke="none" fill="#FFFFFF"></polygon></g></g><g transform="translate(58.7632 43.943299999999994)"><g clip-path="url(#i14)"><polygon points="0,0 24.7351159,0 24.7351159,38.639 0,38.639 0,0" stroke="none" fill="#FFFFFF"></polygon></g></g><g transform="translate(84.94090000000001 43.9436)"><g clip-path="url(#i15)"><polygon points="0,0 22.189,0 22.189,38.639 0,38.639 0,0" stroke="none" fill="#FFFFFF"></polygon></g></g><g transform="translate(322.73029999999994 43.9436)"><g clip-path="url(#i16)"><polygon points="0,0 22.123,0 22.123,38.639 0,38.639 0,0" stroke="none" fill="#FFFFFF"></polygon></g></g><g transform="translate(0.0 35.57599999999999)"><g clip-path="url(#i17)"><polygon points="0,0 32.413,0 32.413,47.007 0,47.007 0,0" stroke="none" fill="#FFFFFF"></polygon></g></g><g transform="translate(231.3514 35.56779999999999)"><g clip-path="url(#i18)"><polygon points="0,0 23.277,0 23.277,47.015 0,47.015 0,0" stroke="none" fill="#FFFFFF"></polygon></g></g><g transform="translate(108.7013 43.9435)"><g clip-path="url(#i19)"><polygon points="0,0 34.73,0 34.73,38.639 0,38.639 0,0" stroke="none" fill="#FFFFFF"></polygon></g></g><g transform="translate(170.55236817909667 43.943299999999994)"><g clip-path="url(#i20)"><polygon points="1.06584419e-14,0 24.6682318,0 24.6682318,38.6405309 1.06584419e-14,38.6405309 1.06584419e-14,0" stroke="none" fill="#FFFFFF"></polygon></g></g><g transform="translate(257.97810000000004 43.94370000000001)"><g clip-path="url(#i21)"><polygon points="0,0 12.272,0 12.272,38.639 0,38.639 0,0" stroke="none" fill="#FFFFFF"></polygon></g></g><g transform="translate(197.35360000000003 42.86979227398622)"><g clip-path="url(#i22)"><polygon points="0,3.65396702e-15 19.185,3.65396702e-15 19.185,40.2094374 0,40.2094374 0,3.65396702e-15" stroke="none" fill="#FFFFFF"></polygon></g></g><g transform="translate(273.5598 43.208600000000004)"><g clip-path="url(#i23)"><polygon points="0,0 21.194,0 21.194,39.871 0,39.871 0,0" stroke="none" fill="#FFFFFF"></polygon></g></g><g transform="translate(145.4376 43.81039999999999)"><g clip-path="url(#i24)"><polygon points="0,0 23.745,0 23.745,38.772 0,38.772 0,0" stroke="none" fill="#FFFFFF"></polygon></g></g><g transform="translate(345.5946 43.943299999999994)"><g clip-path="url(#i25)"><polygon points="0,0 21.727,0 21.727,38.639 0,38.639 0,0" stroke="none" fill="#FFFFFF"></polygon></g></g><g transform="translate(130.73506946481575 95.4986)"><g clip-path="url(#i26)"><polygon points="1.25538378e-14,0 13.1380305,0 13.1380305,16.725 1.25538378e-14,16.725 1.25538378e-14,0" stroke="none" fill="#FFFFFF"></polygon></g></g><g transform="translate(146.48690000000002 101.9018)"><g clip-path="url(#i27)"><polygon points="0,0 8.337,0 8.337,10.598 0,10.598 0,0" stroke="none" fill="#FFFFFF"></polygon></g></g><g transform="translate(163.33616946481578 95.4988)"><g clip-path="url(#i28)"><polygon points="-1.15524094e-14,0 14.7700305,0 14.7700305,16.725 -1.15524094e-14,16.725 -1.15524094e-14,0" stroke="none" fill="#FFFFFF"></polygon></g></g><g transform="translate(180.11849002867683 101.9027)"><g clip-path="url(#i29)"><polygon points="-8.72243658e-15,0 8.29010997,0 8.29010997,10.597 -8.72243658e-15,10.597 -8.72243658e-15,0" stroke="none" fill="#FFFFFF"></polygon></g></g><g transform="translate(188.1379 101.25285875361502)"><g clip-path="url(#i30)"><polygon points="0,8.90879427e-16 10.823,8.90879427e-16 10.823,11.2467412 0,11.2467412 0,8.90879427e-16" stroke="none" fill="#FFFFFF"></polygon></g></g><g transform="translate(200.1427 101.9019)"><g clip-path="url(#i31)"><polygon points="0,0 7.057,0 7.057,10.598 0,10.598 0,0" stroke="none" fill="#FFFFFF"></polygon></g></g><g transform="translate(207.9781 101.9019)"><g clip-path="url(#i32)"><polygon points="0,0 7.058,0 7.058,10.598 0,10.598 0,0" stroke="none" fill="#FFFFFF"></polygon></g></g><g transform="translate(217.16978582641832 101.9027)"><g clip-path="url(#i33)"><polygon points="1.75256186e-15,0 10.8741142,0 10.8741142,10.597 1.75256186e-15,10.597 1.75256186e-15,0" stroke="none" fill="#FFFFFF"></polygon></g></g><g transform="translate(229.52769999999998 101.9019)"><g clip-path="url(#i34)"><polygon points="0,0 7.057,0 7.057,10.598 0,10.598 0,0" stroke="none" fill="#FFFFFF"></polygon></g></g></g></g></svg>