<?xml version="1.0" encoding="UTF-8"?><svg version="1.1" width="40px" height="40px" viewBox="0 0 40.0 40.0" xmlns="http://www.w3.org/2000/svg" xmlns:xlink="http://www.w3.org/1999/xlink"><defs><clipPath id="i0"><path d="M40,0 L40,39.9995 L0,39.9995 L0,0 L40,0 Z"></path></clipPath><clipPath id="i1"><path d="M20,0 C31.046,0 40,8.954 40,20 C40,31.045 31.046,40 20,40 C8.954,40 0,31.045 0,20 C0,8.954 8.954,0 20,0 Z M14.802,15.9269251 C13.645,15.938 12.488,15.935 11.331,15.928 C11.153,15.9269251 11.112,15.987 11.112,16.155 C11.116,20.219 11.117,24.283 11.111,28.347 C11.111,28.536 11.166,28.5820943 11.349,28.581 C12.489,28.573 13.63,28.57 14.77,28.5820943 C15.001,28.585 15.057,28.517 15.0560131,28.294 C15.047,26.287 15.051,24.28 15.051,22.272 C15.051,20.249 15.049,18.225 15.054,16.201 C15.055,16.011 15.025,15.924 14.802,15.9269251 Z M25.016,15.615 C23.867,15.606 22.884,16.001 22.053,16.784 C21.782,17.039 21.565,17.34 21.302,17.636 C21.302,17.15 21.294,16.665 21.306,16.181 C21.31,15.99 21.258,15.925 21.057,15.927 C19.966,15.937 18.875,15.936 17.783,15.928 C17.594,15.926 17.528,15.973 17.528,16.174 C17.533,20.231 17.533,24.288 17.528,28.346 C17.528,28.532 17.581,28.582 17.765,28.5810521 C18.915,28.572 20.064,28.571 21.213,28.5810521 C21.422,28.583 21.473,28.523 21.472,28.319 C21.465,26.269 21.468,24.22 21.467,22.171 C21.466,21.839 21.486,21.511 21.527,21.182 C21.7,19.806 22.403,19.137 23.756,19.065 C24.747,19.013 25.424,19.495 25.697,20.44 C25.845,20.954 25.879,21.482 25.88,22.01 C25.887,24.117 25.885,26.224 25.879,28.331 C25.879,28.521 25.922,28.583 26.123,28.5810521 C27.263,28.571 28.404,28.572 29.545,28.5810521 C29.749,28.583 29.807,28.528 29.807,28.321 C29.802,26.106 29.812,23.892 29.809,21.677 C29.807,20.627 29.753,19.581 29.464,18.562 C29.079,17.202 28.27,16.244 26.879,15.842 C26.27,15.666 25.646,15.621 25.016,15.615 Z M13.091,9.63399927 C11.836,9.633 10.805,10.666 10.8089884,11.92 C10.814,13.161 11.845,14.188 13.086,14.188 C14.344,14.187 15.367,13.161 15.3650029,11.901 C15.364,10.659 14.337,9.635 13.091,9.63399927 Z"></path></clipPath></defs><g transform="translate(-60.0 0.0)"><g transform="translate(60.0 0.00019999999999953388)"><g clip-path="url(#i0)"><g clip-path="url(#i1)"><polygon points="0,0 40,0 40,39.9995 0,39.9995 0,0" stroke="none" fill="#FFFFFF"></polygon></g></g></g></g></svg>