<?xml version="1.0" encoding="UTF-8"?><svg id="Calque_1" xmlns="http://www.w3.org/2000/svg" viewBox="0 0 350 350"><defs><style>.cls-1{fill:#a49f94;}.cls-2{fill:#fff;}</style></defs><circle class="cls-1" cx="175" cy="175" r="175"/><path class="cls-2" d="M67.09,178.95v-18.69c0-47.85,18.21-65.87,50.37-65.87s50.18,18.02,50.18,65.87v18.69c0,47.85-18.11,65.87-50.18,65.87s-50.37-18.02-50.37-65.87ZM160.86,178.95v-18.69c0-44.27-15.59-59.96-43.4-59.96s-43.49,15.69-43.49,59.96v18.69c0,44.27,15.5,59.96,43.49,59.96s43.4-15.69,43.4-59.96Z"/><path class="cls-2" d="M193.05,96.71h25.57c40.78,0,61.22,18.99,61.22,68.1v9.59c0,49.11-20.44,68.1-61.22,68.1h-25.57V96.71ZM218.63,237.07c35.74,0,54.44-16.95,54.44-62.86v-9.2c0-45.82-18.69-62.86-54.44-62.86h-19.08v134.93h19.08Z"/></svg>