<?xml version="1.0" encoding="UTF-8"?><svg version="1.1" width="280px" height="280px" viewBox="0 0 280.0 280.0" xmlns="http://www.w3.org/2000/svg" xmlns:xlink="http://www.w3.org/1999/xlink"><defs><clipPath id="i0"><path d="M162.008659,0 L166.633659,15.319 C168.675659,22.084 167.960659,29.24 164.620659,35.468 C161.552659,41.188 156.595659,45.47 150.569659,47.718 C151.150659,51.171 151.548659,54.629 151.781659,58.088 C152.864659,55.978 154.215659,53.99 155.862659,52.195 C160.673659,46.954 167.237659,43.899 174.345659,43.594 L190.434659,42.904 L190.511659,44.692 C191.139659,59.364 179.714659,71.814 165.041659,72.446 L151.711659,73.016 C151.546659,75.152 151.312659,77.286 151.014659,79.416 C150.905659,80.571 150.734659,81.726 150.468659,82.88 C150.051659,85.27 149.554659,87.654 148.970659,90.032 C156.280659,82.183 167.384659,78.211 178.620659,80.584 L197.166659,84.502 L196.796659,86.252 C193.659659,101.101 180.504659,111.312 165.898659,111.312 C163.742659,111.312 161.555659,111.09 159.362659,110.627 L143.204659,107.214 C141.127659,112.04 138.730659,116.677 136.001659,121.085 C140.132659,118.801 144.693659,117.284 149.515659,116.655 C159.601659,115.336 169.599659,118.028 177.664659,124.232 L195.657659,138.07 L194.567659,139.488 C188.364659,147.552 179.392659,152.718 169.305659,154.034 C167.631659,154.253 165.959659,154.36 164.299659,154.36 C155.952659,154.362 147.882659,151.631 141.156659,146.457 L125.916659,134.737 C121.312659,140.003 116.161659,144.813 110.505659,149.103 C98.5356585,158.985 82.1556585,165.915 65.6246585,168.07 C65.5456585,168.079 65.4676585,168.085 65.3906585,168.085 C65.3506585,168.085 65.3156585,168.067 65.2766585,168.064 C60.7926585,170.898 56.0276585,173.311 51.0476585,175.269 C63.2666585,174.31 76.5826585,173.694 90.6536585,173.694 C113.312659,173.694 136.432659,175.263 159.374659,178.358 C160.353659,178.49 161.039659,179.391 160.907659,180.369 C160.776659,181.349 159.870659,182.025 158.895659,181.903 C136.112659,178.83 113.152659,177.273 90.6536585,177.273 C53.8286585,177.273 22.1736585,181.51 2.10165854,185.066 C1.99565854,185.084 1.89065854,185.093 1.78665854,185.093 C0.936658536,185.093 0.181658536,184.483 0.0276585356,183.615 C-0.144341464,182.643 0.503658536,181.715 1.47665854,181.542 C6.54365854,180.645 12.3436585,179.704 18.7746585,178.799 L18.5586585,103.689 C18.5586585,102.792 18.6046585,101.905 18.6926585,101.031 L18.5586585,54.202 C18.5586585,30.985 37.4426585,12.1 60.6546585,12.1 C83.8656585,12.1 102.750659,30.985 102.750659,54.197 L102.741659,78.366 C102.941659,77.916 103.115659,77.46 103.339659,77.016 L104.147659,75.419 L120.135659,83.501 C131.537659,89.264 137.601659,101.409 136.258659,113.42 C139.690659,106.964 142.475659,100.091 144.531659,92.852 C145.179659,90.571 145.736659,88.283 146.224659,85.99 L134.050659,81.939 C127.343659,79.707 121.908659,74.998 118.744659,68.679 C115.580659,62.359 115.066659,55.185 117.298659,48.479 L117.863659,46.783 L133.046659,51.835 C140.050659,54.166 145.425659,59.164 148.439659,65.323 C148.455659,59.538 147.973659,53.745 146.980659,47.966 L142.611659,33.492 C138.396659,19.525 146.329659,4.732 160.296659,0.516 L162.008659,0 Z M44.7056585,81.117 C33.0806585,81.117 23.4846585,89.953 22.2706585,101.261 L22.4896585,177.43 C24.9946585,177.327 27.4466585,177.02 29.8356585,176.537 L29.8356585,119.18 C29.8356585,118.192 30.6356585,117.39 31.6246585,117.39 C32.6126585,117.39 33.4126585,118.192 33.4126585,119.18 L33.4126585,175.671 C36.6666585,174.739 39.7706585,173.455 42.6936585,171.875 L42.6936585,119.18 C42.6936585,118.192 43.4936585,117.39 44.4816585,117.39 C45.4696585,117.39 46.2706585,118.192 46.2706585,119.18 L46.2706585,169.732 C49.7066585,167.458 52.8296585,164.749 55.5506585,161.673 L55.5506585,119.18 C55.5506585,118.192 56.3516585,117.39 57.3396585,117.39 C58.3276585,117.39 59.1286585,118.192 59.1286585,119.18 L59.1286585,157.069 C64.2596585,149.571 67.2736585,140.514 67.2736585,130.763 L67.2736585,103.685 C67.2736585,91.24 57.1496585,81.117 44.7056585,81.117 Z M60.6546585,15.679 C39.4146585,15.679 22.1356585,32.957 22.1356585,54.197 L22.2396585,90.376 C26.8016585,82.705 35.1506585,77.538 44.7056585,77.538 C59.1226585,77.538 70.8516585,89.267 70.8516585,103.685 L70.8516585,130.763 C70.8516585,143.237 66.2756585,154.656 58.7266585,163.455 C58.6606585,163.54 58.5996585,163.623 58.5196585,163.694 C55.6976585,166.943 52.4736585,169.831 48.9146585,172.269 C74.7236585,162.463 94.6016585,139.687 99.1736585,111.78 L99.1736585,54.197 C99.1736585,32.957 81.8936585,15.679 60.6546585,15.679 Z M102.731659,102.557 L102.727659,112.21 C99.3776585,132.915 87.9746585,150.928 72.0196585,163.332 C85.4956585,160.461 98.4266585,154.436 108.286659,146.299 C114.697659,141.435 120.425659,135.883 125.425659,129.751 C125.437659,129.736 125.449659,129.722 125.462659,129.707 C127.016659,127.799 128.493659,125.829 129.902659,123.811 L116.482659,117.027 C110.123659,113.813 105.420659,108.611 102.731659,102.557 Z M175.482659,127.067 C168.176659,121.448 159.121659,119.011 149.978659,120.202 C141.455659,121.314 133.815659,125.459 128.266659,131.938 C128.250659,131.957 128.234659,131.975 128.219659,131.994 L143.337659,143.622 C150.643659,149.241 159.697659,151.679 168.842659,150.487 C177.389659,149.372 185.050659,145.208 190.604659,138.697 Z M105.779659,80.253 C100.461659,92.822 105.740659,107.587 118.097659,113.834 L130.838659,120.275 C136.156659,107.706 130.878659,92.94 118.521659,86.694 Z M177.880659,84.084 C163.360659,81.02 149.038659,89.852 145.112659,103.96 L160.102659,107.127 C174.622659,110.193 188.944659,101.358 192.870659,87.251 Z M120.193659,51.328 C118.872659,56.619 119.475659,62.148 121.943659,67.078 C124.679659,72.542 129.381659,76.615 135.180659,78.545 L146.902659,82.445 C146.936659,82.306 146.953659,82.166 146.985659,82.026 C147.158659,81.019 147.315659,80.012 147.458659,79.003 C148.393659,68.67 142.177659,58.644 131.916659,55.229 Z M186.944659,46.635 L174.499659,47.17 C168.345659,47.433 162.662659,50.077 158.498659,54.615 C154.739659,58.71 152.623659,63.906 152.440659,69.403 L164.887659,68.87 C176.988659,68.351 186.537659,58.543 186.944659,46.635 Z M159.637659,4.525 C148.621659,8.807 142.565659,20.956 146.037659,32.459 L149.376659,43.523 C149.582659,43.7 149.737659,43.922 149.845659,44.182 C154.820659,42.188 158.903659,38.558 161.467659,33.778 C164.355659,28.392 164.974659,22.204 163.207659,16.352 Z"></path></clipPath><clipPath id="i1"><path d="M4.78682262,5.16118469 C10.6028226,-1.06181531 20.4198226,-1.75481531 27.0948226,3.61318469 C30.4168226,6.28718469 31.8788226,9.72018469 33.0508226,14.0511847 L34.4738226,20.5681847 L35.8758226,14.1381847 C37.0698226,9.72018469 38.5308226,6.28718469 41.8538226,3.61318469 C48.5238226,-1.74881531 58.3248226,-1.06381531 64.1798226,5.18018469 C68.8508226,9.90518469 70.2298226,16.9221847 67.6918226,23.0641847 C66.0618226,27.0061847 63.1788226,29.3741847 59.3518226,31.7181847 L34.4738226,45.3171847 L9.67282262,31.7621847 C5.76882262,29.3741847 2.88682262,27.0061847 1.25682262,23.0641847 C-1.28617738,16.9151847 0.0988226208,9.88718469 4.78682262,5.16118469 Z M61.5848226,7.64218469 C57.0028226,2.74418469 49.3228226,2.19818469 44.0958226,6.40118469 C41.5178226,8.47618469 40.3678226,11.2241847 39.3498226,14.9871847 L34.4738226,37.3591847 L29.5768226,14.9001847 C28.5788226,11.2241847 27.4298226,8.47618469 24.8518226,6.40118469 C22.4948226,4.50518469 19.6378226,3.57518469 16.7908226,3.57518469 C13.3268226,3.57518469 9.87782262,4.95318469 7.36282262,7.64218469 C3.65682262,11.3801847 2.57282262,16.8831847 4.56282262,21.6971847 C5.82882262,24.7561847 8.14182262,26.6321847 11.4648226,28.6681847 L34.4738226,41.2401847 L57.5598226,28.6241847 C60.8058226,26.6321847 63.1198226,24.7561847 64.3848226,21.6971847 C66.3748226,16.8831847 65.2908226,11.3801847 61.6208226,7.68018469 Z"></path></clipPath><clipPath id="i2"><path d="M7.729,0 C11.991,0 15.458,3.468 15.458,7.731 C15.458,11.992 11.991,15.46 7.729,15.46 C3.467,15.46 0,11.992 0,7.731 C0,3.468 3.467,0 7.729,0 Z M7.729,3.579 C5.44,3.579 3.577,5.441 3.577,7.731 C3.577,10.02 5.44,11.881 7.729,11.881 C10.018,11.881 11.881,10.02 11.881,7.731 C11.881,5.441 10.018,3.579 7.729,3.579 Z"></path></clipPath><clipPath id="i3"><path d="M13.67,0 C14.658,0 15.459,0.802 15.459,1.79 C15.459,2.777 14.658,3.579 13.67,3.579 L1.789,3.579 C0.801,3.579 0,2.777 0,1.79 C0,0.802 0.801,0 1.789,0 Z"></path></clipPath><clipPath id="i4"><path d="M1.789,0 C7.782,0 12.657,4.876 12.657,10.869 C12.657,11.857 11.856,12.659 10.868,12.659 C9.88,12.659 9.079,11.857 9.079,10.869 C9.079,6.85 5.809,3.579 1.789,3.579 C0.801,3.579 0,2.777 0,1.79 C0,0.802 0.801,0 1.789,0 Z"></path></clipPath><clipPath id="i5"><path d="M1.789,0 C7.782,0 12.657,4.875 12.657,10.868 C12.657,11.855 11.856,12.657 10.868,12.657 C9.88,12.657 9.079,11.855 9.079,10.868 C9.079,6.848 5.809,3.579 1.789,3.579 C0.801,3.579 0,2.777 0,1.789 C0,0.802 0.801,0 1.789,0 Z"></path></clipPath><clipPath id="i6"><path d="M1.789,0 C7.782,0 12.657,4.876 12.657,10.869 C12.657,11.857 11.856,12.659 10.868,12.659 C9.88,12.659 9.079,11.857 9.079,10.869 C9.079,6.85 5.809,3.579 1.789,3.579 C0.801,3.579 0,2.777 0,1.789 C0,0.802 0.801,0 1.789,0 Z"></path></clipPath></defs><g transform="translate(41.41674146444407 32.0488)"><g clip-path="url(#i0)"><polygon points="-1.8657946e-18,0 197.166659,0 197.166659,185.093 -1.8657946e-18,185.093 -1.8657946e-18,0" stroke="none" fill="#FFFFFF"></polygon></g></g><g transform="translate(67.41377737919623 61.88611530968478)"><g clip-path="url(#i1)"><polygon points="-6.90157001e-17,3.35975449e-15 68.9473072,3.35975449e-15 68.9473072,45.3171847 -6.90157001e-17,45.3171847 -6.90157001e-17,3.35975449e-15" stroke="none" fill="#FFFFFF"></polygon></g></g><g transform="translate(76.4911 70.53399999999999)"><g clip-path="url(#i2)"><polygon points="0,0 15.458,0 15.458,15.46 0,15.46 0,0" stroke="none" fill="#FFFFFF"></polygon></g></g><g transform="translate(112.0755 76.47509999999997)"><g clip-path="url(#i3)"><polygon points="0,0 15.459,0 15.459,3.579 0,3.579 0,0" stroke="none" fill="#FFFFFF"></polygon></g></g><g transform="translate(118.6312 110.3723)"><g clip-path="url(#i4)"><polygon points="0,0 12.657,0 12.657,12.659 0,12.659 0,0" stroke="none" fill="#FFFFFF"></polygon></g></g><g transform="translate(118.6312 125.40679999999999)"><g clip-path="url(#i5)"><polygon points="0,0 12.657,0 12.657,12.657 0,12.657 0,0" stroke="none" fill="#FFFFFF"></polygon></g></g><g transform="translate(118.6312 140.5036)"><g clip-path="url(#i6)"><polygon points="0,0 12.657,0 12.657,12.659 0,12.659 0,0" stroke="none" fill="#FFFFFF"></polygon></g></g></svg>