<?xml version="1.0" encoding="UTF-8"?><svg version="1.1" width="240px" height="240px" viewBox="0 0 240.0 240.0" xmlns="http://www.w3.org/2000/svg" xmlns:xlink="http://www.w3.org/1999/xlink"><defs><clipPath id="i0"><path d="M39.599435,0.596292322 C40.096435,-0.0637076779 41.033435,-0.196707678 41.696435,0.302292322 C42.356435,0.799292322 42.487435,1.73829232 41.990435,2.39929232 L2.692435,54.5522923 C2.398435,54.9412923 1.950435,55.1482923 1.495435,55.1482923 C1.181435,55.1482923 0.865434997,55.0492923 0.595434997,54.8462923 C-0.0645650029,54.3482923 -0.195565003,53.4092923 0.301434997,52.7482923 Z"></path></clipPath><clipPath id="i1"><path d="M39.6011387,0.596292322 C40.0961387,-0.0637076779 41.0351387,-0.196707678 41.6981387,0.302292322 C42.3581387,0.799292322 42.4891387,1.73829232 41.9921387,2.39929232 L2.69313865,54.5502923 C2.39913865,54.9402923 1.95013865,55.1462923 1.49513865,55.1462923 C1.18213865,55.1462923 0.865138651,55.0472923 0.595138651,54.8442923 C-0.0638613488,54.3472923 -0.195861349,53.4082923 0.301138651,52.7472923 Z"></path></clipPath><clipPath id="i2"><path d="M39.600435,0.596721053 C40.096435,-0.0632789471 41.035435,-0.197278947 41.697435,0.302721053 C42.357435,0.799721053 42.489435,1.73872105 41.992435,2.39972105 L2.692435,54.5507211 C2.398435,54.9407211 1.950435,55.1467211 1.495435,55.1467211 C1.181435,55.1467211 0.864434997,55.0477211 0.595434997,54.8447211 C-0.0645650029,54.3477211 -0.195565003,53.4087211 0.301434997,52.7467211 Z"></path></clipPath><clipPath id="i3"><path d="M139.140433,0 L151.152433,9.053 L144.812433,17.464 C143.603433,19.067 141.842433,20.105 139.854433,20.385 C139.498433,20.435 139.144433,20.46 138.791433,20.46 C137.672433,20.46 136.582433,20.193 135.578433,19.712 L97.2374326,70.591 L155.407433,147.785 C163.019433,148.776 170.620433,149.934 178.011433,151.243 C178.825433,151.386 179.367433,152.162 179.224433,152.978 C179.094433,153.702 178.464433,154.214 177.751433,154.214 C177.665433,154.214 177.577433,154.206 177.488433,154.19 C171.095433,153.059 164.536433,152.064 157.956433,151.168 L160.692433,154.797 C163.931433,159.096 163.069433,165.228 158.771433,168.468 C157.061433,169.756 155.022433,170.435 152.918433,170.435 C152.460433,170.435 152.000433,170.403 151.538433,170.338 C148.957433,169.975 146.671433,168.628 145.103433,166.547 L131.294433,148.222 C117.350433,147.058 103.340433,146.463 89.6404326,146.463 C79.0474326,146.463 68.2164326,146.822 57.4344326,147.522 L44.8904326,164.169 C42.3164326,167.582 38.5684326,169.79 34.3344326,170.386 C33.5794326,170.492 32.8234326,170.544 32.0744326,170.544 C28.6224326,170.544 25.2784326,169.431 22.4724326,167.317 C19.0594326,164.744 16.8514326,160.996 16.2554326,156.762 C16.0224326,155.108 16.0554326,153.459 16.3254326,151.858 C11.4104326,152.577 6.51443264,153.354 1.75843264,154.196 C1.67043264,154.213 1.58143264,154.221 1.49543264,154.221 C0.781432644,154.221 0.151432644,153.711 0.0234326441,152.984 C-0.121567356,152.17 0.421432644,151.392 1.23543264,151.249 C6.44743264,150.324 11.8184326,149.471 17.2084326,148.698 C17.7344326,147.36 18.4334326,146.08 19.3224326,144.9 L60.7404326,89.937 C62.2664326,87.913 65.0884326,87.164 68.6884326,87.827 C71.5294326,88.35 74.6394326,89.715 77.5734326,91.71 L83.1414326,84.321 L39.9674326,27.026 L32.3004326,0.634 L55.5564326,15.278 L55.7214326,15.498 L95.3624326,68.102 L133.176433,17.923 C132.202433,16.827 131.569433,15.469 131.360433,13.984 C131.080433,11.995 131.592433,10.016 132.801433,8.411 L139.140433,0 Z M68.1454326,90.772 C65.7524326,90.327 63.9264326,90.685 63.1324326,91.741 L21.7144326,146.703 C19.6234326,149.478 18.7374326,152.903 19.2214326,156.344 C19.7044326,159.787 21.4994326,162.835 24.2764326,164.926 C27.0524326,167.018 30.4804326,167.899 33.9174326,167.42 C37.3594326,166.937 40.4074326,165.142 42.4984326,162.365 L83.9164326,107.402 C85.5554326,105.227 83.1134326,99.588 76.9884326,94.974 C74.0754326,92.777 70.9354326,91.286 68.1454326,90.772 Z M130.765433,120.06 L119.959433,128.202 L147.495433,164.744 C148.581433,166.188 150.165433,167.121 151.956433,167.372 C153.751433,167.618 155.525433,167.163 156.968433,166.076 C159.948433,163.831 160.546433,159.581 158.300433,156.601 L130.765433,120.06 Z M85.0164326,86.809 L79.9634326,93.515 C86.3084326,98.797 89.0954326,105.506 86.3084326,109.206 L59.7994326,144.384 C69.7974326,143.786 79.8194326,143.467 89.6404326,143.467 C102.557433,143.467 115.746433,144.012 128.898433,145.042 L85.0164326,86.809 Z M54.2314326,18.497 L43.4264326,26.639 L118.157433,125.81 L128.962433,117.668 L54.2314326,18.497 Z M37.3764326,7.369 L42.1614326,23.841 L51.8914326,16.51 L37.3764326,7.369 Z M139.729433,4.195 L135.192433,10.214 C134.465433,11.179 134.158433,12.37 134.325433,13.568 C134.494433,14.764 135.117433,15.823 136.081433,16.551 C137.053433,17.28 138.239433,17.581 139.436433,17.42 C140.633433,17.251 141.693433,16.627 142.421433,15.66 L146.957433,9.641 L139.729433,4.195 Z"></path></clipPath></defs><g transform="translate(54.64726500285835 128.34310767786656)"><g clip-path="url(#i0)"><polygon points="2.99760217e-15,5.55111512e-16 42.29187,5.55111512e-16 42.29187,55.1482923 2.99760217e-15,55.1482923 2.99760217e-15,5.55111512e-16" stroke="none" fill="#FFFFFF"></polygon></g></g><g transform="translate(60.4408613487974 132.71030767786652)"><g clip-path="url(#i1)"><polygon points="1.33226763e-15,5.55111512e-16 42.2935736,5.55111512e-16 42.2935736,55.1462923 1.33226763e-15,55.1462923 1.33226763e-15,5.55111512e-16" stroke="none" fill="#FFFFFF"></polygon></g></g><g transform="translate(66.23466500285838 137.07537894709023)"><g clip-path="url(#i2)"><polygon points="-3.88578059e-16,-6.10622664e-15 42.2935055,-6.10622664e-15 42.2935055,55.1467211 -3.88578059e-16,55.1467211 -3.88578059e-16,-6.10622664e-15" stroke="none" fill="#FFFFFF"></polygon></g></g><g transform="translate(30.376667355882745 31.101499999999987)"><g clip-path="url(#i3)"><polygon points="0,0 179.247315,0 179.247315,170.544 0,170.544 0,0" stroke="none" fill="#FFFFFF"></polygon></g></g></svg>