<?xml version="1.0" encoding="UTF-8"?><svg version="1.1" width="28px" height="28px" viewBox="0 0 28.0 28.0" xmlns="http://www.w3.org/2000/svg" xmlns:xlink="http://www.w3.org/1999/xlink"><defs><clipPath id="i0"><path d="M14,0 C21.732,0 28,6.268 28,14 C28,21.732 21.732,28 14,28 C6.268,28 0,21.732 0,14 C0,6.268 6.268,0 14,0 Z"></path></clipPath><clipPath id="i1"><path d=""></path></clipPath><clipPath id="i2"><path d="M18.974,1.144 L18.9897065,1.15674222 L19.0054721,1.16661722 L18.9866596,1.16994534 C18.9504721,1.17599222 18.8777221,1.18836722 18.8814721,1.19061722 L18.7294721,1.16161722 C18.7463293,1.14161722 18.7526558,1.13614783 18.7530698,1.1351799 L18.7411922,1.13575133 C18.7310027,1.13276008 18.7179007,1.1173315 18.7174721,1.05561722 C18.7174721,1.04061722 18.7164721,1.02361722 18.7154721,1.00561722 C18.7144721,0.993617218 18.7134721,0.983617218 18.7134721,0.973617218 C18.7134721,0.928617218 18.6934721,1.04361722 18.7114721,1.02061722 L18.6654721,1.02861722 C18.6354721,1.03361722 18.5934721,1.01561722 18.5614721,0.985617218 C18.4524721,0.885617218 18.3954721,0.928617218 18.3614721,0.968617218 C18.3474721,0.986617218 18.3374721,1.00861722 18.3274721,1.02961722 C18.3184721,1.04661722 18.3104721,1.06361722 18.3014721,1.07661722 C18.2074721,1.20361722 18.0694721,1.19761722 17.8794721,1.05661722 C17.8274721,1.01761722 17.7794721,1.00361722 17.7324721,0.988617218 C17.7144721,0.983617218 17.6964721,0.977617218 17.6794721,0.971617218 C17.6654721,0.966617218 17.6564721,0.969617218 17.6494721,0.972617218 C17.6164721,0.973617218 17.5914721,0.971617218 17.5654721,0.970617218 C17.4354721,0.962617218 17.3004721,0.954617218 17.2104721,1.08161722 C17.1844721,1.11861722 17.1054721,1.09361722 17.0384721,1.05161722 C16.9694721,1.00861722 16.9254721,1.01361722 16.8824721,1.03661722 C16.7864721,1.08461722 16.6754721,1.04361722 16.5514721,0.913617218 C16.5444721,0.905617218 16.5364721,0.897617218 16.5284721,0.888617218 C16.5224721,0.882617218 16.5174721,0.875617218 16.5114721,0.870617218 C16.4254721,0.779617218 16.3534721,0.754617218 16.2984721,0.795617218 C16.2624721,0.823617218 16.2194721,0.818617218 16.1594721,0.780617218 C16.1104721,0.749617218 16.0684721,0.756617218 16.0254721,0.766617218 C15.9154721,0.793617218 15.8214721,0.811617218 15.7044721,0.773617218 C15.5804721,0.732617218 15.4214721,0.689617218 15.2924721,0.717617218 C15.1724721,0.743617218 15.0704721,0.755617218 14.9244721,0.645617218 C14.8724721,0.605617218 14.8154721,0.614617218 14.7544721,0.671617218 C14.7044721,0.719617218 14.6624721,0.712617218 14.5974721,0.645617218 C14.5644721,0.611617218 14.5254721,0.594617218 14.4814721,0.596617218 C14.4494721,0.597617218 14.4164721,0.609617218 14.3794721,0.632617218 C14.3424721,0.609617218 14.3094721,0.597617218 14.2764721,0.596617218 C14.2324721,0.594617218 14.1934721,0.611617218 14.1614721,0.645617218 C14.0964721,0.712617218 14.0544721,0.719617218 14.0044721,0.671617218 C13.9434721,0.614617218 13.8864721,0.605617218 13.8344721,0.645617218 C13.6884721,0.755617218 13.5854721,0.743617218 13.4664721,0.717617218 C13.3374721,0.689617218 13.1784721,0.732617218 13.0544721,0.773617218 C12.9374721,0.811617218 12.8434721,0.793617218 12.7324721,0.766617218 C12.6904721,0.756617218 12.6484721,0.749617218 12.5994721,0.780617218 C12.5394721,0.818617218 12.4964721,0.823617218 12.4594721,0.795617218 C12.4054721,0.754617218 12.3334721,0.779617218 12.2474721,0.870617218 L12.2294721,0.888617218 C12.2224721,0.897617218 12.2144721,0.905617218 12.2064721,0.913617218 C12.0834721,1.04361722 11.9714721,1.08461722 11.8764721,1.03661722 C11.8324721,1.01361722 11.7894721,1.00861722 11.7204721,1.05161722 C11.6534721,1.09361722 11.5744721,1.11861722 11.5484721,1.08161722 C11.4584721,0.954617218 11.3234721,0.962617218 11.1924721,0.970617218 C11.1674721,0.971617218 11.1424721,0.973617218 11.1174721,0.973617218 C11.1024721,0.969617218 11.0924721,0.966617218 11.0794721,0.971617218 C11.0614721,0.977617218 11.0444721,0.983617218 11.0264721,0.988617218 C10.9794721,1.00361722 10.9314721,1.01761722 10.8794721,1.05661722 C10.6884721,1.19761722 10.5504721,1.20361722 10.4574721,1.07661722 C10.4474721,1.06361722 10.4394721,1.04661722 10.4314721,1.02961722 C10.4214721,1.00861722 10.4104721,0.986617218 10.3964721,0.968617218 C10.3634721,0.928617218 10.3054721,0.885617218 10.1974721,0.985617218 C10.1654721,1.01561722 10.1234721,1.03361722 10.0924721,1.02861722 C10.0194721,1.01761722 9.93547212,1.00061722 9.86547212,0.958617218 L9.81947212,0.928617218 C9.74147212,0.876617218 9.66147212,0.822617218 9.54047212,0.867617218 C9.52947212,0.872617218 9.51547212,0.863617218 9.50347212,0.856617218 C9.48747212,0.847617218 9.47947212,0.841617218 9.47147212,0.835617218 C9.42947212,0.805617218 9.37747212,0.768617218 9.28647212,0.863617218 C9.28047212,0.870617218 9.27347212,0.877617218 9.26747212,0.884617218 C9.25947212,0.884617218 9.24747212,0.879617218 9.24247212,0.877617218 L9.17647212,0.849617218 C9.11847212,0.825617218 9.05847212,0.801617218 9.00747212,0.761617218 C8.95647212,0.720617218 8.91247212,0.665617218 8.86447212,0.606617218 L8.84347212,0.627617218 C8.85947212,0.633617218 8.86947212,0.641617218 8.87547212,0.647617218 C8.87647212,0.649617218 8.87747212,0.652617218 8.87847212,0.658617218 C8.88547212,0.708617218 8.88247212,0.752617218 8.87747212,0.758617218 C8.84447212,0.775617218 8.79247212,0.790617218 8.73547212,0.763617218 C8.68647212,0.740617218 8.64247212,0.732617218 8.60147212,0.733617218 C8.57047212,0.794617218 8.53747212,0.844617218 8.49347212,0.890617218 C8.47547212,0.909617218 8.45747212,0.926617218 8.44047212,0.941617218 L8.35447212,0.889617218 L8.25447212,0.828617218 L8.24147212,0.820617218 L8.22347212,0.839617218 L8.19947212,0.864617218 L8.17947212,0.886617218 L8.15647212,0.910617218 C8.14147212,0.992617218 8.12347212,1.01761722 8.07547212,0.983617218 C8.02747212,1.01761722 8.00947212,0.992617218 8.00047212,0.914617218 L7.97247212,0.886617218 L7.95147212,0.864617218 L7.92847212,0.839617218 L7.90947212,0.820617218 L7.89747212,0.828617218 L7.79647212,0.889617218 L7.71147212,0.941617218 C7.69447212,0.926617218 7.67647212,0.909617218 7.65847212,0.890617218 C7.61447212,0.844617218 7.58047212,0.794617218 7.54947212,0.733617218 C7.50847212,0.732617218 7.46547212,0.740617218 7.41547212,0.763617218 C7.35947212,0.790617218 7.30747212,0.775617218 7.27447212,0.758617218 C7.26847212,0.752617218 7.26547212,0.708617218 7.27347212,0.658617218 C7.27447212,0.652617218 7.27547212,0.649617218 7.27547212,0.648617218 C7.28247212,0.641617218 7.29147212,0.633617218 7.30747212,0.627617218 C7.32547212,0.620617218 7.34247212,0.605617218 7.35847212,0.592617218 C7.36447212,0.586617218 7.37147212,0.580617218 7.37747212,0.575617218 C7.38847212,0.568617218 7.39947212,0.561617218 7.40947212,0.554617218 L7.39997212,0.544242218 L7.39247212,0.536617218 L7.36847212,0.507617218 L7.35547212,0.523617218 C7.33147212,0.551617218 7.30847212,0.579617218 7.28747212,0.606617218 C7.23947212,0.665617218 7.19447212,0.720617218 7.14347212,0.761617218 C7.09347212,0.801617218 7.03347212,0.825617218 6.97447212,0.849617218 C6.95247212,0.858617218 6.93147212,0.867617218 6.90947212,0.877617218 C6.90347212,0.879617218 6.89147212,0.884617218 6.88447212,0.884617218 C6.87747212,0.877617218 6.87147212,0.870617218 6.86547212,0.863617218 C6.77447212,0.768617218 6.72247212,0.805617218 6.68047212,0.835617218 C6.67247212,0.841617218 6.66447212,0.847617218 6.65547212,0.851617218 C6.63547212,0.863617218 6.62247212,0.872617218 6.61047212,0.867617218 C6.48947212,0.822617218 6.40947212,0.876617218 6.33247212,0.928617218 L6.28647212,0.958617218 C6.21547212,1.00061722 6.13147212,1.01761722 6.05847212,1.02861722 C6.02847212,1.03361722 5.98647212,1.01561722 5.95347212,0.985617218 C5.84547212,0.885617218 5.78847212,0.928617218 5.75447212,0.968617218 C5.74047212,0.986617218 5.73047212,1.00861722 5.72047212,1.02961722 C5.71147212,1.04661722 5.70347212,1.06361722 5.69447212,1.07661722 C5.60047212,1.20361722 5.46247212,1.19761722 5.27247212,1.05661722 C5.22047212,1.01761722 5.17147212,1.00361722 5.12547212,0.988617218 C5.10747212,0.983617218 5.08947212,0.977617218 5.07147212,0.971617218 C5.05847212,0.966617218 5.04947212,0.969617218 5.04147212,0.972617218 C5.00947212,0.973617218 4.98347212,0.971617218 4.95847212,0.970617218 C4.82847212,0.962617218 4.69347212,0.954617218 4.60347212,1.08161722 C4.57747212,1.11861722 4.49847212,1.09361722 4.43147212,1.05161722 C4.36147212,1.00861722 4.31847212,1.01361722 4.27447212,1.03661722 C4.17947212,1.08461722 4.06847212,1.04361722 3.94447212,0.913617218 C3.93647212,0.905617218 3.92947212,0.897617218 3.92147212,0.888617218 C3.91547212,0.882617218 3.90947212,0.875617218 3.90447212,0.870617218 C3.81747212,0.779617218 3.74647212,0.754617218 3.69147212,0.795617218 C3.65547212,0.823617218 3.61247212,0.818617218 3.55247212,0.780617218 C3.50347212,0.749617218 3.46147212,0.756617218 3.41847212,0.766617218 C3.30747212,0.793617218 3.21447212,0.811617218 3.09747212,0.773617218 C2.97247212,0.732617218 2.81347212,0.689617218 2.68447212,0.717617218 C2.56547212,0.743617218 2.46247212,0.755617218 2.31747212,0.645617218 C2.26547212,0.605617218 2.20747212,0.614617218 2.14747212,0.671617218 C2.09747212,0.719617218 2.05447212,0.712617218 1.99047212,0.645617218 C1.95747212,0.611617218 1.91847212,0.594617218 1.87447212,0.596617218 C1.84247212,0.597617218 1.80947212,0.609617218 1.77147212,0.632617218 C1.73547212,0.609617218 1.70247212,0.597617218 1.66947212,0.596617218 C1.62547212,0.594617218 1.58647212,0.611617218 1.55447212,0.645617218 C1.48947212,0.712617218 1.44747212,0.719617218 1.39647212,0.671617218 C1.33647212,0.614617218 1.27947212,0.605617218 1.22747212,0.645617218 C1.08147212,0.755617218 0.978472116,0.743617218 0.859472116,0.717617218 C0.730472116,0.689617218 0.571472116,0.732617218 0.447472116,0.773617218 C0.447472116,0.773617218 0.0884721162,0.842617218 0.0204721162,0.680617218 C-0.0485278838,0.517617218 0.0614721162,0.281617218 0.281472116,0.280617218 C0.364472116,0.280617218 0.433472116,0.294617218 0.501472116,0.279617218 C0.541472116,0.271617218 0.582472116,0.261617218 0.623472116,0.252617218 C0.902472116,0.190617218 1.19147212,0.125617218 1.44947212,0.152617218 C1.49647212,0.157617218 1.54447212,0.133617218 1.60347212,0.0746172181 C1.68147212,-0.00438278192 1.73247212,-0.0123827819 1.77147212,0.0126172181 C1.81147212,-0.0123827819 1.86247212,-0.00438278192 1.94147212,0.0746172181 C2.00047212,0.133617218 2.04747212,0.157617218 2.09547212,0.152617218 C2.35247212,0.125617218 2.64147212,0.190617218 2.92147212,0.252617218 C2.96147212,0.261617218 3.00247212,0.271617218 3.04247212,0.279617218 C3.11047212,0.294617218 3.18047212,0.294617218 3.26247212,0.280617218 C3.32347212,0.270617218 3.39947212,0.267617218 3.49747212,0.326617218 C3.56647212,0.368617218 3.64047212,0.375617218 3.68847212,0.345617218 C3.75747212,0.301617218 3.84247212,0.328617218 3.92347212,0.363617218 C3.96547212,0.381617218 4.00447212,0.387617218 4.04247212,0.392617218 C4.05747212,0.394617218 4.07247212,0.396617218 4.08747212,0.399617218 L4.11132397,0.403691292 C4.12369434,0.404061663 4.13547212,0.398950551 4.13747212,0.375617218 C4.14647212,0.281617218 4.19147212,0.284617218 4.26547212,0.297617218 C4.31047212,0.305617218 4.35647212,0.313617218 4.38847212,0.285617218 C4.39247212,0.285617218 4.41147212,0.297617218 4.44247212,0.328617218 C4.53047212,0.418617218 4.59947212,0.434617218 4.64047212,0.373617218 C4.68147212,0.313617218 4.74547212,0.325617218 4.83647212,0.364617218 C4.96547212,0.420617218 5.06847212,0.441617218 5.14647212,0.359617218 C5.19247212,0.312617218 5.25747212,0.328617218 5.32947212,0.403617218 C5.33847212,0.413617218 5.34847212,0.424617218 5.35847212,0.436617218 C5.37047212,0.451617218 5.38447212,0.467617218 5.40047212,0.483617218 C5.41147212,0.495617218 5.42247212,0.506617218 5.43347212,0.517617218 C5.44247212,0.527617218 5.45147212,0.536617218 5.46047212,0.545617218 L5.48147212,0.567617218 L5.49347212,0.554617218 C5.50647212,0.542617218 5.51847212,0.527617218 5.52947212,0.514617218 C5.55247212,0.486617218 5.57347212,0.461617218 5.59947212,0.456617218 C5.62147212,0.452617218 5.65047212,0.464617218 5.68147212,0.477617218 C5.70547212,0.488617218 5.73047212,0.498617218 5.75447212,0.502617218 C5.80847212,0.511617218 5.84347212,0.502617218 5.86447212,0.474617218 C5.92647212,0.391617218 6.01847212,0.388617218 6.11647212,0.384617218 C6.13747212,0.384617218 6.15947212,0.383617218 6.18047212,0.381617218 C6.20047212,0.379617218 6.22447212,0.387617218 6.24647212,0.402617218 C6.37347212,0.491617218 6.45047212,0.474617218 6.48847212,0.350617218 C6.50247212,0.305617218 6.53547212,0.305617218 6.58247212,0.350617218 C6.75647212,0.518617218 6.86747212,0.470617218 6.96047212,0.394617218 L6.98147212,0.378617218 C7.01147212,0.353617218 7.04147212,0.328617218 7.07447212,0.308617218 C7.11847212,0.281617218 7.16447212,0.293617218 7.21447212,0.346617218 C7.22147212,0.353617218 7.22847212,0.361617218 7.23547212,0.369617218 C7.24647212,0.383617218 7.25747212,0.396617218 7.26747212,0.406617218 C7.36547212,0.509617218 7.42647212,0.480617218 7.46747212,0.442617218 C7.51647212,0.398617218 7.57547212,0.396617218 7.64047212,0.417617218 C7.73347212,0.378617218 7.81747212,0.371617218 7.88147212,0.442617218 C7.89447212,0.456617218 7.91147212,0.462617218 7.92647212,0.467617218 C7.93147212,0.469617218 7.93647212,0.470617218 7.94147212,0.473617218 C7.95847212,0.480617218 7.97547212,0.488617218 7.99247212,0.497617218 C8.01847212,0.511617218 8.04747212,0.518617218 8.07547212,0.527617218 C8.10347212,0.518617218 8.13347212,0.511617218 8.15947212,0.497617218 C8.17647212,0.488617218 8.19247212,0.480617218 8.21047212,0.473617218 C8.21447212,0.470617218 8.21947212,0.469617218 8.22547212,0.467617218 C8.24047212,0.462617218 8.25647212,0.456617218 8.26947212,0.442617218 C8.33347212,0.371617218 8.41847212,0.378617218 8.51147212,0.417617218 C8.57647212,0.396617218 8.63447212,0.398617218 8.68347212,0.442617218 C8.72547212,0.480617218 8.78547212,0.509617218 8.88447212,0.406617218 C8.89447212,0.396617218 8.90547212,0.383617218 8.91647212,0.369617218 C8.92347212,0.361617218 8.93047212,0.353617218 8.93747212,0.346617218 C8.98747212,0.293617218 9.03247212,0.281617218 9.07747212,0.308617218 C9.10947212,0.328617218 9.14047212,0.353617218 9.17047212,0.378617218 L9.19147212,0.394617218 C9.28447212,0.470617218 9.39447212,0.518617218 9.56947212,0.350617218 C9.61547212,0.305617218 9.64947212,0.305617218 9.66247212,0.350617218 C9.70047212,0.474617218 9.77747212,0.491617218 9.90547212,0.402617218 C9.92647212,0.387617218 9.95047212,0.379617218 9.97147212,0.381617218 C9.99247212,0.383617218 10.0134721,0.384617218 10.0354721,0.384617218 C10.1324721,0.388617218 10.2254721,0.391617218 10.2874721,0.474617218 C10.3084721,0.502617218 10.3434721,0.511617218 10.3974721,0.502617218 C10.4204721,0.498617218 10.4464721,0.488617218 10.4704721,0.477617218 C10.5014721,0.464617218 10.5304721,0.452617218 10.5524721,0.456617218 C10.5784721,0.461617218 10.5994721,0.486617218 10.6214721,0.514617218 L10.6574721,0.554617218 L10.6704721,0.567617218 L10.6914721,0.545617218 C10.6994721,0.536617218 10.7084721,0.527617218 10.7184721,0.517617218 C10.7294721,0.506617218 10.7404721,0.495617218 10.7514721,0.483617218 C10.7674721,0.467617218 10.7804721,0.451617218 10.7934721,0.436617218 C10.8034721,0.424617218 10.8134721,0.413617218 10.8224721,0.403617218 C10.8944721,0.328617218 10.9584721,0.312617218 11.0044721,0.359617218 C11.0834721,0.441617218 11.1854721,0.420617218 11.3154721,0.364617218 C11.4054721,0.325617218 11.4694721,0.313617218 11.5114721,0.373617218 L11.5392641,0.401001218 C11.5805121,0.425257218 11.6382721,0.400617218 11.7094721,0.328617218 C11.7404721,0.297617218 11.7584721,0.285617218 11.7634721,0.285617218 C11.7944721,0.313617218 11.8414721,0.305617218 11.8864721,0.297617218 C11.9594721,0.284617218 12.0054721,0.281617218 12.0144721,0.375617218 C12.0174721,0.410617218 12.0424721,0.404617218 12.0584721,0.400617218 C12.0794721,0.396617218 12.0944721,0.394617218 12.1094721,0.392617218 C12.1464721,0.387617218 12.1854721,0.381617218 12.2284721,0.363617218 C12.3094721,0.328617218 12.3934721,0.301617218 12.4634721,0.345617218 C12.5114721,0.375617218 12.5844721,0.368617218 12.6544721,0.326617218 C12.7524721,0.267617218 12.8274721,0.270617218 12.8894721,0.280617218 C12.9714721,0.294617218 13.0404721,0.294617218 13.1084721,0.279617218 C13.1494721,0.271617218 13.1894721,0.261617218 13.2304721,0.252617218 C13.5094721,0.190617218 13.7994721,0.125617218 14.0564721,0.152617218 C14.1034721,0.157617218 14.1514721,0.133617218 14.2104721,0.0746172181 C14.2894721,-0.00438278192 14.3394721,-0.0123827819 14.3794721,0.0126172181 C14.4194721,-0.0123827819 14.4694721,-0.00438278192 14.5484721,0.0746172181 C14.6074721,0.133617218 14.6544721,0.157617218 14.7024721,0.152617218 C14.9594721,0.125617218 15.2484721,0.190617218 15.5284721,0.252617218 C15.5694721,0.261617218 15.6094721,0.271617218 15.6504721,0.279617218 C15.7174721,0.294617218 15.7874721,0.294617218 15.8694721,0.280617218 C15.9314721,0.270617218 16.0064721,0.267617218 16.1044721,0.326617218 C16.1744721,0.368617218 16.2474721,0.375617218 16.2954721,0.345617218 C16.3654721,0.301617218 16.4494721,0.328617218 16.5304721,0.363617218 C16.5724721,0.381617218 16.6114721,0.387617218 16.6494721,0.392617218 C16.6644721,0.394617218 16.6794721,0.396617218 16.6944721,0.399617218 L16.718324,0.403691292 C16.7306943,0.404061663 16.7424721,0.398950551 16.7444721,0.375617218 C16.7534721,0.281617218 16.7994721,0.284617218 16.8724721,0.297617218 C16.9174721,0.305617218 16.9634721,0.313617218 16.9954721,0.285617218 C17.0004721,0.285617218 17.0184721,0.297617218 17.0494721,0.328617218 C17.1374721,0.418617218 17.2064721,0.434617218 17.2474721,0.373617218 C17.2884721,0.313617218 17.3534721,0.325617218 17.4434721,0.364617218 C17.5734721,0.420617218 17.6754721,0.441617218 17.7544721,0.359617218 C17.7994721,0.312617218 17.8644721,0.328617218 17.9364721,0.403617218 C17.9454721,0.413617218 17.9554721,0.424617218 17.9654721,0.436617218 C17.9774721,0.451617218 17.9914721,0.467617218 18.0074721,0.483617218 C18.0184721,0.495617218 18.0294721,0.506617218 18.0404721,0.517617218 L18.0684721,0.545617218 L18.0884721,0.567617218 L18.1014721,0.554617218 L18.1374721,0.514617218 C18.1594721,0.486617218 18.1804721,0.461617218 18.2064721,0.456617218 C18.2284721,0.452617218 18.2574721,0.464617218 18.2884721,0.477617218 C18.3124721,0.488617218 18.3374721,0.498617218 18.3614721,0.502617218 C18.4154721,0.511617218 18.4504721,0.502617218 18.4714721,0.474617218 C18.5334721,0.391617218 18.6254721,0.388617218 18.7234721,0.384617218 C18.7444721,0.384617218 18.7664721,0.383617218 18.7874721,0.381617218 L18.7564721,0.370617218 C18.7074721,0.356617218 19.0494721,0.337617218 19.0494721,0.263617218 L19.2884721,0.308617218 C19.2984721,0.310617218 19.4154721,0.288617218 19.4244721,0.291617218 C19.4464721,0.297617218 19.4624721,0.301617218 19.4674721,0.313617218 C19.4734721,0.326617218 19.4814721,0.335617218 19.4884721,0.346617218 L19.5554721,0.403617218 C19.5594721,0.400617218 19.5644721,0.397617218 19.5674721,0.394617218 L19.5884721,0.378617218 C19.6184721,0.353617218 19.6494721,0.328617218 19.6814721,0.308617218 C19.7254721,0.281617218 19.7714721,0.293617218 19.8214721,0.346617218 C19.8284721,0.353617218 19.8354721,0.361617218 19.8424721,0.369617218 C19.8534721,0.383617218 19.8644721,0.396617218 19.8744721,0.406617218 L19.9744721,0.509617218 L19.9624721,0.523617218 C19.9484721,0.539617218 19.9364721,0.554617218 19.9234721,0.570617218 C19.9394721,0.581617218 19.9534721,0.592617218 19.9674721,0.603617218 L19.8774721,0.680617218 L19.9674721,0.757617218 C19.9084721,0.803617218 19.8374721,0.852617218 19.7584721,0.873617218 C19.7414721,0.878617218 19.7234721,0.882617218 19.7054721,0.886617218 C19.6704721,0.894617218 19.6354721,0.903617218 19.6014721,0.917617218 L19.4884721,1.01461722 C19.4814721,1.02561722 19.4734721,1.03361722 19.4674721,1.04761722 C19.4624721,1.05861722 19.4464721,1.06261722 19.4324721,1.06661722 C19.4154721,1.07161722 19.4054721,1.07361722 19.3954721,1.07461722 C19.3454721,1.08461722 19.3134721,0.950617218 19.3144721,1.08461722 C19.3144721,1.09361722 19.3144721,1.10261722 19.3154721,1.11361722 C19.3104721,1.11861722 19.2984721,1.12361722 19.2924721,1.12561722 C19.2704721,1.13461722 19.2484721,1.14461722 19.2274721,1.15461722 C19.1694721,1.17961722 19.1804721,1.12561722 19.1174721,1.13461722 C19.0534721,1.14261722 19.0434721,1.15161722 18.9694721,1.14461722 L18.974,1.144 Z"></path></clipPath><clipPath id="i3"><path d="M1.144,0.999 L1.15674222,0.984765625 L1.166,0.969 L1.16994534,0.9878125 C1.17397659,1.0119375 1.18082034,1.0523125 1.18560159,1.0754375 L1.19061722,1.093 L1.16161722,1.245 C1.14161722,1.22814286 1.13614783,1.22181633 1.1351799,1.22140233 L1.13575133,1.23327988 C1.13276008,1.24346939 1.1173315,1.25657143 1.05561722,1.257 C1.04061722,1.257 1.02361722,1.258 1.00561722,1.259 C0.993617218,1.26 0.983617218,1.261 0.973617218,1.261 C0.928617218,1.261 1.04361722,1.281 1.02061722,1.263 L1.02861722,1.309 C1.03361722,1.339 1.01561722,1.381 0.985617218,1.413 C0.885617218,1.522 0.928617218,1.579 0.968617218,1.613 C0.986617218,1.627 1.00861722,1.637 1.02961722,1.647 C1.04661722,1.656 1.06361722,1.664 1.07661722,1.673 C1.20361722,1.767 1.19761722,1.905 1.05661722,2.095 C1.01761722,2.147 1.00361722,2.195 0.988617218,2.242 C0.983617218,2.26 0.977617218,2.278 0.971617218,2.295 C0.966617218,2.309 0.969617218,2.318 0.972617218,2.325 C0.973617218,2.358 0.971617218,2.383 0.970617218,2.409 C0.962617218,2.539 0.954617218,2.674 1.08161722,2.764 C1.11861722,2.79 1.09361722,2.869 1.05161722,2.936 C1.00861722,3.005 1.01361722,3.049 1.03661722,3.092 C1.08461722,3.188 1.04361722,3.299 0.913617218,3.423 C0.905617218,3.43 0.897617218,3.438 0.888617218,3.446 C0.882617218,3.452 0.875617218,3.457 0.870617218,3.463 C0.779617218,3.549 0.754617218,3.621 0.795617218,3.676 C0.823617218,3.712 0.818617218,3.755 0.780617218,3.815 C0.749617218,3.864 0.756617218,3.906 0.766617218,3.949 C0.793617218,4.059 0.811617218,4.153 0.773617218,4.27 C0.732617218,4.394 0.689617218,4.553 0.717617218,4.682 C0.743617218,4.802 0.755617218,4.904 0.645617218,5.05 C0.605617218,5.102 0.614617218,5.159 0.671617218,5.22 C0.719617218,5.27 0.712617218,5.312 0.645617218,5.377 C0.611617218,5.41 0.594617218,5.449 0.596617218,5.493 C0.597617218,5.525 0.609617218,5.558 0.632617218,5.595 C0.609617218,5.632 0.597617218,5.665 0.596617218,5.698 C0.594617218,5.742 0.611617218,5.781 0.645617218,5.813 C0.712617218,5.878 0.719617218,5.92 0.671617218,5.97 C0.614617218,6.031 0.605617218,6.088 0.645617218,6.14 C0.755617218,6.286 0.743617218,6.389 0.717617218,6.508 C0.689617218,6.637 0.732617218,6.796 0.773617218,6.92 C0.811617218,7.037 0.793617218,7.131 0.766617218,7.242 C0.756617218,7.284 0.749617218,7.326 0.780617218,7.375 C0.818617218,7.435 0.823617218,7.478 0.795617218,7.515 L0.778937218,7.549528 C0.767257218,7.59836 0.797817218,7.6582 0.870617218,7.727 L0.888617218,7.745 C0.897617218,7.752 0.905617218,7.76 0.913617218,7.768 C1.04361722,7.891 1.08461722,8.003 1.03661722,8.098 C1.01361722,8.142 1.00861722,8.185 1.05161722,8.254 C1.09361722,8.321 1.11861722,8.4 1.08161722,8.426 C0.954617218,8.516 0.962617218,8.651 0.970617218,8.782 C0.971617218,8.807 0.973617218,8.832 0.973617218,8.857 L0.969117218,8.87775 L0.971617218,8.895 C0.977617218,8.913 0.983617218,8.93 0.988617218,8.948 C1.00361722,8.995 1.01761722,9.043 1.05661722,9.095 C1.19761722,9.286 1.20361722,9.424 1.07661722,9.517 C1.06361722,9.527 1.04661722,9.535 1.02961722,9.543 C1.00861722,9.553 0.986617218,9.564 0.968617218,9.578 C0.928617218,9.611 0.885617218,9.669 0.985617218,9.777 C1.01561722,9.809 1.03361722,9.851 1.02861722,9.882 C1.01761722,9.955 1.00061722,10.039 0.958617218,10.109 L0.928617218,10.155 C0.876617218,10.233 0.822617218,10.313 0.867617218,10.434 C0.872617218,10.445 0.863617218,10.459 0.856617218,10.471 C0.847617218,10.487 0.841617218,10.495 0.835617218,10.503 C0.805617218,10.545 0.768617218,10.597 0.863617218,10.688 C0.870617218,10.694 0.877617218,10.701 0.884617218,10.707 C0.884617218,10.715 0.879617218,10.727 0.877617218,10.732 L0.849617218,10.798 C0.825617218,10.856 0.801617218,10.916 0.761617218,10.967 C0.720617218,11.018 0.665617218,11.062 0.606617218,11.11 L0.627617218,11.131 C0.633617218,11.115 0.641617218,11.105 0.647617218,11.099 L0.658617218,11.096 C0.708617218,11.089 0.752617218,11.092 0.758617218,11.097 C0.775617218,11.13 0.790617218,11.182 0.763617218,11.239 C0.740617218,11.288 0.732617218,11.332 0.733617218,11.373 C0.794617218,11.404 0.844617218,11.437 0.890617218,11.481 C0.909617218,11.499 0.926617218,11.517 0.941617218,11.534 L0.889617218,11.62 L0.828617218,11.72 L0.820617218,11.733 L0.839617218,11.751 L0.864617218,11.775 L0.886617218,11.795 L0.910617218,11.818 C0.992617218,11.833 1.01761722,11.851 0.983617218,11.899 C1.01761722,11.947 0.992617218,11.965 0.914617218,11.974 L0.886617218,12.002 L0.864617218,12.023 L0.839617218,12.046 L0.820617218,12.065 L0.828617218,12.077 L0.889617218,12.178 L0.941617218,12.263 C0.926617218,12.28 0.909617218,12.298 0.890617218,12.316 C0.844617218,12.36 0.794617218,12.394 0.733617218,12.425 C0.732617218,12.466 0.740617218,12.509 0.763617218,12.559 C0.790617218,12.615 0.775617218,12.667 0.758617218,12.7 C0.752617218,12.706 0.708617218,12.709 0.658617218,12.701 C0.652617218,12.7 0.649617218,12.699 0.648617218,12.699 C0.641617218,12.692 0.633617218,12.683 0.627617218,12.667 C0.620617218,12.649 0.605617218,12.632 0.592617218,12.616 C0.586617218,12.61 0.580617218,12.603 0.575617218,12.597 C0.568617218,12.586 0.561617218,12.575 0.554617218,12.565 C0.546617218,12.572 0.541617218,12.577 0.536617218,12.582 L0.507617218,12.606 L0.523617218,12.619 C0.551617218,12.643 0.579617218,12.666 0.606617218,12.687 C0.665617218,12.735 0.720617218,12.78 0.761617218,12.831 C0.801617218,12.881 0.825617218,12.941 0.849617218,13 C0.858617218,13.022 0.867617218,13.043 0.877617218,13.065 C0.879617218,13.071 0.884617218,13.083 0.884617218,13.09 C0.877617218,13.097 0.870617218,13.103 0.863617218,13.109 C0.768617218,13.2 0.805617218,13.252 0.835617218,13.294 C0.841617218,13.302 0.847617218,13.31 0.851617218,13.319 C0.863617218,13.339 0.872617218,13.352 0.867617218,13.364 C0.822617218,13.485 0.876617218,13.565 0.928617218,13.642 L0.958617218,13.688 C1.00061722,13.759 1.01761722,13.843 1.02861722,13.916 C1.03361722,13.946 1.01561722,13.988 0.985617218,14.021 C0.885617218,14.129 0.928617218,14.186 0.968617218,14.22 C0.986617218,14.234 1.00861722,14.244 1.02961722,14.254 C1.04661722,14.263 1.06361722,14.271 1.07661722,14.28 C1.20361722,14.374 1.19761722,14.512 1.05661722,14.702 C1.01761722,14.754 1.00361722,14.803 0.988617218,14.849 C0.983617218,14.867 0.977617218,14.885 0.971617218,14.903 C0.966617218,14.916 0.969617218,14.925 0.972617218,14.933 C0.973617218,14.965 0.971617218,14.991 0.970617218,15.016 C0.962617218,15.146 0.954617218,15.281 1.08161722,15.371 C1.11861722,15.397 1.09361722,15.476 1.05161722,15.543 C1.00861722,15.613 1.01361722,15.656 1.03661722,15.7 C1.08461722,15.795 1.04361722,15.906 0.913617218,16.03 C0.905617218,16.038 0.897617218,16.045 0.888617218,16.053 C0.882617218,16.059 0.875617218,16.065 0.870617218,16.07 C0.779617218,16.157 0.754617218,16.228 0.795617218,16.283 C0.823617218,16.319 0.818617218,16.362 0.780617218,16.422 C0.749617218,16.471 0.756617218,16.513 0.766617218,16.556 C0.793617218,16.667 0.811617218,16.76 0.773617218,16.877 C0.732617218,17.002 0.689617218,17.161 0.717617218,17.29 C0.743617218,17.409 0.755617218,17.512 0.645617218,17.657 C0.605617218,17.709 0.614617218,17.767 0.671617218,17.827 C0.719617218,17.877 0.712617218,17.92 0.645617218,17.984 C0.611617218,18.017 0.594617218,18.056 0.596617218,18.1 C0.597617218,18.132 0.609617218,18.165 0.632617218,18.203 C0.609617218,18.239 0.597617218,18.272 0.596617218,18.305 C0.594617218,18.349 0.611617218,18.388 0.645617218,18.42 C0.712617218,18.485 0.719617218,18.527 0.671617218,18.578 C0.614617218,18.638 0.605617218,18.695 0.645617218,18.747 C0.755617218,18.893 0.743617218,18.996 0.717617218,19.115 C0.689617218,19.244 0.732617218,19.403 0.773617218,19.527 C0.773617218,19.527 0.842617218,19.886 0.680617218,19.954 C0.517617218,20.023 0.281617218,19.913 0.280617218,19.693 C0.280617218,19.61 0.294617218,19.541 0.279617218,19.473 C0.271617218,19.433 0.261617218,19.392 0.252617218,19.351 C0.190617218,19.072 0.125617218,18.783 0.152617218,18.525 C0.157617218,18.478 0.133617218,18.43 0.0746172181,18.371 C-0.00438278192,18.293 -0.0123827819,18.242 0.0126172181,18.203 C-0.0123827819,18.163 -0.00438278192,18.112 0.0746172181,18.033 C0.133617218,17.974 0.157617218,17.927 0.152617218,17.879 C0.125617218,17.622 0.190617218,17.333 0.252617218,17.053 C0.261617218,17.013 0.271617218,16.972 0.279617218,16.932 C0.294617218,16.864 0.294617218,16.794 0.280617218,16.712 C0.270617218,16.651 0.267617218,16.575 0.326617218,16.477 C0.368617218,16.408 0.375617218,16.334 0.345617218,16.286 C0.301617218,16.217 0.328617218,16.132 0.363617218,16.051 C0.381617218,16.009 0.387617218,15.97 0.392617218,15.932 C0.394617218,15.917 0.396617218,15.902 0.399617218,15.887 L0.403691292,15.8631481 C0.404061663,15.8507778 0.398950551,15.839 0.375617218,15.837 C0.281617218,15.828 0.284617218,15.783 0.297617218,15.709 C0.305617218,15.664 0.313617218,15.618 0.285617218,15.586 C0.285617218,15.582 0.297617218,15.563 0.328617218,15.532 C0.418617218,15.444 0.434617218,15.375 0.373617218,15.334 C0.313617218,15.293 0.325617218,15.229 0.364617218,15.138 C0.420617218,15.009 0.441617218,14.906 0.359617218,14.828 C0.312617218,14.782 0.328617218,14.717 0.403617218,14.645 C0.413617218,14.636 0.424617218,14.626 0.436617218,14.616 C0.451617218,14.604 0.467617218,14.59 0.483617218,14.574 C0.495617218,14.563 0.506617218,14.552 0.517617218,14.541 C0.527617218,14.532 0.536617218,14.523 0.545617218,14.514 L0.567617218,14.493 L0.554617218,14.481 C0.542617218,14.468 0.527617218,14.456 0.514617218,14.445 C0.486617218,14.422 0.461617218,14.401 0.456617218,14.375 C0.452617218,14.353 0.464617218,14.324 0.477617218,14.293 C0.488617218,14.269 0.498617218,14.244 0.502617218,14.22 C0.511617218,14.166 0.502617218,14.131 0.474617218,14.11 C0.391617218,14.048 0.388617218,13.956 0.384617218,13.858 C0.384617218,13.837 0.383617218,13.815 0.381617218,13.794 C0.379617218,13.774 0.387617218,13.75 0.402617218,13.728 C0.491617218,13.601 0.474617218,13.524 0.350617218,13.486 C0.305617218,13.472 0.305617218,13.439 0.350617218,13.392 C0.518617218,13.218 0.470617218,13.107 0.394617218,13.014 L0.378617218,12.993 C0.353617218,12.963 0.328617218,12.933 0.308617218,12.9 C0.281617218,12.856 0.293617218,12.81 0.346617218,12.76 C0.353617218,12.753 0.361617218,12.746 0.369617218,12.739 C0.383617218,12.728 0.396617218,12.717 0.406617218,12.707 C0.509617218,12.609 0.480617218,12.548 0.442617218,12.507 C0.398617218,12.458 0.396617218,12.399 0.417617218,12.334 C0.378617218,12.241 0.371617218,12.157 0.442617218,12.093 C0.456617218,12.08 0.462617218,12.063 0.467617218,12.048 C0.469617218,12.043 0.470617218,12.038 0.473617218,12.033 C0.480617218,12.016 0.488617218,11.999 0.497617218,11.982 C0.511617218,11.956 0.518617218,11.927 0.527617218,11.899 C0.518617218,11.871 0.511617218,11.841 0.497617218,11.815 C0.488617218,11.798 0.480617218,11.782 0.473617218,11.764 C0.470617218,11.76 0.469617218,11.755 0.467617218,11.749 C0.462617218,11.734 0.456617218,11.718 0.442617218,11.705 C0.371617218,11.641 0.378617218,11.556 0.417617218,11.463 C0.396617218,11.398 0.398617218,11.34 0.442617218,11.291 C0.480617218,11.249 0.509617218,11.189 0.406617218,11.09 C0.396617218,11.08 0.383617218,11.069 0.369617218,11.058 C0.361617218,11.051 0.353617218,11.044 0.346617218,11.037 C0.293617218,10.987 0.281617218,10.942 0.308617218,10.897 C0.328617218,10.865 0.353617218,10.834 0.378617218,10.804 L0.394617218,10.783 C0.470617218,10.69 0.518617218,10.58 0.350617218,10.405 C0.305617218,10.359 0.305617218,10.325 0.350617218,10.312 C0.474617218,10.274 0.491617218,10.197 0.402617218,10.069 C0.387617218,10.048 0.379617218,10.024 0.381617218,10.003 C0.383617218,9.982 0.384617218,9.961 0.384617218,9.939 C0.388617218,9.842 0.391617218,9.749 0.474617218,9.687 C0.502617218,9.666 0.511617218,9.631 0.502617218,9.577 C0.498617218,9.554 0.488617218,9.528 0.477617218,9.504 C0.464617218,9.473 0.452617218,9.444 0.456617218,9.422 C0.461617218,9.396 0.486617218,9.375 0.514617218,9.353 L0.554617218,9.317 L0.567617218,9.304 L0.545617218,9.283 C0.536617218,9.275 0.527617218,9.266 0.517617218,9.256 L0.500992218,9.2395 L0.483617218,9.223 C0.467617218,9.207 0.451617218,9.194 0.436617218,9.181 C0.424617218,9.171 0.413617218,9.161 0.403617218,9.152 C0.328617218,9.08 0.312617218,9.016 0.359617218,8.97 C0.441617218,8.891 0.420617218,8.789 0.364617218,8.659 C0.325617218,8.569 0.313617218,8.505 0.373617218,8.463 C0.434617218,8.422 0.418617218,8.354 0.328617218,8.265 C0.297617218,8.234 0.285617218,8.216 0.285617218,8.211 C0.313617218,8.18 0.305617218,8.133 0.297617218,8.088 C0.284617218,8.015 0.281617218,7.969 0.375617218,7.96 C0.410617218,7.957 0.404617218,7.932 0.400617218,7.916 C0.396617218,7.895 0.394617218,7.88 0.392617218,7.865 C0.387617218,7.828 0.381617218,7.789 0.363617218,7.746 C0.328617218,7.665 0.301617218,7.581 0.345617218,7.511 C0.375617218,7.463 0.368617218,7.39 0.326617218,7.32 C0.267617218,7.222 0.270617218,7.147 0.280617218,7.085 C0.294617218,7.003 0.294617218,6.934 0.279617218,6.866 C0.271617218,6.825 0.261617218,6.785 0.252617218,6.744 C0.190617218,6.465 0.125617218,6.175 0.152617218,5.918 C0.157617218,5.871 0.133617218,5.823 0.0746172181,5.764 C-0.00438278192,5.685 -0.0123827819,5.635 0.0126172181,5.595 C-0.0123827819,5.555 -0.00438278192,5.505 0.0746172181,5.426 C0.133617218,5.367 0.157617218,5.32 0.152617218,5.272 C0.125617218,5.015 0.190617218,4.726 0.252617218,4.446 C0.261617218,4.405 0.271617218,4.365 0.279617218,4.324 C0.294617218,4.257 0.294617218,4.187 0.280617218,4.105 C0.270617218,4.043 0.267617218,3.968 0.326617218,3.87 C0.368617218,3.8 0.375617218,3.727 0.345617218,3.679 C0.301617218,3.609 0.328617218,3.525 0.363617218,3.444 C0.381617218,3.402 0.387617218,3.363 0.392617218,3.325 C0.394617218,3.31 0.396617218,3.295 0.399617218,3.28 L0.403691292,3.25614815 C0.404061663,3.24377778 0.398950551,3.232 0.375617218,3.23 C0.281617218,3.221 0.284617218,3.175 0.297617218,3.102 C0.305617218,3.057 0.313617218,3.011 0.285617218,2.979 C0.285617218,2.974 0.297617218,2.956 0.328617218,2.925 C0.418617218,2.837 0.434617218,2.768 0.373617218,2.727 C0.313617218,2.686 0.325617218,2.621 0.364617218,2.531 C0.420617218,2.401 0.441617218,2.299 0.359617218,2.22 C0.312617218,2.175 0.328617218,2.11 0.403617218,2.038 C0.413617218,2.029 0.424617218,2.019 0.436617218,2.009 C0.451617218,1.997 0.467617218,1.983 0.483617218,1.967 C0.495617218,1.956 0.506617218,1.945 0.517617218,1.934 L0.545617218,1.906 L0.567617218,1.886 L0.554617218,1.873 C0.542617218,1.86 0.527617218,1.849 0.514617218,1.837 C0.486617218,1.815 0.461617218,1.794 0.456617218,1.768 C0.452617218,1.746 0.464617218,1.717 0.477617218,1.686 C0.488617218,1.662 0.498617218,1.637 0.502617218,1.613 C0.511617218,1.559 0.502617218,1.524 0.474617218,1.503 C0.391617218,1.441 0.388617218,1.349 0.384617218,1.251 C0.384617218,1.23 0.383617218,1.208 0.381617218,1.187 L0.370617218,1.218 C0.356617218,1.267 0.337617218,0.925 0.263617218,0.925 L0.308617218,0.686 C0.310617218,0.676 0.288617218,0.559 0.291617218,0.55 C0.297617218,0.528 0.301617218,0.512 0.313617218,0.507 C0.326617218,0.501 0.335617218,0.493 0.346617218,0.486 L0.403617218,0.419 C0.400617218,0.415 0.397617218,0.41 0.394617218,0.407 L0.377617218,0.386 C0.353617218,0.356 0.328617218,0.325 0.308617218,0.293 C0.281617218,0.249 0.293617218,0.203 0.346617218,0.153 C0.353617218,0.146 0.361617218,0.139 0.369617218,0.132 C0.383617218,0.121 0.396617218,0.11 0.406617218,0.1 L0.509617218,0 L0.523617218,0.012 C0.539617218,0.026 0.554617218,0.038 0.570617218,0.051 C0.581617218,0.035 0.592617218,0.021 0.602617218,0.007 L0.680617218,0.097 L0.757617218,0.007 C0.802617218,0.066 0.852617218,0.137 0.873617218,0.216 C0.878617218,0.233 0.882617218,0.251 0.886617218,0.269 C0.894617218,0.304 0.903617218,0.339 0.917617218,0.373 L1.01461722,0.486 C1.02561722,0.493 1.03361722,0.501 1.04761722,0.507 C1.05861722,0.512 1.06261722,0.528 1.06661722,0.542 C1.07161722,0.559 1.07361722,0.569 1.07461722,0.579 C1.08461722,0.629 0.950617218,0.661 1.08461722,0.66 C1.09361722,0.66 1.10261722,0.66 1.11361722,0.659 C1.11861722,0.664 1.12361722,0.676 1.12561722,0.682 C1.13461722,0.704 1.14461722,0.726 1.15461722,0.747 C1.17961722,0.805 1.12561722,0.794 1.13461722,0.857 C1.14261722,0.921 1.15161722,0.931 1.14461722,1.005 L1.144,0.999 Z"></path></clipPath></defs><g clip-path="url(#i0)"><polygon points="0,0 28,0 28,28 0,28 0,0" stroke="none" fill="#9A9C9C"></polygon></g><g transform="translate(23.4872 13.3415)"><g clip-path="url(#i1)"><polygon points="0.487,0.486 0.513,0.486 0.513,0.514 0.487,0.514 0.487,0.486" stroke="none" fill="#000000"></polygon></g></g><g transform="translate(3.6064278837694044 3.8919999999999995)"><g transform="translate(0.0 9.391782781916667)"><g clip-path="url(#i2)"><polygon points="-4.6980276e-17,-5.57352237e-16 19.9744721,-5.57352237e-16 19.9744721,1.19061722 -4.6980276e-17,1.19061722 -4.6980276e-17,-5.57352237e-16" stroke="none" fill="#000000"></polygon></g></g><g transform="translate(9.391654898147266 0.0)"><g clip-path="url(#i3)"><polygon points="-5.57352237e-16,0 1.19061722,0 1.19061722,19.9744721 -5.57352237e-16,19.9744721 -5.57352237e-16,0" stroke="none" fill="#000000"></polygon></g></g></g></svg>