<?xml version="1.0" encoding="UTF-8"?><svg version="1.1" width="79px" height="79px" viewBox="0 0 79.0 79.0" xmlns="http://www.w3.org/2000/svg" xmlns:xlink="http://www.w3.org/1999/xlink"><defs><clipPath id="i0"><path d="M0.504,0 C0.782,0 1.008,0.226 1.008,0.504 L1.008,4.131 C1.008,4.409 0.782,4.635 0.504,4.635 C0.226,4.635 0,4.409 0,4.131 L0,0.504 C0,0.226 0.226,0 0.504,0 Z"></path></clipPath><clipPath id="i1"><path d="M4.131,0 C4.409,0 4.635,0.226 4.635,0.504 C4.635,0.782 4.409,1.008 4.131,1.008 L0.504,1.008 C0.226,1.008 0,0.782 0,0.504 C0,0.226 0.226,0 0.504,0 Z"></path></clipPath><clipPath id="i2"><path d="M2.71275,0.14775 C2.90875,-0.04925 3.22775,-0.04925 3.42475,0.14775 C3.62175,0.34475 3.62175,0.66375 3.42475,0.85975 L0.85975,3.42475 C0.76175,3.52375 0.63275,3.57275 0.50375,3.57275 C0.37475,3.57275 0.24575,3.52375 0.14775,3.42475 C-0.04925,3.22875 -0.04925,2.90975 0.14775,2.71275 Z"></path></clipPath><clipPath id="i3"><path d="M29.2418659,0 C31.1418659,0 32.6878659,1.545 32.6878659,3.445 C32.6878659,4.475 32.2318659,5.399 31.5128659,6.03 C40.4778659,7.152 47.4378659,14.816 47.4378659,24.08 L47.4378659,53.37 C51.0298659,53.715 54.6018659,54.157 58.0608659,54.69 C58.3358659,54.733 58.5238659,54.99 58.4818659,55.265 C58.4428659,55.513 58.2288659,55.692 57.9848659,55.692 C57.9588659,55.692 57.9328659,55.69 57.9078659,55.686 C54.4988659,55.16 50.9788659,54.724 47.4378659,54.382 L47.4378659,63.866 C47.4236993,66.7025556 31.8686468,66.8900802 29.5144325,66.9021831 L28.9691682,66.9021824 C26.613511,66.8900679 11.0458659,66.7023333 11.0458659,63.869 L11.0458659,54.382 C7.50586594,54.725 3.98786594,55.161 0.579865935,55.686 C0.554865935,55.69 0.528865935,55.692 0.502865935,55.692 C0.258865935,55.692 0.0448659354,55.513 0.00586593543,55.265 C-0.0361340646,54.99 0.151865935,54.733 0.426865935,54.69 C3.88486594,54.158 7.45486594,53.716 11.0458659,53.37 L11.0458659,24.08 C11.0458659,14.816 18.0068659,7.152 26.9718659,6.03 C26.2528659,5.398 25.7968659,4.475 25.7968659,3.445 C25.7968659,1.545 27.3418659,0 29.2418659,0 Z M29.6148659,61.845 L28.8668659,61.845 L28.8668659,62.665 C28.8668659,63.987 27.7918659,65.062 26.4708659,65.062 C25.1488659,65.062 24.0738659,63.987 24.0738659,62.665 L24.0738659,61.953 C15.7048659,62.317 12.4068659,63.385 12.0638659,63.884 C12.5438659,64.688 18.8918659,65.896 29.2418659,65.896 C39.5438659,65.896 45.8818659,64.698 46.4208659,63.854 C46.1258659,63.4 42.8408659,62.32 34.4078659,61.953 L34.4078659,62.665 C34.4078659,63.987 33.3328659,65.062 32.0118659,65.062 C30.6908659,65.062 29.6148659,63.987 29.6148659,62.665 L29.6148659,61.845 Z M33.4008659,59.819 L30.6218659,59.819 L30.6228659,62.665 C30.6228659,63.432 31.2458659,64.055 32.0118659,64.055 C32.7778659,64.055 33.4008659,63.432 33.4008659,62.665 L33.4008659,59.819 Z M27.8598659,59.819 L25.0808659,59.819 L25.0808659,62.665 C25.0808659,63.432 25.7038659,64.055 26.4708659,64.055 C27.2368659,64.055 27.8598659,63.432 27.8598659,62.665 L27.8593659,61.346625 L27.8598659,59.819 Z M24.0738659,53.567 C20.0938659,53.68 16.0568659,53.922 12.0528659,54.288 L12.0528659,62.732 C14.3488659,61.564 20.0878659,61.116 24.0738659,60.944 Z M34.4088659,53.567 L34.4088659,59.297 C34.4088659,59.303 34.4118659,59.309 34.4118659,59.316 C34.4118659,59.322 34.4088659,59.328 34.4088659,59.335 L34.4078659,60.944 C38.3938659,61.116 44.1348659,61.564 46.4308659,62.731 L46.4308659,54.287 C42.4268659,53.921 38.3888659,53.68 34.4088659,53.567 Z M29.2628659,53.49 L28.8668659,53.491 L28.8668659,60.838 L29.6148659,60.838 L29.6143659,59.318125 L29.6148659,53.491 L29.2628659,53.49 Z M33.4038659,40.507 L25.0808659,40.507 L25.0808659,53.029 L25.0808659,53.039 L25.0808659,58.812 L27.8598659,58.812 L27.8593659,52.992 L27.8598659,45.712 C27.8598659,44.944 28.4788659,44.319 29.2398659,44.319 C30.0018659,44.319 30.6208659,44.944 30.6208659,45.712 L30.6218659,52.787 C30.6488659,52.85 30.6658659,52.918 30.6658659,52.991 C30.6648659,53.063 30.6488659,53.13 30.6218659,53.192 L30.6218659,58.812 L33.4008659,58.812 L33.4028659,41.192 C33.4028659,41.188 33.4018659,41.185 33.4018659,41.182 L33.4038659,40.507 Z M29.2418659,6.891 C19.7638659,6.891 12.0528659,14.602 12.0528659,24.08 L12.0528659,53.277 C16.0568659,52.913 20.0938659,52.672 24.0738659,52.56 L24.0738659,42.981 C23.7488659,43.183 23.3678659,43.306 22.9568659,43.306 C21.7858659,43.306 20.8328659,42.353 20.8328659,41.182 L20.8328659,28.641 C20.8328659,26.484 22.5398659,24.722 24.6738659,24.625 C24.4018659,24.019 24.2468659,23.35 24.2468659,22.645 C24.2468659,19.972 26.4208659,17.797 29.0938659,17.797 C31.7668659,17.797 33.9408659,19.972 33.9408659,22.645 C33.9408659,23.339 33.7918659,23.998 33.5278659,24.595 L33.6248659,24.595 C35.8448659,24.595 37.6508659,26.41 37.6508659,28.641 L37.6508659,41.182 C37.6508659,42.353 36.6978659,43.306 35.5268659,43.306 C35.1158659,43.306 34.7358659,43.184 34.4108659,42.981 L34.4088659,52.56 C38.3888659,52.671 42.4268659,52.913 46.4308659,53.277 L46.4308659,24.08 C46.4308659,14.602 38.7198659,6.891 29.2418659,6.891 Z M29.2398659,45.327 C29.0338659,45.327 28.8668659,45.499 28.8668659,45.712 L28.8668659,52.484 L29.6138659,52.484 L29.6138659,45.712 C29.6138659,45.499 29.4458659,45.327 29.2398659,45.327 Z M24.0738659,31.399 L21.8398659,31.399 L21.8398659,41.182 C21.8398659,41.798 22.3408659,42.299 22.9568659,42.299 C23.5718659,42.299 24.0718659,41.799 24.0738659,41.185 L24.0738659,31.399 Z M36.6438659,31.399 L34.4118659,31.399 L34.4108659,39.996 L34.4113659,40.007125 L34.4108659,41.192 C34.4158659,41.803 34.9138659,42.299 35.5268659,42.299 C36.1428659,42.299 36.6438659,41.798 36.6438659,41.182 L36.6438659,31.399 Z M33.6248659,25.603 L32.9248659,25.603 C32.0378659,26.749 30.6528659,27.492 29.0938659,27.492 C27.5448659,27.492 26.1658659,26.758 25.2778659,25.623 L24.8588659,25.623 C23.1938659,25.623 21.8398659,26.977 21.8398659,28.641 L21.8398659,30.392 L24.0738659,30.392 L24.0738659,28.641 C24.0738659,28.363 24.2998659,28.138 24.5768659,28.138 C24.8548659,28.138 25.0808659,28.363 25.0808659,28.641 L25.0808659,39.5 L33.4038659,39.5 L33.4048659,28.641 C33.4048659,28.363 33.6308659,28.138 33.9088659,28.138 C34.1868659,28.138 34.4118659,28.363 34.4118659,28.641 L34.4118659,30.392 L36.6438659,30.392 L36.6438659,28.641 C36.6438659,26.966 35.2898659,25.603 33.6248659,25.603 Z M29.0938659,18.805 C26.9768659,18.805 25.2538659,20.527 25.2538659,22.645 C25.2538659,24.762 26.9768659,26.484 29.0938659,26.484 C31.2108659,26.484 32.9338659,24.762 32.9338659,22.645 C32.9338659,20.527 31.2108659,18.805 29.0938659,18.805 Z M29.2418659,1.007 C27.8978659,1.007 26.8038659,2.101 26.8038659,3.445 C26.8038659,4.79 27.8978659,5.884 29.2418659,5.884 C30.5868659,5.884 31.6808659,4.79 31.6808659,3.445 C31.6808659,2.101 30.5868659,1.007 29.2418659,1.007 Z"></path></clipPath></defs><g transform="translate(42.789699999999996 16.0734)"><g clip-path="url(#i0)"><polygon points="0,0 1.008,0 1.008,4.635 0,4.635 0,0" stroke="none" fill="#FFFFFF"></polygon></g></g><g transform="translate(45.0394 22.706399999999995)"><g clip-path="url(#i1)"><polygon points="0,0 4.635,0 4.635,1.008 0,1.008 0,0" stroke="none" fill="#FFFFFF"></polygon></g></g><g transform="translate(44.36895 18.12325)"><g clip-path="url(#i2)"><polygon points="-1.77635684e-15,0 3.5725,0 3.5725,3.57275 -1.77635684e-15,3.57275 -1.77635684e-15,0" stroke="none" fill="#FFFFFF"></polygon></g></g><g transform="translate(10.169234064567561 4.637900000000002)"><g clip-path="url(#i3)"><polygon points="-6.8813811e-18,0 58.4877319,0 58.4877319,66.903 -6.8813811e-18,66.903 -6.8813811e-18,0" stroke="none" fill="#FFFFFF"></polygon></g></g></svg>