<?xml version="1.0" encoding="UTF-8"?><svg version="1.1" width="240px" height="240px" viewBox="0 0 240.0 240.0" xmlns="http://www.w3.org/2000/svg" xmlns:xlink="http://www.w3.org/1999/xlink"><defs><clipPath id="i0"><path d="M11.467,0 C12.313,0 13.001,0.687 13.001,1.534 C13.001,2.38 12.313,3.068 11.467,3.068 L8.255,3.068 L8.255,21.342 C8.255,22.189 7.567,22.876 6.721,22.876 C5.875,22.876 5.187,22.189 5.187,21.342 L5.187,3.068 L1.533,3.068 C0.687,3.068 0,2.38 0,1.534 C0,0.687 0.687,0 1.533,0 Z"></path></clipPath><clipPath id="i1"><path d="M115.259,0 L115.259,71.197 L121.663,93.365 C122.234,95.244 122.625,97.017 121.57,99.5 C120.884,101.114 120.014,101.977 118.811,103.171 C118.748875,103.23275 118.685359,103.295844 118.620398,103.360467 L118.212852,103.768041 C117.858047,104.125453 117.464375,104.530375 117.025,105.006 L108.404,113.141 C117.992,113.197 127.742,113.553 137.467,114.21 L137.465,84.803 C136.15,84.213 135.229,82.897 135.229,81.365 L135.229,60.243 L129.234,64.403 C129.177,64.443 129.117,64.48 129.053,64.511 C125.74,66.194 122.54,64.773 120.652,62.886 C118.178,60.412 118.956,57.633 119.755,55.758 C119.758,55.751 119.764,55.747 119.768,55.741 C119.77,55.734 119.769,55.727 119.772,55.721 L128.561,36.582 C129.652,34.443 131.763,33.15 134.099,33.15 C137.511,33.15 140.287,35.926 140.287,39.338 C140.287,39.771 140.227,40.197 140.138,40.616 C141.279,40.169 142.533,39.864 143.903,39.66 C140.263,37.067 137.876,32.822 137.876,28.023 C137.876,20.145 144.287,13.735 152.164,13.735 C160.043,13.735 166.455,20.145 166.455,28.023 C166.455,33.08 163.806,37.522 159.83,40.062 C164.765,41.278 169.511,44.203 172.399,51.028 L185.194,78.825 C185.8,79.8 186.12,80.922 186.12,82.08 C186.12,85.49 183.344,88.266 179.932,88.266 C177.655,88.266 175.59,87.037 174.504,85.047 C174.453,84.972 174.409,84.894 174.373,84.81 L168.884,72.286 L168.884,81.365 C168.884,82.899 167.961,84.216 166.645,84.805 L166.645,117.062 C171.86,117.732 176.839,118.452 181.801,119.261 C182.637,119.396 183.205,120.185 183.068,121.02 C182.945,121.773 182.294,122.308 181.556,122.308 C181.474,122.308 181.392,122.301 181.309,122.287 C176.505,121.504 171.683,120.806 166.645,120.154 L166.645,146.573 C166.645,150.342 163.578,153.407 159.81,153.407 C157.171,153.407 154.904,151.888 153.766,149.693 C153.717,149.624 153.663,149.56 153.625,149.481 C153.597,149.421 153.578,149.359 153.551,149.298 C153.527,149.243 153.506,149.186 153.483,149.13 C153.332,148.756 153.209,148.374 153.127,147.984 C153.119,147.946 153.115,147.908 153.108,147.871 C153.026,147.446 152.977,147.014 152.977,146.573 L152.975,118.583 C152.367,118.522 151.753,118.462 151.137,118.403 L151.137,146.581 C151.126,150.35 148.066,153.407 144.303,153.407 C140.535,153.407 137.469,150.342 137.469,146.573 L137.467,117.283 C127.311,116.592 117.124,116.228 107.128,116.197 L106.723,122.056 C106.725,123.24 106.174,124.319 105.316,125.075 L107.221,163.805 C107.263,164.652 106.611,165.37 105.766,165.412 L105.689,165.415 C104.876,165.415 104.199,164.777 104.159,163.956 L102.298,126.144 L69.243,126.069 L67.663,154.137 C67.616,154.954 66.94,155.585 66.133,155.585 C66.104,155.585 66.074,155.584 66.046,155.582 C65.199,155.534 64.553,154.81 64.6,153.965 L66.202,125.513 C65.012,124.822 64.202,123.548 64.202,122.076 L64.202,118.048 C52.657,119.07 41.184,120.488 30.077,122.293 C29.994,122.308 29.91,122.314 29.83,122.314 C29.09,122.314 28.44,121.779 28.318,121.026 C28.181,120.191 28.749,119.403 29.585,119.267 C40.853,117.436 52.494,115.998 64.202,114.969 L64.202,93.967 L60.651,97.093 C60.648,97.096 60.643,97.097 60.639,97.1 L60.632,97.11 C58.794,98.672 56.455,99.533 54.042,99.533 C51.915,99.533 49.915,98.865 48.254,97.715 C48.191,97.731 48.137,97.766 48.07,97.774 L0,103.127 L0,7.12 L115.259,0 Z M163.577,140.396 L156.044,140.396 L156.044,146.573 C156.044,146.841 156.076,147.103 156.13,147.361 C156.149,147.45 156.185,147.532 156.21,147.619 C156.258,147.783 156.306,147.946 156.376,148.103 C156.964,149.418 158.279,150.339 159.81,150.339 C161.887,150.339 163.577,148.65 163.577,146.573 L163.577,140.396 Z M148.069,140.396 L140.536,140.396 L140.537,146.573 C140.537,148.65 142.227,150.339 144.303,150.339 C146.38,150.339 148.069,148.65 148.069,146.573 L148.069,140.396 Z M163.577,85.138 L140.533,85.138 L140.536,137.329 L148.069,137.329 L148.07,91.849 C148.07,89.651 149.858,87.862 152.056,87.862 C154.254,87.862 156.043,89.651 156.043,91.849 L156.044,137.329 L163.577,137.329 L163.577,85.138 Z M46.551,56.783 C42.633,56.783 39.447,59.969 39.447,63.887 C39.447,64.416 39.508,64.954 39.63,65.484 L47.297,91.6 C48.262,94.511 50.973,96.465 54.042,96.465 C55.726,96.465 57.361,95.865 58.643,94.775 L72.823,82.292 C73.46,81.735 74.427,81.792 74.987,82.43 C75.547,83.066 75.484,84.034 74.849,84.594 L67.27,91.266 L67.27,122.076 C67.27,122.585 67.682,122.998 68.19,122.998 L102.534,123.077 C103.155,123.077 103.659,122.572 103.659,121.951 L104.245,113.467 L106.326,83.338 C106.384,82.493 107.124,81.86 107.961,81.913 C108.806,81.972 109.444,82.704 109.386,83.549 L107.577,109.705 L114.846,102.848 C115.512,102.123 116.129,101.512 116.651,100.993 C117.781,99.873 118.297,99.361 118.747,98.301 C119.387,96.799 119.231,95.908 118.723,94.236 L112.279,71.928 C108.733178,62.9405778 101.45934,62.0908978 99.0394968,62.0669085 L98.8586975,62.0665967 C98.5178933,62.0688711 98.3037333,62.0869333 98.25,62.092 C98.225,62.093 98.203,62.083 98.178,62.083 C98.15,62.085 98.127,62.099 98.099,62.099 L82.666,62.098125 L82.595,62.098 C77.609,62.098 73.482,65.926 73.44,65.965 L53.793,84.556 C53.497,84.838 53.119,84.977 52.74,84.977 C52.333,84.977 51.927,84.816 51.626,84.497 C51.044,83.882 51.07,82.912 51.686,82.33 L57.924,76.427 L53.399,61.995 C52.527,58.909 49.716,56.783 46.551,56.783 Z M152.056,90.93 C151.55,90.93 151.138,91.342 151.138,91.849 L151.137,115.321 C151.754,115.38 152.365,115.441 152.974,115.502 L152.973,95.041 C152.973,95.036 152.975,95.032 152.975,95.028 L152.975,91.849 C152.975,91.342 152.564,90.93 152.056,90.93 Z M112.192,3.263 L3.068,10.003 L3.068,99.7 L45.582,94.966 C45.094,94.229 44.674,93.435 44.386,92.566 C44.383,92.559 44.385,92.553 44.383,92.546 C44.38,92.537 44.374,92.53 44.371,92.521 L36.664,66.26 C36.468,65.415 36.379,64.646 36.379,63.887 C36.379,61.488 37.219,59.285 38.613,57.544 L25.089,58.501 L16.59,83.222 L21.136,82.737 C22.011,82.654 22.734,83.258 22.823,84.099 C22.913,84.942 22.302,85.697 21.461,85.787 L7.78,87.244 C7.724,87.249 7.669,87.253 7.616,87.253 C6.841,87.253 6.176,86.668 6.093,85.882 C6.003,85.04 6.613,84.284 7.455,84.194 L13.222,83.58 L36.34,16.342 C36.552,15.724 37.133,15.309 37.785,15.306 C38.442,15.306 39.022,15.718 39.237,16.332 L53.081,55.819 C53.123,55.939 53.12,56.06 53.131,56.182 C54.627,57.457 55.78,59.142 56.337,61.12 L60.402,74.082 L71.333,63.737 C71.455,63.621 73.235,61.945 75.988,60.625 C70.271,57.388 66.63,51.326 66.63,44.524 C66.63,34.305 74.945,25.991 85.164,25.991 C95.383,25.991 103.697,34.305 103.697,44.524 C103.697,50.228 101.014,55.565 96.68,59.032 L98.061,59.032 C98.1666176,59.0251029 98.3434252,59.0164044 98.5814947,59.0138229 L98.8003257,59.013293 C101.095139,59.0264449 107.540544,59.6348824 112.192,65.58 L112.192,3.263 Z M134.099,36.218 C132.921,36.218 131.857,36.869 131.32,37.92 L122.574,56.967 C121.699,59.021 122.002,59.898 122.822,60.717 C123.361,61.258 125.292,62.913 127.58,61.819 L135.889,56.053 C136.356,55.726 136.968,55.689 137.474,55.954 C137.979,56.218 138.297,56.741 138.297,57.312 L138.297,81.365 C138.297,81.754 138.613,82.071 139.003,82.071 L165.111,82.071 C165.5,82.071 165.817,81.754 165.817,81.365 L165.817,64.967 C165.817,64.241 166.326,63.615 167.037,63.465 C167.736,63.313 168.464,63.687 168.755,64.351 L177.117,83.433 C177.13,83.454 177.142,83.476 177.154,83.498 C177.69,84.547 178.754,85.198 179.932,85.198 C181.652,85.198 183.052,83.8 183.052,82.08 C183.052,81.477 182.882,80.894 182.557,80.392 C182.517,80.331 182.482,80.267 182.451,80.2 L169.593,52.266 C166.634,45.276 161.4,42.313 152.07,42.313 C144.51,42.313 139.739,42.626 137.281,46.95 L134.379,53.036 C134.014,53.8 133.1,54.123 132.335,53.76 C131.57,53.395 131.246,52.48 131.611,51.715 L134.593,45.48 C134.595,45.475 134.595,45.469 134.598,45.464 C134.601,45.458 134.605,45.454 134.608,45.448 L136.723,41.025 C137.048,40.524 137.219,39.941 137.219,39.338 C137.219,37.618 135.819,36.218 134.099,36.218 Z M85.164,29.059 C76.636,29.059 69.698,35.997 69.698,44.524 C69.698,51.26 73.969,57.132 80.346,59.219 C81.121,59.091 81.926,59.019 82.759,59.033 L90.619,59.032 C90.662,59.011 90.692,58.974 90.738,58.956 C96.655,56.668 100.629,50.869 100.629,44.524 C100.629,35.997 93.692,29.059 85.164,29.059 Z M37.805,21.515 L35.701,27.634 C35.736,27.7 35.789,27.751 35.814,27.823 L40.606,41.487 C40.886,42.287 40.465,43.162 39.667,43.442 C39.499,43.5 39.327,43.529 39.159,43.529 C38.526,43.529 37.934,43.135 37.712,42.503 L34.115,32.246 L26.172,55.349 L41.719,54.249 L40.149,49.589 C39.878,48.787 40.31,47.917 41.112,47.646 C41.915,47.377 42.784,47.806 43.055,48.61 L44.828,53.873 C45.389,53.776 45.963,53.715 46.551,53.715 C47.476,53.715 48.369,53.872 49.233,54.111 L37.805,21.515 Z M152.164,16.803 C145.977,16.803 140.944,21.835 140.944,28.023 C140.944,34.211 145.977,39.245 152.164,39.245 C158.353,39.245 163.387,34.211 163.387,28.023 C163.387,21.835 158.353,16.803 152.164,16.803 Z"></path></clipPath></defs><g transform="translate(107.86630000000001 192.7312)"><g clip-path="url(#i0)"><polygon points="0,0 13.001,0 13.001,22.876 0,22.876 0,0" stroke="none" fill="#FFFFFF"></polygon></g></g><g transform="translate(26.939999999999998 52.4456)"><g clip-path="url(#i1)"><polygon points="0,0 186.12,0 186.12,165.415 0,165.415 0,0" stroke="none" fill="#FFFFFF"></polygon></g></g></svg>